<svg width="1335" height="2476" xmlns="http://www.w3.org/2000/svg" xmlns:xlink="http://www.w3.org/1999/xlink" overflow="hidden"><defs><clipPath id="clip0"><rect x="1532" y="0" width="1335" height="2476"/></clipPath></defs><g clip-path="url(#clip0)" transform="translate(-1532 0)"><path d="M2866.97 1042.98 2390.19 30.992C2390.19 30.992 2384.93 25.689 2379.2 25.222 2379.2 25.222 2375.22 34.192 2374.3 43.1003 2368.95 94.9519 2375.36 98.8044 2359.93 121.396 2351.68 133.475 2338.36 151.745 2338.36 154.966 2338.37 164.762 2343.8 163.794 2353.36 154.677 2358.23 150.037 2367.81 146.233 2373.16 144.213 2381.76 140.964 2386.79 143.97 2391.95 147.702 2396.57 151.037 2398.39 158.15 2400.18 162.67 2401.98 167.189 2430.54 279.157 2465.17 411.99 2521.01 626.186 2528.69 641.417 2526.71 658.823 2526.71 658.823 2529.13 686.361 2524.05 696.604 2515.81 713.208 2483.79 739.773 2483.79 739.773 2443.99 777.839 2443.91 771.639 2446.81 782.51 2449.48 792.504 2449.28 791.661 2459.41 790.812 2465.53 790.299 2474.99 789.677 2478.66 786.235 2488.99 776.539 2514.33 762.108 2528.04 763.771 2557.65 767.364 2555.23 771.788 2588.21 899.073 2602.6 954.589 2609.13 987.15 2613.87 1007.19 2620.07 1033.34 2615.57 1042.52 2597.98 1060.65 2572.39 1087.01 2528.81 1099.71 2482.04 1092.16 2455.85 1087.94 2439.1 1074.14 2436.16 1064.86 2433.09 1055.22 2432.25 1038.72 2437.19 1027.16 2445.18 1008.43 2462.25 992.243 2480.13 983.702 2490.81 978.6 2500.19 975.004 2499.55 972.714 2497.28 964.671 2425.23 987.612 2398.58 1009.81 2378.23 1028.76 2361.05 1047.6 2347.68 1071.15L2348.99 1051.54C2350.25 1032.71 2349.57 1032.33 2359.63 1016.45 2362.34 1012.18 2370.62 1005.65 2369.69 1004.27 2368.27 1002.13 2356.76 1001.62 2346.76 1006.46 2314.06 1023.42 2309.77 1048.63 2291.49 1072.79 2290.58 1072.79 2286.38 1063.89 2282.16 1053.01 2270.55 1023.09 2251.85 998.373 2205.9 949.777 2161.89 903.228 2153.35 888.054 2153.38 861.487 2153.4 847.795 2164.43 823.278 2177.32 809.016 2193.34 791.301 2205.25 789.217 2239.19 772.872 2319.48 734.208 2347.67 709.631 2363.66 667.169 2372.64 643.304 2372 624.865 2365.5 592.561 2353.75 534.237 2299.48 490.564 2224.89 479.408L2209.23 477.067C2215.81 462.8 2227.39 452.3 2238.2 443.462 2243.1 439.372 2257.06 431.206 2269.42 424.989 2319.82 399.647 2320.24 398.782 2325.73 373.511 2327.29 366.371 2329.37 362.36 2326.91 362.19 2324.1 361.996 2317.69 366.898 2312.69 375.009 2305.5 386.687 2301.55 388.37 2276.44 395.531 2235.81 407.119 2203.28 413.157 2161.62 415.368 2155.57 415.368 2153.4 413.618 2153.4 408.741 2153.4 405.096 2146.48 383.278 2138.03 360.256 2118.8 307.862 2116.54 291.032 2124.87 268.68 2132.11 249.247 2136 247.685 2130.59 247.849 2122.84 248.083 2099.21 273.657 2095.03 291.244 2091.65 305.474 2091.81 317.467 2095.98 358.968L2101.05 409.401 2080.76 445.487C2061.38 479.945 2060.55 482.331 2062.45 498.352 2064.27 513.675 2063.27 517.254 2050.93 539.599 2037.8 563.376 2037.47 564.729 2039.24 587.51 2041.5 616.538 2042.76 619.787 2054.54 626.741 2061.88 631.075 2066.66 634.804 2069.07 633.648 2070.91 632.766 2071.19 628.179 2071.19 623.921 2071.19 607.708 2083.89 587.846 2111.2 561.367 2128.71 544.386 2145.36 531.627 2157.32 526.024 2167.61 521.202 2176.92 515.829 2178 514.083 2228.3 505.508 2299.96 548.233 2321.56 588.949 2337.15 620.989 2330.13 654.107 2294.35 685.906 2270.37 707.224 2251.06 716.682 2190.67 737.057 2110.57 763.627 2061.06 815.855 2058.86 878.854 2057.11 916.225 2056.91 915.447 2095.57 1021.84 2100.17 1034.5 2103.97 1049.15 2104.01 1054.4 2104.03 1057.85 2103.01 1059.87 2103.01 1059.87 2103.01 1059.87 2098.53 1055.39 2091.5 1044.54 2084.59 1033.87 2073.34 1024.11 2067.05 1018.6 2054.56 1007.67 2035.61 995.799 2032.28 999.123 2029.21 1002.2 2041.36 1014.46 2044.88 1019.25 2054.59 1032.41 2052.8 1048.03 2052.59 1060.47 2052.49 1066.08 2051.52 1069.51 2051.52 1069.51 2035.75 1048.79 2021.47 1021.34 2000.36 1003.62 1977.5 985.399 1927.78 972.034 1907.31 971.916 1893.84 971.839 1901.95 976.903 1921.77 986.377 1954.07 1001.98 1974.5 1043.26 1963.57 1067.11 1957.84 1077.42 1944.82 1083.85 1917.13 1088.47 1860.39 1097.93 1803.98 1071.1 1790.53 1031.66 1786 1018.36 1786.68 1014.66 1814.71 899.93 1830.57 835.004 1844.62 778.592 1845.93 774.569 1849.39 763.942 1867.1 761.5 1889.5 768.559 1903.83 773.074 1912.49 779.161 1932.25 798.597 1945.88 812.004 1958.92 824.822 1960.47 824.822 1960.47 824.822 1963.3 814.582 1957.64 790.101 1952.76 768.94 1951.16 772.149 1911.72 734.71 1896.21 719.983 1887.61 711.819 1881.73 705.271 1872.78 695.299 1870.3 692.879 1870.4 683.087 1870.46 677.734 1871.53 661.821 1872.67 656.598 1908 494.576 1945.18 326.859 1999.56 153.73 2002.92 148.16 2011.46 143.099 2016.35 143.768 2030.23 145.669 2054.36 187.924 2059.4 187.061 2062.55 158.148 2035.66 120.372 2023.51 102.101 2023.51 102.101 2028.04 6.56788 2013.6 0.22628L1532.97 1049.34C1677.97 1385.39 1878.74 1749.92 2008.66 2063.74 2010.41 2068.33 2014.09 2072.08 2016.85 2072.08 2021.29 2072.08 2021.87 2049.63 2021.87 1877.04L2021.87 1681.99 2001.98 1676.47C1972.8 1668.36 1960.44 1661.75 1920.1 1614.71 1884.75 1573.5 1884.05 1568.84 1882.04 1550.37 1880.65 1537.53 1882.3 1516.93 1887.14 1486.97 1897 1425.92 1900.53 1371.85 1896.3 1346.27 1894.42 1334.87 1894.75 1323.68 1894.75 1323.68 1897.58 1322.09 1938.47 1337.83 1951.02 1346.43 1986.01 1364.63 2000.72 1395.23 2014.32 1426.37 2019.43 1438.05 2030.63 1459.15 2030.63 1459.15 2028.57 1419.09 2037.11 1355.19 2007.07 1328.92L2023.11 1335.7C2088.49 1373.07 2182.69 1457.65 2200.95 1533 2209.63 1570.52 2222.46 1647.52 2222.44 1661.99 2222.42 1671.24 2224.24 1681.28 2220.26 1692.27 2213.91 1709.74 2197.75 1737.37 2165.54 1794.45 2124.57 1867.07 2113.29 1884.28 2111.73 1897.46 2109.92 1912.72 2111.52 1917.73 2134.88 1969.86 2148.68 2000.66 2159.98 2029.85 2159.98 2034.73 2159.98 2043.67 2128.34 2093.61 2100.45 2128.68 2081.69 2152.28 2073.42 2171.48 2076.28 2184.83 2078.29 2194.21 2096.31 2238.23 2104.58 2253.95 2104.58 2253.95 2157.57 2376.05 2190.08 2446.36 2195.15 2457.33 2202.48 2474.58 2207.9 2475.23 2215.15 2475.15 2220.72 2455.97 2225.57 2444.37 2243 2402.7 2286.73 2307.83 2312.28 2253.35 2320.14 2236.67 2322.24 2231.73 2319.81 2224.82 2315.11 2211.47 2306.29 2212.26 2286.9 2228.82 2266.05 2246.63 2221.27 2276.73 2202.53 2283.34 2182.76 2290.31 2173.87 2286.85 2156.66 2274.23 2140.69 2262.51 2122.77 2233.22 2109.12 2196.52 2103.77 2182.12 2103.76 2180.51 2109.03 2168.58 2115.42 2152.68 2124.52 2140.16 2133.98 2128.08 2140.54 2121.73 2154.9 2101.98 2165.02 2088.67 2173.84 2077.05 2188.95 2057.17 2190.88 2053.38 2196.77 2041.78 2193.93 2023.48 2179.95 1967.57 2164.86 1907.17 2167.53 1899.29 2170.05 1885.77 2188.07 1844.12 2216.93 1811.04 2243.17 1770.29L2283.72 1707.31C2300 1684.65 2301.67 1661.48 2289.13 1569.68 2266.8 1490.88 2318.81 1369.75 2378.35 1349.93 2383.82 1373.44 2365.8 1446.19 2377.71 1456.23 2411.62 1392.21 2420.19 1351.07 2492.15 1327.53 2513.56 1322.08 2532.05 1308.49 2550.49 1300.41 2463.21 1374.65 2541.47 1539.55 2531.45 1551.49 2510.84 1594.55 2477.61 1649.67 2440.25 1666.19 2421.96 1675.03 2406.38 1677.31 2386.87 1682.42L2386.16 1772.68C2385.77 1822.55 2387.78 1865.3 2388.61 1867.68 2390.16 1872.11 2399.45 1875.78 2404.41 1874.1L2444.64 1861.24C2463.43 1857.11 2472.25 1858.14 2488.53 1859.99 2496.4 1860.48 2496.47 1856.49 2499.96 1851.02Z" fill="#0A0A0A" fill-rule="evenodd"/></g></svg>