<?xml version="1.0" encoding="UTF-8"?>
<svg version="1.1" xmlns="http://www.w3.org/2000/svg" width="391" height="372">
<path d="M0 0 C1.29587036 -0.01546875 1.29587036 -0.01546875 2.61791992 -0.03125 C9.32359966 0.06176781 15.89519275 0.95993736 21.3046875 5.19140625 C21.84351563 5.78824219 22.38234375 6.38507812 22.9375 7 C29.91853409 13.51379952 39.62453881 12.79003053 48.6875 12.62109375 C56.83905911 12.17766403 61.38338065 11.54255331 67.0625 5.4375 C74.13476009 0.76025562 80.39358742 -0.35070375 88.75 -0.125 C89.80509766 -0.10695312 90.86019531 -0.08890625 91.94726562 -0.0703125 C108.2666009 0.42936096 125.48143671 5.55716279 137.4375 17.1875 C140.88472811 20.88761357 142.84454848 23.75615971 143.5 28.8125 C142.96696275 33.22909434 141.49615449 35.72845365 138.0625 38.4375 C135.46903151 39.75734436 132.86324762 40.66353595 130.0625 41.4375 C129.46953125 41.62054688 128.8765625 41.80359375 128.265625 41.9921875 C111.6864668 45.34329395 93.74607162 39.95789519 79.0625 32.4375 C78.08410156 31.76074219 77.10570312 31.08398438 76.09765625 30.38671875 C69.02910452 25.8471984 59.45987836 23.80194318 51.0625 23.4375 C50.05058594 23.3859375 49.03867188 23.334375 47.99609375 23.28125 C35.47915349 22.94560021 23.3851478 24.99932317 12.0625 30.4375 C11.46872559 30.71223145 10.87495117 30.98696289 10.26318359 31.27001953 C-1.10178338 36.44009243 -1.10178338 36.44009243 -7.9375 46.4375 C-8.24816406 47.14777344 -8.55882812 47.85804687 -8.87890625 48.58984375 C-11.93224822 56.38065802 -12.00303092 63.47108422 -9.0625 71.3125 C-7.00878985 75.47242993 -5.41779277 77.14996104 -1.0625 78.75 C-0.19753906 79.01683594 0.66742188 79.28367187 1.55859375 79.55859375 C6.7056626 81.36528718 10.05253157 84.85521612 12.9375 89.375 C14.17345795 92.7395522 14.70652204 95.87772039 15.0625 99.4375 C16.2071875 99.80875 16.2071875 99.80875 17.375 100.1875 C21.3806501 101.54534749 25.32880891 103.03027566 29.28125 104.53515625 C41.97438936 108.65329556 56.89674924 107.51789033 69.0625 102.4375 C70.12082031 101.99664062 71.17914063 101.55578125 72.26953125 101.1015625 C75.47417731 99.19222093 76.15337812 98.03609277 77.5 94.625 C80.79441284 87.48537343 84.97213815 84.08288403 92.1875 81.0625 C105.74240791 76.64282334 120.97324779 79.88791338 133.484375 86.0703125 C134.33515625 86.52148438 135.1859375 86.97265625 136.0625 87.4375 C136.89265625 87.86804688 137.7228125 88.29859375 138.578125 88.7421875 C152.57884301 96.53503998 163.07989078 108.16821367 168.0625 123.4375 C170.19236556 130.93462677 169.36277553 138.41326492 166.0625 145.4375 C161.30620396 152.22221641 155.15053166 155.92278029 147.0625 157.4375 C128.20402371 159.29338515 110.9243494 154.39817768 96.19140625 142.32421875 C94.67416086 140.97957743 93.18460061 139.60342254 91.71484375 138.20703125 C78.26517821 125.48207035 62.19714803 120.81114797 43.98071289 121.03295898 C26.69660741 121.57382215 9.48985349 124.9137412 -3.6875 136.8125 C-8.06942249 140.71776298 -12.81011259 143.61086335 -17.9375 146.4375 C-18.618125 146.8190625 -19.29875 147.200625 -20 147.59375 C-31.75889305 153.85251565 -46.61833063 156.56042226 -59.69921875 153.21875 C-67.42622355 150.52171516 -72.9303722 146.70288253 -76.9375 139.4375 C-80.12715788 131.58188989 -79.45659625 123.67474176 -76.62109375 115.765625 C-72.88414146 107.82351758 -68.21770679 101.5307304 -61.9375 95.4375 C-61.33550781 94.82648438 -60.73351562 94.21546875 -60.11328125 93.5859375 C-56.49254394 90.14584435 -52.65685788 87.64824781 -48.33178711 85.20556641 C-41.33233601 81.24335748 -36.43937041 77.96333787 -32.9375 70.4375 C-32.53144531 69.64472656 -32.12539062 68.85195312 -31.70703125 68.03515625 C-28.29218615 60.65769226 -27.81141322 53.58994501 -29.9375 45.75 C-30.2675 44.986875 -30.5975 44.22375 -30.9375 43.4375 C-31.69933594 43.35113281 -32.46117187 43.26476562 -33.24609375 43.17578125 C-40.27479652 42.21931608 -46.20053069 40.77238488 -51.9375 36.4375 C-54.64008432 32.38362352 -54.58353845 29.1969225 -53.9375 24.4375 C-48.29555214 12.92792636 -34.66917623 7.02385863 -23.078125 3.0390625 C-15.37287255 0.8218368 -8.01391136 0.07893396 0 0 Z " fill="#15487A" transform="translate(147.9375,40.5625)"/>
<path d="M0 0 C0.8419693 -0.00428513 1.6839386 -0.00857025 2.55142212 -0.01298523 C4.3282176 -0.01871391 6.10503654 -0.01923959 7.88183594 -0.01489258 C10.58569825 -0.01173726 13.28846064 -0.03519328 15.9921875 -0.06054688 C17.72395696 -0.06282064 19.45572935 -0.063523 21.1875 -0.0625 C21.98876312 -0.07170975 22.79002625 -0.08091949 23.61557007 -0.09040833 C29.97648663 -0.03855827 34.79164761 1.11560122 39.6640625 5.48828125 C40.1796875 6.08640625 40.6953125 6.68453125 41.2265625 7.30078125 C42.37125 5.84671875 42.37125 5.84671875 43.5390625 4.36328125 C45.49405065 1.87991793 46.08306409 1.34861405 49.2265625 0.30078125 C50.868147 0.21339227 52.51307872 0.18311504 54.15698242 0.18725586 C55.15779343 0.18733139 56.15860443 0.18740692 57.18974304 0.18748474 C58.26794815 0.19264603 59.34615326 0.19780731 60.45703125 0.203125 C61.56258865 0.20453995 62.66814606 0.2059549 63.8072052 0.20741272 C67.34285167 0.21301611 70.87843512 0.22556921 74.4140625 0.23828125 C76.80924388 0.24329581 79.20442625 0.24785879 81.59960938 0.25195312 C87.47528197 0.26298664 93.35091773 0.27972809 99.2265625 0.30078125 C98.53125 5.01953125 98.53125 5.01953125 95.7890625 7.55078125 C91.62713323 10.39307441 88.51878051 10.50495526 83.59375 10.6171875 C82.84191437 10.6379686 82.09007874 10.65874969 81.31546021 10.68016052 C78.91092165 10.7456083 76.50627283 10.80451863 74.1015625 10.86328125 C72.47264479 10.90647102 70.84373828 10.95008546 69.21484375 10.99414062 C65.21886335 11.10128476 61.22277191 11.20256558 57.2265625 11.30078125 C57.2265625 13.61078125 57.2265625 15.92078125 57.2265625 18.30078125 C58.62563843 18.33836548 58.62563843 18.33836548 60.05297852 18.37670898 C63.54006166 18.47230193 67.02700438 18.57150584 70.51391602 18.6730957 C72.01810749 18.71619251 73.52233998 18.75788332 75.02661133 18.7980957 C77.19885576 18.85641582 79.37089852 18.91992609 81.54296875 18.984375 C83.49891968 19.03936157 83.49891968 19.03936157 85.49438477 19.09545898 C95.40596481 19.64073529 95.40596481 19.64073529 99.1015625 22.61328125 C102.44012697 26.83558337 102.402883 30.42721719 102.4765625 35.73828125 C102.51523437 37.40697266 102.51523437 37.40697266 102.5546875 39.109375 C102.19176055 42.63927164 101.31158642 44.46453548 99.2265625 47.30078125 C92.70438323 51.95948073 82.17215693 50.42944181 74.63671875 50.3984375 C73.33705673 50.39702255 72.03739471 50.3956076 70.698349 50.39414978 C67.26412997 50.39035459 63.82995408 50.38055033 60.39575195 50.3694458 C56.88298119 50.3591668 53.37020338 50.35463833 49.85742188 50.34960938 C42.98045117 50.33892501 36.10350891 50.32188513 29.2265625 50.30078125 C29.20468872 48.77940552 29.20468872 48.77940552 29.18237305 47.22729492 C29.12439997 43.46424096 29.04716791 39.70178604 28.96411133 35.93920898 C28.93085714 34.31072716 28.90282666 32.68212994 28.88012695 31.0534668 C28.84658893 28.71222764 28.79427665 26.37204639 28.73828125 24.03125 C28.72869637 22.93891304 28.72869637 22.93891304 28.71891785 21.82450867 C28.63730515 19.01884654 28.51498001 16.80491548 27.10498047 14.34033203 C24.27276218 12.77293075 21.87978617 12.92941103 18.66015625 12.9375 C16.7255957 12.9384668 16.7255957 12.9384668 14.75195312 12.93945312 C13.74612183 12.95190063 13.74612183 12.95190063 12.7199707 12.96459961 C10.66773362 12.98823896 8.61679217 12.98515273 6.56445312 12.97851562 C-0.20683054 12.47291881 -0.20683054 12.47291881 -5.7734375 15.30078125 C-6.01886891 17.94865914 -6.14693136 20.49981948 -6.1875 23.15234375 C-6.20686615 23.92637543 -6.2262323 24.7004071 -6.2461853 25.49789429 C-6.3060358 27.973744 -6.35238761 30.44964008 -6.3984375 32.92578125 C-6.43661232 34.60288502 -6.47566375 36.27996909 -6.515625 37.95703125 C-6.61174159 42.07145478 -6.69575189 46.18597011 -6.7734375 50.30078125 C-20.79967314 51.37118227 -34.77482147 51.41888366 -48.8359375 51.36328125 C-51.07096253 51.35825216 -53.30598867 51.35369177 -55.54101562 51.34960938 C-60.95184754 51.33872476 -66.36263715 51.32210017 -71.7734375 51.30078125 C-71.7734375 50.64078125 -71.7734375 49.98078125 -71.7734375 49.30078125 C-73.413125 49.36265625 -73.413125 49.36265625 -75.0859375 49.42578125 C-78.7734375 49.30078125 -78.7734375 49.30078125 -81.7734375 47.30078125 C-81.7734375 46.64078125 -81.7734375 45.98078125 -81.7734375 45.30078125 C-82.4334375 45.30078125 -83.0934375 45.30078125 -83.7734375 45.30078125 C-84.7634375 42.66078125 -85.7534375 40.02078125 -86.7734375 37.30078125 C-87.3303125 38.53828125 -87.8871875 39.77578125 -88.4609375 41.05078125 C-90.84479618 45.78504095 -93.44222585 48.33208443 -98.39501953 50.39013672 C-102.51894392 51.50173073 -106.20655132 51.55241144 -110.453125 51.49609375 C-111.26588898 51.49326385 -112.07865295 51.49043396 -112.91604614 51.48751831 C-115.49366425 51.47638744 -118.07092569 51.4512964 -120.6484375 51.42578125 C-122.40364079 51.41574226 -124.15884956 51.40661802 -125.9140625 51.3984375 C-130.20065676 51.3764714 -134.4869868 51.34199103 -138.7734375 51.30078125 C-138.75095947 52.27225098 -138.72848145 53.2437207 -138.70532227 54.24462891 C-138.68783936 55.5135498 -138.67035645 56.7824707 -138.65234375 58.08984375 C-138.62986572 59.35006348 -138.6073877 60.6102832 -138.58422852 61.90869141 C-138.7734375 65.30078125 -138.7734375 65.30078125 -140.7109375 68.67578125 C-143.86178732 70.34766075 -145.02683048 70.48338486 -148.46484375 70.40234375 C-149.67636108 70.38034912 -149.67636108 70.38034912 -150.91235352 70.35791016 C-151.52651123 70.33905762 -152.14066895 70.32020508 -152.7734375 70.30078125 C-152.84971697 62.61448549 -152.90213385 54.92828795 -152.93823242 47.24169922 C-152.95328683 44.62870638 -152.9737348 42.01573867 -152.99975586 39.40283203 C-153.03628528 35.6395852 -153.0531979 31.8766735 -153.06640625 28.11328125 C-153.08189011 26.95151367 -153.09737396 25.78974609 -153.11332703 24.59277344 C-153.11485876 17.15330594 -152.92165425 10.53408494 -147.4609375 4.92578125 C-141.92383197 1.57776395 -136.74024259 0.99229843 -130.375 1 C-129.58120941 0.99571487 -128.78741882 0.99142975 -127.96957397 0.98701477 C-126.29710846 0.9812951 -124.62461807 0.98075371 -122.95214844 0.98510742 C-120.41297298 0.98826318 -117.87496889 0.96479423 -115.3359375 0.93945312 C-113.70312645 0.93717924 -112.07031231 0.93647705 -110.4375 0.9375 C-109.68828278 0.92829025 -108.93906555 0.91908051 -108.16714478 0.90959167 C-102.51505175 0.95843439 -96.5470826 1.7362797 -92.24136353 5.71733093 C-90.21306354 8.10890887 -88.51150742 10.69367638 -86.7734375 13.30078125 C-86.5465625 12.57890625 -86.3196875 11.85703125 -86.0859375 11.11328125 C-84.00440053 6.65284489 -80.82027994 3.99867621 -76.7734375 1.30078125 C-74.6552887 1.04681396 -74.6552887 1.04681396 -72.18188477 1.04199219 C-70.79012779 1.03253571 -70.79012779 1.03253571 -69.37025452 1.02288818 C-68.37021896 1.02693665 -67.37018341 1.03098511 -66.33984375 1.03515625 C-65.31036118 1.0332428 -64.2808786 1.03132935 -63.22019958 1.02935791 C-61.04222367 1.02799646 -58.86423963 1.03169008 -56.6862793 1.04003906 C-53.3525161 1.05072809 -50.01929314 1.04014786 -46.68554688 1.02734375 C-44.57031131 1.02866557 -42.45507608 1.03122841 -40.33984375 1.03515625 C-39.34183243 1.03110779 -38.34382111 1.02705933 -37.31556702 1.02288818 C-35.9190818 1.03234467 -35.9190818 1.03234467 -34.49438477 1.04199219 C-33.26885643 1.04437897 -33.26885643 1.04437897 -32.01856995 1.04681396 C-29.54999411 1.32605696 -27.91203803 2.06671487 -25.7734375 3.30078125 C-25.7734375 3.96078125 -25.7734375 4.62078125 -25.7734375 5.30078125 C-25.1134375 5.30078125 -24.4534375 5.30078125 -23.7734375 5.30078125 C-22.7834375 7.28078125 -21.7934375 9.26078125 -20.7734375 11.30078125 C-20.1753125 10.37265625 -19.5771875 9.44453125 -18.9609375 8.48828125 C-13.7861636 0.94789642 -8.80453242 -0.00996449 0 0 Z M-71.19067383 13.00878906 C-73.07649803 15.73964169 -73.25328529 17.14121042 -73.19921875 20.43359375 C-73.19083984 21.40425781 -73.18246094 22.37492187 -73.17382812 23.375 C-73.14482422 24.38175781 -73.11582031 25.38851563 -73.0859375 26.42578125 C-73.07626953 27.44027344 -73.06660156 28.45476562 -73.05664062 29.5 C-73.17256618 34.56508841 -73.17256618 34.56508841 -71.7734375 39.30078125 C-67.8458224 40.60998628 -64.04773119 40.53540993 -59.94921875 40.6171875 C-59.08781784 40.6379686 -58.22641693 40.65874969 -57.33891296 40.68016052 C-54.58800206 40.74553034 -51.83699594 40.80448257 -49.0859375 40.86328125 C-47.22069329 40.90647842 -45.3554587 40.9500931 -43.49023438 40.99414062 C-38.91806626 41.10119888 -34.3458024 41.20250179 -29.7734375 41.30078125 C-29.7734375 41.96078125 -29.7734375 42.62078125 -29.7734375 43.30078125 C-29.1134375 43.30078125 -28.4534375 43.30078125 -27.7734375 43.30078125 C-27.2784375 45.28078125 -27.2784375 45.28078125 -26.7734375 47.30078125 C-25.1234375 47.30078125 -23.4734375 47.30078125 -21.7734375 47.30078125 C-21.7734375 42.02078125 -21.7734375 36.74078125 -21.7734375 31.30078125 C-36.2934375 31.30078125 -50.8134375 31.30078125 -65.7734375 31.30078125 C-65.1134375 28.66078125 -64.4534375 26.02078125 -63.7734375 23.30078125 C-63.1134375 23.30078125 -62.4534375 23.30078125 -61.7734375 23.30078125 C-61.7734375 22.64078125 -61.7734375 21.98078125 -61.7734375 21.30078125 C-61.1134375 21.30078125 -60.4534375 21.30078125 -59.7734375 21.30078125 C-59.7734375 20.64078125 -59.7734375 19.98078125 -59.7734375 19.30078125 C-51.8534375 19.30078125 -43.9334375 19.30078125 -35.7734375 19.30078125 C-35.7734375 17.32078125 -35.7734375 15.34078125 -35.7734375 13.30078125 C-39.20703558 9.86718317 -44.13399991 10.96253627 -48.7734375 10.9296875 C-49.49144531 10.92984863 -50.20945312 10.93000977 -50.94921875 10.93017578 C-53.13361039 10.92581088 -55.31596725 10.88952424 -57.5 10.8515625 C-58.8906181 10.84569255 -60.28124579 10.84172435 -61.671875 10.83984375 C-62.93692871 10.83162598 -64.20198242 10.8234082 -65.50537109 10.81494141 C-68.81164905 11.05554656 -68.81164905 11.05554656 -71.19067383 13.00878906 Z M-137.16113281 15.0065918 C-139.09951294 17.76476231 -139.24179215 19.16153144 -139.1640625 22.50390625 C-139.15117187 23.48359375 -139.13828125 24.46328125 -139.125 25.47265625 C-139.09148437 26.4884375 -139.05796875 27.50421875 -139.0234375 28.55078125 C-139.00539063 29.58203125 -138.98734375 30.61328125 -138.96875 31.67578125 C-138.92166462 34.21839189 -138.855918 36.75911287 -138.7734375 39.30078125 C-134.14700824 39.37504481 -129.52092741 39.42943617 -124.89404297 39.46557617 C-123.32073928 39.48064489 -121.74747748 39.5011037 -120.17431641 39.52709961 C-117.91037654 39.56356863 -115.64699293 39.58052633 -113.3828125 39.59375 C-112.68162292 39.60923386 -111.98043335 39.62471771 -111.25799561 39.64067078 C-108.23372127 39.64170848 -106.04903118 39.43992796 -103.33105469 38.06762695 C-101.36269312 35.83486321 -101.25877313 34.69052368 -101.2421875 31.73828125 C-101.23703125 30.85914063 -101.231875 29.98 -101.2265625 29.07421875 C-101.24203125 28.15898437 -101.2575 27.24375 -101.2734375 26.30078125 C-101.25796875 25.38554687 -101.2425 24.4703125 -101.2265625 23.52734375 C-101.23429687 22.20863281 -101.23429687 22.20863281 -101.2421875 20.86328125 C-101.24669922 20.06019531 -101.25121094 19.25710938 -101.25585938 18.4296875 C-101.6200596 16.18194615 -101.6200596 16.18194615 -103.39453125 14.54272461 C-107.97447546 12.15169668 -113.18462934 12.82211267 -118.24560547 12.85473633 C-120.26763383 12.86325679 -122.28684357 12.83445485 -124.30859375 12.80273438 C-125.58605469 12.80337891 -126.86351562 12.80402344 -128.1796875 12.8046875 C-129.34822266 12.80283447 -130.51675781 12.80098145 -131.72070312 12.79907227 C-134.83648838 13.08036355 -134.83648838 13.08036355 -137.16113281 15.0065918 Z M43.2265625 24.30078125 C43.2265625 29.25078125 43.2265625 34.20078125 43.2265625 39.30078125 C49.31378996 39.35012279 55.4009017 39.38647292 61.48828125 39.41064453 C63.56024197 39.42071837 65.63218843 39.43437791 67.70410156 39.45166016 C70.67777014 39.47584789 73.6512512 39.48725033 76.625 39.49609375 C77.55524994 39.50641632 78.48549988 39.51673889 79.44393921 39.52737427 C80.73505112 39.52760086 80.73505112 39.52760086 82.05224609 39.52783203 C83.19141983 39.53449387 83.19141983 39.53449387 84.35360718 39.54129028 C86.47158549 39.4632828 86.47158549 39.4632828 88.2265625 37.30078125 C88.47660214 33.75899527 88.47660214 33.75899527 88.2265625 30.30078125 C86.19584444 28.27006319 82.00457849 29.11571278 79.2109375 29.08984375 C77.55077158 29.06176392 75.89061547 29.03309938 74.23046875 29.00390625 C71.60596099 28.96270673 68.98163406 28.9258323 66.35693359 28.89941406 C63.82871305 28.87174152 61.30133269 28.82585701 58.7734375 28.77734375 C57.60285797 28.77246445 57.60285797 28.77246445 56.40863037 28.76748657 C51.81717465 28.66430145 48.93843986 28.02184221 45.2265625 25.30078125 C44.5665625 24.97078125 43.9065625 24.64078125 43.2265625 24.30078125 Z " fill="#194B7B" transform="translate(247.7734375,290.69921875)"/>
<path d="M0 0 C12.15846375 -0.64877178 21.59629308 -1.10497058 32 6 C32 6.66 32 7.32 32 8 C32.61875 8.144375 33.2375 8.28875 33.875 8.4375 C36 9 36 9 38 10 C38 10.66 38 11.32 38 12 C38.55171875 12.226875 39.1034375 12.45375 39.671875 12.6875 C42.68692417 14.38725926 44.81230369 16.54804816 47.25 19 C48.14203125 19.886875 49.0340625 20.77375 49.953125 21.6875 C52 24 52 24 52 26 C52.66 26 53.32 26 54 26 C68.51175863 50.44456429 68.51175863 50.44456429 67 64 C66.18191011 66.78721322 65.14801502 69.32129828 64 72 C63.34 72 62.68 72 62 72 C61.7525 72.61875 61.505 73.2375 61.25 73.875 C59.71549859 76.4836524 58.80765435 76.92523181 56 78 C48.66537106 78.73825677 42.49968508 78.50982994 36 75 C34.329375 74.3503125 34.329375 74.3503125 32.625 73.6875 C28.12688493 71.59354988 23.8578609 69.14052622 20 66 C20 65.34 20 64.68 20 64 C19.34 64 18.68 64 18 64 C18 63.34 18 62.68 18 62 C17.071875 61.62875 17.071875 61.62875 16.125 61.25 C13.59641373 59.76259631 13.28160996 58.56321991 12 56 C10.06669397 54.90833725 10.06669397 54.90833725 8 54 C7 53 6 52 5 51 C4.01 50.67 3.02 50.34 2 50 C2 49.34 2 48.68 2 48 C1.01 47.6596875 1.01 47.6596875 0 47.3125 C-2.42959832 46.24955073 -4.21376498 45.21756352 -6.375 43.75 C-17.53552162 36.76022528 -27.8056776 34.0392389 -40.79125977 34.38256836 C-42.96150678 34.43811444 -45.12793618 34.44408958 -47.29882812 34.44335938 C-54.47316232 34.49713231 -60.48783755 34.86616073 -67 38 C-68.14210938 38.46277344 -69.28421875 38.92554688 -70.4609375 39.40234375 C-74.62042221 41.28008022 -78.61365386 43.39027811 -82.625 45.5625 C-84.09503471 46.35791214 -85.56635754 47.15094902 -87.0390625 47.94140625 C-87.68053223 48.28888916 -88.32200195 48.63637207 -88.98291016 48.99438477 C-96.08560503 52.53541602 -102.33507972 52.36719053 -110.1875 52.375 C-111.46431641 52.39949219 -112.74113281 52.42398438 -114.05664062 52.44921875 C-121.91602469 52.47346364 -128.00387008 51.63931094 -135 48 C-135.92554688 47.53078125 -136.85109375 47.0615625 -137.8046875 46.578125 C-143.01755249 43.23402293 -146.44157237 40.13118237 -148 34 C-148.95555869 27.18245628 -148.79343185 21.39652423 -144.60546875 15.7421875 C-137.53127023 8.06556332 -128.66814286 3.91048803 -118.25 3.46875 C-115.83333373 3.45824276 -113.41649053 3.46901935 -111 3.5 C-109.19015625 3.47679688 -109.19015625 3.47679688 -107.34375 3.453125 C-97.65365914 3.49525583 -90.02103397 5.5332946 -82 11.0625 C-80.9171875 11.79146484 -80.9171875 11.79146484 -79.8125 12.53515625 C-78 14 -78 14 -76 17 C-63.29605578 23.39750596 -48.8943205 23.62890082 -35 23 C-34.01 22.505 -34.01 22.505 -33 22 C-30.66922657 21.69208131 -28.33758104 21.49104726 -25.99609375 21.28125 C-24.00416869 21.20467988 -24.00416869 21.20467988 -23 20 C-20.66702567 19.95907063 -18.33294775 19.95758277 -16 20 C-16 19.34 -16 18.68 -16 18 C-14.02 17.34 -12.04 16.68 -10 16 C-10 15.34 -10 14.68 -10 14 C-9.34 14 -8.68 14 -8 14 C-7.34 11.36 -6.68 8.72 -6 6 C-5.34 6 -4.68 6 -4 6 C-3.34 4.68 -2.68 3.36 -2 2 C-1.34 2 -0.68 2 0 2 C0 1.34 0 0.68 0 0 Z " fill="#F2C906" transform="translate(304,74)"/>
<path d="M0 0 C9.72197667 8.15343857 16.28605437 19.23848381 17.4296875 31.98681641 C18.03261587 41.3472793 17.56435815 49.51353192 13.25390625 58.02734375 C12.81820312 58.8884375 12.3825 59.74953125 11.93359375 60.63671875 C5.72432916 71.83375325 -3.56372893 79.91348627 -15.80859375 83.90234375 C-28.75508511 86.96042587 -42.36614627 85.87954929 -54.23046875 79.7421875 C-65.60100383 72.70421837 -72.50471414 63.30593211 -76.8828125 50.7734375 C-79.38240197 39.92680266 -79.44180479 26.79141982 -73.74609375 17.02734375 C-73.31039062 16.19203125 -72.8746875 15.35671875 -72.42578125 14.49609375 C-65.8695928 2.6018065 -56.42304637 -4.71794627 -43.49609375 -8.84765625 C-27.67082891 -12.68477211 -13.0664937 -9.38631482 0 0 Z " fill="#14487A" transform="translate(223.74609375,186.97265625)"/>
<path d="M0 0 C4.90350158 3.46833038 6.97919732 7.09463399 8.5625 12.8125 C9.63225819 27.63897321 2.99339739 40.76396801 -6.0546875 52.06640625 C-16.06402087 63.60175274 -29.53005141 76.54818649 -45.671875 78.015625 C-51.8180073 78.1301492 -57.22100207 77.87026167 -61.94140625 73.3828125 C-66.35156327 68.33186343 -66.73303382 64.27762404 -66.6484375 57.83984375 C-65.28083206 38.21217314 -51.63117618 22.26108951 -37.4375 9.8125 C-26.98632312 1.67081395 -13.22383898 -4.56823528 0 0 Z " fill="#15487A" transform="translate(85.4375,74.1875)"/>
<path d="M0 0 C0.79379059 -0.00428513 1.58758118 -0.00857025 2.40542603 -0.01298523 C4.07789154 -0.0187049 5.75038193 -0.01924629 7.42285156 -0.01489258 C9.96202702 -0.01173682 12.50003111 -0.03520577 15.0390625 -0.06054688 C16.67187355 -0.06282076 18.30468769 -0.06352295 19.9375 -0.0625 C20.68671722 -0.07170975 21.43593445 -0.08091949 22.20785522 -0.09040833 C27.89647483 -0.04124997 33.80077542 0.76966869 38.16903687 4.71733093 C43.69024656 11.09864309 42.85137232 17.6014762 42.9140625 25.61328125 C42.95756836 27.44922852 42.95756836 27.44922852 43.00195312 29.32226562 C43.08088299 40.4878056 43.08088299 40.4878056 38.6015625 45.30078125 C33.22623166 50.3177567 26.88727013 50.58846821 19.921875 50.49609375 C19.10911102 50.49326385 18.29634705 50.49043396 17.45895386 50.48751831 C14.88133575 50.47638744 12.30407431 50.4512964 9.7265625 50.42578125 C7.97135921 50.41574226 6.21615044 50.40661802 4.4609375 50.3984375 C0.17434324 50.3764714 -4.1119868 50.34199103 -8.3984375 50.30078125 C-8.37595947 51.27225098 -8.35348145 52.2437207 -8.33032227 53.24462891 C-8.31283936 54.5135498 -8.29535645 55.7824707 -8.27734375 57.08984375 C-8.25486572 58.35006348 -8.2323877 59.6102832 -8.20922852 60.90869141 C-8.3984375 64.30078125 -8.3984375 64.30078125 -10.3359375 67.67578125 C-13.48678732 69.34766075 -14.65183048 69.48338486 -18.08984375 69.40234375 C-19.30136108 69.38034912 -19.30136108 69.38034912 -20.53735352 69.35791016 C-21.15151123 69.33905762 -21.76566895 69.32020508 -22.3984375 69.30078125 C-22.47471697 61.61448549 -22.52713385 53.92828795 -22.56323242 46.24169922 C-22.57828683 43.62870638 -22.5987348 41.01573867 -22.62475586 38.40283203 C-22.66128528 34.6395852 -22.6781979 30.8766735 -22.69140625 27.11328125 C-22.70689011 25.95151367 -22.72237396 24.78974609 -22.73832703 23.59277344 C-22.73985876 16.15330594 -22.54665425 9.53408494 -17.0859375 3.92578125 C-11.54883197 0.57776395 -6.36524259 -0.00770157 0 0 Z M-6.78613281 14.0065918 C-8.72451294 16.76476231 -8.86679215 18.16153144 -8.7890625 21.50390625 C-8.77617188 22.48359375 -8.76328125 23.46328125 -8.75 24.47265625 C-8.71648437 25.4884375 -8.68296875 26.50421875 -8.6484375 27.55078125 C-8.63039063 28.58203125 -8.61234375 29.61328125 -8.59375 30.67578125 C-8.54666462 33.21839189 -8.480918 35.75911287 -8.3984375 38.30078125 C-3.77200824 38.37504481 0.85407259 38.42943617 5.48095703 38.46557617 C7.05426072 38.48064489 8.62752252 38.5011037 10.20068359 38.52709961 C12.46462346 38.56356863 14.72800707 38.58052633 16.9921875 38.59375 C17.69337708 38.60923386 18.39456665 38.62471771 19.11700439 38.64067078 C22.14127873 38.64170848 24.32596882 38.43992796 27.04394531 37.06762695 C29.01230688 34.83486321 29.11622687 33.69052368 29.1328125 30.73828125 C29.13796875 29.85914063 29.143125 28.98 29.1484375 28.07421875 C29.13296875 27.15898437 29.1175 26.24375 29.1015625 25.30078125 C29.11703125 24.38554687 29.1325 23.4703125 29.1484375 22.52734375 C29.14070313 21.20863281 29.14070313 21.20863281 29.1328125 19.86328125 C29.12830078 19.06019531 29.12378906 18.25710938 29.11914062 17.4296875 C28.7549404 15.18194615 28.7549404 15.18194615 26.98046875 13.54272461 C22.40052454 11.15169668 17.19037066 11.82211267 12.12939453 11.85473633 C10.10736617 11.86325679 8.08815643 11.83445485 6.06640625 11.80273438 C4.78894531 11.80337891 3.51148438 11.80402344 2.1953125 11.8046875 C1.02677734 11.80283447 -0.14175781 11.80098145 -1.34570312 11.79907227 C-4.46148838 12.08036355 -4.46148838 12.08036355 -6.78613281 14.0065918 Z " fill="#17497B" transform="translate(117.3984375,291.69921875)"/>
<path d="M0 0 C1.39175697 -0.00945648 1.39175697 -0.00945648 2.81163025 -0.019104 C3.8116658 -0.01505554 4.81170135 -0.01100708 5.84204102 -0.00683594 C6.87152359 -0.00874939 7.90100616 -0.01066284 8.96168518 -0.01263428 C11.13966109 -0.01399573 13.31764513 -0.01030211 15.49560547 -0.00195312 C18.82936866 0.00873591 22.16259162 -0.00184433 25.49633789 -0.01464844 C27.61157346 -0.01332662 29.72680868 -0.01076377 31.84204102 -0.00683594 C32.84005234 -0.0108844 33.83806366 -0.01493286 34.86631775 -0.019104 C36.26280296 -0.00964752 36.26280296 -0.00964752 37.6875 0 C38.50451889 0.00159119 39.32153778 0.00318237 40.16331482 0.00482178 C42.63189065 0.28406477 44.26984674 1.02472268 46.40844727 2.25878906 C46.40844727 2.91878906 46.40844727 3.57878906 46.40844727 4.25878906 C47.06844727 4.25878906 47.72844727 4.25878906 48.40844727 4.25878906 C50.40844727 8.25878906 50.40844727 8.25878906 50.40844727 30.25878906 C35.88844727 30.25878906 21.36844727 30.25878906 6.40844727 30.25878906 C7.40844727 24.25878906 7.40844727 24.25878906 8.40844727 22.25878906 C9.06844727 22.25878906 9.72844727 22.25878906 10.40844727 22.25878906 C10.40844727 21.59878906 10.40844727 20.93878906 10.40844727 20.25878906 C11.06844727 20.25878906 11.72844727 20.25878906 12.40844727 20.25878906 C12.40844727 19.59878906 12.40844727 18.93878906 12.40844727 18.25878906 C20.32844727 18.25878906 28.24844727 18.25878906 36.40844727 18.25878906 C35.74844727 15.94878906 35.08844727 13.63878906 34.40844727 11.25878906 C30.04850659 11.23406206 25.68860312 11.21591625 21.32861328 11.20385742 C19.84553313 11.19883003 18.36245793 11.19200721 16.87939453 11.18334961 C14.74713925 11.17121424 12.61494954 11.16554481 10.48266602 11.16113281 C9.199646 11.155896 7.91662598 11.15065918 6.59472656 11.14526367 C3.38584987 11.1095173 3.38584987 11.1095173 0.40844727 12.25878906 C0.40844727 20.83878906 0.40844727 29.41878906 0.40844727 38.25878906 C4.45352539 38.34966797 4.45352539 38.34966797 8.58032227 38.44238281 C11.19493309 38.50420853 13.80950217 38.56758118 16.42407227 38.63110352 C18.23978961 38.67438892 20.05554597 38.71606851 21.87133789 38.75610352 C24.4827856 38.81396108 27.09403803 38.87761078 29.70532227 38.94238281 C30.51588074 38.95909531 31.32643921 38.9758078 32.16156006 38.99302673 C35.72569449 39.08650302 38.97532661 39.3050349 42.40844727 40.25878906 C42.40844727 40.91878906 42.40844727 41.57878906 42.40844727 42.25878906 C43.06844727 42.25878906 43.72844727 42.25878906 44.40844727 42.25878906 C44.90344727 44.23878906 44.90344727 44.23878906 45.40844727 46.25878906 C47.05844727 46.25878906 48.70844727 46.25878906 50.40844727 46.25878906 C50.40844727 47.24878906 50.40844727 48.23878906 50.40844727 49.25878906 C47.99070146 50.46766197 46.47513662 50.37938249 43.77514648 50.37231445 C42.81430145 50.37223892 41.85345642 50.37216339 40.86349487 50.37208557 C39.82387604 50.36692429 38.7842572 50.361763 37.71313477 50.35644531 C36.6505545 50.35503036 35.58797424 50.35361542 34.49319458 50.35215759 C31.08991717 50.3465474 27.68670488 50.33399315 24.28344727 50.32128906 C21.9800628 50.31627538 19.6766773 50.31171224 17.37329102 50.30761719 C11.71832078 50.29657466 6.06338867 50.27982658 0.40844727 50.25878906 C0.40844727 49.59878906 0.40844727 48.93878906 0.40844727 48.25878906 C-1.23124023 48.32066406 -1.23124023 48.32066406 -2.90405273 48.38378906 C-6.59155273 48.25878906 -6.59155273 48.25878906 -9.59155273 46.25878906 C-9.59155273 45.59878906 -9.59155273 44.93878906 -9.59155273 44.25878906 C-10.25155273 44.25878906 -10.91155273 44.25878906 -11.59155273 44.25878906 C-15.04274985 37.77492966 -16.20245629 32.50720672 -16.02905273 25.19628906 C-16.03614258 24.35001953 -16.04323242 23.50375 -16.05053711 22.63183594 C-15.98011516 15.60589269 -14.8312456 9.83443586 -10.09155273 4.38378906 C-6.56300801 1.38452605 -4.59657629 0.0089608 0 0 Z " fill="#F2CA08" transform="translate(175.591552734375,291.7412109375)"/>
<path d="M0 0 C2.70010821 2.23602711 2.95561606 2.73369639 3.5625 6.375 C3 10 3 10 0.6875 12.6875 C-5.47777353 17.11422483 -13.50332509 19.48298794 -21 20 C-21.90878906 20.06316406 -22.81757813 20.12632813 -23.75390625 20.19140625 C-30.24562438 20.4383305 -36.15642259 19.77610041 -42.4375 18.25 C-43.09935303 18.09313721 -43.76120605 17.93627441 -44.44311523 17.7746582 C-50.23236748 16.24615486 -54.64475243 14.03287135 -58 9 C-57.92641122 4.95261708 -57.70897065 2.77342252 -54.9375 -0.25 C-51.38365967 -2.36718147 -47.94528417 -3.78551362 -44 -5 C-43.34386719 -5.20753906 -42.68773437 -5.41507813 -42.01171875 -5.62890625 C-27.92807799 -9.42167579 -12.39621744 -7.66518399 0 0 Z " fill="#184A7B" transform="translate(221,21)"/>
<path d="M0 0 C0.66 0.33 1.32 0.66 2 1 C1.67 2.65 1.34 4.3 1 6 C0.34 6 -0.32 6 -1 6 C-1 7.32 -1 8.64 -1 10 C0.32 10 1.64 10 3 10 C3 9.34 3 8.68 3 8 C3.66 8 4.32 8 5 8 C5 8.66 5 9.32 5 10 C5.99 10.33 6.98 10.66 8 11 C7.01 11.33 6.02 11.66 5 12 C5 20.58 5 29.16 5 38 C9.04507813 38.09087891 9.04507813 38.09087891 13.171875 38.18359375 C15.78648583 38.24541947 18.40105491 38.30879211 21.015625 38.37231445 C22.83134234 38.41559986 24.64709871 38.45727944 26.46289062 38.49731445 C29.07433833 38.55517202 31.68559077 38.61882172 34.296875 38.68359375 C35.10743347 38.70030624 35.91799194 38.71701874 36.75311279 38.73423767 C40.31724723 38.82771396 43.56687935 39.04624584 47 40 C47 40.66 47 41.32 47 42 C47.66 42 48.32 42 49 42 C49.495 43.98 49.495 43.98 50 46 C51.65 46 53.3 46 55 46 C55 46.99 55 47.98 55 49 C52.58225419 50.20887291 51.06668936 50.12059343 48.36669922 50.11352539 C47.40585419 50.11344986 46.44500916 50.11337433 45.45504761 50.11329651 C44.41542877 50.10813522 43.37580994 50.10297394 42.3046875 50.09765625 C41.24210724 50.0962413 40.17952698 50.09482635 39.08474731 50.09336853 C35.68146991 50.08775834 32.27825762 50.07520409 28.875 50.0625 C26.57161553 50.05748631 24.26823003 50.05292318 21.96484375 50.04882812 C16.30987351 50.0377856 10.65494141 50.02103752 5 50 C5 49.34 5 48.68 5 48 C3.3603125 48.061875 3.3603125 48.061875 1.6875 48.125 C-2 48 -2 48 -5 46 C-5 45.34 -5 44.68 -5 44 C-5.66 44 -6.32 44 -7 44 C-10.45119712 37.5161406 -11.61090356 32.24841766 -11.4375 24.9375 C-11.44458984 24.09123047 -11.45167969 23.24496094 -11.45898438 22.37304688 C-11.38856243 15.34710363 -10.23969286 9.57564679 -5.5 4.125 C-3 2 -3 2 0 0 Z " fill="#F0C90E" transform="translate(171,292)"/>
<path d="M0 0 C0 0.66 0 1.32 0 2 C-0.66 2 -1.32 2 -2 2 C-2 2.66 -2 3.32 -2 4 C-1.01 3.34 -0.02 2.68 1 2 C3.6875 1.875 3.6875 1.875 6 2 C6 2.66 6 3.32 6 4 C5.34 4 4.68 4 4 4 C4 4.66 4 5.32 4 6 C4.99 6 5.98 6 7 6 C7 18.21 7 30.42 7 43 C2.05 43 -2.9 43 -8 43 C-8.04599373 38.10677814 -8.08579409 33.21431096 -8.10986328 28.32104492 C-8.11990057 26.65760756 -8.13353331 24.99418775 -8.15087891 23.33081055 C-8.17522749 20.93533995 -8.18650588 18.54010332 -8.1953125 16.14453125 C-8.20563507 15.4047554 -8.21595764 14.66497955 -8.22659302 13.90278625 C-8.22747253 9.82520144 -7.91883699 6.62844581 -6 3 C-2.68965517 0 -2.68965517 0 0 0 Z " fill="#14487A" transform="translate(234,298)"/>
<path d="M0 0 C0.33 0 0.66 0 1 0 C1 5.61 1 11.22 1 17 C1.66 17 2.32 17 3 17 C3 17.66 3 18.32 3 19 C2.34 19 1.68 19 1 19 C1.33 19.66 1.66 20.32 2 21 C2.99 21 3.98 21 5 21 C5 20.34 5 19.68 5 19 C5.66 19 6.32 19 7 19 C7 18.34 7 17.68 7 17 C7.66 17 8.32 17 9 17 C9 18.32 9 19.64 9 21 C10.32 21 11.64 21 13 21 C13 15.72 13 10.44 13 5 C13.33 5 13.66 5 14 5 C14 15.23 14 25.46 14 36 C9.05 36 4.1 36 -1 36 C-1.02465098 31.03377651 -1.04283649 26.06758834 -1.05493164 21.10131836 C-1.0599719 19.41055684 -1.06680405 17.71979971 -1.07543945 16.02905273 C-1.08751857 13.60399293 -1.09323123 11.17899056 -1.09765625 8.75390625 C-1.10281754 7.99348526 -1.10797882 7.23306427 -1.11329651 6.44960022 C-1.11349238 4.6326743 -1.06197277 2.81586873 -1 1 C-0.67 0.67 -0.34 0.34 0 0 Z " fill="#325D86" transform="translate(227,305)"/>
<path d="M0 0 C5.05386681 0.11839052 10.10754269 0.2426487 15.16113281 0.37231445 C16.87984305 0.41559016 18.59859424 0.45727041 20.31738281 0.49731445 C22.789839 0.55519565 25.26209047 0.61883836 27.734375 0.68359375 C28.50118591 0.70030624 29.26799683 0.71701874 30.05804443 0.73423767 C33.52173984 0.83012865 36.66366251 1.07915862 40 2 C40 2.66 40 3.32 40 4 C40.66 4 41.32 4 42 4 C42.495 5.98 42.495 5.98 43 8 C44.65 8 46.3 8 48 8 C48 8.99 48 9.98 48 11 C45.58225419 12.20887291 44.06668936 12.12059343 41.36669922 12.11352539 C40.40585419 12.11344986 39.44500916 12.11337433 38.45504761 12.11329651 C37.41542877 12.10813522 36.37580994 12.10297394 35.3046875 12.09765625 C34.24210724 12.0962413 33.17952698 12.09482635 32.08474731 12.09336853 C28.68146991 12.08775834 25.27825762 12.07520409 21.875 12.0625 C19.57161553 12.05748631 17.26823003 12.05292318 14.96484375 12.04882812 C9.30987351 12.0377856 3.65494141 12.02103752 -2 12 C-2 11.34 -2 10.68 -2 10 C9.22 9.67 20.44 9.34 32 9 C32 7.35 32 5.7 32 4 C32.33 3.67 32.66 3.34 33 3 C22.11 2.67 11.22 2.34 0 2 C0 1.34 0 0.68 0 0 Z " fill="#E8C829" transform="translate(178,330)"/>
<path d="M0 0 C0.33 1.32 0.66 2.64 1 4 C14.86 4 28.72 4 43 4 C43 4.66 43 5.32 43 6 C28.48 6 13.96 6 -1 6 C-0.67 4.02 -0.34 2.04 0 0 Z " fill="#F3D024" transform="translate(183,316)"/>
<path d="M0 0 C0.79198288 0.0028299 1.58396576 0.00565979 2.39994812 0.00857544 C4.91652874 0.01972387 7.43274664 0.04481828 9.94921875 0.0703125 C11.66080213 0.08034921 13.37239112 0.08947386 15.08398438 0.09765625 C19.26836781 0.11964569 23.45248189 0.15413842 27.63671875 0.1953125 C27.63671875 0.5253125 27.63671875 0.8553125 27.63671875 1.1953125 C16.08671875 1.1953125 4.53671875 1.1953125 -7.36328125 1.1953125 C-7.36328125 1.8553125 -7.36328125 2.5153125 -7.36328125 3.1953125 C-8.68328125 3.5253125 -10.00328125 3.8553125 -11.36328125 4.1953125 C-10.70328125 4.5253125 -10.04328125 4.8553125 -9.36328125 5.1953125 C-9.36328125 6.5153125 -9.36328125 7.8353125 -9.36328125 9.1953125 C-11.34328125 9.8553125 -13.32328125 10.5153125 -15.36328125 11.1953125 C-15.36328125 10.5353125 -15.36328125 9.8753125 -15.36328125 9.1953125 C-14.70328125 9.1953125 -14.04328125 9.1953125 -13.36328125 9.1953125 C-13.36328125 8.5353125 -13.36328125 7.8753125 -13.36328125 7.1953125 C-14.68328125 8.1853125 -16.00328125 9.1753125 -17.36328125 10.1953125 C-18.02328125 9.8653125 -18.68328125 9.5353125 -19.36328125 9.1953125 C-18.48016087 8.06030556 -17.5810927 6.93769943 -16.67578125 5.8203125 C-16.17691406 5.19382812 -15.67804688 4.56734375 -15.1640625 3.921875 C-10.80747517 -0.25515667 -5.72671843 -0.07761371 0 0 Z " fill="#244A71" transform="translate(247.36328125,290.8046875)"/>
<path d="M0 0 C1.65 0 3.3 0 5 0 C5 0.99 5 1.98 5 3 C2.58225419 4.20887291 1.06668936 4.12059343 -1.63330078 4.11352539 C-2.59414581 4.11344986 -3.55499084 4.11337433 -4.54495239 4.11329651 C-5.58457123 4.10813522 -6.62419006 4.10297394 -7.6953125 4.09765625 C-8.75789276 4.0962413 -9.82047302 4.09482635 -10.91525269 4.09336853 C-14.31853009 4.08775834 -17.72174238 4.07520409 -21.125 4.0625 C-23.42838447 4.05748631 -25.73176997 4.05292318 -28.03515625 4.04882812 C-33.69012649 4.0377856 -39.34505859 4.02103752 -45 4 C-45 3.67 -45 3.34 -45 3 C-30.15 3 -15.3 3 0 3 C0 2.01 0 1.02 0 0 Z " fill="#FEEC7C" transform="translate(221,338)"/>
<path d="M0 0 C1.98 0 3.96 0 6 0 C3.37886971 3.18080224 0.36474374 4.25032955 -3.4375 5.6875 C-4.57058594 6.12449219 -5.70367187 6.56148437 -6.87109375 7.01171875 C-10 8 -10 8 -14 8 C-13.67 6.68 -13.34 5.36 -13 4 C-11.68 4 -10.36 4 -9 4 C-8.34 3.34 -7.68 2.68 -7 2 C-3.375 1.875 -3.375 1.875 0 2 C0 1.34 0 0.68 0 0 Z " fill="#22507E" transform="translate(52,144)"/>
<path d="M0 0 C2.4375 1.6875 2.4375 1.6875 4.4375 4.6875 C3.4475 5.1825 3.4475 5.1825 2.4375 5.6875 C2.4375 5.0275 2.4375 4.3675 2.4375 3.6875 C1.7775 3.6875 1.1175 3.6875 0.4375 3.6875 C0.4375 3.0275 0.4375 2.3675 0.4375 1.6875 C-1.5425 1.6875 -3.5225 1.6875 -5.5625 1.6875 C-5.5625 2.3475 -5.5625 3.0075 -5.5625 3.6875 C-6.5525 3.6875 -7.5425 3.6875 -8.5625 3.6875 C-8.2325 2.3675 -7.9025 1.0475 -7.5625 -0.3125 C-8.820625 0.05875 -10.07875 0.43 -11.375 0.8125 C-13.51953125 1.4453125 -13.51953125 1.4453125 -15.5625 1.6875 C-16.5525 1.0275 -17.5425 0.3675 -18.5625 -0.3125 C-12.45751523 -2.08953782 -5.96191081 -2.19649346 0 0 Z " fill="#2C5279" transform="translate(85.5625,74.3125)"/>
<path d="M0 0 C0.33 0.66 0.66 1.32 1 2 C2.32 2 3.64 2 5 2 C3.59155282 5.21524305 1.89655214 7.32183868 -0.625 9.75 C-1.57246094 10.67039062 -1.57246094 10.67039062 -2.5390625 11.609375 C-3.02117187 12.06828125 -3.50328125 12.5271875 -4 13 C-4.33 12.01 -4.66 11.02 -5 10 C-4.34 10 -3.68 10 -3 10 C-3 9.34 -3 8.68 -3 8 C-2.34 8 -1.68 8 -1 8 C-1 6.68 -1 5.36 -1 4 C-1.66 4 -2.32 4 -3 4 C-2 2 -2 2 0 0 Z " fill="#224D79" transform="translate(227,250)"/>
<path d="M0 0 C0.33 0 0.66 0 1 0 C1.375 3.1875 1.375 3.1875 1 7 C-1.42583207 10.04191641 -4.31251021 11.77083674 -8 13 C-8.33 12.01 -8.66 11.02 -9 10 C-8.34 10 -7.68 10 -7 10 C-6.67 8.68 -6.34 7.36 -6 6 C-4.68 6 -3.36 6 -2 6 C-1.34 4.02 -0.68 2.04 0 0 Z " fill="#215180" transform="translate(223,24)"/>
<path d="M0 0 C4.62 0.99 9.24 1.98 14 3 C14 3.33 14 3.66 14 4 C10.38026598 5.31626692 7.90432869 6 4 6 C4 5.34 4 4.68 4 4 C2.68 3.67 1.36 3.34 0 3 C0 2.01 0 1.02 0 0 Z " fill="#244E78" transform="translate(172,144)"/>
<path d="M0 0 C0.66 0.33 1.32 0.66 2 1 C1.01 2.485 1.01 2.485 0 4 C-1.32 4 -2.64 4 -4 4 C-3.67 5.32 -3.34 6.64 -3 8 C-3.99 8.33 -4.98 8.66 -6 9 C-6.66 9.99 -7.32 10.98 -8 12 C-7.63166144 5.61546499 -7.63166144 5.61546499 -4.5625 2.625 C-2 1 -2 1 0 0 Z " fill="#224C78" transform="translate(171,18)"/>
<path d="M0 0 C1.65 0 3.3 0 5 0 C4.70902736 3.49167166 4.24460417 4.76200675 1.6875 7.25 C-2.24380165 9.80991736 -2.24380165 9.80991736 -5 10 C-5.66 9.34 -6.32 8.68 -7 8 C-3.535 7.505 -3.535 7.505 0 7 C0 6.34 0 5.68 0 5 C0.66 5 1.32 5 2 5 C2.33 3.68 2.66 2.36 3 1 C2.01 0.67 1.02 0.34 0 0 Z " fill="#2E5479" transform="translate(342,291)"/>
<path d="M0 0 C1.65 0 3.3 0 5 0 C5.33 0.66 5.66 1.32 6 2 C5.01 2 4.02 2 3 2 C3 7.28 3 12.56 3 18 C2.67 18 2.34 18 2 18 C2 13.38 2 8.76 2 4 C1.34 4 0.68 4 0 4 C0 2.68 0 1.36 0 0 Z " fill="#2F5D88" transform="translate(106,338)"/>
<path d="M0 0 C0.99 0.33 1.98 0.66 3 1 C3.33 1.99 3.66 2.98 4 4 C3.01 4.33 2.02 4.66 1 5 C2.21044132 9.60742865 2.21044132 9.60742865 4 14 C3.34 14.66 2.68 15.32 2 16 C0.24836544 12.22777911 -0.22490027 9.333361 -0.125 5.1875 C-0.10695313 4.21167969 -0.08890625 3.23585937 -0.0703125 2.23046875 C-0.04710938 1.49441406 -0.02390625 0.75835937 0 0 Z " fill="#315A81" transform="translate(19,129)"/>
<path d="M0 0 C2.97 0.99 5.94 1.98 9 3 C8.01 3.495 8.01 3.495 7 4 C7 4.66 7 5.32 7 6 C6.34 6 5.68 6 5 6 C5 5.34 5 4.68 5 4 C3.02 4 1.04 4 -1 4 C-0.67 2.68 -0.34 1.36 0 0 Z " fill="#25517D" transform="translate(205,178)"/>
<path d="M0 0 C0.66 0 1.32 0 2 0 C2 0.66 2 1.32 2 2 C3.65 2 5.3 2 7 2 C6.34 3.65 5.68 5.3 5 7 C4.67 6.01 4.34 5.02 4 4 C3.34 4 2.68 4 2 4 C1.67 4.66 1.34 5.32 1 6 C0 5 0 5 -0.0625 2.4375 C-0.041875 1.633125 -0.02125 0.82875 0 0 Z " fill="#21507B" transform="translate(308,180)"/>
<path d="M0 0 C0.99 0.33 1.98 0.66 3 1 C2.19185349 2.33597652 1.37836819 3.668725 0.5625 5 C0.11003906 5.7425 -0.34242187 6.485 -0.80859375 7.25 C-1.20175781 7.8275 -1.59492187 8.405 -2 9 C-2.33 9 -2.66 9 -3 9 C-3 7.02 -3 5.04 -3 3 C-2.01 2.67 -1.02 2.34 0 2 C0 1.34 0 0.68 0 0 Z " fill="#28527C" transform="translate(85,112)"/>
<path d="M0 0 C1.32 1.32 2.64 2.64 4 4 C2.35 5.98 0.7 7.96 -1 10 C-1.33 9.01 -1.66 8.02 -2 7 C-1.34 7 -0.68 7 0 7 C-0.185625 6.401875 -0.37125 5.80375 -0.5625 5.1875 C-1 3 -1 3 0 0 Z " fill="#25517D" transform="translate(155,329)"/>
<path d="M0 0 C0.33 0.66 0.66 1.32 1 2 C1.66 2 2.32 2 3 2 C2.67 2.99 2.34 3.98 2 5 C-1.0625 6.1875 -1.0625 6.1875 -4 7 C-4 4 -4 4 -2 1.8125 C-1.34 1.214375 -0.68 0.61625 0 0 Z " fill="#205080" transform="translate(125,184)"/>
<path d="M0 0 C2.625 0.9375 2.625 0.9375 5 2 C4.67 2.99 4.34 3.98 4 5 C1.83125748 4.49396008 0.00032373 4.00016187 -2 3 C-2 2.34 -2 1.68 -2 1 C-1.34 0.67 -0.68 0.34 0 0 Z " fill="#1B4D7F" transform="translate(213,17)"/>
<path d="M0 0 C2.5 2.3125 2.5 2.3125 5 5 C5 5.99 5 6.98 5 8 C4.34 8 3.68 8 3 8 C2.67 7.01 2.34 6.02 2 5 C1.01 4.67 0.02 4.34 -1 4 C-0.67 2.68 -0.34 1.36 0 0 Z " fill="#224D75" transform="translate(154,296)"/>
<path d="M0 0 C0.66 0.66 1.32 1.32 2 2 C0.71086513 2.67154933 -0.58140204 3.33708859 -1.875 4 C-2.59429687 4.37125 -3.31359375 4.7425 -4.0546875 5.125 C-6 6 -6 6 -8 6 C-7.34 4.68 -6.68 3.36 -6 2 C-4 2 -2 2 0 2 C0 1.34 0 0.68 0 0 Z " fill="#2D5680" transform="translate(216,264)"/>
<path d="M0 0 C2.97 0 5.94 0 9 0 C8 2 8 2 6.15234375 2.6328125 C5.42144531 2.79523438 4.69054687 2.95765625 3.9375 3.125 C2.83728516 3.37636719 2.83728516 3.37636719 1.71484375 3.6328125 C1.14894531 3.75398438 0.58304688 3.87515625 0 4 C0 2.68 0 1.36 0 0 Z " fill="#EECD24" transform="translate(236,108)"/>
<path d="M0 0 C2.475 0.495 2.475 0.495 5 1 C5.33 1.99 5.66 2.98 6 4 C4.35 4.33 2.7 4.66 1 5 C0.67 3.35 0.34 1.7 0 0 Z " fill="#215584" transform="translate(208,34)"/>
<path d="M0 0 C0.66 0 1.32 0 2 0 C3 3 3 3 2.0625 5.1875 C1.5365625 6.0846875 1.5365625 6.0846875 1 7 C0.34 6.67 -0.32 6.34 -1 6 C-0.67 4.02 -0.34 2.04 0 0 Z " fill="#244E79" transform="translate(237,234)"/>
<path d="M0 0 C5.875 3.75 5.875 3.75 7 6 C4.03 5.505 4.03 5.505 1 5 C0.67 3.35 0.34 1.7 0 0 Z " fill="#2B5A83" transform="translate(151,121)"/>
<path d="M0 0 C1.32 0.33 2.64 0.66 4 1 C3.67 1.99 3.34 2.98 3 4 C1.35 4.33 -0.3 4.66 -2 5 C-1.34 3.35 -0.68 1.7 0 0 Z " fill="#215283" transform="translate(28,106)"/>
<path d="M0 0 C1 3 1 3 1 6 C-0.98 6.99 -0.98 6.99 -3 8 C-2.45276317 4.62537285 -1.9451 2.91765 0 0 Z " fill="#25507B" transform="translate(227,132)"/>
<path d="M0 0 C0 3.15081975 -0.27898465 4.41847698 -2 7 C-4.125 7.75 -4.125 7.75 -6 8 C-4.55746343 4.63408134 -2.66735273 2.48952921 0 0 Z " fill="#385E86" transform="translate(102,55)"/>
<path d="M0 0 C0.66 0.33 1.32 0.66 2 1 C0 4 0 4 -3.125 4.6875 C-4.07375 4.790625 -5.0225 4.89375 -6 5 C-2.25 1.125 -2.25 1.125 0 0 Z " fill="#25547F" transform="translate(171,18)"/>
</svg>
