<svg width="7542" height="2931" xmlns="http://www.w3.org/2000/svg" xmlns:xlink="http://www.w3.org/1999/xlink" overflow="hidden"><defs><clipPath id="clip0"><rect x="-15112" y="296" width="7542" height="2931"/></clipPath></defs><g clip-path="url(#clip0)" transform="translate(15112 -296)"><path d="M-14534.5 905.938C-14320.2 436.499-13796.7 204.733-13301.2 329.341-12884.4 434.226-12573.1 779.421-12536.4 1212.78-12534.3 1237.14-12529.8 1279.13-12566.5 1279.13-12686.1 1279-12805.8 1279-12925.4 1279.13-12958.9 1279.22-12968.4 1273.31-12972.5 1240.13-12993.3 1074.05-13067.2 940.687-13194.3 840.043-13506.5 592.554-13966.4 707.073-14123.5 1073.17-14160 1158.3-14170.6 1247.95-14155.2 1342.11-14154.7 1345.02-14155.5 1347.53-14157.4 1349.66L-14234.4 1433.45C-14237.2 1436.5-14241.8 1436.86-14245 1434.27-14353.4 1345.75-14473.1 1329.3-14604.1 1384.92-14606.3 1385.83-14607.5 1385.1-14607.8 1382.74-14626.7 1213.44-14602.3 1054.51-14534.5 905.938Z" fill="#FFFFFF" fill-rule="evenodd"/><path d="M-13180 1163C-13180 1296.65-13288.3 1405-13422 1405-13555.7 1405-13664 1296.65-13664 1163-13664 1029.35-13555.7 921-13422 921-13288.3 921-13180 1029.35-13180 1163Z" fill="#FFFFFF" fill-rule="evenodd"/><path d="M-13573.6 3226.99-13572.1 2818.43C-13372.7 2822.68-13208.8 2755.92-13080.5 2618.16-13018.7 2551.94-12968.1 2458.26-12967.1 2367.04-12965.9 2264.26-13011.2 2184.31-13103.1 2127.19-13191.4 2072.26-13279.5 2058.16-13403.5 2037.42-13596.1 2005.14-13766.1 1990.86-13941.2 1936.47-13943.3 1935.85-13944.5 1933.62-13943.9 1931.5-13943.5 1930.13-13942.4 1929.07-13941 1928.74-13833.4 1900.9-13722.1 1822.14-13704 1708.09-13686.1 1595.67-13826 1532.27-13917.1 1535.09-13961.5 1536.37-14019 1587.57-13975.9 1631.69-13952.6 1655.52-13914.6 1647.06-13892.6 1625.41-13890.5 1623.35-13888.5 1623.44-13886.6 1625.68-13858.7 1658.97-13895.4 1729.91-13917.9 1751.29-14028.9 1856.91-14154.9 1881.29-14295.8 1824.41-14325.5 1812.47-14350.4 1789.85-14370.5 1756.56-14372.1 1754.02-14372.2 1751.41-14370.9 1748.74-14327.6 1657.24-14447.4 1615.13-14486.5 1678.53-14500.8 1701.63-14489.4 1735.28-14501 1760.47-14536.4 1836.87-14595.5 1830.23-14680.6 1829.78-14801.4 1829.11-14922.1 1828.35-15042.9 1827.51-15045.4 1827.45-15046.4 1826.2-15045.9 1823.78-15026.4 1738.65-14979.2 1682.22-14904.1 1654.51-14836.3 1629.47-14775.2 1642.78-14720.8 1694.44-14717.8 1697.29-14715.9 1696.72-14715 1692.71-14709.9 1669.89-14704.6 1644.05-14694.5 1624.05-14583.5 1405.12-14255.7 1434.23-14238.1 1701.26-14237.9 1704.36-14236.2 1705.9-14233.1 1705.9L-14154 1705.36C-14150.7 1705.36-14149.4 1703.75-14150.2 1700.54-14167.1 1621.83-14155.4 1554.25-14115 1497.8-14003.2 1341.73-13755.7 1337.55-13636 1488.8-13606.4 1526.21-13586.1 1569.29-13575.1 1618.04-13574.4 1621.01-13572.5 1622.65-13569.5 1622.95-13448.3 1635.2-13312.6 1652.82-13162.3 1675.8-12970.8 1705.17-12804.5 1742.92-12650.2 1862.7-12647.9 1864.38-12647.4 1867.57-12649.1 1869.83-12650.1 1871.17-12651.7 1871.94-12653.3 1871.89-12713.9 1871.47-12775.2 1871.41-12837.2 1871.71-12861.1 1871.83-12878.6 1874.95-12889.6 1881.08-12926.4 1901.54-12928.4 1961.75-12895.7 1986.04-12884.6 1994.28-12867.2 1998.8-12843.7 1999.59-12754.7 2002.74-12664.7 2003.01-12573.7 2000.41-12567 2000.22-12562.2 2003.26-12559.6 2009.5-12510.6 2124.56-12501.5 2257.89-12516.7 2381.13-12544.6 2608.15-12678.4 2827.16-12852.4 2971.23-13059.6 3142.77-13300 3228.02-13573.6 3226.99Z" fill="#FFFFFF" fill-rule="evenodd"/><path d="M-12483.5 1521.7C-12440.6 1501.31-12407.8 1465.34-12371.2 1441.21-12326.1 1411.44-12261 1426.92-12234.2 1474.08-12205.7 1524.35-12222.4 1590.18-12264.2 1627.96-12379.2 1731.67-12616 1689.88-12749 1649.27-12896.5 1604.2-13033.5 1551.02-13188 1535.27-13190.5 1534.98-13192.2 1532.78-13192 1530.36-13191.8 1528.55-13190.5 1527.07-13188.8 1526.62-13044.6 1487.83-12927.3 1515.51-12762.9 1542.37-12671.9 1557.31-12569.2 1562.4-12483.5 1521.7Z" fill="#FFFFFF" fill-rule="evenodd"/><path d="M-15098.7 2012.94C-15076.6 1990.01-15029.3 1991.65-14997.6 1991.55-14722.6 1990.71-14447.5 1990.83-14172.3 1991.92-14088.8 1992.28-14031.8 2030.19-14001.5 2105.64-14000.2 2109.03-14001.4 2110.87-14005 2111.17-14012.8 2111.72-14023.9 2111.99-14038.3 2111.99-14370.3 2112.05-14702.2 2111.9-15034.1 2111.53-15057.7 2111.53-15075 2107.85-15086.1 2100.48-15112.2 2083.08-15122.3 2037.5-15098.7 2012.94Z" fill="#FFFFFF" fill-rule="evenodd"/><path d="M-13453 2417C-13453 2552.31-13562.7 2662-13698 2662-13833.3 2662-13943 2552.31-13943 2417-13943 2281.69-13833.3 2172-13698 2172-13562.7 2172-13453 2281.69-13453 2417Z" fill="#FFFFFF" fill-rule="evenodd"/><path d="M-13572 2818.71-13573.5 3226.99C-13939.8 3228.36-14277.4 3044.76-14473 2731.64-14495.6 2695.46-14512.8 2663.44-14524.8 2635.56-14526.1 2632.23-14525 2630.53-14521.4 2630.47-14435.7 2629.44-14350.2 2629.38-14264.9 2630.29-14250.1 2630.47-14235.8 2628.81-14221.8 2625.29-14137.2 2603.93-14163.5 2489.77-14248.8 2489.68-14411 2489.5-14573 2489.26-14735.1 2488.96-14790.6 2488.77-14835.9 2482.32-14830.2 2415.52-14829.9 2412.42-14828.2 2409.63-14825.6 2407.97-14818 2403.25-14809.9 2401.06-14801.3 2401.43-14766.1 2402.82-14730.9 2401.43-14695.9 2397.25-14692.2 2396.81-14689.3 2393.99-14688.7 2390.34L-14685.3 2367.53C-14684.8 2364.2-14687 2361.1-14690.4 2360.6-14690.7 2360.55-14691 2360.52-14691.3 2360.53-14772.6 2360.59-14853.8 2360.35-14934.9 2359.8-14957.3 2359.62-14973.7 2356.41-14984 2350.17-15013 2332.62-15017.9 2280.54-14986.6 2262-14977.9 2256.79-14964.5 2254.15-14946.5 2254.09-14697.3 2252.94-14448.2 2252.7-14199.1 2253.37-14195.9 2253.43-14194 2255.03-14193.5 2258.18-14157.1 2468.69-14033.3 2660.38-13840.8 2755.18-13756.2 2796.87-13666.6 2818.04-13572 2818.71Z" fill="#FFFFFF" fill-rule="evenodd"/><path d="M-7872.31 755.082C-7842.28 755.03-7817.93 754.987-7817.93 754.987L-7817.73 867.945C-7817.73 867.945-7842.08 867.987-7872.12 868.039L-8079.48 868.401C-8109.51 868.454-8133.86 868.496-8133.86 868.496L-8134.06 755.539C-8134.06 755.539-8109.71 755.496-8079.67 755.444Z" fill="#FFFFFF" fill-rule="evenodd"/><path d="M-14761.6 966.987C-14732 966.884-14708.1 966.801-14708.1 966.801L-14707.7 1078.48C-14707.7 1078.48-14731.6 1078.57-14761.2 1078.67L-14920.5 1079.23C-14950 1079.33-14974 1079.41-14974 1079.41L-14974.4 967.73C-14974.4 967.73-14950.4 967.647-14920.9 967.543Z" fill="#FFFFFF" fill-rule="evenodd"/><path d="M-13818.8 1204.59C-13803.4 1204.64-13790.9 1204.68-13790.9 1204.68L-13791.1 1263.8C-13791.1 1263.8-13803.6 1263.76-13819 1263.7L-13992.2 1263.1C-14007.6 1263.04-14020.1 1263-14020.1 1263L-14019.9 1203.88C-14019.9 1203.88-14007.4 1203.93-13992 1203.98Z" fill="#FFFFFF" fill-rule="evenodd"/><path d="M-8056.45 1038.09C-8063.76 1051.96-8081.68 1056.87-8096.48 1049.07-8111.27 1041.27-8117.34 1023.71-8110.03 1009.84-8102.73 995.98-8084.81 991.066-8070.01 998.867-8055.21 1006.67-8049.15 1024.23-8056.45 1038.09Z" fill="#FFFFFF" fill-rule="evenodd"/><path d="M-14796.3 1225.7C-14774.2 1225.9-14756.3 1226.05-14756.3 1226.05L-14757 1310.27C-14757 1310.27-14774.9 1310.11-14797 1309.92L-14890.7 1309.1C-14912.8 1308.91-14930.7 1308.75-14930.7 1308.75L-14930 1224.54C-14930 1224.54-14912.1 1224.69-14890 1224.89Z" fill="#FFFFFF" fill-rule="evenodd"/><path d="M-13323.9 2244C-13358.6 2244.09-13373.3 2182.2-13325.9 2180.01-13253.2 2176.64-13168.8 2169.71-13124.9 2235.7-13123.3 2238.19-13123.9 2241.52-13126.4 2243.13-13127.2 2243.7-13128.2 2244-13129.3 2244-13194.4 2244-13259.3 2244-13323.9 2244Z" fill="#FFFFFF" fill-rule="evenodd"/><path d="M-13135.9 2370.9C-13112.6 2370.78-13093.7 2370.68-13093.7 2370.68L-13093.3 2459.08C-13093.3 2459.08-13112.2 2459.18-13135.5 2459.3L-13279 2460.05C-13302.3 2460.18-13321.2 2460.27-13321.2 2460.27L-13321.6 2371.87C-13321.6 2371.87-13302.8 2371.77-13279.4 2371.65Z" fill="#FFFFFF" fill-rule="evenodd"/><path d="M-9208.03 754-8330 754-8330 969.638-8634.3 969.638-8634.3 1875-8906.9 1875-8906.9 969.638-9208.03 969.638ZM-10317.8 754-10046.8 754-9593.49 1448.48-9593.49 754-9322.47 754-9322.47 1875-9593.49 1875-10046.8 1186.86-10046.8 1875-10317.8 1875ZM-11170.4 754-10473 754-10473 969.638-10899.4 969.638-10899.4 1204.3-10520.6 1204.3-10520.6 1408.84-10899.4 1408.84-10899.4 1657.78-10473 1657.78-10473 1875-11170.4 1875ZM-11926.8 754-11655.7 754-11655.7 1667.29-11294.4 1667.29-11294.4 1875-11926.8 1875ZM-12384 754-12113 754-12113 1875-12384 1875Z" fill="#FFFFFF" fill-rule="evenodd"/><path d="M-10962 2235.77C-11050.7 2235.77-11121.2 2264.53-11173.5 2322.07-11225.8 2379.6-11252 2457.98-11252 2557.21-11252 2655.38-11225.8 2733.5-11173.5 2791.56-11121.2 2849.62-11050.7 2878.65-10962 2878.65-10874.3 2878.65-10804 2849.62-10751.2 2791.56-10698.4 2733.5-10672 2655.38-10672 2557.21-10672 2459.03-10698.1 2380.92-10750.4 2322.86-10802.7 2264.8-10873.2 2235.77-10962 2235.77ZM-9972.15 2229.43-9972.15 2512.87-9804.16 2512.87C-9750.28 2512.87-9710.66 2501-9685.3 2477.24-9659.94 2453.49-9647.27 2418.39-9647.27 2371.94-9647.27 2327.61-9660.21 2292.77-9686.09 2267.44-9711.98 2242.1-9751.33 2229.43-9804.16 2229.43ZM-9235.9 2009.34-8904.68 2009.34-8601.99 2783.64-8305.63 2009.34-7976 2009.34-7976 3120.92-8247 3120.92-8247 2425.78-8487.88 3120.92-8722.43 3120.92-8964.9 2424.2-8964.9 3120.92-9235.9 3120.92ZM-10243.1 2001.42-9780.39 2001.42C-9691.64 2001.42-9616.63 2016.72-9555.35 2047.34-9494.07 2077.95-9448.11 2119.91-9417.47 2173.22-9386.83 2226.53-9371.51 2287.49-9371.51 2356.11-9371.51 2437.39-9393.97 2506.54-9438.87 2563.54-9483.77 2620.55-9549.01 2659.6-9634.59 2680.72L-9368.35 3120.92-9667.87 3120.92-9910.34 2698.14-9972.15 2698.14-9972.15 3120.92-10243.1 3120.92ZM-12438 2001.42-11607.3 2001.42-11607.3 2216.77-11911.5 2216.77-11911.5 3120.92-12184.1 3120.92-12184.1 2216.77-12393.1 2216.77-12394.5 2182.34C-12398.1 2147.8-12403.8 2113.55-12412 2080.06ZM-10962 1984C-10856.3 1984-10760.4 2008.54-10674.3 2057.63-10588.2 2106.72-10520.4 2174.81-10470.7 2261.9-10421 2348.98-10396.2 2447.42-10396.2 2557.21-10396.2 2666.99-10421.3 2765.7-10471.5 2853.31-10521.7 2940.93-10589.8 3009.28-10675.9 3058.37-10762 3107.46-10857.4 3132-10962 3132-11066.6 3132-11161.9 3107.46-11248 3058.37-11334.1 3009.28-11402.3 2940.93-11452.5 2853.31-11502.7 2765.7-11527.7 2666.99-11527.7 2557.21-11527.7 2447.42-11502.7 2348.98-11452.5 2261.9-11402.3 2174.81-11334.1 2106.72-11248 2057.63-11161.9 2008.54-11066.6 1984-10962 1984Z" fill="#FFFFFF" fill-rule="evenodd"/><path d="M-7623.53 2008.27C-7594.65 2008.12-7571.23 2008-7571.23 2008L-7570.66 2116.95C-7570.66 2116.95-7594.08 2117.08-7622.96 2117.23L-7812.31 2118.22C-7841.19 2118.37-7864.6 2118.49-7864.6 2118.49L-7865.17 2009.54C-7865.17 2009.54-7841.76 2009.42-7812.88 2009.26Z" fill="#FFFFFF" fill-rule="evenodd"/><path d="M-7656.73 2256.71C-7630.11 2256.8-7608.53 2256.88-7608.53 2256.88L-7608.88 2357.65C-7608.88 2357.65-7630.46 2357.57-7657.09 2357.48L-7816.97 2356.92C-7843.59 2356.83-7865.17 2356.75-7865.17 2356.75L-7864.82 2255.98C-7864.82 2255.98-7843.24 2256.06-7816.62 2256.15Z" fill="#FFFFFF" fill-rule="evenodd"/><path d="M-7764.69 2499.85C-7747.07 2499.55-7732.77 2499.3-7732.77 2499.3L-7731.58 2567.5C-7731.58 2567.5-7745.88 2567.75-7763.5 2568.05L-7832.07 2569.25C-7849.69 2569.56-7863.99 2569.81-7863.99 2569.81L-7865.18 2501.61C-7865.18 2501.61-7850.89 2501.36-7833.26 2501.05Z" fill="#FFFFFF" fill-rule="evenodd"/></g></svg>