<svg width="2990" height="2932" xmlns="http://www.w3.org/2000/svg" xmlns:xlink="http://www.w3.org/1999/xlink" overflow="hidden"><defs><clipPath id="clip0"><rect x="-6937" y="378" width="2990" height="2932"/></clipPath><linearGradient x1="-5880.75" y1="71.6206" x2="-4918.25" y2="1825.38" gradientUnits="userSpaceOnUse" spreadMethod="reflect" id="fill1"><stop offset="0" stop-color="#FFFFFF"/><stop offset="0.4" stop-color="#FFFFFF"/><stop offset="1" stop-color="#D9D9D9"/></linearGradient><linearGradient x1="-5489" y1="1004" x2="-5005" y2="1488" gradientUnits="userSpaceOnUse" spreadMethod="reflect" id="fill2"><stop offset="0" stop-color="#FFFFFF"/><stop offset="0.2" stop-color="#FFFFFF"/><stop offset="1" stop-color="#D9D9D9"/></linearGradient><linearGradient x1="-6483.81" y1="1178.59" x2="-4723.19" y2="3592.41" gradientUnits="userSpaceOnUse" spreadMethod="reflect" id="fill3"><stop offset="0" stop-color="#FFFFFF"/><stop offset="0.5" stop-color="#FFFFFF"/><stop offset="1" stop-color="#BFBFBF"/></linearGradient><linearGradient x1="-5768" y1="2255" x2="-5278" y2="2745" gradientUnits="userSpaceOnUse" spreadMethod="reflect" id="fill4"><stop offset="0" stop-color="#45DEF4"/><stop offset="0.22" stop-color="#45DEF4"/><stop offset="0.84" stop-color="#217EC5"/><stop offset="1" stop-color="#1967BA"/></linearGradient><linearGradient x1="-6568.49" y1="2154.86" x2="-5662.5" y2="3490.14" gradientUnits="userSpaceOnUse" spreadMethod="reflect" id="fill5"><stop offset="0" stop-color="#45DEF4"/><stop offset="0.6" stop-color="#45DEF4"/><stop offset="1" stop-color="#1967BA"/></linearGradient><linearGradient x1="-4141.29" y1="2036.97" x2="-4069.28" y2="2228.19" gradientUnits="userSpaceOnUse" spreadMethod="reflect" id="fill6"><stop offset="0" stop-color="#45DEF4"/><stop offset="0.24" stop-color="#45DEF4"/><stop offset="0.79" stop-color="#4472C4"/><stop offset="1" stop-color="#4472C4"/></linearGradient><linearGradient x1="-5082.93" y1="2231.98" x2="-5048.07" y2="2354.02" gradientUnits="userSpaceOnUse" spreadMethod="reflect" id="fill7"><stop offset="0" stop-color="#45DEF4"/><stop offset="0.00934579" stop-color="#44DDF3"/><stop offset="0.0186916" stop-color="#44DDF3"/><stop offset="0.0280374" stop-color="#44DDF3"/><stop offset="0.0373832" stop-color="#44DDF3"/><stop offset="0.046729" stop-color="#44DDF3"/><stop offset="0.0560748" stop-color="#44DDF3"/><stop offset="0.0654206" stop-color="#44DDF3"/><stop offset="0.0747664" stop-color="#44DDF3"/><stop offset="0.0841122" stop-color="#44DCF3"/><stop offset="0.0934579" stop-color="#44DCF3"/><stop offset="0.102804" stop-color="#44DCF3"/><stop offset="0.11215" stop-color="#44DCF3"/><stop offset="0.121495" stop-color="#44DBF3"/><stop offset="0.130841" stop-color="#44DBF2"/><stop offset="0.140187" stop-color="#44DBF2"/><stop offset="0.149533" stop-color="#44DAF2"/><stop offset="0.158879" stop-color="#44DAF2"/><stop offset="0.168224" stop-color="#44DAF2"/><stop offset="0.17757" stop-color="#44D9F2"/><stop offset="0.186916" stop-color="#44D9F1"/><stop offset="0.196262" stop-color="#44D8F1"/><stop offset="0.205607" stop-color="#44D8F1"/><stop offset="0.214953" stop-color="#44D7F1"/><stop offset="0.224299" stop-color="#44D7F1"/><stop offset="0.233645" stop-color="#44D6F0"/><stop offset="0.242991" stop-color="#44D6F0"/><stop offset="0.252336" stop-color="#44D5F0"/><stop offset="0.261682" stop-color="#44D5F0"/><stop offset="0.271028" stop-color="#44D4EF"/><stop offset="0.280374" stop-color="#44D4EF"/><stop offset="0.28972" stop-color="#44D3EF"/><stop offset="0.299065" stop-color="#44D2EF"/><stop offset="0.308411" stop-color="#44D2EE"/><stop offset="0.317757" stop-color="#44D1EE"/><stop offset="0.327103" stop-color="#44D0EE"/><stop offset="0.336449" stop-color="#44CFED"/><stop offset="0.345794" stop-color="#44CFED"/><stop offset="0.35514" stop-color="#44CEED"/><stop offset="0.364486" stop-color="#44CDEC"/><stop offset="0.373832" stop-color="#44CCEC"/><stop offset="0.383178" stop-color="#44CCEC"/><stop offset="0.392523" stop-color="#44CBEB"/><stop offset="0.401869" stop-color="#44CAEB"/><stop offset="0.411215" stop-color="#44C9EA"/><stop offset="0.420561" stop-color="#44C8EA"/><stop offset="0.429907" stop-color="#44C7EA"/><stop offset="0.439252" stop-color="#44C6E9"/><stop offset="0.448598" stop-color="#44C5E9"/><stop offset="0.457944" stop-color="#44C5E8"/><stop offset="0.46729" stop-color="#44C4E8"/><stop offset="0.476636" stop-color="#44C3E8"/><stop offset="0.485981" stop-color="#44C2E7"/><stop offset="0.495327" stop-color="#44C1E7"/><stop offset="0.504673" stop-color="#44C0E6"/><stop offset="0.514019" stop-color="#44BEE6"/><stop offset="0.523364" stop-color="#44BDE5"/><stop offset="0.53271" stop-color="#44BCE5"/><stop offset="0.542056" stop-color="#44BBE4"/><stop offset="0.551402" stop-color="#44BAE4"/><stop offset="0.560748" stop-color="#44B9E3"/><stop offset="0.570093" stop-color="#44B8E3"/><stop offset="0.579439" stop-color="#44B7E2"/><stop offset="0.588785" stop-color="#44B5E2"/><stop offset="0.598131" stop-color="#44B4E1"/><stop offset="0.607477" stop-color="#44B3E1"/><stop offset="0.616822" stop-color="#44B2E0"/><stop offset="0.626168" stop-color="#44B1E0"/><stop offset="0.635514" stop-color="#44AFDF"/><stop offset="0.64486" stop-color="#44AEDE"/><stop offset="0.654206" stop-color="#44ADDE"/><stop offset="0.663551" stop-color="#44ABDD"/><stop offset="0.672897" stop-color="#44AADD"/><stop offset="0.682243" stop-color="#44A9DC"/><stop offset="0.691589" stop-color="#44A7DB"/><stop offset="0.700935" stop-color="#44A6DB"/><stop offset="0.71028" stop-color="#44A5DA"/><stop offset="0.719626" stop-color="#44A3DA"/><stop offset="0.728972" stop-color="#44A2D9"/><stop offset="0.738318" stop-color="#44A0D8"/><stop offset="0.747664" stop-color="#449FD8"/><stop offset="0.757009" stop-color="#449DD7"/><stop offset="0.766355" stop-color="#449CD6"/><stop offset="0.775701" stop-color="#449AD6"/><stop offset="0.785047" stop-color="#4499D5"/><stop offset="0.794393" stop-color="#4497D4"/><stop offset="0.803738" stop-color="#4496D4"/><stop offset="0.813084" stop-color="#4494D3"/><stop offset="0.82243" stop-color="#4493D2"/><stop offset="0.831776" stop-color="#4491D2"/><stop offset="0.841121" stop-color="#448FD1"/><stop offset="0.850467" stop-color="#448ED0"/><stop offset="0.859813" stop-color="#448CCF"/><stop offset="0.869159" stop-color="#448ACF"/><stop offset="0.878505" stop-color="#4489CE"/><stop offset="0.88785" stop-color="#4487CD"/><stop offset="0.897196" stop-color="#4485CC"/><stop offset="0.906542" stop-color="#4484CC"/><stop offset="0.915888" stop-color="#4482CB"/><stop offset="0.925234" stop-color="#4480CA"/><stop offset="0.934579" stop-color="#447EC9"/><stop offset="0.943925" stop-color="#447DC8"/><stop offset="0.953271" stop-color="#447BC8"/><stop offset="0.962617" stop-color="#4479C7"/><stop offset="0.971963" stop-color="#4477C6"/><stop offset="0.981308" stop-color="#4475C5"/><stop offset="0.990654" stop-color="#4473C4"/><stop offset="1" stop-color="#4472C4"/></linearGradient><linearGradient x1="-4118.2" y1="2288.75" x2="-4050.17" y2="2463.55" gradientUnits="userSpaceOnUse" spreadMethod="reflect" id="fill8"><stop offset="0" stop-color="#45DEF4"/><stop offset="0.24" stop-color="#45DEF4"/><stop offset="0.79" stop-color="#4472C4"/><stop offset="1" stop-color="#4472C4"/></linearGradient><linearGradient x1="-5062.83" y1="2421.43" x2="-5002.42" y2="2574.8" gradientUnits="userSpaceOnUse" spreadMethod="reflect" id="fill9"><stop offset="0" stop-color="#45DEF4"/><stop offset="0.00934579" stop-color="#44DDF3"/><stop offset="0.0186916" stop-color="#44DDF3"/><stop offset="0.0280374" stop-color="#44DDF3"/><stop offset="0.0373832" stop-color="#44DDF3"/><stop offset="0.046729" stop-color="#44DDF3"/><stop offset="0.0560748" stop-color="#44DDF3"/><stop offset="0.0654206" stop-color="#44DDF3"/><stop offset="0.0747664" stop-color="#44DDF3"/><stop offset="0.0841122" stop-color="#44DCF3"/><stop offset="0.0934579" stop-color="#44DCF3"/><stop offset="0.102804" stop-color="#44DCF3"/><stop offset="0.11215" stop-color="#44DCF3"/><stop offset="0.121495" stop-color="#44DBF3"/><stop offset="0.130841" stop-color="#44DBF2"/><stop offset="0.140187" stop-color="#44DBF2"/><stop offset="0.149533" stop-color="#44DAF2"/><stop offset="0.158879" stop-color="#44DAF2"/><stop offset="0.168224" stop-color="#44DAF2"/><stop offset="0.17757" stop-color="#44D9F2"/><stop offset="0.186916" stop-color="#44D9F1"/><stop offset="0.196262" stop-color="#44D8F1"/><stop offset="0.205607" stop-color="#44D8F1"/><stop offset="0.214953" stop-color="#44D7F1"/><stop offset="0.224299" stop-color="#44D7F1"/><stop offset="0.233645" stop-color="#44D6F0"/><stop offset="0.242991" stop-color="#44D6F0"/><stop offset="0.252336" stop-color="#44D5F0"/><stop offset="0.261682" stop-color="#44D5F0"/><stop offset="0.271028" stop-color="#44D4EF"/><stop offset="0.280374" stop-color="#44D4EF"/><stop offset="0.28972" stop-color="#44D3EF"/><stop offset="0.299065" stop-color="#44D2EF"/><stop offset="0.308411" stop-color="#44D2EE"/><stop offset="0.317757" stop-color="#44D1EE"/><stop offset="0.327103" stop-color="#44D0EE"/><stop offset="0.336449" stop-color="#44CFED"/><stop offset="0.345794" stop-color="#44CFED"/><stop offset="0.35514" stop-color="#44CEED"/><stop offset="0.364486" stop-color="#44CDEC"/><stop offset="0.373832" stop-color="#44CCEC"/><stop offset="0.383178" stop-color="#44CCEC"/><stop offset="0.392523" stop-color="#44CBEB"/><stop offset="0.401869" stop-color="#44CAEB"/><stop offset="0.411215" stop-color="#44C9EA"/><stop offset="0.420561" stop-color="#44C8EA"/><stop offset="0.429907" stop-color="#44C7EA"/><stop offset="0.439252" stop-color="#44C6E9"/><stop offset="0.448598" stop-color="#44C5E9"/><stop offset="0.457944" stop-color="#44C5E8"/><stop offset="0.46729" stop-color="#44C4E8"/><stop offset="0.476636" stop-color="#44C3E8"/><stop offset="0.485981" stop-color="#44C2E7"/><stop offset="0.495327" stop-color="#44C1E7"/><stop offset="0.504673" stop-color="#44C0E6"/><stop offset="0.514019" stop-color="#44BEE6"/><stop offset="0.523364" stop-color="#44BDE5"/><stop offset="0.53271" stop-color="#44BCE5"/><stop offset="0.542056" stop-color="#44BBE4"/><stop offset="0.551402" stop-color="#44BAE4"/><stop offset="0.560748" stop-color="#44B9E3"/><stop offset="0.570093" stop-color="#44B8E3"/><stop offset="0.579439" stop-color="#44B7E2"/><stop offset="0.588785" stop-color="#44B5E2"/><stop offset="0.598131" stop-color="#44B4E1"/><stop offset="0.607477" stop-color="#44B3E1"/><stop offset="0.616822" stop-color="#44B2E0"/><stop offset="0.626168" stop-color="#44B1E0"/><stop offset="0.635514" stop-color="#44AFDF"/><stop offset="0.64486" stop-color="#44AEDE"/><stop offset="0.654206" stop-color="#44ADDE"/><stop offset="0.663551" stop-color="#44ABDD"/><stop offset="0.672897" stop-color="#44AADD"/><stop offset="0.682243" stop-color="#44A9DC"/><stop offset="0.691589" stop-color="#44A7DB"/><stop offset="0.700935" stop-color="#44A6DB"/><stop offset="0.71028" stop-color="#44A5DA"/><stop offset="0.719626" stop-color="#44A3DA"/><stop offset="0.728972" stop-color="#44A2D9"/><stop offset="0.738318" stop-color="#44A0D8"/><stop offset="0.747664" stop-color="#449FD8"/><stop offset="0.757009" stop-color="#449DD7"/><stop offset="0.766355" stop-color="#449CD6"/><stop offset="0.775701" stop-color="#449AD6"/><stop offset="0.785047" stop-color="#4499D5"/><stop offset="0.794393" stop-color="#4497D4"/><stop offset="0.803738" stop-color="#4496D4"/><stop offset="0.813084" stop-color="#4494D3"/><stop offset="0.82243" stop-color="#4493D2"/><stop offset="0.831776" stop-color="#4491D2"/><stop offset="0.841121" stop-color="#448FD1"/><stop offset="0.850467" stop-color="#448ED0"/><stop offset="0.859813" stop-color="#448CCF"/><stop offset="0.869159" stop-color="#448ACF"/><stop offset="0.878505" stop-color="#4489CE"/><stop offset="0.88785" stop-color="#4487CD"/><stop offset="0.897196" stop-color="#4485CC"/><stop offset="0.906542" stop-color="#4484CC"/><stop offset="0.915888" stop-color="#4482CB"/><stop offset="0.925234" stop-color="#4480CA"/><stop offset="0.934579" stop-color="#447EC9"/><stop offset="0.943925" stop-color="#447DC8"/><stop offset="0.953271" stop-color="#447BC8"/><stop offset="0.962617" stop-color="#4479C7"/><stop offset="0.971963" stop-color="#4477C6"/><stop offset="0.981308" stop-color="#4475C5"/><stop offset="0.990654" stop-color="#4473C4"/><stop offset="1" stop-color="#4472C4"/></linearGradient><linearGradient x1="-4216.21" y1="2550.47" x2="-4158.8" y2="2657.3" gradientUnits="userSpaceOnUse" spreadMethod="reflect" id="fill10"><stop offset="0" stop-color="#45DEF4"/><stop offset="0.24" stop-color="#45DEF4"/><stop offset="0.79" stop-color="#4472C4"/><stop offset="1" stop-color="#4472C4"/></linearGradient></defs><g clip-path="url(#clip0)" transform="translate(6937 -378)"><path d="M-6359.48 988.473C-6145.24 518.622-5621.69 286.653-5126.17 411.37-4709.42 516.348-4398.11 861.845-4361.36 1295.58-4359.27 1319.96-4354.81 1361.99-4391.47 1361.99-4511.13 1361.87-4630.76 1361.87-4750.36 1361.99-4783.93 1362.08-4793.39 1356.17-4797.48 1322.96-4818.28 1156.73-4892.21 1023.25-5019.27 922.521-5331.49 674.814-5791.36 789.434-5948.47 1155.85-5984.98 1241.06-5995.56 1330.79-5980.22 1425.03-5979.73 1427.94-5980.46 1430.46-5982.4 1432.58L-6059.36 1516.45C-6062.17 1519.5-6066.84 1519.86-6070.01 1517.27-6178.39 1428.67-6298.08 1412.2-6429.08 1467.87-6431.26 1468.78-6432.5 1468.06-6432.81 1465.69-6451.73 1296.25-6427.29 1137.18-6359.48 988.473Z" fill="url(#fill1)" fill-rule="evenodd"/><path d="M-5005 1246C-5005 1379.65-5113.35 1488-5247 1488-5380.65 1488-5489 1379.65-5489 1246-5489 1112.35-5380.65 1004-5247 1004-5113.35 1004-5005 1112.35-5005 1246Z" fill="url(#fill2)" fill-rule="evenodd"/><path d="M-5399.18 3309.99-5397.72 2901.43C-5198.34 2905.68-5034.5 2838.92-4906.23 2701.16-4844.48 2634.94-4793.92 2541.26-4792.92 2450.04-4791.71 2347.26-4837.02 2267.31-4928.87 2210.19-5017.17 2155.26-5105.19 2141.16-5229.13 2120.42-5421.64 2088.14-5591.59 2073.86-5766.64 2019.47-5768.76 2018.85-5769.98 2016.62-5769.36 2014.5-5768.96 2013.13-5767.85 2012.07-5766.46 2011.74-5658.89 1983.9-5547.58 1905.14-5529.49 1791.09-5511.66 1678.67-5651.52 1615.27-5742.54 1618.09-5786.92 1619.37-5844.39 1670.57-5801.29 1714.69-5778.01 1738.51-5740.09 1730.06-5718.08 1708.41-5715.96 1706.35-5713.96 1706.44-5712.08 1708.68-5684.17 1741.97-5720.9 1812.91-5743.36 1834.29-5854.3 1939.91-5980.22 1964.29-6121.1 1907.41-6150.75 1895.47-6175.63 1872.85-6195.76 1839.56-6197.34 1837.02-6197.49 1834.41-6196.21 1831.74-6152.93 1740.24-6272.6 1698.13-6311.7 1761.53-6325.98 1784.63-6314.61 1818.28-6326.25 1843.47-6361.62 1919.87-6420.64 1913.23-6505.75 1912.78-6626.45 1912.11-6747.18 1911.35-6867.94 1910.51-6870.43 1910.45-6871.4 1909.2-6870.85 1906.78-6851.45 1821.65-6804.23 1765.22-6729.18 1737.51-6661.34 1712.47-6600.26 1725.78-6545.95 1777.44-6542.98 1780.29-6541.04 1779.72-6540.13 1775.71-6535.03 1752.89-6529.76 1727.05-6519.67 1707.05-6408.73 1488.12-6081 1517.23-6063.45 1784.26-6063.21 1787.36-6061.54 1788.9-6058.45 1788.9L-5979.34 1788.36C-5976.06 1788.36-5974.79 1786.75-5975.52 1783.54-5992.49 1704.83-5980.76 1637.25-5940.33 1580.8-5828.57 1424.73-5581.23 1420.54-5461.56 1571.8-5431.98 1609.21-5411.67 1652.29-5400.63 1701.04-5399.97 1704.01-5398.12 1705.65-5395.09 1705.95-5273.96 1718.2-5138.29 1735.82-4988.07 1758.8-4796.65 1788.17-4630.42 1825.92-4476.11 1945.7-4473.85 1947.38-4473.37 1950.57-4475.04 1952.83-4476.03 1954.17-4477.62 1954.94-4479.29 1954.89-4539.85 1954.47-4601.11 1954.41-4663.07 1954.71-4686.95 1954.83-4704.41 1957.95-4715.45 1964.08-4752.27 1984.54-4754.27 2044.75-4721.54 2069.04-4710.44 2077.28-4693.11 2081.8-4669.52 2082.59-4580.59 2085.74-4490.66 2086.01-4399.72 2083.41-4392.93 2083.22-4388.21 2086.26-4385.54 2092.5-4336.62 2207.56-4327.52 2340.89-4342.71 2464.13-4370.62 2691.15-4504.3 2910.16-4678.25 3054.23-4885.4 3225.77-5125.71 3311.02-5399.18 3309.99Z" fill="url(#fill3)" fill-rule="evenodd"/><path d="M-4308.53 1604.7C-4265.61 1584.31-4232.79 1548.34-4196.24 1524.22-4151.14 1494.44-4086.03 1509.92-4059.21 1557.08-4030.66 1607.35-4047.39 1673.18-4089.22 1710.96-4204.24 1814.67-4441.01 1772.88-4574.04 1732.27-4721.52 1687.2-4858.45 1634.02-5013.03 1618.27-5015.45 1617.98-5017.22 1615.78-5016.98 1613.36-5016.79 1611.55-5015.51 1610.07-5013.75 1609.62-4869.64 1570.83-4752.25 1598.51-4587.86 1625.37-4496.93 1640.31-4394.18 1645.4-4308.53 1604.7Z" fill="#FEFEFE" fill-rule="evenodd"/><path d="M-6923.68 2095.94C-6901.58 2073.01-6854.3 2074.65-6822.65 2074.55-6547.6 2073.71-6272.49 2073.83-5997.31 2074.92-5913.77 2075.28-5856.85 2113.19-5826.54 2188.64-5825.2 2192.03-5826.35 2193.87-5829.99 2194.17-5837.81 2194.72-5848.91 2194.99-5863.27 2194.99-6195.25 2195.05-6527.2 2194.9-6859.11 2194.53-6882.7 2194.53-6900.04 2190.85-6911.13 2183.48-6937.23 2166.08-6947.32 2120.5-6923.68 2095.94Z" fill="#45DEF4" fill-rule="evenodd"/><path d="M-5278 2500C-5278 2635.31-5387.69 2745-5523 2745-5658.31 2745-5768 2635.31-5768 2500-5768 2364.69-5658.31 2255-5523 2255-5387.69 2255-5278 2364.69-5278 2500Z" fill="url(#fill4)" fill-rule="evenodd"/><path d="M-5397 2901.29-5398.46 3309.99C-5765.1 3311.36-6102.89 3127.57-6298.63 2814.13-6321.2 2777.92-6338.46 2745.86-6350.41 2717.96-6351.81 2714.62-6350.69 2712.92-6347.05 2712.86-6261.26 2711.83-6175.69 2711.77-6090.33 2712.68-6075.59 2712.86-6061.24 2711.19-6047.29 2707.68-5962.57 2686.29-5988.96 2572.02-6074.32 2571.93-6236.54 2571.74-6398.73 2571.5-6560.9 2571.2-6616.41 2571.02-6661.82 2564.56-6656.08 2497.68-6655.8 2494.58-6654.08 2491.79-6651.44 2490.13-6643.86 2485.4-6635.76 2483.22-6627.15 2483.58-6591.9 2484.98-6556.74 2483.58-6521.68 2479.4-6518.01 2478.95-6515.07 2476.13-6514.49 2472.48L-6511.03 2449.64C-6510.53 2446.31-6512.82 2443.21-6516.15 2442.71-6516.47 2442.66-6516.8 2442.63-6517.13 2442.64-6598.48 2442.7-6679.71 2442.46-6760.83 2441.91-6783.27 2441.73-6799.65 2438.51-6809.97 2432.27-6839 2414.71-6843.91 2362.57-6812.61 2344.01-6803.87 2338.79-6790.49 2336.16-6772.48 2336.09-6523.13 2334.94-6273.82 2334.7-6024.54 2335.37-6021.33 2335.43-6019.44 2337.03-6018.9 2340.19-5982.5 2550.91-5858.65 2742.8-5666 2837.69-5581.31 2879.42-5491.64 2900.62-5397 2901.29Z" fill="url(#fill5)" fill-rule="evenodd"/><path d="M-4002.07 1048.72C-3972.03 1048.67-3947.68 1048.63-3947.68 1048.63L-3947.48 1161.58C-3947.48 1161.58-3971.83 1161.63-4001.87 1161.68L-4209.23 1162.04C-4239.27 1162.09-4263.62 1162.14-4263.62 1162.14L-4263.82 1049.18C-4263.82 1049.18-4239.47 1049.14-4209.43 1049.08Z" fill="#FEFEFE" fill-rule="evenodd"/><path d="M-6586.72 1049.62C-6557.19 1049.52-6533.24 1049.44-6533.24 1049.44L-6532.85 1161.12C-6532.85 1161.12-6556.8 1161.2-6586.33 1161.31L-6745.67 1161.86C-6775.21 1161.97-6799.15 1162.05-6799.15 1162.05L-6799.54 1050.37C-6799.54 1050.37-6775.6 1050.28-6746.06 1050.18Z" fill="#FEFEFE" fill-rule="evenodd"/><path d="M-5643.99 1287.22C-5628.57 1287.28-5616.07 1287.32-5616.07 1287.32L-5616.27 1346.44C-5616.27 1346.44-5628.77 1346.39-5644.19 1346.34L-5817.36 1345.73C-5832.78 1345.68-5845.28 1345.64-5845.28 1345.64L-5845.07 1286.52C-5845.07 1286.52-5832.57 1286.56-5817.15 1286.62Z" fill="#FEFEFE" fill-rule="evenodd"/><path d="M-4186.21 1331.73C-4193.52 1345.59-4211.44 1350.51-4226.23 1342.71-4241.03 1334.91-4247.1 1317.34-4239.79 1303.48-4232.48 1289.62-4214.56 1284.7-4199.76 1292.51-4184.97 1300.31-4178.9 1317.87-4186.21 1331.73Z" fill="#FEFEFE" fill-rule="evenodd"/><path d="M-6621.45 1308.34C-6599.35 1308.53-6581.43 1308.69-6581.43 1308.69L-6582.17 1392.9C-6582.17 1392.9-6600.08 1392.75-6622.18 1392.55L-6715.86 1391.74C-6737.96 1391.54-6755.87 1391.39-6755.87 1391.39L-6755.14 1307.17C-6755.14 1307.17-6737.22 1307.33-6715.12 1307.52Z" fill="#FEFEFE" fill-rule="evenodd"/><path d="M-4010.9 2077.61C-3982.01 2077.46-3958.6 2077.33-3958.6 2077.33L-3958.03 2186.29C-3958.03 2186.29-3981.44 2186.41-4010.33 2186.56L-4199.68 2187.55C-4228.56 2187.71-4251.97 2187.83-4251.97 2187.83L-4252.54 2078.87C-4252.54 2078.87-4229.13 2078.75-4200.25 2078.6Z" fill="url(#fill6)" fill-rule="evenodd"/><path d="M-5148.99 2326C-5183.55 2326.09-5198.25 2264.2-5151.08 2262.01-5078.6 2258.64-4994.6 2251.71-4950.88 2317.7-4949.27 2320.19-4949.93 2323.52-4952.36 2325.13-4953.21 2325.7-4954.21 2326-4955.23 2326-5020.12 2326-5084.71 2326-5148.99 2326Z" fill="url(#fill7)" fill-rule="evenodd"/><path d="M-4004.07 2326.04C-3977.45 2326.14-3955.86 2326.21-3955.86 2326.21L-3956.22 2426.98C-3956.22 2426.98-3977.8 2426.91-4004.42 2426.81L-4164.3 2426.26C-4190.93 2426.16-4212.51 2426.09-4212.51 2426.09L-4212.16 2325.32C-4212.16 2325.32-4190.57 2325.39-4163.95 2325.49Z" fill="url(#fill8)" fill-rule="evenodd"/><path d="M-4961.1 2453.54C-4937.79 2453.42-4918.9 2453.32-4918.9 2453.32L-4918.44 2541.72C-4918.44 2541.72-4937.33 2541.82-4960.63 2541.94L-5104.15 2542.69C-5127.46 2542.81-5146.35 2542.91-5146.35 2542.91L-5146.81 2454.51C-5146.81 2454.51-5127.92 2454.41-5104.61 2454.29Z" fill="url(#fill9)" fill-rule="evenodd"/><path d="M-4153.82 2569.19C-4136.19 2568.88-4121.9 2568.63-4121.9 2568.63L-4120.71 2636.83C-4120.71 2636.83-4135 2637.08-4152.63 2637.39L-4221.19 2638.59C-4238.82 2638.9-4253.11 2639.15-4253.11 2639.15L-4254.3 2570.94C-4254.3 2570.94-4240.01 2570.69-4222.38 2570.39Z" fill="url(#fill10)" fill-rule="evenodd"/></g></svg>