<svg width="2990" height="2932" xmlns="http://www.w3.org/2000/svg" xmlns:xlink="http://www.w3.org/1999/xlink" overflow="hidden"><defs><clipPath id="clip0"><rect x="-3288" y="384" width="2990" height="2932"/></clipPath></defs><g clip-path="url(#clip0)" transform="translate(3288 -384)"><path d="M-2710.48 994.473C-2496.24 524.622-1972.69 292.653-1477.17 417.37-1060.42 522.348-749.112 867.845-712.359 1301.58-710.266 1325.96-705.809 1367.99-742.471 1367.99-862.13 1367.87-981.759 1367.87-1101.36 1367.99-1134.93 1368.08-1144.39 1362.17-1148.48 1328.96-1169.28 1162.73-1243.21 1029.25-1370.27 928.521-1682.49 680.814-2142.36 795.434-2299.47 1161.85-2335.98 1247.06-2346.56 1336.79-2331.22 1431.03-2330.73 1433.94-2331.46 1436.46-2333.4 1438.58L-2410.36 1522.45C-2413.17 1525.5-2417.84 1525.86-2421.01 1523.27-2529.39 1434.67-2649.08 1418.2-2780.08 1473.87-2782.26 1474.78-2783.5 1474.06-2783.81 1471.69-2802.73 1302.25-2778.29 1143.18-2710.48 994.473Z" fill="#FEFEFE" fill-rule="evenodd"/><path d="M-1356 1252C-1356 1385.65-1464.35 1494-1598 1494-1731.65 1494-1840 1385.65-1840 1252-1840 1118.35-1731.65 1010-1598 1010-1464.35 1010-1356 1118.35-1356 1252Z" fill="#FEFEFE" fill-rule="evenodd"/><path d="M-1749.6 3315.99-1748.14 2907.43C-1548.68 2911.68-1384.78 2844.92-1256.45 2707.16-1194.68 2640.94-1144.1 2547.26-1143.1 2456.04-1141.89 2353.26-1187.22 2273.31-1279.1 2216.19-1367.43 2161.26-1455.49 2147.16-1579.48 2126.42-1772.07 2094.14-1942.09 2079.86-2117.21 2025.47-2119.33 2024.85-2120.55 2022.62-2119.93 2020.5-2119.52 2019.13-2118.42 2018.07-2117.02 2017.74-2009.41 1989.9-1898.06 1911.14-1879.96 1797.09-1862.13 1684.67-2002.04 1621.27-2093.1 1624.09-2137.49 1625.37-2194.99 1676.57-2151.87 1720.69-2128.58 1744.52-2090.64 1736.06-2068.63 1714.41-2066.51 1712.35-2064.5 1712.44-2062.62 1714.68-2034.7 1747.97-2071.45 1818.91-2093.92 1840.29-2204.9 1945.91-2330.86 1970.29-2471.81 1913.41-2501.46 1901.47-2526.36 1878.85-2546.49 1845.56-2548.07 1843.02-2548.22 1840.41-2546.95 1837.74-2503.65 1746.24-2623.36 1704.13-2662.48 1767.53-2676.76 1790.63-2665.39 1824.28-2677.03 1849.47-2712.42 1925.87-2771.46 1919.23-2856.61 1918.78-2977.36 1918.11-3098.13 1917.35-3218.94 1916.51-3221.43 1916.45-3222.4 1915.2-3221.85 1912.78-3202.45 1827.65-3155.2 1771.22-3080.12 1743.51-3012.26 1718.47-2951.16 1731.78-2896.82 1783.44-2893.85 1786.29-2891.91 1785.72-2891 1781.71-2885.9 1758.89-2880.62 1733.05-2870.53 1713.05-2759.54 1494.12-2431.69 1523.23-2414.13 1790.26-2413.89 1793.36-2412.22 1794.9-2409.13 1794.9L-2329.98 1794.36C-2326.71 1794.36-2325.44 1792.75-2326.16 1789.54-2343.15 1710.83-2331.41 1643.25-2290.96 1586.8-2179.16 1430.73-1931.72 1426.55-1812 1577.8-1782.41 1615.21-1762.09 1658.29-1751.05 1707.04-1750.39 1710.01-1748.54 1711.65-1745.5 1711.95-1624.33 1724.2-1488.6 1741.82-1338.32 1764.8-1146.83 1794.17-980.539 1831.92-826.163 1951.7-823.901 1953.38-823.424 1956.57-825.096 1958.83-826.089 1960.17-827.678 1960.94-829.347 1960.89-889.933 1960.47-951.216 1960.41-1013.2 1960.71-1037.09 1960.83-1054.56 1963.95-1065.6 1970.08-1102.44 1990.54-1104.44 2050.75-1071.69 2075.04-1060.59 2083.28-1043.25 2087.8-1019.66 2088.59-930.687 2091.74-840.718 2092.01-749.749 2089.41-742.956 2089.22-738.226 2092.26-735.557 2098.5-686.616 2213.56-677.519 2346.89-692.71 2470.13-720.638 2697.15-854.364 2916.16-1028.39 3060.23-1235.62 3231.77-1476.02 3317.02-1749.6 3315.99Z" fill="#FEFEFE" fill-rule="evenodd"/><path d="M-658.802 1610.7C-615.841 1590.31-582.983 1554.34-546.393 1530.21-501.247 1500.44-436.077 1515.92-409.226 1563.08-380.646 1613.35-397.394 1679.18-439.263 1716.96-554.403 1820.67-791.418 1778.88-924.58 1738.27-1072.21 1693.2-1209.29 1640.02-1364.02 1624.27-1366.45 1623.98-1368.22 1621.78-1367.98 1619.36-1367.79 1617.55-1366.51 1616.07-1364.75 1615.62-1220.49 1576.83-1102.98 1604.51-938.415 1631.37-847.395 1646.31-744.543 1651.4-658.802 1610.7Z" fill="#FEFEFE" fill-rule="evenodd"/><path d="M-3274.67 2101.94C-3252.55 2079.01-3205.22 2080.65-3173.55 2080.55-2898.25 2079.71-2622.89 2079.83-2347.47 2080.92-2263.85 2081.28-2206.88 2119.19-2176.54 2194.64-2175.2 2198.03-2176.36 2199.87-2180 2200.17-2187.82 2200.72-2198.93 2200.99-2213.31 2200.99-2545.58 2201.05-2877.83 2200.9-3210.04 2200.53-3233.65 2200.53-3251 2196.85-3262.11 2189.48-3288.23 2172.08-3298.33 2126.5-3274.67 2101.94Z" fill="#45DEF4" fill-rule="evenodd"/><path d="M-1629 2506C-1629 2641.31-1738.69 2751-1874 2751-2009.31 2751-2119 2641.31-2119 2506-2119 2370.69-2009.31 2261-1874 2261-1738.69 2261-1629 2370.69-1629 2506Z" fill="#45DEF4" fill-rule="evenodd"/><path d="M-1748 2907.29-1749.45 3315.99C-2115.84 3317.36-2453.4 3133.57-2649.01 2820.13-2671.56 2783.92-2688.81 2751.86-2700.75 2723.96-2702.15 2720.62-2701.02 2718.92-2697.39 2718.86-2611.66 2717.83-2526.15 2717.77-2440.85 2718.68-2426.12 2718.86-2411.78 2717.19-2397.84 2713.68-2313.18 2692.29-2339.55 2578.02-2424.85 2577.93-2586.96 2577.74-2749.04 2577.5-2911.09 2577.2-2966.56 2577.02-3011.94 2570.56-3006.21 2503.68-3005.92 2500.58-3004.21 2497.79-3001.57 2496.13-2993.99 2491.4-2985.9 2489.22-2977.29 2489.58-2942.07 2490.98-2906.94 2489.58-2871.89 2485.4-2868.23 2484.95-2865.29 2482.13-2864.71 2478.48L-2861.26 2455.64C-2860.75 2452.31-2863.04 2449.21-2866.37 2448.71-2866.69 2448.66-2867.02 2448.63-2867.35 2448.64-2948.65 2448.7-3029.82 2448.46-3110.88 2447.91-3133.31 2447.73-3149.68 2444.51-3159.98 2438.27-3188.99 2420.71-3193.9 2368.57-3162.62 2350.01-3153.89 2344.79-3140.52 2342.16-3122.52 2342.09-2873.35 2340.94-2624.21 2340.7-2375.1 2341.37-2371.89 2341.43-2370.01 2343.03-2369.47 2346.19-2333.09 2556.91-2209.33 2748.8-2016.81 2843.69-1932.18 2885.42-1842.57 2906.62-1748 2907.29Z" fill="#45DEF4" fill-rule="evenodd"/><path d="M-352.82 1054.8C-322.782 1054.75-298.433 1054.71-298.433 1054.71L-298.236 1167.66C-298.236 1167.66-322.585 1167.7-352.622 1167.76L-559.984 1168.12C-590.021 1168.17-614.371 1168.21-614.371 1168.21L-614.568 1055.26C-614.568 1055.26-590.218 1055.21-560.181 1055.16Z" fill="#FEFEFE" fill-rule="evenodd"/><path d="M-2937.47 1055.7C-2907.94 1055.6-2884 1055.52-2884 1055.52L-2883.61 1167.2C-2883.61 1167.2-2907.55 1167.28-2937.08 1167.39L-3096.42 1167.94C-3125.96 1168.05-3149.9 1168.13-3149.9 1168.13L-3150.29 1056.45C-3150.29 1056.45-3126.35 1056.36-3096.81 1056.26Z" fill="#FEFEFE" fill-rule="evenodd"/><path d="M-1994.74 1293.3C-1979.32 1293.36-1966.82 1293.4-1966.82 1293.4L-1967.03 1352.52C-1967.03 1352.52-1979.53 1352.47-1994.95 1352.42L-2168.11 1351.81C-2183.53 1351.76-2196.03 1351.72-2196.03 1351.72L-2195.82 1292.6C-2195.82 1292.6-2183.32 1292.64-2167.9 1292.7Z" fill="#FEFEFE" fill-rule="evenodd"/><path d="M-536.96 1337.81C-544.269 1351.67-562.189 1356.59-576.984 1348.79-591.78 1340.99-597.849 1323.42-590.541 1309.56-583.231 1295.7-565.312 1290.78-550.516 1298.59-535.72 1306.39-529.651 1323.95-536.96 1337.81Z" fill="#FEFEFE" fill-rule="evenodd"/><path d="M-2972.2 1314.42C-2950.1 1314.61-2932.18 1314.77-2932.18 1314.77L-2932.92 1398.98C-2932.92 1398.98-2950.83 1398.83-2972.93 1398.63L-3066.61 1397.82C-3088.71 1397.62-3106.62 1397.47-3106.62 1397.47L-3105.89 1313.25C-3105.89 1313.25-3087.97 1313.41-3065.87 1313.6Z" fill="#FEFEFE" fill-rule="evenodd"/><path d="M-361.647 2083.69C-332.766 2083.54-309.353 2083.41-309.353 2083.41L-308.782 2192.37C-308.782 2192.37-332.195 2192.49-361.077 2192.64L-550.428 2193.63C-579.31 2193.78-602.723 2193.91-602.723 2193.91L-603.293 2084.95C-603.293 2084.95-579.88 2084.83-550.999 2084.68Z" fill="#45DEF4" fill-rule="evenodd"/><path d="M-1499.85 2332C-1534.56 2332.09-1549.32 2270.2-1501.95 2268.01-1429.16 2264.64-1344.79 2257.71-1300.88 2323.7-1299.27 2326.19-1299.93 2329.52-1302.37 2331.13-1303.22 2331.7-1304.23 2332-1305.25 2332-1370.42 2332-1435.29 2332-1499.85 2332Z" fill="#45DEF4" fill-rule="evenodd"/><path d="M-354.819 2332.12C-328.197 2332.22-306.616 2332.29-306.616 2332.29L-306.968 2433.06C-306.968 2433.06-328.549 2432.99-355.171 2432.89L-515.057 2432.33C-541.678 2432.24-563.259 2432.17-563.259 2432.17L-562.907 2331.4C-562.907 2331.4-541.326 2331.47-514.705 2331.56Z" fill="#45DEF4" fill-rule="evenodd"/><path d="M-1311.85 2459.62C-1288.54 2459.5-1269.65 2459.4-1269.65 2459.4L-1269.19 2547.8C-1269.19 2547.8-1288.08 2547.9-1311.39 2548.02L-1454.9 2548.77C-1478.21 2548.89-1497.1 2548.99-1497.1 2548.99L-1497.56 2460.59C-1497.56 2460.59-1478.67 2460.49-1455.36 2460.37Z" fill="#45DEF4" fill-rule="evenodd"/><path d="M-504.569 2575.27C-486.942 2574.96-472.651 2574.71-472.651 2574.71L-471.461 2642.91C-471.461 2642.91-485.751 2643.16-503.379 2643.47L-571.944 2644.67C-589.571 2644.97-603.862 2645.22-603.862 2645.22L-605.052 2577.02C-605.052 2577.02-590.762 2576.77-573.134 2576.47Z" fill="#45DEF4" fill-rule="evenodd"/><path d="M-1575.82 741.028C-1543.08 741.142-1516.53 741.235-1516.53 741.235L-1516.74 800.351C-1516.74 800.351-1543.28 800.258-1576.03 800.144L-1943.72 798.861C-1976.46 798.746-2003 798.654-2003 798.654L-2002.8 739.538C-2002.8 739.538-1976.25 739.63-1943.51 739.745Z" fill="#FEFEFE" fill-rule="evenodd"/></g></svg>