<svg width="2990" height="2932" xmlns="http://www.w3.org/2000/svg" xmlns:xlink="http://www.w3.org/1999/xlink" overflow="hidden"><defs><clipPath id="clip0"><rect x="3835" y="390" width="2990" height="2932"/></clipPath></defs><g clip-path="url(#clip0)" transform="translate(-3835 -390)"><path d="M4412.48 1000.47C4626.62 530.622 5149.91 298.653 5645.2 423.37 6061.75 528.348 6372.91 873.845 6409.64 1307.58 6411.73 1331.96 6416.19 1373.99 6379.54 1373.99 6259.94 1373.87 6140.37 1373.87 6020.83 1373.99 5987.28 1374.08 5977.82 1368.17 5973.73 1334.96 5952.94 1168.73 5879.04 1035.25 5752.04 934.521 5439.98 686.814 4980.33 801.434 4823.3 1167.85 4786.8 1253.06 4776.22 1342.79 4791.56 1437.03 4792.05 1439.94 4791.32 1442.46 4789.38 1444.58L4712.45 1528.45C4709.65 1531.5 4704.98 1531.86 4701.81 1529.27 4593.49 1440.67 4473.86 1424.2 4342.92 1479.87 4340.74 1480.78 4339.49 1480.06 4339.19 1477.69 4320.28 1308.25 4344.71 1149.18 4412.48 1000.47Z" fill-rule="evenodd"/><path d="M5767 1258C5767 1391.65 5658.65 1500 5525 1500 5391.35 1500 5283 1391.65 5283 1258 5283 1124.35 5391.35 1016 5525 1016 5658.65 1016 5767 1124.35 5767 1258Z" fill-rule="evenodd"/><path d="M5372.82 3321.99 5374.28 2913.43C5573.66 2917.68 5737.5 2850.92 5865.77 2713.16 5927.52 2646.94 5978.08 2553.26 5979.08 2462.04 5980.29 2359.26 5934.98 2279.31 5843.13 2222.19 5754.84 2167.26 5666.81 2153.16 5542.87 2132.42 5350.36 2100.14 5180.41 2085.86 5005.36 2031.47 5003.24 2030.85 5002.02 2028.62 5002.64 2026.5 5003.04 2025.13 5004.15 2024.07 5005.54 2023.74 5113.11 1995.9 5224.42 1917.14 5242.51 1803.09 5260.34 1690.67 5120.48 1627.27 5029.46 1630.09 4985.08 1631.37 4927.61 1682.57 4970.71 1726.69 4993.99 1750.51 5031.91 1742.06 5053.92 1720.41 5056.04 1718.35 5058.04 1718.44 5059.92 1720.68 5087.83 1753.97 5051.1 1824.91 5028.64 1846.29 4917.7 1951.91 4791.78 1976.29 4650.9 1919.41 4621.25 1907.47 4596.37 1884.85 4576.24 1851.56 4574.66 1849.02 4574.51 1846.41 4575.79 1843.74 4619.07 1752.24 4499.4 1710.13 4460.3 1773.53 4446.02 1796.63 4457.39 1830.28 4445.75 1855.47 4410.38 1931.87 4351.36 1925.23 4266.25 1924.78 4145.55 1924.11 4024.82 1923.35 3904.06 1922.51 3901.57 1922.45 3900.6 1921.2 3901.15 1918.78 3920.55 1833.65 3967.77 1777.22 4042.82 1749.51 4110.66 1724.47 4171.74 1737.78 4226.05 1789.44 4229.02 1792.29 4230.96 1791.72 4231.87 1787.71 4236.97 1764.89 4242.24 1739.05 4252.33 1719.05 4363.27 1500.12 4691 1529.23 4708.55 1796.26 4708.79 1799.36 4710.46 1800.9 4713.55 1800.9L4792.66 1800.36C4795.94 1800.36 4797.21 1798.75 4796.48 1795.54 4779.51 1716.83 4791.24 1649.25 4831.67 1592.8 4943.43 1436.73 5190.77 1432.55 5310.44 1583.8 5340.02 1621.21 5360.33 1664.29 5371.37 1713.04 5372.03 1716.01 5373.88 1717.65 5376.91 1717.95 5498.04 1730.2 5633.71 1747.82 5783.93 1770.8 5975.35 1800.17 6141.58 1837.92 6295.89 1957.7 6298.15 1959.38 6298.63 1962.57 6296.96 1964.83 6295.97 1966.17 6294.38 1966.94 6292.71 1966.89 6232.15 1966.47 6170.89 1966.41 6108.93 1966.71 6085.05 1966.83 6067.59 1969.95 6056.55 1976.08 6019.73 1996.54 6017.73 2056.75 6050.46 2081.04 6061.56 2089.28 6078.89 2093.8 6102.48 2094.59 6191.41 2097.74 6281.34 2098.01 6372.28 2095.41 6379.07 2095.22 6383.79 2098.26 6386.46 2104.5 6435.38 2219.56 6444.48 2352.89 6429.29 2476.13 6401.38 2703.15 6267.7 2922.16 6093.75 3066.23 5886.6 3237.77 5646.29 3323.02 5372.82 3321.99Z" fill-rule="evenodd"/><path d="M6463.47 1616.7C6506.39 1596.31 6539.21 1560.34 6575.76 1536.22 6620.86 1506.44 6685.97 1521.92 6712.79 1569.08 6741.34 1619.35 6724.61 1685.18 6682.78 1722.96 6567.76 1826.67 6330.99 1784.88 6197.96 1744.27 6050.48 1699.2 5913.55 1646.02 5758.97 1630.27 5756.55 1629.98 5754.78 1627.78 5755.02 1625.36 5755.21 1623.55 5756.49 1622.07 5758.25 1621.62 5902.36 1582.83 6019.75 1610.51 6184.14 1637.37 6275.07 1652.31 6377.82 1657.4 6463.47 1616.7Z" fill-rule="evenodd"/><path d="M3848.32 2107.94C3870.42 2085.01 3917.7 2086.65 3949.35 2086.55 4224.4 2085.71 4499.51 2085.83 4774.69 2086.92 4858.23 2087.28 4915.15 2125.19 4945.46 2200.64 4946.8 2204.03 4945.65 2205.87 4942.01 2206.17 4934.19 2206.72 4923.09 2206.99 4908.72 2206.99 4576.75 2207.05 4244.8 2206.9 3912.88 2206.53 3889.3 2206.53 3871.96 2202.85 3860.87 2195.48 3834.77 2178.08 3824.68 2132.5 3848.32 2107.94Z" fill-rule="evenodd"/><path d="M5493 2512C5493 2647.31 5383.53 2757 5248.5 2757 5113.47 2757 5004 2647.31 5004 2512 5004 2376.69 5113.47 2267 5248.5 2267 5383.53 2267 5493 2376.69 5493 2512Z" fill-rule="evenodd"/><path d="M5374 2913.29 5372.54 3321.99C5006.16 3323.36 4668.6 3139.57 4472.99 2826.13 4450.44 2789.92 4433.19 2757.86 4421.25 2729.96 4419.86 2726.62 4420.98 2724.92 4424.61 2724.86 4510.34 2723.83 4595.85 2723.77 4681.15 2724.68 4695.88 2724.86 4710.22 2723.19 4724.16 2719.68 4808.82 2698.29 4782.45 2584.02 4697.15 2583.93 4535.04 2583.74 4372.96 2583.5 4210.91 2583.2 4155.44 2583.02 4110.06 2576.56 4115.79 2509.68 4116.08 2506.58 4117.79 2503.79 4120.43 2502.13 4128.01 2497.4 4136.1 2495.22 4144.71 2495.58 4179.93 2496.98 4215.06 2495.58 4250.11 2491.4 4253.77 2490.95 4256.71 2488.13 4257.29 2484.48L4260.75 2461.64C4261.25 2458.31 4258.96 2455.21 4255.63 2454.71 4255.31 2454.66 4254.98 2454.63 4254.65 2454.64 4173.35 2454.7 4092.18 2454.46 4011.12 2453.91 3988.69 2453.73 3972.32 2450.51 3962.02 2444.27 3933.01 2426.71 3928.1 2374.57 3959.38 2356.01 3968.11 2350.79 3981.48 2348.16 3999.48 2348.1 4248.65 2346.94 4497.79 2346.7 4746.9 2347.37 4750.11 2347.43 4751.99 2349.04 4752.53 2352.19 4788.91 2562.91 4912.67 2754.8 5105.19 2849.69 5189.82 2891.42 5279.43 2912.62 5374 2913.29Z" fill-rule="evenodd"/><path d="M6769.49 1060.88C6799.53 1060.83 6823.88 1060.78 6823.88 1060.78L6824.08 1173.74C6824.08 1173.74 6799.73 1173.78 6769.69 1173.84L6562.33 1174.2C6532.29 1174.25 6507.94 1174.29 6507.94 1174.29L6507.74 1061.34C6507.74 1061.34 6532.09 1061.29 6562.13 1061.24Z" fill-rule="evenodd"/><path d="M4184.84 1061.78C4214.38 1061.68 4238.32 1061.6 4238.32 1061.6L4238.71 1173.28C4238.71 1173.28 4214.77 1173.36 4185.23 1173.47L4025.89 1174.02C3996.36 1174.13 3972.41 1174.21 3972.41 1174.21L3972.02 1062.53C3972.02 1062.53 3995.97 1062.44 4025.5 1062.34Z" fill-rule="evenodd"/><path d="M5127.57 1299.38C5142.99 1299.43 5155.49 1299.48 5155.49 1299.48L5155.29 1358.59C5155.29 1358.59 5142.79 1358.55 5127.37 1358.5L4954.2 1357.89C4938.78 1357.84 4926.28 1357.79 4926.28 1357.79L4926.49 1298.68C4926.49 1298.68 4938.99 1298.72 4954.41 1298.78Z" fill-rule="evenodd"/><path d="M6585.35 1343.89C6578.04 1357.75 6560.12 1362.67 6545.33 1354.87 6530.53 1347.06 6524.46 1329.5 6531.77 1315.64 6539.08 1301.78 6557 1296.86 6571.8 1304.66 6586.59 1312.47 6592.66 1330.03 6585.35 1343.89Z" fill-rule="evenodd"/><path d="M4150.11 1320.5C4172.21 1320.69 4190.13 1320.85 4190.13 1320.85L4189.39 1405.06C4189.39 1405.06 4171.48 1404.91 4149.38 1404.71L4055.71 1403.9C4033.61 1403.7 4015.69 1403.55 4015.69 1403.55L4016.42 1319.33C4016.42 1319.33 4034.34 1319.49 4056.44 1319.68Z" fill-rule="evenodd"/><path d="M6760.67 2089.77C6789.55 2089.62 6812.96 2089.49 6812.96 2089.49L6813.53 2198.45C6813.53 2198.45 6790.12 2198.57 6761.24 2198.72L6571.88 2199.71C6543 2199.86 6519.59 2199.99 6519.59 2199.99L6519.02 2091.03C6519.02 2091.03 6542.43 2090.91 6571.31 2090.76Z" fill-rule="evenodd"/><path d="M5622.15 2338C5587.44 2338.09 5572.68 2277.13 5620.05 2274.98 5692.84 2271.66 5777.21 2264.83 5821.12 2329.83 5822.73 2332.28 5822.07 2335.56 5819.63 2337.15 5818.78 2337.71 5817.77 2338 5816.75 2338 5751.58 2338 5686.71 2338 5622.15 2338Z" fill-rule="evenodd"/><path d="M6767.49 2338.2C6794.12 2338.29 6815.7 2338.37 6815.7 2338.37L6815.34 2439.14C6815.34 2439.14 6793.76 2439.06 6767.14 2438.97L6607.26 2438.41C6580.63 2438.32 6559.05 2438.25 6559.05 2438.25L6559.41 2337.48C6559.41 2337.48 6580.99 2337.55 6607.61 2337.64Z" fill-rule="evenodd"/><path d="M5810.46 2465.7C5833.77 2465.57 5852.66 2465.48 5852.66 2465.48L5853.13 2553.88C5853.13 2553.88 5834.23 2553.98 5810.93 2554.1L5667.41 2554.85C5644.11 2554.97 5625.21 2555.07 5625.21 2555.07L5624.75 2466.67C5624.75 2466.67 5643.64 2466.57 5666.95 2466.45Z" fill-rule="evenodd"/><path d="M6617.74 2581.35C6635.37 2581.04 6649.66 2580.79 6649.66 2580.79L6650.85 2648.99C6650.85 2648.99 6636.56 2649.24 6618.93 2649.55L6550.37 2650.75C6532.74 2651.05 6518.45 2651.3 6518.45 2651.3L6517.26 2583.1C6517.26 2583.1 6531.55 2582.85 6549.18 2582.55Z" fill-rule="evenodd"/><path d="M5546.49 747.107C5579.23 747.222 5605.78 747.314 5605.78 747.314L5605.57 806.43C5605.57 806.43 5579.03 806.338 5546.29 806.223L5178.6 804.94C5145.85 804.826 5119.31 804.733 5119.31 804.733L5119.52 745.617C5119.52 745.617 5146.06 745.71 5178.8 745.824Z" fill-rule="evenodd"/></g></svg>