<svg width="7541" height="2932" xmlns="http://www.w3.org/2000/svg" xmlns:xlink="http://www.w3.org/1999/xlink" overflow="hidden"><defs><clipPath id="clip0"><rect x="7198" y="390" width="7541" height="2932"/></clipPath></defs><g clip-path="url(#clip0)" transform="translate(-7198 -390)"><path d="M7775.48 1000.47C7989.62 530.622 8512.91 298.653 9008.2 423.37 9424.75 528.348 9735.91 873.845 9772.64 1307.58 9774.73 1331.96 9779.19 1373.99 9742.54 1373.99 9622.94 1373.87 9503.37 1373.87 9383.83 1373.99 9350.28 1374.08 9340.82 1368.17 9336.73 1334.96 9315.94 1168.73 9242.04 1035.25 9115.04 934.521 8802.98 686.814 8343.33 801.434 8186.3 1167.85 8149.8 1253.06 8139.22 1342.79 8154.56 1437.03 8155.05 1439.94 8154.32 1442.46 8152.38 1444.58L8075.45 1528.45C8072.65 1531.5 8067.98 1531.86 8064.81 1529.27 7956.49 1440.67 7836.86 1424.2 7705.92 1479.87 7703.74 1480.78 7702.49 1480.06 7702.19 1477.69 7683.28 1308.25 7707.71 1149.18 7775.48 1000.47Z" fill-rule="evenodd"/><path d="M9130 1258C9130 1391.65 9021.65 1500 8888 1500 8754.35 1500 8646 1391.65 8646 1258 8646 1124.35 8754.35 1016 8888 1016 9021.65 1016 9130 1124.35 9130 1258Z" fill-rule="evenodd"/><path d="M8735.4 3321.99 8736.86 2913.43C8936.32 2917.68 9100.22 2850.92 9228.55 2713.16 9290.32 2646.94 9340.9 2553.26 9341.9 2462.04 9343.11 2359.26 9297.78 2279.31 9205.9 2222.19 9117.57 2167.26 9029.51 2153.16 8905.52 2132.42 8712.93 2100.14 8542.91 2085.86 8367.79 2031.47 8365.67 2030.85 8364.45 2028.62 8365.07 2026.5 8365.48 2025.13 8366.58 2024.07 8367.98 2023.74 8475.59 1995.9 8586.94 1917.14 8605.04 1803.09 8622.87 1690.67 8482.96 1627.27 8391.9 1630.09 8347.51 1631.37 8290.01 1682.57 8333.13 1726.69 8356.42 1750.51 8394.36 1742.06 8416.37 1720.41 8418.49 1718.35 8420.5 1718.44 8422.38 1720.68 8450.3 1753.97 8413.55 1824.91 8391.08 1846.29 8280.1 1951.91 8154.14 1976.29 8013.19 1919.41 7983.54 1907.47 7958.64 1884.85 7938.51 1851.56 7936.93 1849.02 7936.78 1846.41 7938.05 1843.74 7981.35 1752.24 7861.64 1710.13 7822.52 1773.53 7808.24 1796.63 7819.61 1830.28 7807.97 1855.47 7772.58 1931.87 7713.54 1925.23 7628.39 1924.78 7507.64 1924.11 7386.87 1923.35 7266.06 1922.51 7263.57 1922.45 7262.6 1921.2 7263.15 1918.78 7282.55 1833.65 7329.8 1777.22 7404.88 1749.51 7472.74 1724.47 7533.84 1737.78 7588.18 1789.44 7591.15 1792.29 7593.09 1791.72 7594 1787.71 7599.1 1764.89 7604.38 1739.05 7614.47 1719.05 7725.46 1500.12 8053.31 1529.23 8070.87 1796.26 8071.11 1799.36 8072.78 1800.9 8075.87 1800.9L8155.02 1800.36C8158.29 1800.36 8159.56 1798.75 8158.84 1795.54 8141.85 1716.83 8153.59 1649.25 8194.04 1592.8 8305.84 1436.73 8553.28 1432.55 8673 1583.8 8702.59 1621.21 8722.91 1664.29 8733.95 1713.04 8734.61 1716.01 8736.46 1717.65 8739.5 1717.95 8860.67 1730.2 8996.39 1747.82 9146.68 1770.8 9338.17 1800.17 9504.46 1837.92 9658.84 1957.7 9661.1 1959.38 9661.58 1962.57 9659.9 1964.83 9658.91 1966.17 9657.32 1966.94 9655.65 1966.89 9595.07 1966.47 9533.78 1966.41 9471.8 1966.71 9447.91 1966.83 9430.44 1969.95 9419.4 1976.08 9382.56 1996.54 9380.56 2056.75 9413.31 2081.04 9424.41 2089.28 9441.75 2093.8 9465.34 2094.59 9554.31 2097.74 9644.28 2098.01 9735.25 2095.41 9742.04 2095.22 9746.77 2098.26 9749.44 2104.5 9798.38 2219.56 9807.48 2352.89 9792.29 2476.13 9764.36 2703.15 9630.64 2922.16 9456.61 3066.23 9249.38 3237.77 9008.98 3323.02 8735.4 3321.99Z" fill-rule="evenodd"/><path d="M9826.47 1616.7C9869.39 1596.31 9902.21 1560.34 9938.76 1536.22 9983.86 1506.44 10049 1521.92 10075.8 1569.08 10104.3 1619.35 10087.6 1685.18 10045.8 1722.96 9930.76 1826.67 9693.99 1784.88 9560.96 1744.27 9413.48 1699.2 9276.55 1646.02 9121.97 1630.27 9119.54 1629.98 9117.78 1627.78 9118.02 1625.36 9118.21 1623.55 9119.49 1622.07 9121.25 1621.62 9265.36 1582.83 9382.75 1610.51 9547.14 1637.37 9638.07 1652.31 9740.82 1657.4 9826.47 1616.7Z" fill-rule="evenodd"/><path d="M7211.32 2107.94C7233.42 2085.01 7280.7 2086.65 7312.35 2086.55 7587.4 2085.71 7862.51 2085.83 8137.69 2086.92 8221.23 2087.28 8278.15 2125.19 8308.46 2200.64 8309.8 2204.03 8308.65 2205.87 8305.01 2206.17 8297.19 2206.72 8286.09 2206.99 8271.72 2206.99 7939.75 2207.05 7607.8 2206.9 7275.89 2206.53 7252.3 2206.53 7234.96 2202.85 7223.87 2195.48 7197.77 2178.08 7187.68 2132.5 7211.32 2107.94Z" fill-rule="evenodd"/><path d="M8856 2512C8856 2647.31 8746.53 2757 8611.5 2757 8476.47 2757 8367 2647.31 8367 2512 8367 2376.69 8476.47 2267 8611.5 2267 8746.53 2267 8856 2376.69 8856 2512Z" fill-rule="evenodd"/><path d="M8737 2913.29 8735.55 3321.99C8369.16 3323.36 8031.6 3139.57 7835.99 2826.13 7813.44 2789.92 7796.19 2757.86 7784.25 2729.96 7782.86 2726.62 7783.98 2724.92 7787.61 2724.86 7873.34 2723.83 7958.85 2723.77 8044.15 2724.68 8058.88 2724.86 8073.22 2723.19 8087.16 2719.68 8171.82 2698.29 8145.45 2584.02 8060.15 2583.93 7898.04 2583.74 7735.96 2583.5 7573.91 2583.2 7518.44 2583.02 7473.06 2576.56 7478.79 2509.68 7479.08 2506.58 7480.79 2503.79 7483.43 2502.13 7491.01 2497.4 7499.1 2495.22 7507.71 2495.58 7542.93 2496.98 7578.06 2495.58 7613.11 2491.4 7616.77 2490.95 7619.71 2488.13 7620.29 2484.48L7623.75 2461.64C7624.25 2458.31 7621.96 2455.21 7618.63 2454.71 7618.31 2454.66 7617.98 2454.63 7617.65 2454.64 7536.35 2454.7 7455.18 2454.46 7374.12 2453.91 7351.69 2453.73 7335.32 2450.51 7325.02 2444.27 7296.01 2426.71 7291.1 2374.57 7322.38 2356.01 7331.11 2350.79 7344.48 2348.16 7362.48 2348.1 7611.65 2346.94 7860.79 2346.7 8109.9 2347.37 8113.11 2347.43 8114.99 2349.04 8115.53 2352.19 8151.91 2562.91 8275.67 2754.8 8468.19 2849.69 8552.82 2891.42 8642.43 2912.62 8737 2913.29Z" fill-rule="evenodd"/><path d="M14437 849.878C14467 849.825 14491.4 849.783 14491.4 849.783L14491.6 962.74C14491.6 962.74 14467.2 962.783 14437.2 962.835L14229.8 963.197C14199.8 963.249 14175.5 963.292 14175.5 963.292L14175.3 850.335C14175.3 850.335 14199.6 850.292 14229.6 850.24Z" fill-rule="evenodd"/><path d="M7547.76 1061.78C7577.3 1061.68 7601.24 1061.6 7601.24 1061.6L7601.63 1173.28C7601.63 1173.28 7577.69 1173.36 7548.15 1173.47L7388.81 1174.02C7359.28 1174.13 7335.34 1174.21 7335.34 1174.21L7334.95 1062.53C7334.95 1062.53 7358.89 1062.44 7388.42 1062.34Z" fill-rule="evenodd"/><path d="M8490.5 1299.38C8505.92 1299.43 8518.42 1299.48 8518.42 1299.48L8518.21 1358.59C8518.21 1358.59 8505.71 1358.55 8490.29 1358.5L8317.13 1357.89C8301.71 1357.84 8289.21 1357.79 8289.21 1357.79L8289.41 1298.68C8289.41 1298.68 8301.91 1298.72 8317.33 1298.78Z" fill-rule="evenodd"/><path d="M14252.9 1132.89C14245.6 1146.75 14227.6 1151.67 14212.8 1143.86 14198 1136.06 14192 1118.5 14199.3 1104.64 14206.6 1090.78 14224.5 1085.86 14239.3 1093.66 14254.1 1101.46 14260.2 1119.03 14252.9 1132.89Z" fill-rule="evenodd"/><path d="M7513.04 1320.5C7535.14 1320.69 7553.05 1320.85 7553.05 1320.85L7552.32 1405.06C7552.32 1405.06 7534.4 1404.91 7512.3 1404.71L7418.63 1403.9C7396.53 1403.7 7378.61 1403.55 7378.61 1403.55L7379.35 1319.33C7379.35 1319.33 7397.26 1319.49 7419.36 1319.68Z" fill-rule="evenodd"/><path d="M8985.15 2338C8950.44 2338.09 8935.68 2277.13 8983.05 2274.98 9055.84 2271.66 9140.21 2264.83 9184.12 2329.83 9185.73 2332.28 9185.07 2335.56 9182.63 2337.15 9181.78 2337.71 9180.77 2338 9179.75 2338 9114.58 2338 9049.71 2338 8985.15 2338Z" fill-rule="evenodd"/><path d="M9173.39 2465.7C9196.69 2465.57 9215.59 2465.48 9215.59 2465.48L9216.05 2553.88C9216.05 2553.88 9197.16 2553.98 9173.85 2554.1L9030.34 2554.85C9007.03 2554.97 8988.14 2555.07 8988.14 2555.07L8987.67 2466.67C8987.67 2466.67 9006.57 2466.57 9029.87 2466.45Z" fill-rule="evenodd"/><path d="M13101 849 13979 849 13979 1064.64 13674.7 1064.64 13674.7 1970 13402.1 1970 13402.1 1064.64 13101 1064.64ZM11991.2 849 12262.2 849 12715.5 1543.48 12715.5 849 12986.5 849 12986.5 1970 12715.5 1970 12262.2 1281.86 12262.2 1970 11991.2 1970ZM11138.6 849 11836 849 11836 1064.64 11409.6 1064.64 11409.6 1299.3 11788.4 1299.3 11788.4 1503.84 11409.6 1503.84 11409.6 1752.78 11836 1752.78 11836 1970 11138.6 1970ZM10382.2 849 10653.3 849 10653.3 1762.29 11014.6 1762.29 11014.6 1970 10382.2 1970ZM9925 849 10196 849 10196 1970 9925 1970Z" fill-rule="evenodd"/><path d="M11347.7 2329.99C11259 2329.99 11188.5 2358.78 11136.2 2416.36 11083.9 2473.94 11057.7 2552.39 11057.7 2651.71 11057.7 2749.97 11083.9 2828.15 11136.2 2886.26 11188.5 2944.37 11259 2973.43 11347.7 2973.43 11435.4 2973.43 11505.6 2944.37 11558.4 2886.26 11611.2 2828.15 11637.6 2749.97 11637.6 2651.71 11637.6 2553.45 11611.5 2475.26 11559.2 2417.15 11506.9 2359.04 11436.4 2329.99 11347.7 2329.99ZM12337.3 2323.65 12337.3 2607.33 12505.3 2607.33C12559.1 2607.33 12598.7 2595.45 12624.1 2571.67 12649.4 2547.9 12662.1 2512.77 12662.1 2466.28 12662.1 2421.91 12649.2 2387.04 12623.3 2361.68 12597.4 2336.33 12558.1 2323.65 12505.3 2323.65ZM13073.4 2103.36 13404.5 2103.36 13707.2 2878.34 14003.4 2103.36 14333 2103.36 14333 3215.91 14062.1 3215.91 14062.1 2520.17 13821.2 3215.91 13586.7 3215.91 13344.3 2518.58 13344.3 3215.91 13073.4 3215.91ZM12066.4 2095.43 12529 2095.43C12617.7 2095.43 12692.7 2110.75 12754 2141.39 12815.3 2172.03 12861.2 2214.03 12891.8 2267.39 12922.5 2320.74 12937.8 2381.76 12937.8 2450.43 12937.8 2531.79 12915.4 2600.99 12870.5 2658.05 12825.6 2715.1 12760.3 2754.19 12674.8 2775.32L12941 3215.91 12641.5 3215.91 12399.1 2792.76 12337.3 2792.76 12337.3 3215.91 12066.4 3215.91ZM9872 2095.43 10702.6 2095.43 10702.6 2310.97 10398.3 2310.97 10398.3 3215.91 10125.8 3215.91 10125.8 2310.97 9916.93 2310.97 9915.49 2276.51C9911.93 2241.95 9906.19 2207.66 9897.98 2174.14ZM11347.7 2078C11453.3 2078 11549.2 2102.56 11635.3 2151.69 11721.4 2200.82 11789.2 2268.97 11838.9 2356.14 11888.5 2443.3 11913.3 2541.83 11913.3 2651.71 11913.3 2761.59 11888.2 2860.38 11838.1 2948.07 11787.9 3035.76 11719.8 3104.18 11633.7 3153.31 11547.6 3202.44 11452.3 3227 11347.7 3227 11243.1 3227 11147.8 3202.44 11061.7 3153.31 10975.6 3104.18 10907.5 3035.76 10857.3 2948.07 10807.1 2860.38 10782.1 2761.59 10782.1 2651.71 10782.1 2541.83 10807.1 2443.3 10857.3 2356.14 10907.5 2268.97 10975.6 2200.82 11061.7 2151.69 11147.8 2102.56 11243.1 2078 11347.7 2078Z" fill-rule="evenodd"/><path d="M14685.8 2103.07C14714.7 2102.92 14738.1 2102.79 14738.1 2102.79L14738.7 2211.75C14738.7 2211.75 14715.2 2211.87 14686.4 2212.02L14497 2213.01C14468.1 2213.17 14444.7 2213.29 14444.7 2213.29L14444.1 2104.33C14444.1 2104.33 14467.6 2104.21 14496.4 2104.06Z" fill-rule="evenodd"/><path d="M14652.6 2351.5C14679.2 2351.6 14700.8 2351.67 14700.8 2351.67L14700.4 2452.44C14700.4 2452.44 14678.9 2452.37 14652.2 2452.27L14492.4 2451.71C14465.7 2451.62 14444.1 2451.55 14444.1 2451.55L14444.5 2350.78C14444.5 2350.78 14466.1 2350.85 14492.7 2350.94Z" fill-rule="evenodd"/><path d="M14544.6 2594.65C14562.3 2594.34 14576.5 2594.09 14576.5 2594.09L14577.7 2662.29C14577.7 2662.29 14563.4 2662.54 14545.8 2662.85L14477.3 2664.05C14459.6 2664.35 14445.3 2664.6 14445.3 2664.6L14444.1 2596.4C14444.1 2596.4 14458.4 2596.15 14476.1 2595.85Z" fill-rule="evenodd"/></g></svg>