<svg width="2990" height="2932" xmlns="http://www.w3.org/2000/svg" xmlns:xlink="http://www.w3.org/1999/xlink" overflow="hidden"><defs><clipPath id="clip0"><rect x="362" y="390" width="2990" height="2932"/></clipPath></defs><g clip-path="url(#clip0)" transform="translate(-362 -390)"><path d="M939.479 1000.47C1153.62 530.622 1676.91 298.653 2172.2 423.37 2588.75 528.348 2899.91 873.845 2936.64 1307.58 2938.73 1331.96 2943.19 1373.99 2906.54 1373.99 2786.94 1373.87 2667.37 1373.87 2547.83 1373.99 2514.28 1374.08 2504.82 1368.17 2500.73 1334.96 2479.94 1168.73 2406.04 1035.25 2279.04 934.521 1966.98 686.814 1507.33 801.434 1350.3 1167.85 1313.8 1253.06 1303.22 1342.79 1318.56 1437.03 1319.05 1439.94 1318.32 1442.46 1316.38 1444.58L1239.45 1528.45C1236.65 1531.5 1231.98 1531.86 1228.81 1529.27 1120.49 1440.67 1000.86 1424.2 869.918 1479.87 867.736 1480.78 866.493 1480.06 866.19 1477.69 847.277 1308.25 871.706 1149.18 939.479 1000.47Z" fill="#FFFFFF" fill-rule="evenodd"/><path d="M2294 1258C2294 1391.65 2185.65 1500 2052 1500 1918.35 1500 1810 1391.65 1810 1258 1810 1124.35 1918.35 1016 2052 1016 2185.65 1016 2294 1124.35 2294 1258Z" fill="#FFFFFF" fill-rule="evenodd"/><path d="M1899.82 3321.99 1901.28 2913.43C2100.66 2917.68 2264.5 2850.92 2392.77 2713.16 2454.52 2646.94 2505.08 2553.26 2506.08 2462.04 2507.29 2359.26 2461.98 2279.31 2370.13 2222.19 2281.84 2167.26 2193.81 2153.16 2069.87 2132.42 1877.36 2100.14 1707.41 2085.86 1532.36 2031.47 1530.24 2030.85 1529.02 2028.62 1529.64 2026.5 1530.04 2025.13 1531.15 2024.07 1532.54 2023.74 1640.11 1995.9 1751.42 1917.14 1769.51 1803.09 1787.34 1690.67 1647.48 1627.27 1556.46 1630.09 1512.08 1631.37 1454.61 1682.57 1497.71 1726.69 1520.99 1750.51 1558.91 1742.06 1580.92 1720.41 1583.04 1718.35 1585.04 1718.44 1586.92 1720.68 1614.83 1753.97 1578.1 1824.91 1555.64 1846.29 1444.7 1951.91 1318.78 1976.29 1177.9 1919.41 1148.25 1907.47 1123.37 1884.85 1103.24 1851.56 1101.66 1849.02 1101.51 1846.41 1102.79 1843.74 1146.07 1752.24 1026.4 1710.13 987.3 1773.53 973.023 1796.63 984.39 1830.28 972.75 1855.47 937.377 1931.87 878.361 1925.23 793.247 1924.78 672.547 1924.11 551.817 1923.35 431.057 1922.51 428.572 1922.45 427.602 1921.2 428.147 1918.78 447.547 1833.65 494.772 1777.22 569.822 1749.51 637.659 1724.47 698.736 1737.78 753.054 1789.44 756.025 1792.29 757.965 1791.72 758.874 1787.71 763.966 1764.89 769.241 1739.05 779.334 1719.05 890.273 1500.12 1218 1529.23 1235.55 1796.26 1235.79 1799.36 1237.46 1800.9 1240.55 1800.9L1319.66 1800.36C1322.94 1800.36 1324.21 1798.75 1323.48 1795.54 1306.51 1716.83 1318.24 1649.25 1358.67 1592.8 1470.43 1436.73 1717.77 1432.55 1837.44 1583.8 1867.03 1621.21 1887.33 1664.29 1898.37 1713.04 1899.03 1716.01 1900.88 1717.65 1903.91 1717.95 2025.04 1730.2 2160.71 1747.82 2310.93 1770.8 2502.35 1800.17 2668.58 1837.92 2822.89 1957.7 2825.15 1959.38 2825.63 1962.57 2823.96 1964.83 2822.97 1966.17 2821.38 1966.94 2819.71 1966.89 2759.15 1966.47 2697.89 1966.41 2635.93 1966.71 2612.05 1966.83 2594.59 1969.95 2583.55 1976.08 2546.73 1996.54 2544.73 2056.75 2577.46 2081.04 2588.56 2089.28 2605.89 2093.8 2629.48 2094.59 2718.41 2097.74 2808.34 2098.01 2899.28 2095.41 2906.07 2095.22 2910.8 2098.26 2913.46 2104.5 2962.38 2219.56 2971.48 2352.89 2956.29 2476.13 2928.38 2703.15 2794.7 2922.16 2620.75 3066.23 2413.6 3237.77 2173.29 3323.02 1899.82 3321.99Z" fill="#FFFFFF" fill-rule="evenodd"/><path d="M2990.47 1616.7C3033.39 1596.31 3066.21 1560.34 3102.76 1536.22 3147.86 1506.44 3212.97 1521.92 3239.79 1569.08 3268.34 1619.35 3251.61 1685.18 3209.78 1722.96 3094.76 1826.67 2857.99 1784.88 2724.96 1744.27 2577.48 1699.2 2440.55 1646.02 2285.97 1630.27 2283.55 1629.98 2281.78 1627.78 2282.02 1625.36 2282.21 1623.55 2283.49 1622.07 2285.25 1621.62 2429.36 1582.83 2546.75 1610.51 2711.14 1637.37 2802.07 1652.31 2904.82 1657.4 2990.47 1616.7Z" fill="#FFFFFF" fill-rule="evenodd"/><path d="M375.32 2107.94C397.418 2085.01 444.704 2086.65 476.35 2086.55 751.401 2085.71 1026.51 2085.83 1301.69 2086.92 1385.23 2087.28 1442.15 2125.19 1472.46 2200.64 1473.8 2204.03 1472.65 2205.87 1469.01 2206.17 1461.19 2206.72 1450.09 2206.99 1435.73 2206.99 1103.75 2207.05 771.801 2206.9 439.885 2206.53 416.302 2206.53 398.964 2202.85 387.869 2195.48 361.771 2178.08 351.677 2132.5 375.32 2107.94Z" fill="#FFFFFF" fill-rule="evenodd"/><path d="M2020 2512C2020 2647.31 1910.53 2757 1775.5 2757 1640.47 2757 1531 2647.31 1531 2512 1531 2376.69 1640.47 2267 1775.5 2267 1910.53 2267 2020 2376.69 2020 2512Z" fill="#FFFFFF" fill-rule="evenodd"/><path d="M1901 2913.29 1899.55 3321.99C1533.16 3323.36 1195.6 3139.57 999.993 2826.13 977.441 2789.92 960.193 2757.86 948.25 2729.96 946.855 2726.62 947.977 2724.92 951.614 2724.86 1037.34 2723.83 1122.85 2723.77 1208.15 2724.68 1222.88 2724.86 1237.22 2723.19 1251.16 2719.68 1335.82 2698.29 1309.45 2584.02 1224.15 2583.93 1062.04 2583.74 899.962 2583.5 737.912 2583.2 682.44 2583.02 637.062 2576.56 642.791 2509.68 643.078 2506.58 644.793 2503.79 647.429 2502.13 655.007 2497.4 663.101 2495.22 671.709 2495.58 706.932 2496.98 742.064 2495.58 777.106 2491.4 780.775 2490.95 783.707 2488.13 784.29 2484.48L787.745 2461.64C788.248 2458.31 785.958 2455.21 782.631 2454.71 782.307 2454.66 781.98 2454.63 781.653 2454.64 700.354 2454.7 619.178 2454.46 538.122 2453.91 515.691 2453.73 499.322 2450.51 489.016 2444.27 460.007 2426.71 455.096 2374.57 486.379 2356.01 495.109 2350.79 508.477 2348.16 526.482 2348.1 775.651 2346.94 1024.79 2346.7 1273.9 2347.37 1277.11 2347.43 1278.99 2349.04 1279.53 2352.19 1315.91 2562.91 1439.67 2754.8 1632.19 2849.69 1716.82 2891.42 1806.43 2912.62 1901 2913.29Z" fill="#FFFFFF" fill-rule="evenodd"/><path d="M3296.43 1060.88C3326.47 1060.83 3350.82 1060.78 3350.82 1060.78L3351.01 1173.74C3351.01 1173.74 3326.66 1173.78 3296.63 1173.84L3089.26 1174.2C3059.23 1174.25 3034.88 1174.29 3034.88 1174.29L3034.68 1061.34C3034.68 1061.34 3059.03 1061.29 3089.07 1061.24Z" fill="#FFFFFF" fill-rule="evenodd"/><path d="M711.776 1061.78C741.311 1061.68 765.253 1061.6 765.253 1061.6L765.643 1173.28C765.643 1173.28 741.701 1173.36 712.166 1173.47L552.826 1174.02C523.291 1174.13 499.348 1174.21 499.348 1174.21L498.959 1062.53C498.959 1062.53 522.901 1062.44 552.436 1062.34Z" fill="#FFFFFF" fill-rule="evenodd"/><path d="M1654.51 1299.38C1669.93 1299.43 1682.43 1299.48 1682.43 1299.48L1682.22 1358.59C1682.22 1358.59 1669.72 1358.55 1654.3 1358.5L1481.14 1357.89C1465.72 1357.84 1453.22 1357.79 1453.22 1357.79L1453.42 1298.68C1453.42 1298.68 1465.92 1298.72 1481.34 1298.78Z" fill="#FFFFFF" fill-rule="evenodd"/><path d="M3112.29 1343.89C3104.98 1357.75 3087.06 1362.67 3072.26 1354.87 3057.47 1347.06 3051.4 1329.5 3058.71 1315.64 3066.02 1301.78 3083.94 1296.86 3098.73 1304.66 3113.53 1312.47 3119.6 1330.03 3112.29 1343.89Z" fill="#FFFFFF" fill-rule="evenodd"/><path d="M677.048 1320.5C699.149 1320.69 717.064 1320.85 717.064 1320.85L716.329 1405.06C716.329 1405.06 698.414 1404.91 676.314 1404.71L582.641 1403.9C560.541 1403.7 542.625 1403.55 542.625 1403.55L543.36 1319.33C543.36 1319.33 561.276 1319.49 583.375 1319.68Z" fill="#FFFFFF" fill-rule="evenodd"/><path d="M3287.6 2089.77C3316.48 2089.62 3339.9 2089.49 3339.9 2089.49L3340.47 2198.45C3340.47 2198.45 3317.05 2198.57 3288.17 2198.72L3098.82 2199.71C3069.94 2199.86 3046.53 2199.99 3046.53 2199.99L3045.96 2091.03C3045.96 2091.03 3069.37 2090.91 3098.25 2090.76Z" fill="#FFFFFF" fill-rule="evenodd"/><path d="M2149.15 2338C2114.44 2338.09 2099.68 2277.13 2147.05 2274.98 2219.84 2271.66 2304.21 2264.83 2348.12 2329.83 2349.73 2332.28 2349.07 2335.56 2346.63 2337.15 2345.78 2337.71 2344.77 2338 2343.75 2338 2278.58 2338 2213.71 2338 2149.15 2338Z" fill="#FFFFFF" fill-rule="evenodd"/><path d="M3294.43 2338.2C3321.05 2338.29 3342.63 2338.37 3342.63 2338.37L3342.28 2439.14C3342.28 2439.14 3320.7 2439.06 3294.08 2438.97L3134.19 2438.41C3107.57 2438.32 3085.99 2438.25 3085.99 2438.25L3086.34 2337.48C3086.34 2337.48 3107.92 2337.55 3134.54 2337.64Z" fill="#FFFFFF" fill-rule="evenodd"/><path d="M2337.4 2465.7C2360.71 2465.57 2379.6 2465.48 2379.6 2465.48L2380.06 2553.88C2380.06 2553.88 2361.17 2553.98 2337.86 2554.1L2194.35 2554.85C2171.04 2554.97 2152.15 2555.07 2152.15 2555.07L2151.69 2466.67C2151.69 2466.67 2170.58 2466.57 2193.89 2466.45Z" fill="#FFFFFF" fill-rule="evenodd"/><path d="M3144.68 2581.35C3162.31 2581.04 3176.6 2580.79 3176.6 2580.79L3177.79 2648.99C3177.79 2648.99 3163.5 2649.24 3145.87 2649.55L3077.3 2650.75C3059.68 2651.05 3045.39 2651.3 3045.39 2651.3L3044.2 2583.1C3044.2 2583.1 3058.49 2582.85 3076.11 2582.55Z" fill="#FFFFFF" fill-rule="evenodd"/><path d="M2073.43 747.107C2106.17 747.222 2132.71 747.314 2132.71 747.314L2132.51 806.43C2132.51 806.43 2105.96 806.338 2073.22 806.223L1705.53 804.94C1672.79 804.826 1646.24 804.733 1646.24 804.733L1646.45 745.617C1646.45 745.617 1672.99 745.71 1705.74 745.824Z" fill="#FFFFFF" fill-rule="evenodd"/></g></svg>