<svg width="7541" height="2931" xmlns="http://www.w3.org/2000/svg" xmlns:xlink="http://www.w3.org/1999/xlink" overflow="hidden"><defs><clipPath id="clip0"><rect x="-10209" y="5466" width="7541" height="2931"/></clipPath><linearGradient x1="-9153.38" y1="5159.82" x2="-8190.62" y2="6913.18" gradientUnits="userSpaceOnUse" spreadMethod="reflect" id="fill1"><stop offset="0" stop-color="#FFFFFF"/><stop offset="0.4" stop-color="#FFFFFF"/><stop offset="1" stop-color="#D9D9D9"/></linearGradient><linearGradient x1="-8761" y1="6091" x2="-8277" y2="6575" gradientUnits="userSpaceOnUse" spreadMethod="reflect" id="fill2"><stop offset="0" stop-color="#FFFFFF"/><stop offset="0.2" stop-color="#FFFFFF"/><stop offset="1" stop-color="#D9D9D9"/></linearGradient><linearGradient x1="-9755.81" y1="6265.59" x2="-7995.19" y2="8679.41" gradientUnits="userSpaceOnUse" spreadMethod="reflect" id="fill3"><stop offset="0" stop-color="#FFFFFF"/><stop offset="0.5" stop-color="#FFFFFF"/><stop offset="1" stop-color="#BFBFBF"/></linearGradient><linearGradient x1="-9040" y1="7342" x2="-8550" y2="7832" gradientUnits="userSpaceOnUse" spreadMethod="reflect" id="fill4"><stop offset="0" stop-color="#45DEF4"/><stop offset="0.22" stop-color="#45DEF4"/><stop offset="0.84" stop-color="#4484CC"/><stop offset="1" stop-color="#2A4B86"/></linearGradient><linearGradient x1="-9840.48" y1="7242.9" x2="-8935.52" y2="8577.1" gradientUnits="userSpaceOnUse" spreadMethod="reflect" id="fill5"><stop offset="0" stop-color="#45DEF4"/><stop offset="0.6" stop-color="#45DEF4"/><stop offset="1" stop-color="#4472C4"/></linearGradient><linearGradient x1="-8355.37" y1="7319.94" x2="-8320.63" y2="7442.06" gradientUnits="userSpaceOnUse" spreadMethod="reflect" id="fill6"><stop offset="0" stop-color="#45DEF4"/><stop offset="0.00934579" stop-color="#44DDF3"/><stop offset="0.0186916" stop-color="#44DDF3"/><stop offset="0.0280374" stop-color="#44DDF3"/><stop offset="0.0373832" stop-color="#44DDF3"/><stop offset="0.046729" stop-color="#44DDF3"/><stop offset="0.0560748" stop-color="#44DDF3"/><stop offset="0.0654206" stop-color="#44DDF3"/><stop offset="0.0747664" stop-color="#44DDF3"/><stop offset="0.0841122" stop-color="#44DCF3"/><stop offset="0.0934579" stop-color="#44DCF3"/><stop offset="0.102804" stop-color="#44DCF3"/><stop offset="0.11215" stop-color="#44DCF3"/><stop offset="0.121495" stop-color="#44DBF3"/><stop offset="0.130841" stop-color="#44DBF2"/><stop offset="0.140187" stop-color="#44DBF2"/><stop offset="0.149533" stop-color="#44DAF2"/><stop offset="0.158879" stop-color="#44DAF2"/><stop offset="0.168224" stop-color="#44DAF2"/><stop offset="0.17757" stop-color="#44D9F2"/><stop offset="0.186916" stop-color="#44D9F1"/><stop offset="0.196262" stop-color="#44D8F1"/><stop offset="0.205607" stop-color="#44D8F1"/><stop offset="0.214953" stop-color="#44D7F1"/><stop offset="0.224299" stop-color="#44D7F1"/><stop offset="0.233645" stop-color="#44D6F0"/><stop offset="0.242991" stop-color="#44D6F0"/><stop offset="0.252336" stop-color="#44D5F0"/><stop offset="0.261682" stop-color="#44D5F0"/><stop offset="0.271028" stop-color="#44D4EF"/><stop offset="0.280374" stop-color="#44D4EF"/><stop offset="0.28972" stop-color="#44D3EF"/><stop offset="0.299065" stop-color="#44D2EF"/><stop offset="0.308411" stop-color="#44D2EE"/><stop offset="0.317757" stop-color="#44D1EE"/><stop offset="0.327103" stop-color="#44D0EE"/><stop offset="0.336449" stop-color="#44CFED"/><stop offset="0.345794" stop-color="#44CFED"/><stop offset="0.35514" stop-color="#44CEED"/><stop offset="0.364486" stop-color="#44CDEC"/><stop offset="0.373832" stop-color="#44CCEC"/><stop offset="0.383178" stop-color="#44CCEC"/><stop offset="0.392523" stop-color="#44CBEB"/><stop offset="0.401869" stop-color="#44CAEB"/><stop offset="0.411215" stop-color="#44C9EA"/><stop offset="0.420561" stop-color="#44C8EA"/><stop offset="0.429907" stop-color="#44C7EA"/><stop offset="0.439252" stop-color="#44C6E9"/><stop offset="0.448598" stop-color="#44C5E9"/><stop offset="0.457944" stop-color="#44C5E8"/><stop offset="0.46729" stop-color="#44C4E8"/><stop offset="0.476636" stop-color="#44C3E8"/><stop offset="0.485981" stop-color="#44C2E7"/><stop offset="0.495327" stop-color="#44C1E7"/><stop offset="0.504673" stop-color="#44C0E6"/><stop offset="0.514019" stop-color="#44BEE6"/><stop offset="0.523364" stop-color="#44BDE5"/><stop offset="0.53271" stop-color="#44BCE5"/><stop offset="0.542056" stop-color="#44BBE4"/><stop offset="0.551402" stop-color="#44BAE4"/><stop offset="0.560748" stop-color="#44B9E3"/><stop offset="0.570093" stop-color="#44B8E3"/><stop offset="0.579439" stop-color="#44B7E2"/><stop offset="0.588785" stop-color="#44B5E2"/><stop offset="0.598131" stop-color="#44B4E1"/><stop offset="0.607477" stop-color="#44B3E1"/><stop offset="0.616822" stop-color="#44B2E0"/><stop offset="0.626168" stop-color="#44B1E0"/><stop offset="0.635514" stop-color="#44AFDF"/><stop offset="0.64486" stop-color="#44AEDE"/><stop offset="0.654206" stop-color="#44ADDE"/><stop offset="0.663551" stop-color="#44ABDD"/><stop offset="0.672897" stop-color="#44AADD"/><stop offset="0.682243" stop-color="#44A9DC"/><stop offset="0.691589" stop-color="#44A7DB"/><stop offset="0.700935" stop-color="#44A6DB"/><stop offset="0.71028" stop-color="#44A5DA"/><stop offset="0.719626" stop-color="#44A3DA"/><stop offset="0.728972" stop-color="#44A2D9"/><stop offset="0.738318" stop-color="#44A0D8"/><stop offset="0.747664" stop-color="#449FD8"/><stop offset="0.757009" stop-color="#449DD7"/><stop offset="0.766355" stop-color="#449CD6"/><stop offset="0.775701" stop-color="#449AD6"/><stop offset="0.785047" stop-color="#4499D5"/><stop offset="0.794393" stop-color="#4497D4"/><stop offset="0.803738" stop-color="#4496D4"/><stop offset="0.813084" stop-color="#4494D3"/><stop offset="0.82243" stop-color="#4493D2"/><stop offset="0.831776" stop-color="#4491D2"/><stop offset="0.841121" stop-color="#448FD1"/><stop offset="0.850467" stop-color="#448ED0"/><stop offset="0.859813" stop-color="#448CCF"/><stop offset="0.869159" stop-color="#448ACF"/><stop offset="0.878505" stop-color="#4489CE"/><stop offset="0.88785" stop-color="#4487CD"/><stop offset="0.897196" stop-color="#4485CC"/><stop offset="0.906542" stop-color="#4484CC"/><stop offset="0.915888" stop-color="#4482CB"/><stop offset="0.925234" stop-color="#4480CA"/><stop offset="0.934579" stop-color="#447EC9"/><stop offset="0.943925" stop-color="#447DC8"/><stop offset="0.953271" stop-color="#447BC8"/><stop offset="0.962617" stop-color="#4479C7"/><stop offset="0.971963" stop-color="#4477C6"/><stop offset="0.981308" stop-color="#4475C5"/><stop offset="0.990654" stop-color="#4473C4"/><stop offset="1" stop-color="#4472C4"/></linearGradient><linearGradient x1="-8335.16" y1="7508.94" x2="-8274.75" y2="7662.31" gradientUnits="userSpaceOnUse" spreadMethod="reflect" id="fill7"><stop offset="0" stop-color="#45DEF4"/><stop offset="0.00934579" stop-color="#44DDF3"/><stop offset="0.0186916" stop-color="#44DDF3"/><stop offset="0.0280374" stop-color="#44DDF3"/><stop offset="0.0373832" stop-color="#44DDF3"/><stop offset="0.046729" stop-color="#44DDF3"/><stop offset="0.0560748" stop-color="#44DDF3"/><stop offset="0.0654206" stop-color="#44DDF3"/><stop offset="0.0747664" stop-color="#44DDF3"/><stop offset="0.0841122" stop-color="#44DCF3"/><stop offset="0.0934579" stop-color="#44DCF3"/><stop offset="0.102804" stop-color="#44DCF3"/><stop offset="0.11215" stop-color="#44DCF3"/><stop offset="0.121495" stop-color="#44DBF3"/><stop offset="0.130841" stop-color="#44DBF2"/><stop offset="0.140187" stop-color="#44DBF2"/><stop offset="0.149533" stop-color="#44DAF2"/><stop offset="0.158879" stop-color="#44DAF2"/><stop offset="0.168224" stop-color="#44DAF2"/><stop offset="0.17757" stop-color="#44D9F2"/><stop offset="0.186916" stop-color="#44D9F1"/><stop offset="0.196262" stop-color="#44D8F1"/><stop offset="0.205607" stop-color="#44D8F1"/><stop offset="0.214953" stop-color="#44D7F1"/><stop offset="0.224299" stop-color="#44D7F1"/><stop offset="0.233645" stop-color="#44D6F0"/><stop offset="0.242991" stop-color="#44D6F0"/><stop offset="0.252336" stop-color="#44D5F0"/><stop offset="0.261682" stop-color="#44D5F0"/><stop offset="0.271028" stop-color="#44D4EF"/><stop offset="0.280374" stop-color="#44D4EF"/><stop offset="0.28972" stop-color="#44D3EF"/><stop offset="0.299065" stop-color="#44D2EF"/><stop offset="0.308411" stop-color="#44D2EE"/><stop offset="0.317757" stop-color="#44D1EE"/><stop offset="0.327103" stop-color="#44D0EE"/><stop offset="0.336449" stop-color="#44CFED"/><stop offset="0.345794" stop-color="#44CFED"/><stop offset="0.35514" stop-color="#44CEED"/><stop offset="0.364486" stop-color="#44CDEC"/><stop offset="0.373832" stop-color="#44CCEC"/><stop offset="0.383178" stop-color="#44CCEC"/><stop offset="0.392523" stop-color="#44CBEB"/><stop offset="0.401869" stop-color="#44CAEB"/><stop offset="0.411215" stop-color="#44C9EA"/><stop offset="0.420561" stop-color="#44C8EA"/><stop offset="0.429907" stop-color="#44C7EA"/><stop offset="0.439252" stop-color="#44C6E9"/><stop offset="0.448598" stop-color="#44C5E9"/><stop offset="0.457944" stop-color="#44C5E8"/><stop offset="0.46729" stop-color="#44C4E8"/><stop offset="0.476636" stop-color="#44C3E8"/><stop offset="0.485981" stop-color="#44C2E7"/><stop offset="0.495327" stop-color="#44C1E7"/><stop offset="0.504673" stop-color="#44C0E6"/><stop offset="0.514019" stop-color="#44BEE6"/><stop offset="0.523364" stop-color="#44BDE5"/><stop offset="0.53271" stop-color="#44BCE5"/><stop offset="0.542056" stop-color="#44BBE4"/><stop offset="0.551402" stop-color="#44BAE4"/><stop offset="0.560748" stop-color="#44B9E3"/><stop offset="0.570093" stop-color="#44B8E3"/><stop offset="0.579439" stop-color="#44B7E2"/><stop offset="0.588785" stop-color="#44B5E2"/><stop offset="0.598131" stop-color="#44B4E1"/><stop offset="0.607477" stop-color="#44B3E1"/><stop offset="0.616822" stop-color="#44B2E0"/><stop offset="0.626168" stop-color="#44B1E0"/><stop offset="0.635514" stop-color="#44AFDF"/><stop offset="0.64486" stop-color="#44AEDE"/><stop offset="0.654206" stop-color="#44ADDE"/><stop offset="0.663551" stop-color="#44ABDD"/><stop offset="0.672897" stop-color="#44AADD"/><stop offset="0.682243" stop-color="#44A9DC"/><stop offset="0.691589" stop-color="#44A7DB"/><stop offset="0.700935" stop-color="#44A6DB"/><stop offset="0.71028" stop-color="#44A5DA"/><stop offset="0.719626" stop-color="#44A3DA"/><stop offset="0.728972" stop-color="#44A2D9"/><stop offset="0.738318" stop-color="#44A0D8"/><stop offset="0.747664" stop-color="#449FD8"/><stop offset="0.757009" stop-color="#449DD7"/><stop offset="0.766355" stop-color="#449CD6"/><stop offset="0.775701" stop-color="#449AD6"/><stop offset="0.785047" stop-color="#4499D5"/><stop offset="0.794393" stop-color="#4497D4"/><stop offset="0.803738" stop-color="#4496D4"/><stop offset="0.813084" stop-color="#4494D3"/><stop offset="0.82243" stop-color="#4493D2"/><stop offset="0.831776" stop-color="#4491D2"/><stop offset="0.841121" stop-color="#448FD1"/><stop offset="0.850467" stop-color="#448ED0"/><stop offset="0.859813" stop-color="#448CCF"/><stop offset="0.869159" stop-color="#448ACF"/><stop offset="0.878505" stop-color="#4489CE"/><stop offset="0.88785" stop-color="#4487CD"/><stop offset="0.897196" stop-color="#4485CC"/><stop offset="0.906542" stop-color="#4484CC"/><stop offset="0.915888" stop-color="#4482CB"/><stop offset="0.925234" stop-color="#4480CA"/><stop offset="0.934579" stop-color="#447EC9"/><stop offset="0.943925" stop-color="#447DC8"/><stop offset="0.953271" stop-color="#447BC8"/><stop offset="0.962617" stop-color="#4479C7"/><stop offset="0.971963" stop-color="#4477C6"/><stop offset="0.981308" stop-color="#4475C5"/><stop offset="0.990654" stop-color="#4473C4"/><stop offset="1" stop-color="#4472C4"/></linearGradient><linearGradient x1="-5742.04" y1="5444.46" x2="-5166.96" y2="7525.54" gradientUnits="userSpaceOnUse" spreadMethod="reflect" id="fill8"><stop offset="0" stop-color="#FFFFFF"/><stop offset="0.41" stop-color="#FFFFFF"/><stop offset="0.95" stop-color="#D9D9D9"/><stop offset="1" stop-color="#D9D9D9"/></linearGradient><linearGradient x1="-5581.48" y1="6650.95" x2="-5026.52" y2="8806.05" gradientUnits="userSpaceOnUse" spreadMethod="reflect" id="fill9"><stop offset="0" stop-color="#FFFFFF"/><stop offset="0.53" stop-color="#FFFFFF"/><stop offset="1" stop-color="#D9D9D9"/></linearGradient><linearGradient x1="-2851.42" y1="7137.79" x2="-2779.4" y2="7329" gradientUnits="userSpaceOnUse" spreadMethod="reflect" id="fill10"><stop offset="0" stop-color="#45DEF4"/><stop offset="0.23" stop-color="#45DEF4"/><stop offset="0.82" stop-color="#4472C4"/><stop offset="1" stop-color="#4472C4"/></linearGradient><linearGradient x1="-2868.36" y1="7389.56" x2="-2800.33" y2="7564.36" gradientUnits="userSpaceOnUse" spreadMethod="reflect" id="fill11"><stop offset="0" stop-color="#45DEF4"/><stop offset="0.23" stop-color="#45DEF4"/><stop offset="0.82" stop-color="#4472C4"/><stop offset="1" stop-color="#4472C4"/></linearGradient><linearGradient x1="-2924.58" y1="7651.29" x2="-2867.17" y2="7758.12" gradientUnits="userSpaceOnUse" spreadMethod="reflect" id="fill12"><stop offset="0" stop-color="#45DEF4"/><stop offset="0.23" stop-color="#45DEF4"/><stop offset="0.82" stop-color="#4472C4"/><stop offset="1" stop-color="#4472C4"/></linearGradient></defs><g clip-path="url(#clip0)" transform="translate(10209 -5466)"><path d="M-9631.52 6076.47C-9417.38 5606.62-8894.09 5374.65-8398.8 5499.37-7982.25 5604.35-7671.09 5949.84-7634.36 6383.58-7632.27 6407.96-7627.81 6449.99-7664.46 6449.99-7784.06 6449.87-7903.63 6449.87-8023.17 6449.99-8056.72 6450.08-8066.18 6444.17-8070.27 6410.96-8091.06 6244.73-8164.96 6111.25-8291.96 6010.52-8604.02 5762.81-9063.67 5877.43-9220.71 6243.85-9257.2 6329.06-9267.78 6418.79-9252.44 6513.03-9251.95 6515.94-9252.68 6518.46-9254.62 6520.58L-9331.55 6604.45C-9334.35 6607.5-9339.02 6607.86-9342.19 6605.27-9450.51 6516.67-9570.14 6500.2-9701.08 6555.88-9703.26 6556.78-9704.51 6556.06-9704.81 6553.69-9723.72 6384.25-9699.29 6225.18-9631.52 6076.47Z" fill="url(#fill1)" fill-rule="evenodd"/><path d="M-8277 6333C-8277 6466.65-8385.35 6575-8519 6575-8652.65 6575-8761 6466.65-8761 6333-8761 6199.35-8652.65 6091-8519 6091-8385.35 6091-8277 6199.35-8277 6333Z" fill="url(#fill2)" fill-rule="evenodd"/><path d="M-8671.18 8396.99-8669.72 7988.43C-8470.33 7992.68-8306.5 7925.92-8178.23 7788.16-8116.48 7721.94-8065.92 7628.26-8064.92 7537.04-8063.71 7434.26-8109.02 7354.31-8200.87 7297.19-8289.16 7242.26-8377.19 7228.16-8501.13 7207.42-8693.64 7175.14-8863.59 7160.86-9038.64 7106.47-9040.76 7105.85-9041.98 7103.62-9041.36 7101.5-9040.96 7100.13-9039.85 7099.07-9038.46 7098.74-8930.88 7070.9-8819.58 6992.14-8801.49 6878.09-8783.66 6765.67-8923.52 6702.27-9014.54 6705.09-9058.92 6706.37-9116.39 6757.57-9073.29 6801.69-9050.01 6825.52-9012.09 6817.06-8990.08 6795.41-8987.96 6793.35-8985.96 6793.44-8984.08 6795.68-8956.17 6828.97-8992.9 6899.91-9015.36 6921.29-9126.3 7026.91-9252.22 7051.29-9393.1 6994.41-9422.75 6982.47-9447.63 6959.85-9467.76 6926.56-9469.33 6924.02-9469.49 6921.41-9468.21 6918.74-9424.93 6827.24-9544.6 6785.13-9583.7 6848.53-9597.98 6871.63-9586.61 6905.28-9598.25 6930.47-9633.62 7006.87-9692.64 7000.23-9777.75 6999.78-9898.45 6999.11-10019.2 6998.35-10139.9 6997.51-10142.4 6997.45-10143.4 6996.2-10142.9 6993.78-10123.5 6908.65-10076.2 6852.22-10001.2 6824.51-9933.34 6799.47-9872.26 6812.78-9817.95 6864.44-9814.98 6867.29-9813.04 6866.72-9812.13 6862.71-9807.03 6839.89-9801.76 6814.05-9791.67 6794.05-9680.73 6575.12-9353 6604.23-9335.45 6871.26-9335.21 6874.36-9333.54 6875.9-9330.45 6875.9L-9251.34 6875.36C-9248.06 6875.36-9246.79 6873.75-9247.52 6870.54-9264.49 6791.83-9252.76 6724.25-9212.33 6667.8-9100.57 6511.73-8853.23 6507.54-8733.56 6658.8-8703.97 6696.21-8683.67 6739.29-8672.63 6788.04-8671.97 6791.01-8670.12 6792.65-8667.09 6792.95-8545.96 6805.2-8410.29 6822.82-8260.07 6845.8-8068.65 6875.17-7902.42 6912.92-7748.11 7032.7-7745.85 7034.38-7745.37 7037.57-7747.04 7039.83-7748.03 7041.17-7749.62 7041.94-7751.29 7041.89-7811.85 7041.47-7873.11 7041.41-7935.07 7041.71-7958.95 7041.83-7976.41 7044.95-7987.45 7051.08-8024.27 7071.54-8026.27 7131.75-7993.54 7156.04-7982.44 7164.28-7965.11 7168.8-7941.52 7169.59-7852.59 7172.74-7762.66 7173.01-7671.72 7170.41-7664.93 7170.22-7660.21 7173.26-7657.54 7179.5-7608.62 7294.56-7599.52 7427.89-7614.71 7551.13-7642.62 7778.15-7776.3 7997.16-7950.25 8141.23-8157.4 8312.77-8397.71 8398.02-8671.18 8396.99Z" fill="url(#fill3)" fill-rule="evenodd"/><path d="M-7580.53 6691.7C-7537.61 6671.31-7504.79 6635.34-7468.24 6611.22-7423.14 6581.44-7358.03 6596.92-7331.21 6644.08-7302.66 6694.35-7319.39 6760.18-7361.22 6797.96-7476.24 6901.67-7713.01 6859.88-7846.04 6819.27-7993.52 6774.2-8130.45 6721.02-8285.03 6705.27-8287.46 6704.98-8289.22 6702.78-8288.98 6700.36-8288.79 6698.55-8287.51 6697.07-8285.75 6696.62-8141.64 6657.83-8024.25 6685.51-7859.86 6712.37-7768.93 6727.31-7666.18 6732.4-7580.53 6691.7Z" fill="#FFFFFF" fill-rule="evenodd"/><path d="M-10195.7 7183.12C-10173.6 7160.01-10126.3 7161.65-10094.6 7161.56-9819.6 7160.71-9544.49 7160.83-9269.31 7161.93-9185.77 7162.29-9128.85 7200.51-9098.54 7276.59-9097.2 7280-9098.35 7281.86-9101.99 7282.17-9109.81 7282.71-9120.91 7282.99-9135.28 7282.99-9467.25 7283.05-9799.2 7282.9-10131.1 7282.53-10154.7 7282.53-10172 7278.81-10183.1 7271.38-10209.2 7253.84-10219.3 7207.88-10195.7 7183.12Z" fill="#45DEF4" fill-rule="evenodd"/><path d="M-8550 7587C-8550 7722.31-8659.69 7832-8795 7832-8930.31 7832-9040 7722.31-9040 7587-9040 7451.69-8930.31 7342-8795 7342-8659.69 7342-8550 7451.69-8550 7587Z" fill="url(#fill4)" fill-rule="evenodd"/><path d="M-8670 7988.71-8671.46 8396.99C-9037.84 8398.36-9375.4 8214.76-9571.01 7901.64-9593.56 7865.46-9610.81 7833.44-9622.75 7805.56-9624.14 7802.23-9623.02 7800.53-9619.39 7800.47-9533.66 7799.44-9448.15 7799.38-9362.85 7800.29-9348.12 7800.47-9333.78 7798.81-9319.84 7795.29-9235.18 7773.93-9261.55 7659.77-9346.85 7659.68-9508.96 7659.5-9671.04 7659.26-9833.09 7658.96-9888.56 7658.77-9933.94 7652.32-9928.21 7585.52-9927.92 7582.42-9926.21 7579.63-9923.57 7577.97-9915.99 7573.25-9907.9 7571.06-9899.29 7571.43-9864.07 7572.82-9828.94 7571.43-9793.89 7567.25-9790.23 7566.81-9787.29 7563.99-9786.71 7560.34L-9783.25 7537.53C-9782.75 7534.2-9785.04 7531.1-9788.37 7530.6-9788.69 7530.55-9789.02 7530.52-9789.35 7530.53-9870.65 7530.59-9951.82 7530.35-10032.9 7529.8-10055.3 7529.62-10071.7 7526.41-10082 7520.17-10111 7502.62-10115.9 7450.54-10084.6 7432-10075.9 7426.79-10062.5 7424.15-10044.5 7424.09-9795.35 7422.94-9546.21 7422.7-9297.1 7423.37-9293.89 7423.43-9292.01 7425.03-9291.47 7428.18-9255.09 7638.69-9131.33 7830.38-8938.81 7925.18-8854.18 7966.87-8764.58 7988.04-8670 7988.71Z" fill="url(#fill5)" fill-rule="evenodd"/><path d="M-2969.81 5925.23C-2939.77 5925.18-2915.42 5925.14-2915.42 5925.14L-2915.22 6038.09C-2915.22 6038.09-2939.57 6038.14-2969.61 6038.19L-3176.97 6038.55C-3207.01 6038.6-3231.36 6038.64-3231.36 6038.64L-3231.56 5925.69C-3231.56 5925.69-3207.21 5925.64-3177.17 5925.59Z" fill="#FEFEFE" fill-rule="evenodd"/><path d="M-9859.05 6137.14C-9829.52 6137.03-9805.58 6136.95-9805.58 6136.95L-9805.19 6248.63C-9805.19 6248.63-9829.13 6248.72-9858.66 6248.82L-10018 6249.38C-10047.5 6249.48-10071.5 6249.56-10071.5 6249.56L-10071.9 6137.88C-10071.9 6137.88-10047.9 6137.79-10018.4 6137.69Z" fill="#FEFEFE" fill-rule="evenodd"/><path d="M-8916.32 6374.73C-8900.9 6374.79-8888.4 6374.83-8888.4 6374.83L-8888.61 6433.95C-8888.61 6433.95-8901.11 6433.9-8916.53 6433.85L-9089.69 6433.25C-9105.11 6433.19-9117.61 6433.15-9117.61 6433.15L-9117.41 6374.03C-9117.41 6374.03-9104.9 6374.08-9089.48 6374.13Z" fill="#FEFEFE" fill-rule="evenodd"/><path d="M-3153.95 6208.24C-3161.26 6222.1-3179.18 6227.02-3193.97 6219.22-3208.77 6211.42-3214.84 6193.85-3207.53 6179.99-3200.22 6166.13-3182.3 6161.21-3167.5 6169.02-3152.71 6176.82-3146.64 6194.38-3153.95 6208.24Z" fill="#FEFEFE" fill-rule="evenodd"/><path d="M-9893.78 6395.85C-9871.68 6396.04-9853.76 6396.2-9853.76 6396.2L-9854.5 6480.42C-9854.5 6480.42-9872.41 6480.26-9894.51 6480.07L-9988.19 6479.25C-10010.3 6479.06-10028.2 6478.9-10028.2 6478.9L-10027.5 6394.68C-10027.5 6394.68-10009.6 6394.84-9987.45 6395.03Z" fill="#FEFEFE" fill-rule="evenodd"/><path d="M-8421.85 7414C-8456.56 7414.09-8471.32 7352.2-8423.95 7350.01-8351.16 7346.64-8266.79 7339.71-8222.88 7405.7-8221.27 7408.19-8221.93 7411.52-8224.37 7413.13-8225.22 7413.7-8226.23 7414-8227.25 7414-8292.42 7414-8357.29 7414-8421.85 7414Z" fill="url(#fill6)" fill-rule="evenodd"/><path d="M-8233.43 7541.05C-8210.12 7540.93-8191.23 7540.83-8191.23 7540.83L-8190.77 7629.23C-8190.77 7629.23-8209.66 7629.33-8232.97 7629.45L-8376.48 7630.2C-8399.79 7630.32-8418.68 7630.42-8418.68 7630.42L-8419.14 7542.02C-8419.14 7542.02-8400.25 7541.92-8376.94 7541.8Z" fill="url(#fill7)" fill-rule="evenodd"/><path d="M-4305.82 5925-3428 5925-3428 6140.45-3732.23 6140.45-3732.23 7045-4004.76 7045-4004.76 6140.45-4305.82 6140.45ZM-5415.3 5925-5144.35 5925-4691.18 6618.86-4691.18 5925-4420.22 5925-4420.22 7045-4691.18 7045-5144.35 6357.48-5144.35 7045-5415.3 7045ZM-6267.7 5925-5570.52 5925-5570.52 6140.45-5996.75 6140.45-5996.75 6374.9-5618.05 6374.9-5618.05 6579.26-5996.75 6579.26-5996.75 6827.97-5570.52 6827.97-5570.52 7045-6267.7 7045ZM-7023.86 5925-6752.91 5925-6752.91 6837.48-6391.65 6837.48-6391.65 7045-7023.86 7045ZM-7481 5925-7210.05 5925-7210.05 7045-7481 7045Z" fill="url(#fill8)" fill-rule="evenodd"/><path d="M-6058.98 7405.99C-6147.73 7405.99-6218.25 7434.78-6270.54 7492.36-6322.84 7549.94-6348.99 7628.39-6348.99 7727.71-6348.99 7825.97-6322.84 7904.15-6270.54 7962.26-6218.25 8020.37-6147.73 8049.43-6058.98 8049.43-5971.29 8049.43-5901.03 8020.37-5848.2 7962.26-5795.38 7904.15-5768.96 7825.97-5768.96 7727.71-5768.96 7629.45-5795.11 7551.26-5847.41 7493.15-5899.71 7435.04-5970.23 7405.99-6058.98 7405.99ZM-5069.15 7399.65-5069.15 7683.33-4901.16 7683.33C-4847.28 7683.33-4807.66 7671.45-4782.3 7647.67-4756.94 7623.9-4744.27 7588.77-4744.27 7542.28-4744.27 7497.91-4757.21 7463.04-4783.09 7437.68-4808.98 7412.33-4848.33 7399.65-4901.16 7399.65ZM-4332.9 7179.36-4001.68 7179.36-3698.99 7954.34-3402.63 7179.36-3073 7179.36-3073 8291.91-3344 8291.91-3344 7596.17-3584.88 8291.91-3819.43 8291.91-4061.9 7594.58-4061.9 8291.91-4332.9 8291.91ZM-5340.14 7171.43-4877.39 7171.43C-4788.64 7171.43-4713.63 7186.75-4652.35 7217.39-4591.07 7248.03-4545.11 7290.03-4514.47 7343.39-4483.83 7396.74-4468.51 7457.76-4468.51 7526.43-4468.51 7607.79-4490.97 7676.99-4535.87 7734.05-4580.77 7791.1-4646.01 7830.19-4731.59 7851.32L-4465.35 8291.91-4764.87 8291.91-5007.34 7868.76-5069.15 7868.76-5069.15 8291.91-5340.14 8291.91ZM-7535 7171.43-6704.26 7171.43-6704.26 7386.97-7008.54 7386.97-7008.54 8291.91-7281.12 8291.91-7281.12 7386.97-7490.06 7386.97-7491.5 7352.51C-7495.06 7317.95-7500.81 7283.66-7509.02 7250.14ZM-6058.98 7154C-5953.33 7154-5857.45 7178.56-5771.34 7227.69-5685.23 7276.82-5617.35 7344.97-5567.7 7432.14-5518.04 7519.3-5493.21 7617.83-5493.21 7727.71-5493.21 7837.59-5518.3 7936.38-5568.49 8024.07-5618.67 8111.76-5686.82 8180.18-5772.93 8229.31-5859.03 8278.43-5954.38 8303-6058.98 8303-6163.57 8303-6258.92 8278.43-6345.03 8229.31-6431.14 8180.18-6499.28 8111.76-6549.47 8024.07-6599.65 7936.38-6624.74 7837.59-6624.74 7727.71-6624.74 7617.83-6599.65 7519.3-6549.47 7432.14-6499.28 7344.97-6431.14 7276.82-6345.03 7227.69-6258.92 7178.56-6163.57 7154-6058.98 7154Z" fill="url(#fill9)" fill-rule="evenodd"/><path d="M-2721.02 7178.42C-2692.14 7178.27-2668.73 7178.15-2668.73 7178.15L-2668.16 7287.1C-2668.16 7287.1-2691.57 7287.22-2720.45 7287.38L-2909.8 7288.37C-2938.68 7288.52-2962.1 7288.64-2962.1 7288.64L-2962.67 7179.69C-2962.67 7179.69-2939.26 7179.56-2910.37 7179.41Z" fill="url(#fill10)" fill-rule="evenodd"/><path d="M-2754.23 7426.86C-2727.61 7426.95-2706.03 7427.02-2706.03 7427.02L-2706.38 7527.79C-2706.38 7527.79-2727.96 7527.72-2754.58 7527.63L-2914.47 7527.07C-2941.09 7526.98-2962.67 7526.9-2962.67 7526.9L-2962.32 7426.13C-2962.32 7426.13-2940.73 7426.21-2914.11 7426.3Z" fill="url(#fill11)" fill-rule="evenodd"/><path d="M-2862.19 7670C-2844.56 7669.69-2830.27 7669.45-2830.27 7669.45L-2829.08 7737.65C-2829.08 7737.65-2843.37 7737.9-2861 7738.2L-2929.56 7739.4C-2947.19 7739.71-2961.48 7739.96-2961.48 7739.96L-2962.67 7671.76C-2962.67 7671.76-2948.38 7671.51-2930.75 7671.2Z" fill="url(#fill12)" fill-rule="evenodd"/></g></svg>