<svg width="6602" height="619" xmlns="http://www.w3.org/2000/svg" xmlns:xlink="http://www.w3.org/1999/xlink" overflow="hidden"><defs><clipPath id="clip0"><rect x="3" y="4224" width="6602" height="619"/></clipPath><linearGradient x1="3301" y1="619" x2="3301" y2="-0.000104417" gradientUnits="userSpaceOnUse" spreadMethod="reflect" id="fill1"><stop offset="0" stop-color="#FFFFFF"/><stop offset="0.89" stop-color="#0295C3"/><stop offset="1" stop-color="#0295C3"/></linearGradient></defs><g clip-path="url(#clip0)" transform="translate(-3 -4224)"><path d="M3304.84 523.255 3317.57 535.697 3304.84 543.52 3292.11 535.697ZM2179.06 333.816 2179.31 334.166 2179.23 334.154ZM4430.62 333.816 4430.45 334.154 4430.36 334.166ZM1862.27 320.624C1863.37 319.706 1864.41 319.83 1865.4 320.994L1870.36 327.023 1867.75 327.895 1853.17 326.575ZM4747.41 320.624 4756.51 326.575 4741.93 327.895 4739.31 327.023 4744.28 320.994C4745.26 319.83 4746.31 319.706 4747.41 320.624ZM145.295 315.317C145.699 315.565 146.022 316.003 146.206 316.551L146.333 316.916 144.089 316.534 143.48 316.249ZM6464.38 315.317 6466.2 316.249 6465.59 316.534 6463.34 316.916 6463.47 316.551C6463.66 316.003 6463.98 315.565 6464.38 315.317ZM179.927 310.908C180.268 311.121 180.545 311.481 180.717 311.932L182.279 316.012 176.372 316.262 177.692 312.025C178.082 310.879 179.083 310.379 179.927 310.908ZM6429.75 310.908C6430.59 310.379 6431.6 310.879 6431.98 312.025L6433.31 316.262 6427.4 316.012 6428.96 311.932C6429.13 311.481 6429.41 311.121 6429.75 310.908ZM194.347 305.576C194.806 305.522 195.304 306.008 195.842 307.034L198.71 315.314 190.326 315.67 193.092 307.36C193.47 306.225 193.888 305.63 194.347 305.576ZM6415.33 305.576C6415.79 305.63 6416.21 306.225 6416.58 307.36L6419.35 315.67 6410.97 315.314 6413.84 307.034C6414.37 306.008 6414.87 305.522 6415.33 305.576ZM1499.22 156.932 1501.78 157.495 1500.54 159.766 1498.99 157.251C1498.94 157.14 1498.99 157.006 1499.1 156.953 1499.14 156.935 1499.18 156.928 1499.22 156.932ZM5110.46 156.932C5110.5 156.928 5110.54 156.935 5110.58 156.953 5110.69 157.006 5110.74 157.14 5110.69 157.251L5109.14 159.766 5107.89 157.495ZM5354.43 0.0205682C5354.25-0.030311 5354.08 0.0126296 5353.92 0.150473L5353.12 0.84077 5337.66 19.7249 5335.95 19.2951C5335.49 19.1779 5335.36 19.3356 5335.57 19.7689L5337.09 22.9166 5337.2 23.2724 5336.68 23.8263 5334.03 23.2406C5333.95 23.2211 5333.86 23.2341 5333.78 23.2767 5333.59 23.3763 5333.51 23.6101 5333.61 23.7985L5334.65 25.851 5334.61 26.0087 5333.16 27.5372 5331.84 28.4267C5331.61 28.5739 5331.38 28.5934 5331.15 28.4848 5329.33 27.6491 5327.41 27.1554 5325.39 27.0035 5325.32 26.9988 5325.24 27.0162 5325.17 27.053 5324.97 27.1605 5324.89 27.4044 5324.99 27.5978L5326.31 30.2259C5326.43 30.4608 5326.38 30.6647 5326.16 30.8371L5324.57 32.1268C5324.39 32.2704 5324.15 32.322 5323.94 32.2661L5321.24 31.5693C5321.14 31.5415 5321.03 31.5563 5320.93 31.6101 5320.74 31.7234 5320.66 31.9767 5320.77 32.1755L5323.04 36.4941C5323.19 36.7749 5323.13 37.0123 5322.88 37.2061L5318.29 40.6121C5318.16 40.7056 5318 40.7373 5317.85 40.6991 5315.91 40.2 5313.95 39.7342 5311.96 39.3015 5311.33 39.1633 5311.11 39.4985 5311.3 40.3075 5311.32 40.3646 5311.32 40.4248 5311.3 40.4829 5311.25 40.6839 5311.06 40.8131 5310.86 40.7716L5308.11 40.2004C5308.01 40.1787 5307.91 40.1935 5307.82 40.2426 5307.61 40.3555 5307.52 40.6157 5307.63 40.8239L5309.12 43.89C5309.2 44.0495 5309.2 44.209 5309.1 44.3678L5304.11 52.7997C5303.95 53.0638 5303.65 53.2024 5303.36 53.1439L5298.25 52.153C5298.16 52.1364 5298.06 52.1527 5297.98 52.1989 5297.79 52.306 5297.72 52.5424 5297.82 52.7268L5300.16 57.2182C5300.25 57.4022 5300.26 57.5924 5300.19 57.7887 5299.76 58.9441 5298.92 58.9705 5297.85 58.6764 5296.39 58.2726 5294.89 57.9385 5293.35 57.6729 5293.27 57.6588 5293.2 57.6704 5293.13 57.7061 5292.95 57.7952 5292.88 58.0063 5292.96 58.1784L5293.66 59.6532C5293.71 59.7463 5293.72 59.8527 5293.69 59.9556 5293.64 60.2078 5293.39 60.3724 5293.14 60.3237L5290.87 59.8751C5290.5 59.8022 5290.37 59.9484 5290.48 60.3128 5290.96 61.8381 5291.69 63.2122 5292.65 64.4362 5292.8 64.6242 5292.78 64.801 5292.59 64.9663L5284 72.2236C5283.8 72.3976 5283.54 72.473 5283.28 72.4297L5280.3 71.9093C5280.19 71.8898 5280.08 71.9036 5279.97 71.9487 5279.69 72.0753 5279.55 72.4123 5279.66 72.7017L5280.56 74.9227C5280.64 75.1176 5280.6 75.346 5280.46 75.5117L5276.27 80.4653C5276 80.784 5275.58 80.9272 5275.18 80.8363L5271.37 79.9789C5271.04 79.9035 5270.92 80.0338 5271 80.3697 5271.35 81.7745 5271.96 83.049 5272.83 84.1932 5273.25 84.7464 5273.31 85.3505 5273 86.005 5271.7 88.7482 5270.41 91.5603 5269.14 94.4405 5268.97 94.827 5268.56 95.046 5268.16 94.9612L5263.97 94.0476C5263.89 94.0317 5263.81 94.0342 5263.74 94.0544 5263.48 94.1241 5263.32 94.3878 5263.38 94.643 5263.74 96.2321 5264.49 97.5932 5265.63 98.7263 5265.75 98.8403 5265.8 99.0049 5265.78 99.1705 5265.74 99.461 5265.47 99.671 5265.19 99.6392L5262.89 99.3884C5262.7 99.3715 5262.52 99.453 5262.41 99.6031 5262.23 99.8391 5262.27 100.17 5262.5 100.343 5263.76 101.257 5263.58 102.287 5262.63 103.475 5260.22 106.484 5257.87 109.176 5255.59 111.552 5252.99 114.882 5250.29 115.895 5247.49 114.589 5247.4 114.546 5247.29 114.543 5247.19 114.58 5247 114.657 5246.89 114.88 5246.96 115.079L5247.21 115.801C5247.22 115.83 5247.22 115.86 5247.23 115.89 5247.32 116.319 5247.05 116.753 5246.63 116.859 5244.5 117.395 5242.57 118.193 5240.81 119.253 5239.25 123.748 5238.07 128.285 5237.28 132.863 5237.28 132.897 5237.27 132.93 5237.26 132.964 5237.09 133.607 5236.45 134.008 5235.82 133.86L5234.17 133.466C5234.08 133.446 5233.99 133.459 5233.91 133.505 5233.74 133.602 5233.68 133.816 5233.77 133.983L5235.55 137.194C5235.63 137.338 5235.64 137.513 5235.57 137.666L5234.88 139.197C5234.77 139.425 5234.52 139.548 5234.29 139.486L5230.68 138.533C5230.56 138.503 5230.43 138.527 5230.32 138.599 5230.1 138.742 5230.04 139.03 5230.17 139.244L5232.31 142.556C5232.41 142.707 5232.39 142.911 5232.27 143.057 5230.96 144.563 5228.34 147.345 5226.14 146.617 5226.09 146.6 5226.03 146.601 5225.98 146.619 5225.83 146.668 5225.74 146.83 5225.78 146.98L5225.99 147.633C5226.03 147.764 5226.04 147.904 5226.02 148.042 5225.95 148.573 5225.47 148.96 5224.95 148.908L5223.37 148.747C5223.31 148.741 5223.25 148.753 5223.19 148.78 5223.02 148.861 5222.95 149.063 5223.02 149.23L5223.4 150.052C5223.5 150.256 5223.47 150.443 5223.31 150.613L5220.12 153.987C5219.93 154.189 5219.65 154.28 5219.39 154.23L5218.05 153.977C5217.93 153.952 5217.8 153.987 5217.7 154.071 5217.52 154.223 5217.49 154.489 5217.63 154.666 5218.5 155.727 5218.36 156.582 5217.21 157.231 5217.04 157.333 5216.92 157.476 5216.84 157.662L5216.55 158.39C5216.46 158.631 5216.28 158.728 5216.03 158.68L5212.85 158.039C5212.76 158.02 5212.66 158.04 5212.57 158.093 5212.39 158.21 5212.32 158.453 5212.43 158.636L5214.53 162.013C5214.63 162.178 5214.65 162.359 5214.59 162.553L5212.48 169.024C5212.42 169.216 5212.42 169.402 5212.49 169.584 5212.72 170.213 5212.79 170.865 5212.69 171.542 5212.66 171.813 5212.51 171.917 5212.25 171.853L5209.08 171.079C5208.97 171.054 5208.85 171.073 5208.75 171.132 5208.54 171.258 5208.47 171.531 5208.58 171.741L5209.85 173.95C5209.98 174.188 5209.93 174.377 5209.69 174.517L5204.31 177.56C5204.16 177.641 5203.99 177.666 5203.83 177.628L5201.26 177.036C5201.18 177.018 5201.1 177.03 5201.02 177.071 5200.86 177.16 5200.8 177.361 5200.88 177.519L5201.71 179.131C5201.83 179.371 5201.79 179.584 5201.57 179.77L5195.7 184.836C5195.3 185.18 5194.77 185.315 5194.27 185.199L5191.91 184.633C5191.9 184.63 5191.89 184.627 5191.88 184.625 5191.63 184.587 5191.39 184.762 5191.34 185.016L5191.22 185.685C5191.18 185.868 5191.07 185.943 5190.9 185.909L5189.28 185.637C5189.17 185.62 5189.06 185.648 5188.97 185.715 5188.78 185.851 5188.74 186.111 5188.87 186.295L5190.46 188.468C5190.57 188.628 5190.54 188.856 5190.39 188.984 5188.31 190.77 5186.09 192.364 5183.73 193.767 5182.59 194.449 5181.81 194.276 5180.66 193.908 5180.6 193.885 5180.52 193.887 5180.45 193.915 5180.29 193.979 5180.21 194.162 5180.26 194.324L5180.52 195.054C5180.62 195.336 5180.56 195.582 5180.35 195.793 5178.7 197.382 5176.88 197.716 5174.89 196.794 5174.81 196.759 5174.72 196.757 5174.64 196.786 5174.46 196.851 5174.36 197.051 5174.42 197.234L5174.83 198.524C5174.87 198.653 5174.87 198.792 5174.83 198.924 5174.72 199.29 5174.34 199.51 5173.98 199.414L5170.83 198.529C5170.56 198.455 5170.27 198.567 5170.12 198.807 5169.92 199.112 5169.99 199.518 5170.28 199.715L5170.36 199.91 5161.14 199.934 5155.23 198.965 5155.06 198.724 5154.44 198.835 5152.07 198.447 5152.88 196.932C5152.91 196.874 5152.92 196.806 5152.9 196.741 5152.87 196.588 5152.72 196.487 5152.56 196.514L5150.88 196.856C5150.65 196.906 5150.4 196.762 5150.33 196.526L5149.6 194.324C5149.54 194.134 5149.57 193.965 5149.69 193.816 5150.66 192.681 5151.39 191.406 5151.9 189.99 5151.92 189.937 5151.93 189.878 5151.91 189.821 5151.88 189.657 5151.72 189.551 5151.56 189.584L5149.41 190.004C5149.22 190.04 5149.08 189.965 5149 189.777L5148.4 188.377C5148.33 188.219 5148.34 188.041 5148.42 187.897L5149.46 186.102C5149.5 186.035 5149.51 185.954 5149.49 185.876 5149.45 185.712 5149.28 185.608 5149.12 185.643L5145.57 186.413C5145.34 186.461 5145.18 186.374 5145.1 186.151L5143.57 182.185C5143.53 182.074 5143.54 181.951 5143.6 181.849 5144.34 180.561 5145.06 179.249 5145.77 177.913 5146 177.484 5145.8 177.259 5145.18 177.239 5145.14 177.237 5145.1 177.225 5145.06 177.204 5144.92 177.129 5144.87 176.961 5144.94 176.828L5145.9 174.972C5145.93 174.906 5145.94 174.828 5145.92 174.754 5145.89 174.581 5145.71 174.467 5145.55 174.501L5143.05 174.963C5142.92 174.988 5142.81 174.951 5142.71 174.852L5137.66 169.592C5137.51 169.426 5137.47 169.181 5137.57 168.983L5139.3 165.52C5139.33 165.459 5139.33 165.388 5139.32 165.32 5139.28 165.162 5139.12 165.063 5138.97 165.098L5135.29 165.879C5135.13 165.911 5135 165.88 5134.87 165.787 5134.13 165.247 5134.28 164.645 5134.7 163.934 5135.28 162.965 5135.82 161.957 5136.32 160.909 5136.34 160.858 5136.35 160.799 5136.34 160.742 5136.31 160.601 5136.17 160.506 5136.03 160.53L5134.84 160.738C5134.76 160.751 5134.68 160.738 5134.61 160.701 5134.44 160.61 5134.38 160.401 5134.46 160.233L5135.24 158.691C5135.36 158.442 5135.28 158.322 5135 158.33 5133.81 158.369 5132.68 158.613 5131.61 159.062 5131.45 159.132 5131.32 159.082 5131.24 158.912L5127.75 151.31C5127.67 151.129 5127.67 150.924 5127.75 150.751L5128.72 148.716C5128.75 148.642 5128.77 148.559 5128.76 148.477 5128.72 148.247 5128.51 148.08 5128.28 148.104L5126.51 148.304C5126.35 148.322 5126.2 148.248 5126.11 148.113L5123.39 144.122C5123.22 143.865 5123.2 143.535 5123.34 143.271L5124.72 140.71C5124.84 140.488 5124.77 140.373 5124.51 140.365 5123.44 140.334 5122.4 140.518 5121.41 140.916 5120.92 141.106 5120.48 141.026 5120.07 140.675 5118.37 139.194 5116.61 137.711 5114.8 136.225 5114.55 136.027 5114.48 135.687 5114.62 135.419L5116.11 132.596C5116.14 132.546 5116.15 132.49 5116.15 132.432 5116.15 132.233 5116 132.066 5115.8 132.059 5114.59 132.002 5113.47 132.268 5112.43 132.856 5112.32 132.917 5112.19 132.923 5112.08 132.873 5111.88 132.786 5111.78 132.554 5111.86 132.355L5112.5 130.757C5112.55 130.629 5112.53 130.484 5112.44 130.372 5112.31 130.197 5112.06 130.16 5111.89 130.288 5110.99 131.008 5110.28 130.677 5109.62 129.759 5107.95 127.432 5106.48 125.212 5105.24 123.1 5103.37 120.573 5103.18 118.436 5104.68 116.691 5104.73 116.634 5104.75 116.558 5104.74 116.481 5104.73 116.323 5104.59 116.203 5104.43 116.212L5103.87 116.247C5103.84 116.248 5103.82 116.248 5103.8 116.247 5103.47 116.227 5103.21 115.947 5103.22 115.622 5103.26 113.993 5103.08 112.444 5102.67 110.976 5099.76 108.956 5096.74 107.208 5093.62 105.732 5093.59 105.721 5093.57 105.709 5093.55 105.696 5093.12 105.447 5092.96 104.904 5093.2 104.482L5093.81 103.378C5093.84 103.321 5093.85 103.252 5093.83 103.187 5093.79 103.047 5093.65 102.959 5093.52 102.99L5090.86 103.626C5090.74 103.655 5090.61 103.624 5090.52 103.545L5089.56 102.745C5089.42 102.625 5089.38 102.422 5089.47 102.268L5090.87 99.8698C5090.92 99.7875 5090.93 99.6883 5090.9 99.5963 5090.84 99.413 5090.64 99.3076 5090.46 99.361L5087.66 100.234C5087.53 100.274 5087.39 100.222 5087.31 100.106 5086.49 98.8645 5085.02 96.4313 5085.98 95.0056 5086.01 94.9699 5086.02 94.9277 5086.02 94.8844 5086.01 94.7671 5085.91 94.6729 5085.79 94.674L5085.29 94.6902C5085.18 94.6931 5085.08 94.6733 5084.99 94.6325 5084.62 94.4766 5084.44 94.0548 5084.58 93.6907L5085.01 92.5919C5085.03 92.5497 5085.03 92.5032 5085.02 92.4577 5085 92.3213 5084.87 92.2275 5084.73 92.248L5084.07 92.3523C5083.9 92.3823 5083.78 92.3231 5083.68 92.1748L5081.9 89.2191C5081.8 89.0419 5081.79 88.8254 5081.87 88.6453L5082.32 87.7378C5082.37 87.6537 5082.37 87.5531 5082.33 87.465 5082.25 87.3059 5082.07 87.2319 5081.91 87.3001 5080.98 87.7093 5080.39 87.4383 5080.16 86.4875 5080.12 86.3439 5080.04 86.2273 5079.92 86.1378L5079.46 85.7835C5079.31 85.6666 5079.27 85.5222 5079.36 85.3501L5080.45 83.2034C5080.48 83.1381 5080.49 83.0613 5080.47 82.9891 5080.42 82.8332 5080.26 82.7408 5080.1 82.7823L5077.27 83.6087C5077.13 83.6498 5076.99 83.6289 5076.87 83.5459L5072.65 80.7439C5072.53 80.6588 5072.39 80.6227 5072.25 80.6353 5071.75 80.6797 5071.27 80.5992 5070.8 80.3939 5070.62 80.3127 5070.57 80.186 5070.67 80.0132L5071.86 77.8947C5071.9 77.8214 5071.91 77.7348 5071.88 77.6522 5071.83 77.4754 5071.65 77.3664 5071.48 77.409L5069.65 77.8719C5069.45 77.9225 5069.32 77.8474 5069.27 77.6464L5068.16 73.1882C5068.13 73.0648 5068.15 72.9367 5068.21 72.8288L5069.15 71.1057C5069.18 71.052 5069.18 70.9884 5069.17 70.9278 5069.14 70.7929 5069.01 70.7074 5068.88 70.7362L5067.56 71.0065C5067.36 71.0469 5067.22 70.9729 5067.12 70.7842L5064.67 65.5657C5064.5 65.2109 5064.51 64.8036 5064.69 64.4709L5065.57 62.8907C5065.57 62.8824 5065.58 62.8741 5065.58 62.8658 5065.66 62.6973 5065.58 62.4923 5065.41 62.4079L5064.95 62.1827C5064.83 62.1203 5064.8 62.0294 5064.86 61.9092L5065.37 60.8036C5065.41 60.7296 5065.41 60.6444 5065.38 60.5665 5065.32 60.4059 5065.14 60.3204 5064.98 60.3763L5063.11 61.0829C5062.97 61.1345 5062.81 61.0681 5062.75 60.9317 5061.89 59.0863 5061.19 57.1771 5060.65 55.204L5060.71 54.959 5061.69 54.9849C5061.76 54.9871 5061.84 54.9546 5061.91 54.8955 5062.04 54.7778 5062.08 54.5898 5061.99 54.4758 5061.17 53.3655 5060.72 52.0354 5060.63 50.4859 5060.63 50.4625 5060.63 50.4379 5060.64 50.4137 5060.67 50.3105 5060.77 50.2362 5060.87 50.2474L5065.36 50.8139C5065.43 50.8211 5065.44 50.8002 5065.4 50.7511 5064.52 49.7433 5063.64 48.8239 5062.54 47.9921L5059.48 45.5586 5059.81 45.0137C5059.92 44.8362 5059.9 44.6059 5059.76 44.4443 5059.58 44.2393 5059.27 44.2119 5059.07 44.3829L5058.12 44.4746 5057.66 44.1094 5057.33 43.5183C5057 42.6184 5056.64 41.721 5056.25 40.8268 5056.19 40.6691 5056.08 40.5471 5055.93 40.4609L5054.49 39.6403C5054.36 39.5617 5054.23 39.557 5054.09 39.6266L5053.42 39.9741 5053.12 40.208 5052.29 39.8417 5051.44 39.1608 5051.12 39.317 5050.88 39.2099C5049.79 39.2701 5048.83 39.6245 5048.33 40.1556L5048.09 40.3862 5043.53 39.4007C5043.17 39.3221 5043.06 39.4614 5043.17 39.8179L5044.21 42.8941C5044.23 42.9432 5044.22 43.0016 5044.2 43.0579 5044.15 43.1864 5044.02 43.2712 5043.91 43.2477L5041.56 42.8183C5041.49 42.806 5041.42 42.8208 5041.35 42.8605 5041.19 42.9529 5041.1 43.1535 5041.16 43.3087L5041.77 44.9953C5041.86 45.2327 5041.74 45.5456 5041.5 45.7145L5039.23 47.2964C5039.03 47.431 5038.84 47.4577 5038.66 47.3765 5037.3 46.7519 5035.81 46.4206 5034.21 46.3824 5034.15 46.382 5034.09 46.4001 5034.03 46.4343 5033.86 46.5339 5033.76 46.7436 5033.82 46.9024L5034.59 49.0631C5034.66 49.2562 5034.6 49.4304 5034.41 49.586L5032.98 50.7464C5032.82 50.8756 5032.63 50.9294 5032.46 50.8922L5030.37 50.4242C5030.3 50.4054 5030.21 50.4224 5030.13 50.4722 5029.95 50.5769 5029.87 50.7941 5029.93 50.9572L5031.28 54.5029C5031.36 54.7334 5031.29 54.9362 5031.07 55.1116L5027.01 58.1932C5026.9 58.2777 5026.76 58.3119 5026.64 58.2863 5025.15 57.9515 5023.62 57.6458 5022.08 57.369 5021.58 57.2806 5021.37 57.5737 5021.44 58.2481 5021.44 58.2957 5021.43 58.3466 5021.42 58.396 5021.36 58.5681 5021.18 58.6861 5021.03 58.6598L5018.89 58.3004C5018.81 58.2863 5018.72 58.3036 5018.65 58.3491 5018.46 58.4538 5018.37 58.6775 5018.43 58.8489L5019.29 61.3712C5019.34 61.5025 5019.32 61.6371 5019.22 61.7757L5014.29 69.12C5014.13 69.3502 5013.87 69.4808 5013.64 69.4444L5009.65 68.836C5009.58 68.8259 5009.5 68.8436 5009.43 68.8865 5009.27 68.9854 5009.19 69.1882 5009.25 69.3397L5010.63 73.028C5010.68 73.1791 5010.67 73.3394 5010.59 73.5086 5010.12 74.5038 5009.44 74.5633 5008.62 74.3627 5007.48 74.0874 5006.32 73.872 5005.11 73.7164 5005.05 73.7078 5004.99 73.7211 5004.93 73.7547 5004.78 73.8373 5004.7 74.0192 5004.75 74.1606L5005.15 75.3749C5005.17 75.4514 5005.17 75.5409 5005.14 75.6289 5005.07 75.8444 5004.85 75.9945 5004.66 75.9645L5002.88 75.687C5002.59 75.6423 5002.47 75.7715 5002.52 76.0742 5002.74 77.3408 5003.17 78.4691 5003.81 79.4593 5003.91 79.6116 5003.87 79.7617 5003.7 79.91L4996.01 86.4225C4995.83 86.5788 4995.61 86.6546 4995.41 86.6289L4993.07 86.323C4992.99 86.3114 4992.89 86.328 4992.81 86.3706 4992.56 86.4904 4992.41 86.7812 4992.47 87.0205L4992.95 88.8561C4992.99 89.017 4992.93 89.2119 4992.8 89.358L4988.89 93.7289C4988.64 94.01 4988.29 94.1501 4987.98 94.0909L4985.02 93.5373C4984.76 93.4883 4984.65 93.6037 4984.67 93.8837 4984.8 95.0547 4985.15 96.1037 4985.72 97.031 4986 97.4796 4985.98 97.9869 4985.66 98.5535 4984.31 100.929 4982.97 103.361 4981.63 105.85 4981.45 106.185 4981.1 106.388 4980.79 106.334L4977.52 105.75C4977.46 105.74 4977.4 105.745 4977.34 105.766 4977.12 105.836 4976.97 106.066 4976.99 106.278 4977.1 107.605 4977.56 108.721 4978.34 109.627 4978.42 109.718 4978.45 109.854 4978.41 109.995 4978.35 110.242 4978.11 110.431 4977.89 110.418L4976.07 110.308C4975.92 110.303 4975.77 110.379 4975.66 110.511 4975.49 110.719 4975.49 110.996 4975.65 111.132 4976.56 111.848 4976.31 112.725 4975.41 113.772 4973.15 116.42 4970.97 118.799 4968.87 120.907 4966.42 123.836 4964.14 124.812 4962.04 123.835 4961.97 123.802 4961.88 123.804 4961.8 123.84 4961.63 123.914 4961.52 124.107 4961.55 124.272L4961.67 124.87C4961.68 124.894 4961.68 124.919 4961.68 124.944 4961.71 125.303 4961.45 125.681 4961.09 125.79 4959.33 126.337 4957.69 127.098 4956.16 128.072 4954.41 131.938 4952.96 135.822 4951.83 139.723 4951.82 139.752 4951.81 139.782 4951.8 139.81 4951.6 140.36 4951.03 140.728 4950.54 140.631L4949.26 140.373C4949.2 140.359 4949.12 140.375 4949.05 140.416 4948.91 140.506 4948.83 140.69 4948.89 140.827L4949.96 143.459C4950.01 143.577 4950 143.724 4949.92 143.856L4949.2 145.18C4949.09 145.378 4948.88 145.493 4948.7 145.451L4945.91 144.808C4945.81 144.788 4945.7 144.814 4945.61 144.88 4945.42 145.009 4945.33 145.256 4945.42 145.431L4946.77 148.132C4946.83 148.256 4946.8 148.429 4946.68 148.557 4945.46 149.888 4943.05 152.354 4941.37 151.837 4941.33 151.825 4941.28 151.829 4941.24 151.846 4941.11 151.895 4941.03 152.035 4941.04 152.16L4941.14 152.702C4941.15 152.812 4941.15 152.929 4941.12 153.047 4941 153.498 4940.57 153.847 4940.16 153.826L4938.91 153.76C4938.86 153.758 4938.81 153.77 4938.77 153.796 4938.62 153.873 4938.54 154.046 4938.58 154.183L4938.79 154.861C4938.85 155.029 4938.8 155.189 4938.66 155.339L4935.73 158.331C4935.55 158.51 4935.32 158.6 4935.11 158.569L4934.07 158.415C4933.97 158.4 4933.86 158.435 4933.77 158.51 4933.61 158.647 4933.56 158.873 4933.66 159.016 4934.23 159.873 4934.03 160.601 4933.04 161.201 4932.89 161.294 4932.77 161.421 4932.69 161.581L4932.38 162.209C4932.27 162.417 4932.12 162.506 4931.93 162.477L4929.45 162.077C4929.37 162.066 4929.29 162.087 4929.22 162.137 4929.05 162.243 4928.98 162.452 4929.04 162.601L4930.35 165.359C4930.42 165.495 4930.41 165.645 4930.34 165.812L4927.94 171.372C4927.86 171.537 4927.84 171.694 4927.88 171.845 4928 172.365 4927.98 172.913 4927.83 173.489 4927.77 173.72 4927.64 173.814 4927.44 173.771L4924.98 173.26C4924.9 173.243 4924.8 173.265 4924.71 173.319 4924.53 173.435 4924.44 173.669 4924.51 173.84L4925.28 175.65C4925.36 175.845 4925.3 176.007 4925.09 176.136L4920.44 178.946C4920.31 179.021 4920.17 179.049 4920.05 179.025L4918.05 178.64C4917.99 178.628 4917.92 178.642 4917.86 178.68 4917.71 178.763 4917.64 178.935 4917.69 179.065L4918.18 180.389C4918.25 180.587 4918.19 180.769 4918 180.935L4912.73 185.476C4912.37 185.784 4911.93 185.922 4911.54 185.846L4909.71 185.473C4909.7 185.471 4909.69 185.47 4909.68 185.469 4909.49 185.448 4909.28 185.606 4909.21 185.823L4909.04 186.393C4908.99 186.55 4908.89 186.617 4908.76 186.597L4907.49 186.44C4907.4 186.43 4907.31 186.459 4907.23 186.519 4907.07 186.642 4907 186.864 4907.08 187.013L4908.12 188.777C4908.2 188.907 4908.15 189.101 4908.01 189.216L4907.01 189.957 4906.29 188.732C4906.15 188.511 4905.99 188.332 4905.81 188.208 4905.06 187.694 4904.2 188.189 4903.88 189.314L4901.56 193.613 4899.66 193.809C4899.61 193.793 4899.55 193.798 4899.49 193.825 4899.35 193.887 4899.27 194.045 4899.29 194.179L4899.42 194.783C4899.47 195.017 4899.4 195.228 4899.2 195.416 4897.7 196.831 4896.21 197.194 4894.71 196.505 4894.65 196.479 4894.58 196.481 4894.51 196.509 4894.36 196.572 4894.25 196.746 4894.28 196.898L4894.47 197.969C4894.49 198.076 4894.47 198.193 4894.43 198.306 4894.3 198.621 4893.97 198.823 4893.69 198.758L4891.26 198.152C4891.05 198.101 4890.81 198.209 4890.66 198.419 4890.46 198.685 4890.48 199.025 4890.69 199.178 4891.16 199.503 4891.26 199.917 4890.99 200.42 4890.84 200.692 4890.51 201.01 4890.01 201.376 4889.09 202.053 4888.17 202.763 4887.27 203.508 4887.11 203.637 4886.99 203.798 4886.92 203.993L4886.24 205.833C4886.18 206.004 4886.19 206.149 4886.29 206.269L4886.76 206.873 4887.98 207.846 4884.75 215.092C4882.41 218.504 4879.61 221.128 4876.35 222.962 4875.43 223.459 4874.42 222.729 4874.08 221.322L4872.22 213.333C4872.12 212.913 4871.97 212.528 4871.77 212.201 4870.96 210.848 4869.59 210.763 4868.72 212.011L4867.24 214.18C4867.18 214.255 4867.13 214.326 4867.07 214.39 4866.36 215.167 4865.37 214.907 4864.87 213.809L4864.11 212.169C4863.44 210.794 4862.79 210.794 4862.15 212.169 4854.79 227.459 4844.41 215.925 4841.63 201.8 4841.56 201.437 4841.42 201.116 4841.22 200.887 4840.73 200.303 4840.01 200.451 4839.63 201.218 4832.55 214.973 4824.29 217.001 4814.85 207.302 4814.19 206.596 4813.7 206.826 4813.41 207.99L4810.93 218.412C4810.81 218.913 4810.59 219.338 4810.29 219.614 4809.58 220.282 4808.65 219.933 4808.22 218.835L4805.26 211.058C4805 210.317 4804.49 209.864 4803.95 209.887 4803.15 209.921 4802.52 210.943 4802.54 212.169 4802.54 220.493 4800.33 223.509 4795.91 221.216 4794.67 220.581 4793.75 221.163 4793.16 222.962 4790.52 231.003 4786.16 234.424 4780.06 233.225 4778.83 232.978 4777.89 232.026 4777.24 230.368L4773.05 219.258C4772.95 218.993 4772.82 218.752 4772.67 218.545 4771.85 217.415 4770.59 217.521 4769.85 218.783L4766.59 224.285C4766.4 224.621 4766.16 224.898 4765.9 225.101 4764.77 225.986 4763.38 225.289 4762.81 223.544L4758.17 209.788C4758.02 209.365 4757.8 209.012 4757.54 208.771 4756.75 208.063 4755.74 208.472 4755.28 209.683L4747.2 231.215C4747.06 231.585 4746.88 231.913 4746.66 232.182 4745.67 233.408 4744.22 233.164 4743.42 231.638L4740.12 225.342C4740.05 225.212 4739.97 225.091 4739.89 224.981 4739.12 223.948 4737.96 224.062 4737.3 225.237L4735.58 228.252C4735.5 228.405 4735.4 228.543 4735.29 228.661 4734.53 229.52 4733.44 229.242 4732.87 228.04L4730.36 222.803C4729.23 220.44 4728.24 220.563 4727.37 223.173L4726.54 225.607C4726.43 225.923 4726.27 226.185 4726.06 226.364 4725.47 226.887 4724.72 226.572 4724.38 225.66L4721.63 218.306C4721.45 217.862 4721.19 217.507 4720.88 217.287 4720.02 216.671 4719 217.246 4718.6 218.57L4716.74 225.237C4716.57 225.865 4716.25 226.366 4715.84 226.633 4714.96 227.206 4713.95 226.581 4713.58 225.237L4711.38 217.354C4710.72 214.885 4709.8 214.638 4708.63 216.613 4704.99 222.785 4700.67 227.599 4695.67 231.056 4694.71 231.691 4693.74 231.726 4692.75 231.162L4689.76 229.416C4688.27 228.534 4687.43 229.293 4687.25 231.691 4686.45 242.343 4685.2 249.115 4683.5 252.007 4680.43 257.261 4678.11 258.62 4676.53 256.08 4674.92 253.54 4672.73 251.918 4670.43 251.584 4665.76 250.902 4661.99 255.663 4662.02 262.217L4661.33 263.99 4655.5 265.932 4654.53 263.91C4654.38 263.604 4654.19 263.354 4653.97 263.176 4653.17 262.518 4652.17 262.988 4651.74 264.227 4650.55 267.79 4649.27 268.036 4647.89 264.968 4647.7 264.528 4647.44 264.176 4647.13 263.947 4646.17 263.239 4645.02 263.863 4644.56 265.338L4641.66 268.175 4640.8 268.143C4620.68 259.447 4600.85 250.637 4581.29 241.711 4568.49 235.896 4561.48 228.871 4560.27 220.633 4557.33 201.252 4553.14 184.523 4547.7 170.445 4544.02 160.857 4537.82 160.347 4529.12 168.915 4504.39 193.219 4484.02 218.16 4468 243.738 4464.77 248.89 4461.67 255.036 4458.72 262.176L4451.24 283.773 4439.05 263.01C4438.91 262.789 4438.75 262.61 4438.57 262.486 4437.82 261.971 4436.96 262.467 4436.64 263.592 4434.67 270.329 4431.21 273.662 4426.26 273.591 4424.91 273.592 4423.68 274.838 4423.13 276.765 4420.31 286.747 4415.64 293.571 4409.11 297.239 4408.19 297.737 4407.18 297.007 4406.84 295.599L4404.98 287.611C4404.89 287.191 4404.73 286.806 4404.54 286.478 4403.73 285.125 4402.36 285.04 4401.48 286.288L4400 288.457C4399.95 288.533 4399.89 288.603 4399.83 288.668 4399.12 289.444 4398.13 289.184 4397.63 288.087L4396.87 286.447C4396.21 285.071 4395.55 285.071 4394.91 286.447 4387.56 301.736 4377.17 290.203 4374.39 276.077 4374.32 275.714 4374.18 275.394 4373.99 275.165 4373.49 274.58 4372.78 274.728 4372.4 275.495 4365.31 289.251 4357.05 291.279 4347.61 281.579 4346.95 280.874 4346.47 281.103 4346.17 282.267L4343.69 292.69C4343.58 293.191 4343.35 293.615 4343.06 293.892 4342.34 294.56 4341.41 294.211 4340.98 293.113L4338.02 285.336C4337.76 284.595 4337.26 284.142 4336.71 284.165 4335.91 284.198 4335.28 285.22 4335.31 286.447 4335.31 294.77 4333.09 297.786 4328.67 295.493 4327.43 294.859 4326.52 295.441 4325.92 297.239 4323.29 305.28 4318.92 308.702 4312.83 307.503 4311.59 307.256 4310.65 306.304 4310.01 304.646L4305.81 293.536C4305.71 293.27 4305.58 293.029 4305.43 292.823 4304.61 291.692 4303.35 291.798 4302.62 293.06L4299.35 298.562C4299.16 298.898 4298.92 299.175 4298.66 299.379 4297.53 300.264 4296.14 299.567 4295.57 297.821L4290.93 284.066C4290.79 283.642 4290.57 283.289 4290.3 283.048 4289.51 282.341 4288.5 282.749 4288.04 283.961L4279.96 305.492C4279.82 305.863 4279.64 306.191 4279.42 306.46 4278.43 307.686 4276.98 307.442 4276.18 305.916L4272.88 299.62C4272.81 299.49 4272.74 299.369 4272.65 299.259 4271.88 298.226 4270.72 298.34 4270.06 299.514L4268.34 302.53C4268.26 302.683 4268.16 302.82 4268.06 302.938 4267.29 303.798 4266.2 303.519 4265.63 302.318L4263.12 297.081C4262 294.717 4261 294.841 4260.13 297.451L4259.3 299.885C4259.19 300.201 4259.03 300.463 4258.83 300.641 4258.23 301.165 4257.48 300.85 4257.14 299.937L4254.39 292.583C4254.21 292.139 4253.95 291.784 4253.65 291.565 4252.79 290.949 4251.76 291.523 4251.36 292.848L4249.51 299.514C4249.33 300.143 4249.01 300.643 4248.6 300.911 4247.73 301.484 4246.72 300.858 4246.34 299.514L4244.14 291.632C4243.48 289.163 4242.56 288.915 4241.39 290.891 4237.75 297.063 4233.43 301.877 4228.44 305.334 4227.47 305.969 4226.5 306.004 4225.51 305.44L4222.52 303.694C4221.03 302.812 4220.2 303.57 4220.01 305.969 4219.21 316.62 4217.96 323.392 4216.27 326.284 4213.2 331.539 4210.87 332.897 4209.29 330.357 4207.69 327.818 4205.49 326.196 4203.2 325.861 4198.52 325.18 4194.76 329.94 4194.78 336.494L4193.16 340.675 4187.26 338.147 4186.74 337.453 4186.21 337.699 4178.28 334.302C4163.96 327.254 4150.88 319.479 4140.37 310.528 4125.21 297.637 4113.62 284.057 4091.55 274.073 4082.1 269.839 4072.74 265.555 4063.47 261.22 4042.52 251.351 4012.42 242.284 3991.12 229.585 3987.71 227.588 3982.4 226.975 3977.85 228.055L3976.56 228.562 3979.92 225.182C3973.66 225.688 3968.32 227.344 3963.88 230.149 3963.35 230.493 3962.81 230.503 3962.26 230.178L3959.43 228.51C3959.25 228.407 3959.05 228.373 3958.86 228.415 3958.43 228.504 3958.16 228.92 3958.25 229.343L3958.48 230.477C3958.61 231.239 3958.36 231.83 3957.72 232.25 3953.34 235.15 3948.6 236.701 3943.49 236.904 3942.71 236.933 3942.32 237.345 3942.34 238.141 3942.35 238.332 3942.34 238.527 3942.31 238.725 3942.18 239.507 3941.72 239.967 3940.93 240.103 3937 240.802 3933.86 240.435 3930.14 242.322 3924.32 245.264 3918.06 247.024 3911.35 247.603 3910.78 247.649 3910.42 247.956 3910.27 248.523L3908.36 256.113C3908.13 256.994 3907.58 257.569 3906.71 257.84 3901.85 259.311 3898.77 262.376 3897.47 267.036 3897.31 267.605 3896.82 268.013 3896.25 268.059 3894.5 268.206 3893.29 269.038 3892.62 270.554 3892.3 271.24 3891.57 271.639 3890.83 271.54 3888.41 271.198 3886.38 271.939 3884.73 273.765 3884.26 274.276 3883.68 274.478 3883 274.372 3873.73 272.865 3865.17 274.8 3857.3 280.178 3852.18 283.676 3848.31 286.852 3841.85 287.606 3836.5 288.247 3832.1 287.899 3827.22 290.475 3815.12 296.862 3804.37 305.087 3794.97 315.15 3794.49 315.667 3794.16 316.275 3793.99 316.974 3792.97 320.955 3790.34 323.537 3786.09 324.721 3785.52 324.873 3785.15 325.432 3785.23 326.03L3785.8 330.62C3785.92 331.586 3785.5 332.042 3784.53 331.986 3779.37 331.688 3775.2 333.593 3772.01 337.703 3771.56 338.297 3770.96 338.575 3770.21 338.537L3762.92 338.211C3762.41 338.188 3761.93 338.438 3761.66 338.867 3758.91 342.952 3755.02 345.069 3749.96 345.216L3748.99 345.947 3727.25 348.306C3719.31 348.727 3711.27 348.695 3703.15 348.131 3699.74 347.887 3696.3 348.474 3693.72 349.737 3681.46 355.756 3670.82 362.323 3661.82 369.438L3647.34 384.509 3646.33 384.74C3641.44 388.004 3638.35 385.714 3633.75 386.582 3631.83 386.947 3629.91 387.379 3627.99 387.88 3627.13 388.112 3626.49 387.845 3626.05 387.078L3625.49 386.057C3624.79 384.833 3624.19 384.872 3623.67 386.172L3623.26 387.182C3623.06 387.653 3622.65 388.004 3622.14 388.132 3610.63 390.968 3600.1 389.944 3594.01 402.019 3593.62 402.807 3593.05 402.962 3592.3 402.482L3587.25 399.292C3586.7 398.94 3586.1 398.774 3585.45 398.793 3581 398.977 3576.89 397.926 3573.12 395.64 3572.59 395.312 3571.95 395.179 3571.32 395.263 3566.02 395.962 3560.76 395.84 3555.54 394.895 3554.91 394.776 3554.34 394.916 3553.84 395.316 3551.12 397.465 3548 398.563 3544.48 398.612 3543.87 398.624 3543.33 398.82 3542.87 399.2 3539.47 402.018 3534.76 402.722 3531.85 403.906L3508.73 413.199 3504.11 412.544C3503.32 412.798 3502.62 413.138 3502.07 413.543L3496.17 417.681 3491.66 418.866C3490.36 419.35 3489.26 420.02 3488.52 421.07L3488.03 423.378 3399.77 485.191 3324.34 531.537 3309.78 518.421 3311.61 516.635C3313.1 515.232 3313.94 513.932 3314.13 512.733 3314.45 510.285 3313.31 508.933 3310.7 508.679L3304.84 513.964 3298.97 508.679C3296.37 508.933 3295.22 510.285 3295.55 512.733 3295.74 513.932 3296.58 515.232 3298.07 516.635L3299.89 518.421 3285.34 531.537 3209.91 485.191 3121.65 423.378 3121.16 421.07C3120.42 420.02 3119.31 419.35 3118.02 418.866L3113.51 417.681 3107.6 413.543C3107.05 413.138 3106.36 412.798 3105.57 412.544L3100.95 413.199 3077.83 403.906C3074.92 402.722 3070.21 402.018 3066.81 399.2 3066.35 398.82 3065.81 398.624 3065.2 398.612 3061.68 398.563 3058.56 397.465 3055.84 395.316 3055.34 394.916 3054.77 394.776 3054.14 394.895 3048.92 395.84 3043.66 395.962 3038.36 395.263 3037.73 395.179 3037.09 395.312 3036.56 395.64 3032.79 397.926 3028.68 398.977 3024.23 398.793 3023.58 398.774 3022.98 398.94 3022.43 399.292L3017.38 402.482C3016.63 402.962 3016.06 402.807 3015.67 402.019 3009.58 389.944 2999.04 390.968 2987.54 388.132 2987.03 388.004 2986.62 387.653 2986.42 387.182L2986.01 386.172C2985.49 384.872 2984.88 384.833 2984.19 386.057L2983.63 387.078C2983.19 387.845 2982.55 388.112 2981.69 387.88 2979.77 387.379 2977.85 386.947 2975.93 386.582 2971.33 385.714 2968.24 388.004 2963.35 384.74L2962.34 384.509 2947.85 369.438C2938.86 362.323 2928.22 355.756 2915.95 349.737 2913.38 348.474 2909.94 347.887 2906.53 348.131 2898.41 348.695 2890.37 348.727 2882.43 348.306L2860.69 345.947 2859.72 345.216C2854.66 345.069 2850.76 342.952 2848.02 338.867 2847.75 338.438 2847.26 338.188 2846.76 338.211L2839.47 338.537C2838.72 338.575 2838.12 338.297 2837.66 337.703 2834.48 333.593 2830.31 331.688 2825.15 331.986 2824.18 332.042 2823.75 331.586 2823.88 330.62L2824.45 326.03C2824.53 325.432 2824.16 324.873 2823.58 324.721 2819.34 323.537 2816.71 320.955 2815.69 316.974 2815.52 316.275 2815.19 315.667 2814.71 315.15 2805.3 305.087 2794.55 296.862 2782.46 290.475 2777.58 287.899 2773.18 288.247 2767.82 287.606 2761.37 286.852 2757.49 283.676 2752.38 280.178 2744.51 274.8 2735.94 272.865 2726.67 274.372 2725.99 274.478 2725.42 274.276 2724.95 273.765 2723.3 271.939 2721.27 271.198 2718.85 271.54 2718.11 271.639 2717.38 271.24 2717.06 270.554 2716.38 269.038 2715.17 268.206 2713.43 268.059 2712.86 268.013 2712.37 267.605 2712.2 267.036 2710.91 262.376 2707.83 259.311 2702.97 257.84 2702.1 257.569 2701.55 256.994 2701.32 256.113L2699.41 248.523C2699.25 247.956 2698.9 247.649 2698.33 247.603 2691.62 247.024 2685.36 245.264 2679.54 242.322 2675.82 240.435 2672.68 240.802 2668.75 240.103 2667.96 239.967 2667.5 239.507 2667.37 238.725 2667.34 238.527 2667.33 238.332 2667.34 238.141 2667.36 237.345 2666.97 236.933 2666.18 236.904 2661.08 236.701 2656.34 235.15 2651.96 232.25 2651.32 231.83 2651.07 231.239 2651.2 230.477L2651.42 229.343C2651.51 228.92 2651.24 228.504 2650.82 228.415 2650.63 228.373 2650.42 228.407 2650.25 228.51L2647.42 230.178C2646.87 230.503 2646.32 230.493 2645.8 230.149 2641.36 227.344 2636.02 225.688 2629.76 225.182L2633.12 228.562 2631.83 228.055C2627.28 226.975 2621.97 227.588 2618.56 229.585 2597.26 242.284 2567.16 251.351 2546.2 261.22 2536.94 265.555 2527.58 269.839 2518.13 274.073 2496.06 284.057 2484.46 297.637 2469.31 310.528 2458.8 319.479 2445.72 327.254 2431.4 334.302L2423.46 337.699 2422.94 337.453 2422.42 338.147 2416.51 340.675 2414.9 336.494C2414.92 329.94 2411.15 325.18 2406.48 325.861 2404.19 326.196 2401.99 327.818 2400.39 330.357 2398.81 332.897 2396.48 331.539 2393.41 326.284 2391.72 323.392 2390.47 316.62 2389.66 305.969 2389.48 303.57 2388.64 302.812 2387.16 303.694L2384.16 305.44C2383.18 306.004 2382.21 305.969 2381.24 305.334 2376.25 301.877 2371.93 297.063 2368.28 290.891 2367.11 288.915 2366.2 289.163 2365.53 291.632L2363.33 299.514C2362.96 300.858 2361.95 301.484 2361.08 300.911 2360.67 300.643 2360.34 300.143 2360.17 299.514L2358.31 292.848C2357.91 291.523 2356.89 290.949 2356.03 291.565 2355.72 291.784 2355.47 292.139 2355.29 292.583L2352.54 299.937C2352.2 300.85 2351.44 301.165 2350.85 300.641 2350.65 300.463 2350.48 300.201 2350.37 299.885L2349.55 297.451C2348.68 294.841 2347.68 294.717 2346.56 297.081L2344.05 302.318C2343.48 303.519 2342.39 303.798 2341.62 302.938 2341.52 302.82 2341.42 302.683 2341.33 302.53L2339.61 299.514C2338.96 298.34 2337.8 298.226 2337.02 299.259 2336.94 299.369 2336.87 299.49 2336.8 299.62L2333.5 305.916C2332.7 307.442 2331.25 307.686 2330.26 306.46 2330.04 306.191 2329.86 305.863 2329.72 305.492L2321.64 283.961C2321.18 282.749 2320.17 282.341 2319.38 283.048 2319.11 283.289 2318.89 283.642 2318.75 284.066L2314.11 297.821C2313.53 299.567 2312.15 300.264 2311.01 299.379 2310.75 299.175 2310.52 298.898 2310.33 298.562L2307.06 293.06C2306.33 291.798 2305.07 291.692 2304.25 292.823 2304.1 293.029 2303.97 293.27 2303.87 293.536L2299.67 304.646C2299.03 306.304 2298.09 307.256 2296.85 307.503 2290.76 308.702 2286.39 305.28 2283.76 297.239 2283.16 295.441 2282.24 294.859 2281.01 295.493 2276.58 297.786 2274.37 294.77 2274.37 286.447 2274.39 285.22 2273.77 284.198 2272.97 284.165 2272.42 284.142 2271.91 284.595 2271.66 285.336L2268.7 293.113C2268.27 294.211 2267.34 294.56 2266.62 293.892 2266.33 293.615 2266.1 293.191 2265.98 292.69L2263.51 282.267C2263.21 281.103 2262.73 280.874 2262.07 281.579 2252.62 291.279 2244.36 289.251 2237.28 275.495 2236.9 274.728 2236.19 274.58 2235.69 275.165 2235.5 275.394 2235.35 275.714 2235.29 276.077 2232.5 290.203 2222.12 301.736 2214.77 286.447 2214.12 285.071 2213.47 285.071 2212.81 286.447L2212.05 288.087C2211.55 289.184 2210.56 289.444 2209.85 288.668 2209.79 288.603 2209.73 288.533 2209.68 288.457L2208.2 286.288C2207.32 285.04 2205.95 285.125 2205.14 286.478 2204.94 286.806 2204.79 287.191 2204.69 287.611L2202.84 295.599C2202.5 297.007 2201.49 297.737 2200.57 297.239 2194.04 293.571 2189.36 286.747 2186.54 276.765 2186 274.838 2184.77 273.592 2183.42 273.591 2178.47 273.662 2175.01 270.329 2173.03 263.592 2172.72 262.467 2171.85 261.971 2171.11 262.486 2170.93 262.61 2170.76 262.789 2170.63 263.01L2158.44 283.773 2150.96 262.176C2148.01 255.036 2144.91 248.89 2141.67 243.738 2125.66 218.16 2105.28 193.219 2080.56 168.915 2071.85 160.347 2065.66 160.857 2061.98 170.445 2056.53 184.523 2052.34 201.252 2049.41 220.633 2048.2 228.871 2041.19 235.896 2028.39 241.711 2008.83 250.637 1989 259.447 1968.88 268.143L1968.02 268.175 1965.12 265.338C1964.66 263.863 1963.51 263.239 1962.55 263.947 1962.24 264.176 1961.98 264.528 1961.79 264.968 1960.41 268.036 1959.13 267.79 1957.94 264.227 1957.51 262.988 1956.51 262.518 1955.7 263.176 1955.49 263.354 1955.3 263.604 1955.15 263.91L1954.17 265.932 1948.34 263.99 1947.66 262.217C1947.68 255.663 1943.92 250.902 1939.24 251.584 1936.95 251.918 1934.75 253.54 1933.15 256.08 1931.57 258.62 1929.24 257.261 1926.17 252.007 1924.48 249.115 1923.23 242.343 1922.43 231.691 1922.24 229.293 1921.41 228.534 1919.92 229.416L1916.93 231.162C1915.94 231.726 1914.97 231.691 1914.01 231.056 1909.01 227.599 1904.69 222.785 1901.05 216.613 1899.88 214.638 1898.96 214.885 1898.3 217.354L1896.1 225.237C1895.72 226.581 1894.71 227.206 1893.84 226.633 1893.43 226.366 1893.11 225.865 1892.93 225.237L1891.08 218.57C1890.68 217.246 1889.65 216.671 1888.79 217.287 1888.49 217.507 1888.23 217.862 1888.05 218.306L1885.3 225.66C1884.96 226.572 1884.21 226.887 1883.61 226.364 1883.41 226.185 1883.25 225.923 1883.14 225.607L1882.31 223.173C1881.44 220.563 1880.44 220.44 1879.32 222.803L1876.81 228.04C1876.24 229.242 1875.15 229.52 1874.38 228.661 1874.28 228.543 1874.18 228.405 1874.1 228.252L1872.38 225.237C1871.72 224.062 1870.56 223.948 1869.79 224.981 1869.7 225.091 1869.63 225.212 1869.56 225.342L1866.26 231.638C1865.46 233.164 1864.01 233.408 1863.02 232.182 1862.8 231.913 1862.62 231.585 1862.48 231.215L1854.4 209.683C1853.94 208.472 1852.93 208.063 1852.14 208.771 1851.87 209.012 1851.66 209.365 1851.51 209.788L1846.87 223.544C1846.3 225.289 1844.91 225.986 1843.78 225.101 1843.52 224.898 1843.28 224.621 1843.09 224.285L1839.82 218.783C1839.09 217.521 1837.83 217.415 1837.01 218.545 1836.86 218.752 1836.73 218.993 1836.63 219.258L1832.43 230.368C1831.79 232.026 1830.85 232.978 1829.62 233.225 1823.52 234.424 1819.15 231.003 1816.52 222.962 1815.92 221.163 1815.01 220.581 1813.77 221.216 1809.35 223.509 1807.13 220.493 1807.13 212.169 1807.16 210.943 1806.53 209.921 1805.73 209.887 1805.18 209.864 1804.68 210.317 1804.42 211.058L1801.46 218.835C1801.03 219.933 1800.1 220.282 1799.38 219.614 1799.09 219.338 1798.86 218.913 1798.75 218.412L1796.27 207.99C1795.97 206.826 1795.49 206.596 1794.83 207.302 1785.39 217.001 1777.12 214.973 1770.04 201.218 1769.66 200.451 1768.95 200.303 1768.45 200.887 1768.26 201.116 1768.12 201.437 1768.05 201.8 1765.27 215.925 1754.88 227.459 1747.53 212.169 1746.89 210.794 1746.23 210.794 1745.57 212.169L1744.81 213.809C1744.31 214.907 1743.32 215.167 1742.61 214.39 1742.55 214.326 1742.49 214.255 1742.44 214.18L1740.96 212.011C1740.08 210.763 1738.71 210.848 1737.9 212.201 1737.71 212.528 1737.55 212.913 1737.46 213.333L1735.6 221.322C1735.26 222.729 1734.25 223.459 1733.33 222.962 1730.07 221.128 1727.26 218.504 1724.93 215.092L1721.7 207.846 1722.92 206.873 1723.39 206.269C1723.49 206.149 1723.5 206.004 1723.43 205.833L1722.76 203.993C1722.69 203.798 1722.57 203.637 1722.41 203.508 1721.5 202.763 1720.59 202.053 1719.66 201.376 1719.16 201.01 1718.84 200.692 1718.69 200.42 1718.42 199.917 1718.52 199.503 1718.99 199.178 1719.2 199.025 1719.22 198.685 1719.02 198.419 1718.87 198.209 1718.62 198.101 1718.42 198.152L1715.98 198.758C1715.71 198.823 1715.38 198.621 1715.25 198.306 1715.21 198.193 1715.19 198.076 1715.21 197.969L1715.4 196.898C1715.42 196.746 1715.32 196.572 1715.17 196.509 1715.1 196.481 1715.03 196.479 1714.97 196.505 1713.47 197.194 1711.97 196.831 1710.48 195.416 1710.28 195.228 1710.21 195.017 1710.25 194.783L1710.38 194.179C1710.41 194.045 1710.32 193.887 1710.19 193.825 1710.13 193.798 1710.07 193.793 1710.02 193.809L1708.12 193.613 1705.8 189.314C1705.48 188.189 1704.61 187.694 1703.87 188.208 1703.69 188.332 1703.53 188.511 1703.39 188.732L1702.67 189.957 1701.67 189.216C1701.53 189.101 1701.48 188.907 1701.56 188.777L1702.6 187.013C1702.68 186.864 1702.61 186.642 1702.45 186.519 1702.37 186.459 1702.28 186.43 1702.19 186.44L1700.92 186.597C1700.78 186.617 1700.69 186.55 1700.64 186.393L1700.46 185.823C1700.4 185.606 1700.19 185.448 1700 185.469 1699.99 185.47 1699.98 185.471 1699.97 185.473L1698.13 185.846C1697.75 185.922 1697.31 185.784 1696.95 185.476L1691.68 180.935C1691.49 180.769 1691.43 180.587 1691.5 180.389L1691.99 179.065C1692.04 178.935 1691.96 178.763 1691.82 178.68 1691.76 178.642 1691.69 178.628 1691.63 178.64L1689.63 179.025C1689.5 179.049 1689.36 179.021 1689.24 178.946L1684.59 176.136C1684.38 176.007 1684.31 175.845 1684.4 175.65L1685.17 173.84C1685.24 173.669 1685.15 173.435 1684.96 173.319 1684.88 173.265 1684.78 173.243 1684.7 173.26L1682.24 173.771C1682.04 173.814 1681.91 173.72 1681.85 173.489 1681.69 172.913 1681.68 172.365 1681.8 171.845 1681.83 171.694 1681.81 171.537 1681.74 171.372L1679.33 165.812C1679.26 165.645 1679.26 165.495 1679.33 165.359L1680.63 162.601C1680.7 162.452 1680.62 162.243 1680.46 162.137 1680.39 162.087 1680.3 162.066 1680.23 162.077L1677.75 162.477C1677.55 162.506 1677.4 162.417 1677.3 162.209L1676.98 161.581C1676.91 161.421 1676.79 161.294 1676.64 161.201 1675.65 160.601 1675.44 159.873 1676.02 159.016 1676.12 158.873 1676.07 158.647 1675.91 158.51 1675.82 158.435 1675.71 158.4 1675.61 158.415L1674.56 158.569C1674.36 158.6 1674.13 158.51 1673.95 158.331L1671.02 155.339C1670.88 155.189 1670.83 155.029 1670.89 154.861L1671.1 154.183C1671.14 154.046 1671.06 153.873 1670.91 153.796 1670.86 153.77 1670.81 153.758 1670.77 153.76L1669.52 153.826C1669.1 153.847 1668.68 153.498 1668.56 153.047 1668.53 152.929 1668.52 152.812 1668.54 152.702L1668.63 152.16C1668.65 152.035 1668.57 151.895 1668.44 151.846 1668.39 151.829 1668.35 151.825 1668.3 151.837 1666.62 152.354 1664.21 149.888 1662.99 148.557 1662.88 148.429 1662.85 148.256 1662.91 148.132L1664.26 145.431C1664.34 145.256 1664.26 145.009 1664.07 144.88 1663.98 144.814 1663.87 144.788 1663.77 144.808L1660.98 145.451C1660.8 145.493 1660.58 145.378 1660.48 145.18L1659.75 143.856C1659.68 143.724 1659.67 143.577 1659.72 143.459L1660.79 140.827C1660.85 140.69 1660.77 140.506 1660.62 140.416 1660.56 140.375 1660.48 140.359 1660.42 140.373L1659.14 140.631C1658.65 140.728 1658.08 140.36 1657.88 139.81 1657.87 139.782 1657.86 139.752 1657.85 139.723 1656.71 135.822 1655.27 131.938 1653.52 128.072 1651.99 127.098 1650.35 126.337 1648.58 125.79 1648.23 125.681 1647.97 125.303 1647.99 124.944 1648 124.919 1648 124.894 1648 124.87L1648.12 124.272C1648.16 124.107 1648.05 123.914 1647.88 123.84 1647.8 123.804 1647.71 123.802 1647.64 123.835 1645.54 124.812 1643.26 123.836 1640.81 120.907 1638.71 118.799 1636.53 116.42 1634.27 113.772 1633.37 112.725 1633.12 111.848 1634.03 111.132 1634.19 110.996 1634.19 110.719 1634.02 110.511 1633.91 110.379 1633.76 110.303 1633.61 110.308L1631.79 110.418C1631.57 110.431 1631.33 110.242 1631.27 109.995 1631.23 109.854 1631.25 109.718 1631.33 109.627 1632.12 108.721 1632.57 107.605 1632.69 106.278 1632.71 106.066 1632.55 105.836 1632.34 105.766 1632.28 105.745 1632.21 105.74 1632.16 105.75L1628.89 106.334C1628.58 106.388 1628.23 106.185 1628.05 105.85 1626.71 103.361 1625.37 100.929 1624.02 98.5535 1623.7 97.9869 1623.68 97.4796 1623.95 97.031 1624.53 96.1037 1624.88 95.0547 1625 93.8837 1625.03 93.6037 1624.92 93.4883 1624.66 93.5373L1621.7 94.0909C1621.39 94.1501 1621.04 94.01 1620.78 93.7289L1616.88 89.358C1616.74 89.2119 1616.69 89.017 1616.73 88.8561L1617.2 87.0205C1617.26 86.7812 1617.11 86.4904 1616.87 86.3706 1616.78 86.328 1616.69 86.3114 1616.61 86.323L1614.27 86.6289C1614.07 86.6546 1613.85 86.5788 1613.67 86.4225L1605.97 79.91C1605.8 79.7617 1605.77 79.6116 1605.87 79.4593 1606.51 78.4691 1606.94 77.3408 1607.15 76.0742 1607.2 75.7715 1607.09 75.6423 1606.8 75.687L1605.02 75.9645C1604.83 75.9945 1604.61 75.8444 1604.54 75.6289 1604.51 75.5409 1604.51 75.4514 1604.53 75.3749L1604.93 74.1606C1604.98 74.0192 1604.9 73.8373 1604.75 73.7547 1604.69 73.7211 1604.62 73.7078 1604.56 73.7164 1603.36 73.872 1602.19 74.0874 1601.06 74.3627 1600.23 74.5633 1599.56 74.5038 1599.09 73.5086 1599.01 73.3394 1598.99 73.1791 1599.05 73.028L1600.43 69.3397C1600.49 69.1882 1600.41 68.9854 1600.24 68.8865 1600.17 68.8436 1600.1 68.8259 1600.02 68.836L1596.03 69.4444C1595.81 69.4808 1595.55 69.3502 1595.39 69.12L1590.45 61.7757C1590.36 61.6371 1590.34 61.5025 1590.38 61.3712L1591.25 58.8489C1591.31 58.6775 1591.21 58.4538 1591.03 58.3491 1590.95 58.3036 1590.87 58.2863 1590.79 58.3004L1588.65 58.6598C1588.5 58.6861 1588.32 58.5681 1588.26 58.396 1588.24 58.3466 1588.24 58.2957 1588.24 58.2481 1588.31 57.5737 1588.1 57.2806 1587.6 57.369 1586.05 57.6458 1584.53 57.9515 1583.03 58.2863 1582.91 58.3119 1582.78 58.2777 1582.67 58.1932L1578.61 55.1116C1578.38 54.9362 1578.31 54.7334 1578.4 54.5029L1579.75 50.9572C1579.81 50.7941 1579.72 50.5769 1579.55 50.4722 1579.47 50.4224 1579.38 50.4054 1579.3 50.4242L1577.21 50.8922C1577.05 50.9294 1576.85 50.8756 1576.69 50.7464L1575.27 49.586C1575.08 49.4304 1575.02 49.2562 1575.09 49.0631L1575.85 46.9024C1575.91 46.7436 1575.82 46.5339 1575.65 46.4343 1575.59 46.4001 1575.53 46.382 1575.47 46.3824 1573.86 46.4206 1572.38 46.7519 1571.01 47.3765 1570.83 47.4577 1570.65 47.431 1570.45 47.2964L1568.18 45.7145C1567.94 45.5456 1567.82 45.2327 1567.91 44.9953L1568.52 43.3087C1568.57 43.1535 1568.49 42.9529 1568.33 42.8605 1568.26 42.8208 1568.19 42.806 1568.12 42.8183L1565.77 43.2477C1565.66 43.2712 1565.53 43.1864 1565.48 43.0579 1565.46 43.0016 1565.45 42.9432 1565.47 42.8941L1566.5 39.8179C1566.62 39.4614 1566.5 39.3221 1566.15 39.4007L1561.59 40.3862 1561.35 40.1556C1560.84 39.6245 1559.89 39.2701 1558.8 39.2099L1558.56 39.317 1558.24 39.1608 1557.38 39.8417 1556.56 40.208 1556.26 39.9741 1555.58 39.6266C1555.45 39.557 1555.32 39.5617 1555.18 39.6403L1553.75 40.4609C1553.6 40.5471 1553.49 40.6691 1553.43 40.8268 1553.04 41.721 1552.68 42.6184 1552.35 43.5183L1552.02 44.1094 1551.56 44.4746 1550.6 44.3829C1550.4 44.2119 1550.1 44.2393 1549.92 44.4443 1549.78 44.6059 1549.76 44.8362 1549.86 45.0137L1550.19 45.5586 1547.13 47.9921C1546.04 48.8239 1545.16 49.7433 1544.28 50.7511 1544.24 50.8002 1544.25 50.8211 1544.32 50.8139L1548.81 50.2474C1548.9 50.2362 1549.01 50.3105 1549.04 50.4137 1549.05 50.4379 1549.05 50.4625 1549.05 50.4859 1548.96 52.0354 1548.5 53.3655 1547.69 54.4758 1547.6 54.5898 1547.64 54.7778 1547.77 54.8955 1547.83 54.9546 1547.92 54.9871 1547.99 54.9849L1548.97 54.959 1549.02 55.204C1548.49 57.1771 1547.79 59.0863 1546.92 60.9317 1546.86 61.0681 1546.71 61.1345 1546.57 61.0829L1544.69 60.3763C1544.54 60.3204 1544.36 60.4059 1544.3 60.5665 1544.27 60.6444 1544.27 60.7296 1544.3 60.8036L1544.82 61.9092C1544.88 62.0294 1544.85 62.1203 1544.73 62.1827L1544.27 62.4079C1544.1 62.4923 1544.02 62.6973 1544.1 62.8658 1544.1 62.8741 1544.11 62.8824 1544.11 62.8907L1544.99 64.4709C1545.17 64.8036 1545.18 65.2109 1545.01 65.5657L1542.55 70.7842C1542.46 70.9729 1542.32 71.0469 1542.12 71.0065L1540.8 70.7362C1540.67 70.7074 1540.54 70.7929 1540.51 70.9278 1540.49 70.9884 1540.5 71.052 1540.53 71.1057L1541.47 72.8288C1541.53 72.9367 1541.54 73.0648 1541.52 73.1882L1540.41 77.6464C1540.36 77.8474 1540.23 77.9225 1540.03 77.8719L1538.2 77.409C1538.02 77.3664 1537.84 77.4754 1537.79 77.6522 1537.77 77.7348 1537.78 77.8214 1537.82 77.8947L1539.01 80.0132C1539.11 80.186 1539.06 80.3127 1538.87 80.3939 1538.41 80.5992 1537.93 80.6797 1537.43 80.6353 1537.29 80.6227 1537.15 80.6588 1537.03 80.7439L1532.81 83.5459C1532.68 83.6289 1532.55 83.6498 1532.41 83.6087L1529.57 82.7823C1529.42 82.7408 1529.26 82.8332 1529.21 82.9891 1529.19 83.0613 1529.2 83.1381 1529.23 83.2034L1530.32 85.3501C1530.41 85.5222 1530.37 85.6666 1530.22 85.7835L1529.76 86.1378C1529.64 86.2273 1529.56 86.3439 1529.52 86.4875 1529.28 87.4383 1528.7 87.7093 1527.76 87.3001 1527.61 87.2319 1527.42 87.3059 1527.35 87.465 1527.31 87.5531 1527.31 87.6537 1527.35 87.7378L1527.8 88.6453C1527.89 88.8254 1527.88 89.0419 1527.78 89.2191L1525.99 92.1748C1525.9 92.3231 1525.77 92.3823 1525.61 92.3523L1524.94 92.248C1524.81 92.2275 1524.68 92.3213 1524.66 92.4577 1524.65 92.5032 1524.65 92.5497 1524.67 92.5919L1525.1 93.6907C1525.24 94.0548 1525.06 94.4766 1524.69 94.6325 1524.6 94.6733 1524.49 94.6931 1524.39 94.6902L1523.88 94.674C1523.77 94.6729 1523.67 94.7671 1523.66 94.8844 1523.66 94.9277 1523.67 94.9699 1523.69 95.0056 1524.65 96.4313 1523.18 98.8645 1522.37 100.106 1522.29 100.222 1522.14 100.274 1522.01 100.234L1519.21 99.361C1519.03 99.3076 1518.84 99.413 1518.78 99.5963 1518.75 99.6883 1518.76 99.7875 1518.81 99.8698L1520.21 102.268C1520.3 102.422 1520.26 102.625 1520.12 102.745L1519.16 103.545C1519.06 103.624 1518.94 103.655 1518.82 103.626L1516.16 102.99C1516.02 102.959 1515.88 103.047 1515.85 103.187 1515.83 103.252 1515.84 103.321 1515.87 103.378L1516.48 104.482C1516.71 104.904 1516.56 105.447 1516.13 105.696 1516.11 105.709 1516.08 105.721 1516.06 105.732 1512.94 107.208 1509.92 108.956 1507.01 110.976 1506.6 112.444 1506.42 113.993 1506.46 115.622 1506.46 115.947 1506.21 116.227 1505.88 116.247 1505.86 116.248 1505.83 116.248 1505.81 116.247L1505.24 116.212C1505.09 116.203 1504.95 116.323 1504.93 116.481 1504.93 116.558 1504.95 116.634 1505 116.691 1506.49 118.436 1506.31 120.573 1504.44 123.1 1503.19 125.212 1501.73 127.432 1500.06 129.759 1499.39 130.677 1498.69 131.008 1497.78 130.288 1497.62 130.16 1497.37 130.197 1497.24 130.372 1497.15 130.484 1497.13 130.629 1497.18 130.757L1497.82 132.355C1497.9 132.554 1497.8 132.786 1497.6 132.873 1497.48 132.923 1497.36 132.917 1497.25 132.856 1496.21 132.268 1495.09 132.002 1493.88 132.059 1493.68 132.066 1493.52 132.233 1493.53 132.432 1493.53 132.49 1493.54 132.546 1493.57 132.596L1495.06 135.419C1495.2 135.687 1495.12 136.027 1494.88 136.225 1493.07 137.711 1491.31 139.194 1489.6 140.675 1489.2 141.026 1488.75 141.106 1488.27 140.916 1487.28 140.518 1486.24 140.334 1485.17 140.365 1484.91 140.373 1484.84 140.488 1484.96 140.71L1486.34 143.271C1486.48 143.535 1486.46 143.865 1486.29 144.122L1483.57 148.113C1483.48 148.248 1483.33 148.322 1483.17 148.304L1481.4 148.104C1481.17 148.08 1480.96 148.247 1480.92 148.477 1480.91 148.559 1480.92 148.642 1480.96 148.716L1481.93 150.751C1482.01 150.924 1482.01 151.129 1481.92 151.31L1478.44 158.912C1478.36 159.082 1478.23 159.132 1478.07 159.062 1477 158.613 1475.87 158.369 1474.68 158.33 1474.4 158.322 1474.32 158.442 1474.44 158.691L1475.22 160.233C1475.3 160.401 1475.23 160.61 1475.06 160.701 1475 160.738 1474.92 160.751 1474.84 160.738L1473.64 160.53C1473.5 160.506 1473.37 160.601 1473.34 160.742 1473.33 160.799 1473.33 160.858 1473.36 160.909 1473.86 161.957 1474.4 162.965 1474.98 163.934 1475.4 164.645 1475.55 165.247 1474.81 165.787 1474.68 165.88 1474.54 165.911 1474.39 165.879L1470.71 165.098C1470.55 165.063 1470.4 165.162 1470.36 165.32 1470.34 165.388 1470.35 165.459 1470.38 165.52L1472.11 168.983C1472.21 169.181 1472.17 169.426 1472.01 169.592L1466.97 174.852C1466.87 174.951 1466.76 174.988 1466.63 174.963L1464.13 174.501C1463.96 174.467 1463.79 174.581 1463.75 174.754 1463.74 174.828 1463.75 174.906 1463.78 174.972L1464.74 176.828C1464.81 176.961 1464.76 177.129 1464.62 177.204 1464.58 177.225 1464.54 177.237 1464.5 177.239 1463.88 177.259 1463.68 177.484 1463.91 177.913 1464.61 179.249 1465.34 180.561 1466.08 181.849 1466.14 181.951 1466.15 182.074 1466.11 182.185L1464.58 186.151C1464.5 186.374 1464.34 186.461 1464.11 186.413L1460.56 185.643C1460.39 185.608 1460.23 185.712 1460.18 185.876 1460.16 185.954 1460.18 186.035 1460.22 186.102L1461.25 187.897C1461.34 188.041 1461.35 188.219 1461.28 188.377L1460.67 189.777C1460.59 189.965 1460.46 190.04 1460.27 190.004L1458.12 189.584C1457.96 189.551 1457.8 189.657 1457.76 189.821 1457.75 189.878 1457.75 189.937 1457.77 189.99 1458.28 191.406 1459.02 192.681 1459.98 193.816 1460.11 193.965 1460.14 194.134 1460.08 194.324L1459.35 196.526C1459.27 196.762 1459.03 196.906 1458.79 196.856L1457.11 196.514C1456.96 196.487 1456.81 196.588 1456.78 196.741 1456.76 196.806 1456.77 196.874 1456.8 196.932L1457.61 198.447 1455.24 198.835 1454.62 198.724 1454.45 198.965 1448.54 199.934 1439.32 199.91 1439.39 199.715C1439.69 199.518 1439.76 199.112 1439.56 198.807 1439.4 198.567 1439.11 198.455 1438.84 198.529L1435.69 199.414C1435.33 199.51 1434.96 199.29 1434.85 198.924 1434.81 198.792 1434.81 198.653 1434.85 198.524L1435.26 197.234C1435.32 197.051 1435.22 196.851 1435.04 196.786 1434.95 196.757 1434.86 196.759 1434.78 196.794 1432.79 197.716 1430.98 197.382 1429.33 195.793 1429.11 195.582 1429.05 195.336 1429.15 195.054L1429.41 194.324C1429.47 194.162 1429.39 193.979 1429.23 193.915 1429.16 193.887 1429.08 193.885 1429.01 193.908 1427.86 194.276 1427.09 194.449 1425.95 193.767 1423.59 192.364 1421.37 190.77 1419.29 188.984 1419.13 188.856 1419.1 188.628 1419.22 188.468L1420.81 186.295C1420.94 186.111 1420.89 185.851 1420.71 185.715 1420.62 185.648 1420.51 185.62 1420.4 185.637L1418.78 185.909C1418.6 185.943 1418.5 185.868 1418.46 185.685L1418.33 185.016C1418.29 184.762 1418.05 184.587 1417.8 184.625 1417.79 184.627 1417.78 184.63 1417.77 184.633L1415.4 185.199C1414.91 185.315 1414.38 185.18 1413.98 184.836L1408.1 179.77C1407.89 179.584 1407.85 179.371 1407.97 179.131L1408.8 177.519C1408.88 177.361 1408.82 177.16 1408.66 177.071 1408.58 177.03 1408.5 177.018 1408.42 177.036L1405.85 177.628C1405.69 177.666 1405.51 177.641 1405.36 177.56L1399.99 174.517C1399.75 174.377 1399.7 174.188 1399.83 173.95L1401.09 171.741C1401.21 171.531 1401.14 171.258 1400.92 171.132 1400.83 171.073 1400.71 171.054 1400.6 171.079L1397.43 171.853C1397.17 171.917 1397.02 171.813 1396.98 171.542 1396.89 170.865 1396.96 170.213 1397.19 169.584 1397.26 169.402 1397.26 169.216 1397.2 169.024L1395.09 162.553C1395.03 162.359 1395.05 162.178 1395.15 162.013L1397.24 158.636C1397.35 158.453 1397.29 158.21 1397.11 158.093 1397.02 158.04 1396.92 158.02 1396.82 158.039L1393.65 158.68C1393.4 158.728 1393.22 158.631 1393.13 158.39L1392.83 157.662C1392.76 157.476 1392.64 157.333 1392.46 157.231 1391.32 156.582 1391.18 155.727 1392.05 154.666 1392.19 154.489 1392.16 154.223 1391.98 154.071 1391.88 153.987 1391.75 153.952 1391.63 153.977L1390.29 154.23C1390.02 154.28 1389.75 154.189 1389.56 153.987L1386.37 150.613C1386.21 150.443 1386.18 150.256 1386.28 150.052L1386.65 149.23C1386.73 149.063 1386.65 148.861 1386.49 148.78 1386.43 148.753 1386.37 148.741 1386.31 148.747L1384.73 148.908C1384.21 148.96 1383.73 148.573 1383.66 148.042 1383.64 147.904 1383.65 147.764 1383.69 147.633L1383.9 146.98C1383.94 146.83 1383.85 146.668 1383.7 146.619 1383.65 146.601 1383.59 146.6 1383.53 146.617 1381.34 147.345 1378.72 144.563 1377.41 143.057 1377.29 142.911 1377.27 142.707 1377.37 142.556L1379.51 139.244C1379.64 139.03 1379.58 138.742 1379.36 138.599 1379.25 138.527 1379.12 138.503 1379 138.533L1375.38 139.486C1375.15 139.548 1374.9 139.425 1374.8 139.197L1374.11 137.666C1374.04 137.513 1374.05 137.338 1374.13 137.194L1375.91 133.983C1376 133.816 1375.94 133.602 1375.77 133.505 1375.69 133.459 1375.6 133.446 1375.51 133.466L1373.86 133.86C1373.23 134.008 1372.58 133.607 1372.42 132.964 1372.41 132.93 1372.4 132.897 1372.39 132.863 1371.61 128.285 1370.43 123.748 1368.87 119.253 1367.11 118.193 1365.17 117.395 1363.05 116.859 1362.62 116.753 1362.35 116.319 1362.45 115.89 1362.45 115.86 1362.46 115.83 1362.47 115.801L1362.72 115.079C1362.79 114.88 1362.68 114.657 1362.48 114.58 1362.39 114.543 1362.28 114.546 1362.19 114.589 1359.39 115.895 1356.69 114.882 1354.09 111.552 1351.8 109.176 1349.46 106.484 1347.05 103.475 1346.1 102.287 1345.92 101.257 1347.18 100.343 1347.41 100.17 1347.45 99.8391 1347.27 99.6031 1347.16 99.453 1346.97 99.3715 1346.79 99.3884L1344.49 99.6392C1344.21 99.671 1343.94 99.461 1343.9 99.1705 1343.88 99.0049 1343.93 98.8403 1344.05 98.7263 1345.18 97.5932 1345.93 96.2321 1346.3 94.643 1346.36 94.3878 1346.2 94.1241 1345.94 94.0544 1345.86 94.0342 1345.79 94.0317 1345.71 94.0476L1341.52 94.9612C1341.12 95.046 1340.71 94.827 1340.54 94.4405 1339.27 91.5603 1337.98 88.7482 1336.68 86.005 1336.37 85.3505 1336.43 84.7464 1336.85 84.1932 1337.72 83.049 1338.33 81.7745 1338.68 80.3697 1338.76 80.0338 1338.64 79.9035 1338.31 79.9789L1334.49 80.8363C1334.1 80.9272 1333.68 80.784 1333.41 80.4653L1329.22 75.5117C1329.08 75.346 1329.04 75.1176 1329.12 74.9227L1330.01 72.7017C1330.13 72.4123 1329.99 72.0753 1329.7 71.9487 1329.6 71.9036 1329.49 71.8898 1329.38 71.9093L1326.4 72.4297C1326.14 72.473 1325.88 72.3976 1325.67 72.2236L1317.08 64.9663C1316.89 64.801 1316.87 64.6242 1317.02 64.4362 1317.99 63.2122 1318.71 61.8381 1319.19 60.3128 1319.31 59.9484 1319.18 59.8022 1318.81 59.8751L1316.53 60.3237C1316.29 60.3724 1316.04 60.2078 1315.98 59.9556 1315.96 59.8527 1315.97 59.7463 1316.02 59.6532L1316.72 58.1784C1316.8 58.0063 1316.73 57.7952 1316.55 57.7061 1316.48 57.6704 1316.4 57.6588 1316.33 57.6729 1314.79 57.9385 1313.29 58.2726 1311.83 58.6764 1310.75 58.9705 1309.92 58.9441 1309.49 57.7887 1309.41 57.5924 1309.42 57.4022 1309.52 57.2182L1311.86 52.7268C1311.96 52.5424 1311.89 52.306 1311.7 52.1989 1311.62 52.1527 1311.52 52.1364 1311.43 52.153L1306.32 53.1439C1306.03 53.2024 1305.73 53.0638 1305.57 52.7997L1300.58 44.3678C1300.48 44.209 1300.47 44.0495 1300.55 43.89L1302.05 40.8239C1302.16 40.6157 1302.07 40.3555 1301.86 40.2426 1301.77 40.1935 1301.67 40.1787 1301.57 40.2004L1298.82 40.7716C1298.62 40.8131 1298.42 40.6839 1298.38 40.4829 1298.36 40.4248 1298.36 40.3646 1298.38 40.3075 1298.57 39.4985 1298.35 39.1633 1297.71 39.3015 1295.73 39.7342 1293.77 40.2 1291.83 40.6991 1291.68 40.7373 1291.52 40.7056 1291.39 40.6121L1286.8 37.2061C1286.54 37.0123 1286.49 36.7749 1286.63 36.4941L1288.91 32.1755C1289.02 31.9767 1288.94 31.7234 1288.74 31.6101 1288.65 31.5563 1288.54 31.5415 1288.44 31.5693L1285.74 32.2661C1285.52 32.322 1285.29 32.2704 1285.11 32.1268L1283.51 30.8371C1283.3 30.6647 1283.25 30.4608 1283.37 30.2259L1284.69 27.5978C1284.79 27.4044 1284.71 27.1605 1284.51 27.053 1284.44 27.0162 1284.36 26.9988 1284.28 27.0035 1282.27 27.1554 1280.35 27.6491 1278.53 28.4848 1278.29 28.5934 1278.06 28.5739 1277.84 28.4267L1276.51 27.5372 1275.07 26.0087 1275.02 25.851 1276.07 23.7985C1276.16 23.6101 1276.09 23.3763 1275.9 23.2767 1275.82 23.2341 1275.73 23.2211 1275.65 23.2406L1273 23.8263 1272.48 23.2724 1272.59 22.9166 1274.11 19.7689C1274.32 19.3356 1274.19 19.1779 1273.73 19.2951L1272.02 19.7249 1256.55 0.84077 1255.76 0.150473C1255.6 0.0126296 1255.43-0.030311 1255.25 0.0205682L1253.26 0.535495C1253.06 0.589622 1252.89 0.70401 1252.78 0.879742 1252.1 1.87062 1251.47 2.87774 1250.88 3.90074 1250.56 4.45428 1250.26 4.79961 1249.98 4.93745 1249.46 5.1868 1248.96 4.9923 1248.49 4.35432 1248.27 4.06384 1247.87 3.9859 1247.6 4.1804 1247.39 4.33376 1247.32 4.61738 1247.42 4.88224L1248.62 7.9884C1248.75 8.34239 1248.59 8.7119 1248.25 8.81366 1248.13 8.85046 1248 8.8483 1247.87 8.80788L1246.59 8.3893C1246.42 8.33048 1246.24 8.42755 1246.19 8.60617 1246.18 8.68772 1246.19 8.77649 1246.23 8.85443 1247.33 10.82 1247.22 12.6025 1245.9 14.2022 1245.72 14.4147 1245.49 14.4706 1245.21 14.3707L1244.49 14.1069C1244.33 14.0477 1244.16 14.1286 1244.12 14.2866 1244.1 14.3541 1244.11 14.4281 1244.14 14.4959 1244.62 15.6297 1244.87 16.3918 1244.35 17.5053 1243.29 19.8126 1242.02 21.978 1240.56 24.0013 1240.45 24.1518 1240.24 24.1785 1240.07 24.0623L1237.83 22.476C1237.64 22.3472 1237.4 22.3905 1237.29 22.572 1237.23 22.66 1237.22 22.769 1237.25 22.8751L1237.69 24.4686C1237.74 24.6429 1237.68 24.7468 1237.51 24.7804L1236.89 24.8991C1236.66 24.9427 1236.52 25.1744 1236.58 25.4162 1236.58 25.4281 1236.59 25.4403 1236.59 25.4523L1237.18 27.1529 1214.99 40.8589C1201.72 48.6005 1188.94 56.49 1179.51 65.4794 1162.33 81.8517 1144.52 96.0052 1136.21 114.826L1132.54 122.609 1129.51 121.029C1129.15 120.913 1129.02 121.037 1129.14 121.4L1129.82 123.641C1129.89 123.885 1129.77 124.125 1129.53 124.179 1129.44 124.201 1129.33 124.188 1129.24 124.143L1127.76 123.439C1127.59 123.357 1127.39 123.427 1127.33 123.596 1127.3 123.664 1127.3 123.741 1127.32 123.815 1127.75 125.328 1128.24 126.806 1128.79 128.249 1129.19 129.307 1129.26 130.126 1128.21 130.538 1128.03 130.61 1127.85 130.598 1127.66 130.502L1123.12 128.155C1122.94 128.055 1122.72 128.124 1122.64 128.31 1122.61 128.39 1122.6 128.483 1122.63 128.572L1124.15 133.601C1124.24 133.89 1124.14 134.187 1123.91 134.339L1116.45 139.158C1116.31 139.248 1116.16 139.254 1116 139.174L1112.91 137.67C1112.7 137.565 1112.47 137.646 1112.38 137.851 1112.35 137.94 1112.34 138.042 1112.38 138.139L1113.23 140.846C1113.29 141.04 1113.19 141.235 1113.01 141.28 1112.95 141.293 1112.89 141.292 1112.84 141.278 1112.05 141.076 1111.75 141.289 1111.96 141.917 1112.59 143.872 1113.26 145.803 1113.95 147.712 1114.01 147.863 1113.99 148.022 1113.92 148.148L1111.2 152.619C1111.04 152.87 1110.82 152.922 1110.54 152.776L1106.18 150.494C1105.97 150.39 1105.74 150.46 1105.66 150.653 1105.62 150.744 1105.61 150.851 1105.65 150.951L1106.62 153.611C1106.7 153.824 1106.68 154.053 1106.56 154.229L1105.51 155.784C1105.37 155.992 1105.19 156.037 1104.95 155.921L1102.3 154.598C1102.1 154.498 1101.88 154.575 1101.8 154.769 1101.77 154.836 1101.77 154.911 1101.78 154.986 1102.15 156.971 1102.84 158.861 1103.84 160.654 1103.97 160.889 1103.98 161.115 1103.86 161.334L1102.51 163.861C1102.36 164.132 1102.02 164.225 1101.73 164.074L1099.66 163.024C1099.47 162.932 1099.26 163.005 1099.18 163.186 1099.15 163.264 1099.15 163.353 1099.18 163.437L1100.16 166.408C1100.21 166.552 1100.14 166.701 1100 166.738 1099.94 166.755 1099.87 166.748 1099.81 166.719L1096.05 164.909C1095.62 164.701 1095.48 164.825 1095.64 165.28L1097.87 171.498 1097.07 173.158C1096.5 174.36 1095.41 174.638 1094.64 173.779 1094.54 173.661 1094.44 173.523 1094.36 173.37L1092.64 170.355C1091.98 169.18 1090.82 169.066 1090.05 170.099 1089.96 170.209 1089.89 170.33 1089.82 170.46L1086.52 176.756C1085.72 178.282 1084.27 178.526 1083.28 177.3 1083.06 177.031 1082.88 176.703 1082.74 176.333L1074.66 154.801C1074.2 153.59 1073.19 153.181 1072.4 153.889 1072.13 154.13 1071.92 154.483 1071.77 154.906L1067.13 168.661C1066.56 170.407 1065.17 171.104 1064.04 170.219 1063.78 170.016 1063.54 169.739 1063.35 169.403L1060.08 163.9C1059.35 162.639 1058.09 162.532 1057.27 163.663 1057.12 163.87 1056.99 164.11 1056.89 164.376L1052.69 175.486C1052.05 177.144 1051.11 178.096 1049.88 178.343 1043.78 179.542 1039.41 176.121 1036.78 168.079 1036.18 166.281 1035.27 165.699 1034.03 166.334 1029.61 168.626 1027.39 165.61 1027.39 157.287 1027.42 156.061 1026.79 155.039 1025.99 155.005 1025.44 154.982 1024.94 155.435 1024.68 156.176L1021.72 163.953C1021.29 165.051 1020.36 165.4 1019.64 164.732 1019.35 164.455 1019.12 164.031 1019.01 163.53L1016.53 153.108C1016.23 151.944 1015.75 151.714 1015.09 152.42 1005.65 162.119 997.385 160.091 990.304 146.336 989.925 145.568 989.213 145.421 988.715 146.005 988.519 146.234 988.378 146.555 988.31 146.918 985.526 161.043 975.145 172.577 967.789 157.287 967.147 155.912 966.494 155.912 965.83 157.287L965.073 158.927C964.569 160.025 963.582 160.285 962.869 159.508 962.81 159.444 962.754 159.373 962.701 159.298L961.223 157.129C960.344 155.881 958.974 155.965 958.163 157.319 957.966 157.646 957.815 158.031 957.717 158.451L955.861 166.44C955.522 167.847 954.512 168.577 953.592 168.079 947.061 164.411 942.386 157.587 939.567 147.606 939.021 145.678 937.793 144.432 936.439 144.432 931.489 144.502 928.029 141.169 926.058 134.432 925.738 133.307 924.875 132.811 924.131 133.326 923.951 133.45 923.788 133.629 923.652 133.85L911.105 155.224C910.401 156.411 909.205 156.494 908.434 155.411 908.327 155.26 908.231 155.091 908.149 154.906L906.018 150.092C905.504 148.899 904.458 148.572 903.683 149.363 903.304 149.75 903.042 150.356 902.958 151.045L902.478 152.738 856.559 132.269 853.712 131.757 853.275 131.087C848.301 124.745 843.23 131.118 837.903 133.202 827.323 137.337 816.736 141.436 806.143 145.501 803.208 146.623 799.289 149.322 794.882 149.584 794.284 149.622 793.758 149.845 793.305 150.253 790.698 152.624 787.667 153.953 784.212 154.241 783.573 154.29 783.063 154.574 782.683 155.094 779.514 159.348 775.756 163.029 771.408 166.136 770.889 166.505 770.516 167.037 770.351 167.64 769.158 171.885 766.872 175.459 763.494 178.364 763.007 178.794 762.683 179.325 762.52 179.958L761.014 185.732C760.794 186.595 760.271 186.872 759.447 186.563 746.75 181.902 739.754 189.842 729.412 195.627 728.956 195.879 728.413 195.904 727.947 195.696L726.955 195.241C725.687 194.645 725.22 195.03 725.551 196.396L725.834 197.528C726.041 198.384 725.752 199.02 724.969 199.435 723.222 200.382 721.523 201.378 719.872 202.423 715.921 204.927 715.226 208.711 709.426 209.665 708.853 209.767 708.39 210.037 708.037 210.475L694.517 227.629C694.285 227.934 694.173 228.314 694.206 228.695 694.489 232.216 692.774 234.069 689.06 234.255 688.462 234.293 687.915 234.458 687.418 234.75 684.969 236.188 683.102 238.187 681.817 240.75L681.124 241.215 633.2 219.256C632.705 219.033 632.158 218.847 631.572 218.705 628.013 217.837 623.865 218.701 622.305 220.633L619.021 223.149 612.478 225.252C611.615 225.525 610.507 226.3 609.157 226.222 608.974 226.212 608.82 226.269 608.695 226.391 607.981 227.103 607.095 227.443 606.039 227.41 605.844 227.402 605.698 227.48 605.6 227.644 604.783 228.979 603.763 230.097 602.539 230.994 602.393 231.101 602.298 231.269 602.27 231.469 602.063 232.876 601.493 234.013 600.561 234.879 600.427 235.008 600.347 235.177 600.321 235.387L600.075 237.307C600.04 237.593 599.889 237.668 599.623 237.531 595.525 235.453 593.667 237.905 590.694 239.491 590.563 239.56 590.396 239.548 590.244 239.459L589.921 239.266C589.507 239.014 589.377 239.128 589.531 239.608L589.662 240.006C589.758 240.307 589.693 240.513 589.467 240.626 588.964 240.884 588.477 241.16 588.007 241.454 586.883 242.161 586.812 243.43 585.057 243.536 584.884 243.55 584.752 243.624 584.659 243.761L581.138 249.118C581.077 249.213 581.057 249.339 581.082 249.471 581.303 250.687 580.844 251.256 579.705 251.178 579.521 251.168 579.359 251.204 579.217 251.285L578.453 252.222 576.382 253.346 575.439 253.309C575.22 253.299 575.024 253.347 574.853 253.453 573.661 254.178 572.317 254.532 570.823 254.515 570.627 254.512 570.451 254.58 570.324 254.709 569.428 255.569 568.326 255.789 567.018 255.369 566.775 255.289 566.549 255.381 566.452 255.597 565.83 256.994 564.771 257.676 563.275 257.642 563.119 257.635 562.991 257.722 562.94 257.87L562.199 259.989C562.124 260.208 561.974 260.323 561.75 260.334 560.196 260.421 559.167 261.221 558.662 262.735 558.566 263.02 558.386 263.05 558.121 262.824L556.859 261.756C556.695 261.616 556.49 261.61 556.381 261.742 555.552 262.704 554.504 262.936 553.235 262.438 553.013 262.349 552.8 262.32 552.595 262.354 548.606 263.02 544.995 264.428 541.76 266.578 540.455 267.446 540.051 268.756 539.252 270.14 538.294 271.811 536.931 272.278 535.332 273.03L531.972 277.463 522.431 282.644 520.102 281.72C519.921 281.651 519.791 281.691 519.712 281.842 518.776 283.62 517.548 285.038 516.031 286.099L516.005 286.134 513.42 287.538C512.424 288.09 511.134 288.454 509.734 288.58 506.081 288.907 502.633 287.55 502.036 285.549 494.725 261.832 488.974 237.567 484.784 212.753 482.339 197.949 476.123 184.791 470.327 170.561 464.249 155.488 456.707 150.325 436.522 140.991 435.534 140.533 434.382 140.195 433.139 139.997 428.25 139.22 423.135 140.761 421.716 143.439 406.256 172.104 389.145 201.176 370.381 230.656 361.999 243.738 339.231 273.078 305.916 263.247 289.852 258.478 276.162 251.312 264.848 241.749 263.911 240.964 262.646 240.312 261.16 239.847 256.005 238.233 249.462 239.205 246.549 242.017L233.497 265.31 230.784 252.154C229.744 248.159 228.051 244.614 223.994 240.928 222.78 239.84 221.806 240.136 221.073 241.815L218.907 246.807C218.295 248.143 217.179 248.873 216.055 248.673 212.8 248.082 210.681 249.994 209.695 254.411 208.796 258.402 205.697 260.657 202.773 259.448 202.555 259.357 202.341 259.249 202.133 259.122 185.954 249.357 170.325 240.462 155.245 232.438 145.827 227.446 139.949 219.422 131.906 211.071 130.92 210.045 129.877 209.936 128.777 210.745 112.873 222.314 96.3047 224.663 79.0715 217.789 72.678 215.223 69.9959 210.745 70.1684 201.787 70.1893 199.495 68.8382 197.612 67.1478 197.583 65.9352 197.562 64.8272 198.516 64.3242 200.015L61.0242 210.138C59.8412 213.827 56.6733 215.496 53.9486 213.866 52.5794 213.046 51.5198 211.493 51.0218 209.578L47.7557 196.889C47.3263 195.179 45.9506 194.282 44.6817 194.888 44.0739 195.177 43.573 195.78 43.2872 196.562L40.5719 204.167C39.9526 205.846 38.9674 206.453 37.6155 205.986 23.7624 200.948 8.98109 192.364 7.6061 169.971 7.53609 168.325 6.49528 167.068 5.28269 167.164 4.59628 167.218 3.96761 167.704 3.58435 168.478L0.42224 174.683 0 174.821 0 619 3188.27 619 3421.41 619 6602 619 6602 170.28 6598.75 184.337C6593.36 196.435 6582.45 202.208 6572.06 205.986 6570.71 206.453 6569.72 205.846 6569.11 204.167L6566.39 196.562C6566.1 195.78 6565.6 195.177 6565 194.888 6563.73 194.282 6562.35 195.179 6561.92 196.889L6558.66 209.578C6558.16 211.493 6557.1 213.046 6555.73 213.866 6553 215.496 6549.84 213.827 6548.65 210.138L6545.35 200.015C6544.85 198.516 6543.74 197.562 6542.53 197.583 6540.84 197.612 6539.49 199.495 6539.51 201.787 6539.68 210.745 6537 215.223 6530.61 217.789 6513.37 224.663 6496.8 222.314 6480.9 210.745 6479.8 209.936 6478.76 210.045 6477.77 211.071 6469.73 219.422 6463.85 227.446 6454.43 232.438 6439.35 240.462 6423.72 249.357 6407.54 259.122 6407.34 259.249 6407.12 259.357 6406.9 259.448 6403.98 260.657 6400.88 258.402 6399.98 254.411 6399 249.994 6396.88 248.082 6393.62 248.673 6392.5 248.873 6391.38 248.143 6390.77 246.807L6388.6 241.815C6387.87 240.136 6386.9 239.84 6385.68 240.928 6381.63 244.614 6379.93 248.159 6378.89 252.154L6376.18 265.31 6363.13 242.017C6360.21 239.205 6353.67 238.233 6348.52 239.847 6347.03 240.312 6345.77 240.964 6344.83 241.749 6333.51 251.312 6319.83 258.478 6303.76 263.247 6270.45 273.078 6247.68 243.738 6239.3 230.656 6220.53 201.176 6203.42 172.104 6187.96 143.439 6186.54 140.761 6181.43 139.22 6176.54 139.997 6175.3 140.195 6174.14 140.533 6173.16 140.991 6152.97 150.325 6145.43 155.488 6139.35 170.561 6133.55 184.791 6127.34 197.949 6124.89 212.753 6120.7 237.567 6114.95 261.832 6107.64 285.549 6107.04 287.55 6103.6 288.907 6099.94 288.58 6098.54 288.454 6097.25 288.09 6096.26 287.538L6093.67 286.134 6093.65 286.099C6092.13 285.038 6090.9 283.62 6089.97 281.842 6089.89 281.691 6089.76 281.651 6089.57 281.72L6087.25 282.644 6077.71 277.463 6074.35 273.03C6072.75 272.278 6071.38 271.811 6070.42 270.14 6069.63 268.756 6069.22 267.446 6067.92 266.578 6064.68 264.428 6061.07 263.02 6057.08 262.354 6056.88 262.32 6056.67 262.349 6056.44 262.438 6055.17 262.936 6054.13 262.704 6053.3 261.742 6053.19 261.61 6052.98 261.616 6052.82 261.756L6051.56 262.824C6051.29 263.05 6051.11 263.02 6051.02 262.735 6050.51 261.221 6049.48 260.421 6047.93 260.334 6047.7 260.323 6047.55 260.208 6047.48 259.989L6046.74 257.87C6046.69 257.722 6046.56 257.635 6046.4 257.642 6044.91 257.676 6043.85 256.994 6043.23 255.597 6043.13 255.381 6042.9 255.289 6042.66 255.369 6041.35 255.789 6040.25 255.569 6039.35 254.709 6039.23 254.58 6039.05 254.512 6038.85 254.515 6037.36 254.532 6036.02 254.178 6034.82 253.453 6034.65 253.347 6034.46 253.299 6034.24 253.309L6033.3 253.346 6031.22 252.222 6030.46 251.285C6030.32 251.204 6030.16 251.168 6029.97 251.178 6028.83 251.256 6028.37 250.687 6028.6 249.471 6028.62 249.339 6028.6 249.213 6028.54 249.118L6025.02 243.761C6024.93 243.624 6024.79 243.55 6024.62 243.536 6022.87 243.43 6022.8 242.161 6021.67 241.454 6021.2 241.16 6020.71 240.884 6020.21 240.626 6019.98 240.513 6019.92 240.307 6020.02 240.006L6020.15 239.608C6020.3 239.128 6020.17 239.014 6019.76 239.266L6019.43 239.459C6019.28 239.548 6019.12 239.56 6018.98 239.491 6016.01 237.905 6014.15 235.453 6010.06 237.531 6009.79 237.668 6009.64 237.593 6009.6 237.307L6009.36 235.387C6009.33 235.177 6009.25 235.008 6009.12 234.879 6008.19 234.013 6007.61 232.876 6007.41 231.469 6007.38 231.269 6007.29 231.101 6007.14 230.994 6005.91 230.097 6004.89 228.979 6004.08 227.644 6003.98 227.48 6003.83 227.402 6003.64 227.41 6002.58 227.443 6001.7 227.103 6000.98 226.391 6000.86 226.269 6000.7 226.212 6000.52 226.222 5999.17 226.3 5998.06 225.525 5997.2 225.252L5990.66 223.149 5987.37 220.633C5985.81 218.701 5981.66 217.837 5978.11 218.705 5977.52 218.847 5976.97 219.033 5976.48 219.256L5928.55 241.215 5927.86 240.75C5926.58 238.187 5924.71 236.188 5922.26 234.75 5921.76 234.458 5921.22 234.293 5920.62 234.255 5916.9 234.069 5915.19 232.216 5915.47 228.695 5915.5 228.314 5915.39 227.934 5915.16 227.629L5901.64 210.475C5901.29 210.037 5900.82 209.767 5900.25 209.665 5894.45 208.711 5893.76 204.927 5889.81 202.423 5888.15 201.378 5886.46 200.382 5884.71 199.435 5883.92 199.02 5883.64 198.384 5883.84 197.528L5884.13 196.396C5884.46 195.03 5883.99 194.645 5882.72 195.241L5881.73 195.696C5881.26 195.904 5880.72 195.879 5880.27 195.627 5869.92 189.842 5862.93 181.902 5850.23 186.563 5849.41 186.872 5848.88 186.595 5848.66 185.732L5847.16 179.958C5846.99 179.325 5846.67 178.794 5846.18 178.364 5842.81 175.459 5840.52 171.885 5839.33 167.64 5839.16 167.037 5838.79 166.505 5838.27 166.136 5833.92 163.029 5830.16 159.348 5826.99 155.094 5826.61 154.574 5826.1 154.29 5825.47 154.241 5822.01 153.953 5818.98 152.624 5816.37 150.253 5815.92 149.845 5815.39 149.622 5814.8 149.584 5810.39 149.322 5806.47 146.623 5803.53 145.501 5792.94 141.436 5782.35 137.337 5771.78 133.202 5766.45 131.118 5761.38 124.745 5756.4 131.087L5755.96 131.757 5753.12 132.269 5707.2 152.738 5706.72 151.045C5706.64 150.356 5706.37 149.75 5706 149.363 5705.22 148.572 5704.17 148.899 5703.66 150.092L5701.53 154.906C5701.45 155.091 5701.35 155.26 5701.24 155.411 5700.47 156.494 5699.28 156.411 5698.57 155.224L5686.03 133.85C5685.89 133.629 5685.73 133.45 5685.55 133.326 5684.8 132.811 5683.94 133.307 5683.62 134.432 5681.65 141.169 5678.19 144.502 5673.24 144.432 5671.89 144.432 5670.66 145.678 5670.11 147.606 5667.29 157.587 5662.62 164.411 5656.09 168.079 5655.17 168.577 5654.16 167.847 5653.82 166.44L5651.96 158.451C5651.86 158.031 5651.71 157.646 5651.51 157.319 5650.7 155.965 5649.33 155.881 5648.46 157.129L5646.98 159.298C5646.92 159.373 5646.87 159.444 5646.81 159.508 5646.1 160.285 5645.11 160.025 5644.61 158.927L5643.85 157.287C5643.18 155.912 5642.53 155.912 5641.89 157.287 5634.53 172.577 5624.15 161.043 5621.37 146.918 5621.3 146.555 5621.16 146.234 5620.96 146.005 5620.46 145.421 5619.75 145.568 5619.37 146.336 5612.29 160.091 5604.03 162.119 5594.59 152.42 5593.92 151.714 5593.44 151.944 5593.15 153.108L5590.67 163.53C5590.55 164.031 5590.33 164.455 5590.03 164.732 5589.32 165.4 5588.39 165.051 5587.96 163.953L5585 156.176C5584.74 155.435 5584.23 154.982 5583.69 155.005 5582.89 155.039 5582.26 156.061 5582.28 157.287 5582.28 165.61 5580.07 168.626 5575.65 166.334 5574.41 165.699 5573.49 166.281 5572.9 168.079 5570.26 176.121 5565.9 179.542 5559.8 178.343 5558.56 178.096 5557.62 177.144 5556.98 175.486L5552.79 164.376C5552.69 164.11 5552.56 163.87 5552.41 163.663 5551.59 162.532 5550.33 162.639 5549.59 163.9L5546.33 169.403C5546.13 169.739 5545.9 170.016 5545.64 170.219 5544.51 171.104 5543.12 170.407 5542.55 168.661L5537.91 154.906C5537.76 154.483 5537.54 154.13 5537.28 153.889 5536.49 153.181 5535.48 153.59 5535.02 154.801L5526.94 176.333C5526.8 176.703 5526.61 177.031 5526.4 177.3 5525.4 178.526 5523.96 178.282 5523.16 176.756L5519.86 170.46C5519.79 170.33 5519.71 170.209 5519.63 170.099 5518.86 169.066 5517.7 169.18 5517.04 170.355L5515.32 173.37C5515.24 173.523 5515.14 173.661 5515.03 173.779 5514.26 174.638 5513.18 174.36 5512.61 173.158L5511.81 171.498 5514.03 165.28C5514.2 164.825 5514.06 164.701 5513.63 164.909L5509.87 166.719C5509.81 166.748 5509.74 166.755 5509.68 166.738 5509.54 166.701 5509.47 166.552 5509.52 166.408L5510.5 163.437C5510.53 163.353 5510.52 163.264 5510.49 163.186 5510.42 163.005 5510.21 162.932 5510.02 163.024L5507.95 164.074C5507.65 164.225 5507.32 164.132 5507.17 163.861L5505.81 161.334C5505.7 161.115 5505.71 160.889 5505.84 160.654 5506.84 158.861 5507.53 156.971 5507.9 154.986 5507.91 154.911 5507.9 154.836 5507.88 154.769 5507.8 154.575 5507.57 154.498 5507.38 154.598L5504.73 155.921C5504.49 156.037 5504.3 155.992 5504.16 155.784L5503.12 154.229C5503 154.053 5502.98 153.824 5503.06 153.611L5504.03 150.951C5504.06 150.851 5504.06 150.744 5504.02 150.653 5503.93 150.46 5503.7 150.39 5503.5 150.494L5499.14 152.776C5498.85 152.922 5498.63 152.87 5498.48 152.619L5495.76 148.148C5495.68 148.022 5495.67 147.863 5495.73 147.712 5496.42 145.803 5497.08 143.872 5497.72 141.917 5497.93 141.289 5497.63 141.076 5496.84 141.278 5496.78 141.292 5496.73 141.293 5496.67 141.28 5496.49 141.235 5496.39 141.04 5496.45 140.846L5497.3 138.139C5497.33 138.042 5497.33 137.94 5497.3 137.851 5497.21 137.646 5496.97 137.565 5496.76 137.67L5493.68 139.174C5493.52 139.254 5493.37 139.248 5493.23 139.158L5485.77 134.339C5485.54 134.187 5485.44 133.89 5485.53 133.601L5487.05 128.572C5487.08 128.483 5487.07 128.39 5487.04 128.31 5486.96 128.124 5486.74 128.055 5486.55 128.155L5482.02 130.502C5481.83 130.598 5481.65 130.61 5481.47 130.538 5480.42 130.126 5480.49 129.307 5480.89 128.249 5481.44 126.806 5481.93 125.328 5482.35 123.815 5482.38 123.741 5482.38 123.664 5482.35 123.596 5482.28 123.427 5482.09 123.357 5481.92 123.439L5480.44 124.143C5480.34 124.188 5480.24 124.201 5480.15 124.179 5479.91 124.125 5479.78 123.885 5479.86 123.641L5480.54 121.4C5480.65 121.037 5480.53 120.913 5480.17 121.029L5477.14 122.609 5473.47 114.826C5465.16 96.0052 5447.35 81.8517 5430.16 65.4794 5420.74 56.49 5407.95 48.6005 5394.68 40.8589L5372.5 27.1529 5373.09 25.4523C5373.09 25.4403 5373.1 25.4281 5373.1 25.4162 5373.16 25.1744 5373.02 24.9427 5372.79 24.8991L5372.16 24.7804C5371.99 24.7468 5371.94 24.6429 5371.99 24.4686L5372.43 22.8751C5372.46 22.769 5372.44 22.66 5372.39 22.572 5372.28 22.3905 5372.04 22.3472 5371.85 22.476L5369.6 24.0623C5369.44 24.1785 5369.22 24.1518 5369.12 24.0013 5367.66 21.978 5366.39 19.8126 5365.33 17.5053 5364.81 16.3918 5365.06 15.6297 5365.54 14.4959 5365.57 14.4281 5365.57 14.3541 5365.56 14.2866 5365.51 14.1286 5365.35 14.0477 5365.19 14.1069L5364.46 14.3707C5364.19 14.4706 5363.96 14.4147 5363.78 14.2022 5362.46 12.6025 5362.34 10.82 5363.45 8.85443 5363.49 8.77649 5363.5 8.68772 5363.48 8.60617 5363.44 8.42755 5363.26 8.33048 5363.08 8.3893L5361.81 8.80788C5361.68 8.8483 5361.55 8.85046 5361.43 8.81366 5361.09 8.7119 5360.93 8.34239 5361.06 7.9884L5362.26 4.88224C5362.36 4.61738 5362.28 4.33376 5362.07 4.1804 5361.81 3.9859 5361.41 4.06384 5361.19 4.35432 5360.72 4.9923 5360.22 5.1868 5359.7 4.93745 5359.42 4.79961 5359.11 4.45428 5358.79 3.90074 5358.21 2.87774 5357.57 1.87062 5356.9 0.879742 5356.79 0.70401 5356.62 0.589622 5356.41 0.535495Z" fill="url(#fill1)" fill-rule="evenodd" transform="matrix(-1 0 0 1 6605 4224)"/></g></svg>