<svg width="6600" height="1276" xmlns="http://www.w3.org/2000/svg" xmlns:xlink="http://www.w3.org/1999/xlink" overflow="hidden"><defs><clipPath id="clip0"><rect x="0" y="5989" width="6600" height="1276"/></clipPath></defs><g clip-path="url(#clip0)" transform="matrix(1 0 0 1 0 -5989)"><path d="M4126.46 6563.63C4126.12 6563.75 4125.86 6564.03 4125.77 6564.38L4123.3 6574.34 4130.88 6572.99 4127.85 6564.29C4127.65 6563.72 4127.03 6563.43 4126.46 6563.63ZM4380.19 6487.44C4379.58 6487.06 4379.37 6487.22 4379.54 6487.91L4383.42 6502.95C4383.57 6503.53 4383.94 6503.88 4384.54 6503.98L4400.5 6506.9C4401.6 6507.1 4401.8 6506.77 4401.09 6505.9 4395.17 6498.57 4388.2 6492.42 4380.19 6487.44ZM4898.33 6408.08 4894.13 6416.74 4896.54 6416.77 4899.75 6413.25ZM4775.57 6401.2 4776.69 6418.6 4778.62 6418.44 4780.21 6409.7ZM4964.94 6400.12 4958.28 6411.82 4968.31 6408.42 4967.34 6404.7ZM4902.76 6398.96 4901.12 6402.33 4904.18 6408.38 4905.42 6407.02ZM4886.2 6384.86 4875.7 6412.43C4875.69 6412.44 4875.69 6412.44 4875.7 6412.44L4875.98 6412.45C4876.04 6412.45 4876.09 6412.43 4876.12 6412.38L4891.58 6394.71ZM4955.7 6383.8 4947.81 6392.04 4937.5 6416.03 4940.86 6415.53 4943.72 6412.46C4946.87 6409.8 4950.35 6407.57 4953.82 6406.38 4954.09 6406.28 4954.12 6406.33 4953.91 6406.53L4948.53 6414.38 4952.36 6413.8 4964.63 6399.53 4962.46 6395.42ZM4911.17 6381.62 4906.68 6390.88 4911.68 6400.15 4912.76 6398.95 4913.56 6397.56ZM4890.31 6374.06 4886.52 6384.01 4893.83 6392.13 4898.66 6386.6 4898.36 6385.69ZM4889.37 6373.92 4877.01 6384.55C4871.63 6390.22 4866.85 6396.38 4862.64 6402.92L4862.24 6403.85 4871.42 6396.34ZM4773.65 6371.52 4775.19 6395.45 4781.53 6402.48 4784.35 6386.98ZM5010.03 6365.14 5009.6 6371.03C5008.32 6375.3 5006.11 6379.15 5003.91 6383.01L4999.85 6391.71 5024.16 6377.27 5023.53 6376.41ZM4875.87 6359.64 4851.37 6407.47 4864.96 6388.69C4869.21 6384.43 4873.83 6380.54 4878.79 6377.15L4888.74 6371.79 4887.82 6370.47ZM4801.56 6354.17 4797.14 6390.33 4797.43 6392.81 4803.4 6401.14 4808.43 6412.62 4810.87 6406.9 4807.1 6381.77ZM4754.7 6354.06 4759.32 6413.86C4759.33 6414 4759.46 6414.1 4759.6 6414.09 4759.74 6414.07 4759.84 6413.95 4759.82 6413.81L4765.44 6363.79ZM4986.51 6350.98 4984.31 6360.02C4983.83 6361.22 4983.64 6362.45 4983.71 6363.72 4984.3 6372.88 4984.23 6381.99 4983.52 6391.04 4983.51 6391.2 4983.63 6391.34 4983.79 6391.36 4983.91 6391.37 4984.02 6391.3 4984.07 6391.2 4987.04 6385.38 4989.32 6379.35 4990.9 6373.09 4991.74 6369.73 4992.3 6365.46 4992.57 6360.3L4992.99 6353.66ZM4982.28 6349.24 4983.25 6355.68C4983.27 6355.81 4983.38 6355.91 4983.51 6355.89 4983.6 6355.88 4983.68 6355.82 4983.71 6355.74L4985.12 6350.41ZM5018.66 6327.24 5011.5 6346.53 5027.65 6352.19C5033.6 6355.01 5039.23 6358.47 5044.41 6362.61 5044.52 6362.7 5044.68 6362.68 5044.77 6362.56 5044.83 6362.48 5044.83 6362.36 5044.77 6362.27ZM5010.19 6315.88 5007.56 6318.24C5001.61 6321.26 4996.6 6323.17 4992 6329.01 4991.83 6329.23 4991.73 6329.47 4991.7 6329.74L4988.48 6342.92 4989.45 6342.88 4993.64 6343.48 4993.71 6342.31C4994.62 6336.06 4996.48 6330.25 5000.52 6326.86 5001.37 6326.15 5002.89 6325.13 5005.08 6323.81L5012.16 6318.53ZM4998 6299.53 4993.36 6310.5C4993.19 6310.72 4993.1 6310.96 4993.09 6311.24L4992.54 6321.65C4992.53 6321.97 4992.62 6322 4992.81 6321.75 4993.58 6320.76 4994.28 6319.73 4994.91 6318.65L5005.31 6309.33ZM5257.19 6231.82 5251.78 6253.71 5255.54 6251.77 5257.87 6247.94C5260.71 6244.6 5264.07 6241.76 5267.77 6239.69L5270.06 6239.01ZM5463.45 6190.66 5463.47 6191.83C5463.44 6192.04 5463.53 6192.11 5463.73 6192.04L5463.95 6191.82ZM5479.97 6178.83 5479.67 6180.63C5479.59 6182.69 5479.63 6183.73 5479.78 6183.74L5480.37 6181.52ZM5456 6173.09 5454.32 6189.56C5454.33 6189.67 5454.43 6189.75 5454.54 6189.75 5454.63 6189.74 5454.7 6189.68 5454.71 6189.59L5457.2 6175.91ZM6523.05 6172.63C6522.75 6172.13 6522.53 6172.16 6522.4 6172.73L6520.33 6181.6 6521.11 6180.52 6524.8 6177.22ZM6541.09 6165.84 6534.45 6178.8 6543.28 6189.19 6543.68 6188.69ZM5591.67 6144.86 5592.16 6149.94 5592.75 6150.5 5595.56 6149.61ZM5572.21 6138.04 5576.74 6150.97 5578.33 6151.23 5583.44 6153.31 5584.56 6148.9 5579.9 6143.9ZM6284.19 6113.12 6278.56 6117.72 6275.57 6121.39 6281.72 6121.89 6282.07 6121.64C6282.71 6121.19 6283.33 6120.39 6283.92 6119.25ZM6267.32 6110.71 6266.39 6113.05 6267.42 6111.76ZM6157.8 6100.49 6157.08 6106.99C6157.04 6107.16 6157.15 6107.34 6157.33 6107.38 6157.46 6107.41 6157.6 6107.35 6157.67 6107.24L6161.36 6101.11ZM6249.72 6092.28 6240.74 6108.16C6240.71 6108.26 6240.76 6108.38 6240.87 6108.42 6240.95 6108.45 6241.04 6108.42 6241.09 6108.35L6251.75 6092.5ZM6283.79 6091.11 6274.22 6099.91 6271.88 6103.5 6269.94 6108.74 6279.77 6097.28 6286.15 6092.54 6284.25 6091.19C6284.12 6090.98 6283.97 6090.95 6283.79 6091.11ZM5934.03 6089.45 5935.56 6093.68 5937.75 6093.87ZM6282 6087.95 6276.5 6096.4 6282.59 6090.45C6282.76 6090.31 6282.8 6090.14 6282.7 6089.95ZM6263.75 6087.01 6260.11 6087.14C6259.89 6087.15 6259.74 6087.26 6259.68 6087.47L6259.09 6088.21 6248.21 6113.91C6248.1 6114.09 6248.15 6114.19 6248.36 6114.21 6248.48 6114.23 6248.58 6114.19 6248.65 6114.09 6253.13 6108.4 6258.73 6102.07 6264.9 6096.44L6266.95 6094.79 6264.28 6087.23C6264.13 6087.08 6263.96 6087 6263.75 6087.01ZM6260.72 6084.36 6260.08 6085.87 6260.44 6086.01 6262.35 6085.98C6262.45 6085.98 6262.53 6085.92 6262.57 6085.84 6262.63 6085.72 6262.58 6085.58 6262.46 6085.52ZM6255.99 6081.2 6254.59 6083.68 6255.25 6083.57 6257.16 6084.48 6258.32 6082.76ZM5866.77 6079.68 5859.71 6089.16 5858.85 6090.94 5872.37 6090.93 5872.13 6089.05ZM6120.9 6071.31 6111.06 6077.34 6103.2 6094.39 6104.06 6098.35 6114.97 6088.44ZM6044.63 6069.59 6044.61 6069.73 6044.74 6069.74ZM6148.02 6062.02C6144.66 6062.13 6141.13 6062.74 6137.6 6063.7L6132.04 6065.69 6130.86 6075.78 6132.14 6092.13 6136.87 6089.38C6137.01 6089.32 6137.15 6089.3 6137.3 6089.32 6137.63 6089.36 6137.66 6089.44 6137.4 6089.58L6132.25 6093.52 6132.26 6093.68C6132.33 6094 6132.64 6094.21 6132.96 6094.14 6133.03 6094.13 6133.09 6094.1 6133.15 6094.06 6135.17 6092.79 6136.85 6091.36 6138.19 6089.77 6144.66 6082.12 6149.77 6073.67 6153.92 6064.74L6154.59 6062.88ZM6079.92 6059.05 6077.48 6063C6077.45 6063.08 6077.47 6063.13 6077.53 6063.16 6077.59 6063.18 6077.68 6063.19 6077.79 6063.2 6077.84 6063.2 6077.87 6063.19 6077.89 6063.16L6080.14 6060.47ZM5920.15 6056.27 5926.53 6068.82 5929.59 6077.26 5936.61 6080.1 5944.72 6086.35 5946.31 6077.61 5940.74 6067.25ZM6129.31 6050.68 6107.95 6060.29 6097.65 6070.43 6098.1 6071.17 6098.38 6072.44 6119.85 6058.86 6126.14 6057.3ZM6155 6047.92 6134.7 6049.41 6133.36 6055.51 6136.09 6054.83C6141.62 6054.2 6147.12 6054.3 6152.17 6055.19L6156.73 6056.91 6159.33 6049.69ZM5885.71 6046.05 5893.37 6064.74 5910.79 6088.15 5915.05 6088.72 5915.83 6076.37 5905.61 6069.55C5905.13 6069.31 5905.2 6069.21 5905.81 6069.26 5908.19 6069.46 5910.49 6069.85 5912.72 6070.43L5914.9 6071.31 5910.98 6051.39 5906.7 6049.11C5902.45 6047.78 5898.01 6046.8 5893.57 6046.24ZM5827.08 5989.02C5827.08 5989.02 5827.09 5989.02 5827.09 5989.02 5829.03 5990.28 5830.56 5991.89 5831.69 5993.83 5833.15 5996.36 5834.88 5998.15 5835.81 6000.99 5835.87 6001.17 5835.99 6001.23 5836.17 6001.18 5839.48 6000.2 5841.63 6001.42 5844.45 6002.53 5845.48 6002.93 5847.34 6003.15 5850.04 6003.18 5850.17 6003.18 5850.28 6003.29 5850.28 6003.42 5850.28 6003.46 5850.26 6003.5 5850.24 6003.54 5849.58 6004.68 5848.68 6005.7 5848.18 6006.78 5847.55 6008.1 5846.96 6009.43 5846.39 6010.77 5846.33 6010.92 5846.36 6011.05 5846.48 6011.17 5848.46 6012.91 5850.3 6014.76 5852 6016.73 5852.8 6017.65 5854.34 6018.13 5855.76 6018.32 5857.27 6018.52 5858.74 6018.98 5860.18 6019.7 5860.3 6019.75 5860.34 6019.89 5860.28 6020.01 5860.27 6020.05 5860.24 6020.08 5860.21 6020.1 5858.87 6021.06 5857.46 6021.97 5855.99 6022.82 5854.6 6023.63 5851.37 6022.9 5849.86 6023.99 5848.71 6024.83 5847.46 6025.48 5846.11 6025.95 5845.94 6026.01 5845.89 6026.12 5845.94 6026.29 5848.3 6033.64 5846.27 6039.45 5843.55 6046.25 5843.48 6046.43 5843.28 6046.52 5843.1 6046.44 5843.02 6046.41 5842.96 6046.35 5842.92 6046.27 5841.79 6043.87 5840.44 6041.58 5838.87 6039.39 5837.3 6037.2 5837 6033.24 5836.53 6030.44 5836.39 6029.61 5836.08 6028.96 5835.62 6028.47 5831.57 6024.19 5827.32 6028.97 5825.58 6032.62 5825.5 6032.79 5825.55 6032.91 5825.72 6032.98 5827.23 6033.52 5827.89 6034.63 5827.7 6036.31 5827.68 6036.53 5827.56 6036.6 5827.36 6036.52 5826.89 6036.34 5826.65 6035.87 5826.25 6035.71 5825.17 6035.27 5823.92 6036.15 5823.24 6036.95 5822.91 6037.32 5822.69 6037.84 5822.57 6038.5L5821.68 6049.61 5823.47 6045.86C5823.64 6045.62 5823.96 6045.56 5824.2 6045.73 5824.35 6045.83 5824.43 6046.02 5824.41 6046.21L5823.83 6056.87 5826.83 6051.88C5828.84 6049.17 5831.16 6046.78 5833.3 6046.15 5833.47 6046.11 5833.64 6046.13 5833.78 6046.21 5834.52 6046.65 5835.14 6047.19 5835.64 6047.85 5838.95 6052.21 5841.37 6057.22 5842.9 6062.88 5843.12 6063.7 5842.91 6063.83 5842.27 6063.28 5840.55 6061.82 5838.92 6060.09 5837.38 6058.1 5836.48 6056.94 5835.25 6054.75 5833.81 6053.24 5833.5 6052.92 5833 6052.89 5832.66 6053.19 5830.95 6054.67 5829.56 6056.14 5828.22 6058.14L5823.32 6066.35 5822.63 6079.04 5833.7 6089.65 5835.41 6092.26 5844.03 6091.41 5828.41 6071.54C5828.23 6071.34 5828.24 6071.03 5828.43 6070.85 5828.57 6070.72 5828.76 6070.68 5828.93 6070.75 5834.23 6072.8 5839.2 6075.49 5843.81 6078.7L5852.46 6086.2 5865.06 6076.7 5857.65 6063.76C5857.14 6063.13 5857.3 6062.92 5858.11 6063.13 5858.31 6063.18 5858.67 6063.48 5859.18 6064.02L5867.35 6074.97 5871.73 6071.67C5871.95 6071.57 5872.2 6071.66 5872.3 6071.88 5872.37 6072.03 5872.35 6072.21 5872.24 6072.34L5868.82 6076.93 5879.25 6090.92 5888.54 6090.92 5881.92 6045.95 5880.37 6045.91C5871.79 6046.65 5863.89 6049.38 5858.08 6054.75 5856.58 6056.14 5856.2 6056.02 5856.96 6054.4 5860.51 6046.79 5867.06 6041.43 5876.61 6038.32L5880.7 6037.7 5880.33 6035.15C5880.33 6034.9 5880.53 6034.7 5880.77 6034.7 5880.97 6034.7 5881.15 6034.83 5881.21 6035.03L5882.21 6037.48 5893.52 6035.77 5908.25 6037.53 5907.37 6033.04C5907.29 6032.81 5907.41 6032.57 5907.64 6032.49 5907.84 6032.42 5908.05 6032.5 5908.16 6032.68L5910.81 6037.89 5926.41 6043.04C5931.32 6045.16 5935.81 6047.57 5939.62 6050.04L5951.95 6060.77 5954.4 6056.43 5925.06 6010.7C5924.59 6010.11 5924.75 6010.03 5925.55 6010.44 5927.01 6011.21 5928.64 6012.25 5930.42 6013.55 5941.44 6021.6 5950.87 6030.58 5958.89 6040.05L5961.49 6043.88 5967.87 6032.58C5968.02 6032.4 5968.29 6032.37 5968.47 6032.52 5968.59 6032.61 5968.65 6032.77 5968.62 6032.92L5966.39 6051.06 5978.95 6069.52C5978.98 6069.59 5979.1 6069.63 5979.21 6069.61 5979.3 6069.59 5979.37 6069.54 5979.37 6069.47 5980.31 6050.72 5978.69 6032.06 5974.51 6013.49 5974.5 6013.39 5974.61 6013.3 5974.77 6013.3 5974.88 6013.29 5974.99 6013.33 5975.04 6013.4L5995.14 6063.48 5997.36 6062.03 6000.71 6037.98C6003.41 6028.34 6007.72 6018.76 6014.28 6009.89 6014.41 6009.73 6014.72 6009.66 6014.97 6009.74 6015.15 6009.8 6015.27 6009.92 6015.26 6010.05 6014.08 6024.34 6016.42 6038.81 6021.57 6052.81 6021.62 6052.93 6021.82 6053.01 6022.01 6052.98 6022.14 6052.96 6022.24 6052.9 6022.27 6052.82 6029.34 6034.9 6041.43 6016.97 6062.18 6003.74 6062.26 6003.69 6062.4 6003.69 6062.48 6003.75 6062.54 6003.79 6062.55 6003.86 6062.5 6003.91 6045.21 6021.24 6035.46 6042.72 6030.34 6062.9 6030.21 6063.4 6030.33 6063.43 6030.7 6062.98 6043.39 6047.61 6054.07 6031.7 6062.75 6015.24 6062.76 6015.19 6062.84 6015.16 6062.92 6015.17 6063 6015.18 6063.05 6015.23 6063.04 6015.28 6062.88 6024.34 6060.9 6033.71 6057.65 6042.91L6046.45 6065.82 6048.07 6066.59 6076.72 6039.14 6076.44 6037.42C6076.4 6037.21 6076.53 6037.01 6076.73 6036.97 6076.86 6036.94 6077 6036.99 6077.09 6037.09L6077.74 6038.16 6080.63 6035.4C6087.09 6030.61 6093.88 6026.66 6101.59 6023.06 6101.7 6023.01 6101.86 6023.03 6101.94 6023.1 6102 6023.15 6102 6023.21 6101.96 6023.27L6085.27 6050.36 6086.68 6052.65 6095.01 6042.71C6101.88 6036.3 6109.97 6030.47 6119.46 6025.73 6120.96 6024.99 6121.12 6025.09 6119.93 6026.04 6109.31 6034.61 6100.66 6043.93 6093.97 6054 6093.92 6054.08 6093.98 6054.18 6094.11 6054.21 6094.22 6054.24 6094.34 6054.22 6094.42 6054.17 6103.59 6047.36 6116.51 6041.13 6130.61 6038.96L6135.02 6038.75 6135.21 6038.37C6136.57 6035.99 6137.4 6034.87 6137.69 6034.99L6137.05 6038.66 6145 6038.28 6161.72 6043.03 6163.93 6036.88C6163.99 6036.63 6164.25 6036.47 6164.5 6036.54 6164.71 6036.59 6164.85 6036.77 6164.86 6036.98L6164.11 6043.75 6174.55 6055.7C6174.64 6055.96 6174.55 6055.99 6174.26 6055.79L6163.27 6051.3 6162.41 6059.05 6165.55 6060.24C6169.28 6062.74 6172.13 6066.07 6173.68 6070.3 6173.71 6070.4 6173.6 6070.5 6173.44 6070.52 6173.33 6070.53 6173.22 6070.5 6173.15 6070.44 6170 6067.46 6166.33 6065.26 6162.14 6063.86L6161.88 6063.83 6157.9 6099.6 6161.66 6100.6 6171.52 6084.22C6176.62 6076.79 6182.27 6069.76 6188.62 6063.54 6188.86 6063.31 6189.06 6063.34 6189.2 6063.64 6189.28 6063.79 6189.26 6063.93 6189.13 6064.06 6188.94 6064.24 6188.84 6064.34 6188.82 6064.36 6177.42 6079.5 6169.54 6098.98 6172.19 6119 6172.24 6119.32 6172.55 6119.55 6172.87 6119.5 6173.07 6119.46 6173.25 6119.33 6173.33 6119.14 6181.51 6098.44 6196.66 6079.5 6217.65 6070.6 6217.9 6070.49 6218.19 6070.61 6218.3 6070.86 6218.37 6071.04 6218.33 6071.24 6218.2 6071.38 6212.14 6077.64 6205.99 6085.56 6201.34 6094.17L6194.01 6119.18 6195.33 6119.15 6213.55 6089.91C6220.82 6080.24 6229.1 6071.3 6239.13 6062.92 6239.35 6062.76 6239.65 6062.81 6239.81 6063.02 6239.93 6063.19 6239.93 6063.41 6239.82 6063.58 6229.57 6077.18 6219.54 6097.83 6227.15 6114.95 6227.24 6115.15 6227.48 6115.24 6227.68 6115.16 6227.76 6115.12 6227.83 6115.05 6227.88 6114.97L6243.64 6091.6 6242.05 6091.42C6241.98 6091.4 6241.92 6091.37 6241.87 6091.32 6241.68 6091.15 6241.67 6090.85 6241.85 6090.67L6246.7 6087.07 6252.17 6078.96 6248.99 6077.07C6247.58 6075.26 6246.73 6072.95 6246.26 6070.45 6245.47 6066.24 6245.03 6062.06 6244.94 6057.91 6244.93 6057.76 6245 6057.61 6245.11 6057.51 6245.33 6057.32 6245.65 6057.34 6245.84 6057.56 6248.57 6060.63 6251.33 6063.73 6254.11 6066.87L6257.19 6071.52 6257.55 6070.99C6260.08 6068.1 6262.87 6065.4 6265.92 6062.9 6266.01 6062.84 6266.13 6062.86 6266.19 6062.95 6266.24 6063.02 6266.24 6063.11 6266.19 6063.18L6257.76 6078.08 6257.61 6080.14C6257.6 6080.16 6257.6 6080.17 6257.59 6080.18 6257.37 6080.55 6257.49 6081.02 6257.86 6081.24L6258.89 6081.91 6264.69 6073.29C6264.76 6073.12 6264.95 6073.04 6265.12 6073.11 6265.29 6073.18 6265.37 6073.37 6265.3 6073.54L6261.13 6083.38 6263.75 6085.09C6265.49 6086.51 6266.98 6088.2 6268.07 6090.58 6268.11 6090.67 6268.2 6090.72 6268.3 6090.72 6268.45 6090.73 6268.57 6090.61 6268.58 6090.46 6268.57 6084.59 6269.08 6078.82 6270.11 6073.16 6270.99 6068.38 6272.79 6063.24 6274.31 6058.33 6275.2 6055.46 6274.7 6052.81 6274.1 6050 6274.04 6049.73 6273.91 6049.68 6273.69 6049.84L6271.45 6051.5C6271.27 6051.64 6271.19 6051.82 6271.2 6052.05 6271.33 6054.53 6270.12 6056.26 6267.59 6057.25 6264.4 6058.5 6261.2 6059.03 6257.98 6058.85 6257.86 6058.85 6257.74 6058.8 6257.65 6058.72 6257.41 6058.51 6257.38 6058.15 6257.59 6057.91 6260.65 6054.37 6264.92 6049.36 6269.9 6050.7 6270.12 6050.75 6270.33 6050.72 6270.52 6050.61L6272.31 6049.5C6272.59 6049.33 6272.57 6049.21 6272.24 6049.16L6268.15 6048.54C6267.95 6048.51 6267.75 6048.54 6267.55 6048.63 6261.56 6051.73 6253.51 6048.27 6248.95 6044.17 6248.91 6044.14 6248.88 6044.09 6248.87 6044.04 6248.81 6043.88 6248.89 6043.7 6249.05 6043.65 6255.73 6041.26 6265.41 6039.77 6269.74 6047.31 6269.83 6047.47 6269.97 6047.56 6270.15 6047.59L6273.04 6048.04C6273.39 6048.09 6273.47 6047.97 6273.27 6047.67L6271.28 6044.66C6271.2 6044.53 6271.06 6044.44 6270.91 6044.41 6266.41 6043.62 6264.2 6038.01 6264.37 6034.01 6264.47 6031.83 6264.71 6029.71 6265.1 6027.65 6265.12 6027.56 6265.16 6027.48 6265.23 6027.42 6265.39 6027.29 6265.64 6027.31 6265.77 6027.47 6267.17 6029.11 6268.51 6030.8 6269.8 6032.56 6273.06 6037.04 6275.31 6039.65 6273.01 6044.65 6272.92 6044.84 6272.95 6045.01 6273.09 6045.17 6274.8 6047.15 6275.62 6049.45 6275.58 6052.08 6275.56 6052.16 6275.63 6052.24 6275.71 6052.25 6275.8 6052.27 6275.88 6052.2 6275.89 6052.12 6277.11 6046.93 6277.41 6042.77 6276.9 6037.22 6276.7 6035.06 6276.51 6032.9 6276.34 6030.74 6276.13 6028.08 6277.8 6025.95 6277.8 6023.42 6277.8 6022.18 6277.63 6020.94 6277.28 6019.72 6277.23 6019.53 6277.11 6019.36 6276.94 6019.25 6273.74 6017.05 6274.49 6012.09 6275.77 6008.54 6275.85 6008.31 6275.96 6008.29 6276.1 6008.48 6277.59 6010.46 6281 6015.68 6279.62 6018.13 6278.78 6019.64 6278.61 6021.22 6279.13 6022.88 6279.2 6023.1 6279.28 6023.11 6279.38 6022.9 6279.92 6021.73 6280.22 6020.39 6280.27 6018.87 6280.36 6015.88 6281.65 6013.09 6284.4 6011.6 6285.46 6011.02 6288.08 6009.66 6289.29 6010.07 6289.3 6010.07 6289.31 6010.07 6289.31 6010.08 6289.65 6010.2 6289.81 6010.58 6289.68 6010.91 6288.23 6014.59 6286.06 6018.96 6281.93 6020.12 6281.74 6020.17 6281.61 6020.29 6281.56 6020.48L6278.57 6029.71C6278.5 6029.95 6278.58 6030.04 6278.83 6029.98 6279.14 6029.91 6279.34 6029.73 6279.42 6029.44 6280.09 6027.18 6280.07 6025.51 6282.64 6024.2 6285.22 6022.88 6287.88 6022.02 6290.62 6021.63 6290.77 6021.61 6290.93 6021.64 6291.06 6021.72 6291.4 6021.91 6291.51 6022.33 6291.32 6022.67 6289.42 6025.95 6285.16 6031.6 6280.9 6030.23 6280.72 6030.17 6280.53 6030.22 6280.41 6030.35L6278.86 6032C6278.71 6032.16 6278.65 6032.35 6278.69 6032.56 6280.05 6039.92 6279.6 6047.7 6277.33 6055.89 6275.98 6060.8 6274.93 6064.34 6274.17 6066.52 6274.12 6066.65 6274.16 6066.67 6274.28 6066.6L6279.15 6063.58C6279.29 6063.49 6279.38 6063.33 6279.39 6063.17 6279.63 6056.39 6283.87 6053.91 6290.17 6052.75 6293.23 6052.18 6296.32 6051.96 6299.43 6052.08 6299.5 6052.09 6299.57 6052.1 6299.64 6052.14 6299.87 6052.26 6299.95 6052.54 6299.83 6052.77 6298 6056.27 6295.57 6060.32 6292.48 6062.46 6289.47 6064.54 6284.31 6066.06 6280.62 6064.66 6280.44 6064.59 6280.25 6064.59 6280.07 6064.67 6277.72 6065.72 6275.54 6066.82 6274.3 6069.23 6272.61 6072.52 6271.66 6076.02 6271.45 6079.74L6270.54 6091.9 6274.52 6088.7 6280.99 6085.03 6280.69 6084.19C6280.42 6078.83 6284.96 6073.11 6289.12 6070.3 6289.17 6070.27 6289.24 6070.25 6289.3 6070.25 6289.46 6070.26 6289.59 6070.39 6289.58 6070.55 6289.43 6076.49 6289.18 6084.17 6286.05 6089.41 6285.89 6089.68 6285.96 6089.77 6286.25 6089.67L6290.88 6089.03 6293.89 6086.8C6294.04 6086.73 6294.23 6086.8 6294.3 6086.96 6294.35 6087.08 6294.33 6087.21 6294.25 6087.31L6292.66 6089.09 6301.95 6092.49C6304.41 6093.55 6306.34 6095 6308.24 6096.72 6308.31 6096.78 6308.36 6096.86 6308.39 6096.95 6308.51 6097.25 6308.36 6097.59 6308.05 6097.71 6303.92 6099.27 6299.18 6099.69 6294.87 6098.7L6288.29 6094.05 6276.14 6107.78C6276.08 6107.91 6276.12 6108.06 6276.25 6108.13 6276.33 6108.17 6276.43 6108.17 6276.51 6108.12 6287.48 6098.82 6305.07 6096.16 6314.57 6109.25 6314.75 6109.52 6314.69 6109.88 6314.42 6110.06 6314.24 6110.19 6314.01 6110.2 6313.82 6110.1 6310.48 6108.19 6307.19 6107.13 6304 6106.76L6295.63 6107.46 6294.68 6112.48C6293.13 6115.18 6290.53 6117.12 6286.47 6117.7 6286.25 6117.74 6286.09 6117.85 6285.98 6118.04L6284.23 6121.26C6284.12 6121.46 6284.18 6121.59 6284.41 6121.64L6287.7 6122.33 6295.59 6116.69C6295.78 6116.51 6296.08 6116.51 6296.26 6116.7 6296.38 6116.82 6296.43 6116.99 6296.38 6117.15L6293.98 6121.8 6298.49 6123.25 6299.82 6124.22 6310.46 6126.34 6311.9 6125.58C6312.22 6125.45 6312.48 6125.21 6312.65 6124.9L6319.18 6112.52C6319.29 6112.32 6319.54 6112.25 6319.74 6112.37 6319.88 6112.45 6319.96 6112.61 6319.94 6112.78L6318.34 6122.35C6318.24 6122.96 6318.48 6123.16 6319.05 6122.96 6320.46 6122.47 6322.77 6121.7 6325.97 6120.63 6326.21 6120.55 6326.41 6120.57 6326.58 6120.68 6326.83 6120.84 6326.83 6120.99 6326.57 6121.13L6318.23 6125.68C6317.89 6125.87 6317.67 6126.22 6317.65 6126.61L6317.6 6127.76 6319.62 6128.16 6337.37 6133.49 6337.51 6133.34C6337.64 6133.12 6337.92 6133.04 6338.14 6133.17 6338.32 6133.27 6338.41 6133.47 6338.37 6133.67L6338.35 6133.78 6341.91 6134.85 6351.23 6123.72C6351.38 6123.61 6351.59 6123.63 6351.71 6123.77 6351.79 6123.87 6351.81 6124 6351.77 6124.11L6348.5 6137.11 6355.51 6140.04 6357.15 6137.53 6357.46 6121.35C6357.81 6117.55 6357.81 6114.33 6355.25 6111.87 6354.68 6111.33 6353.81 6111.17 6352.64 6111.4 6352.49 6111.43 6352.43 6111.52 6352.48 6111.67 6353.41 6114.76 6351.69 6116.23 6348.86 6117.03 6345.28 6118.06 6341.64 6118.82 6337.95 6119.33 6337.79 6119.35 6337.64 6119.24 6337.62 6119.08 6337.61 6119.04 6337.61 6119.01 6337.62 6118.98 6338.79 6113.44 6343.21 6106.95 6349.84 6109.8 6351.08 6110.34 6351.89 6110.28 6353.11 6110.1 6353.42 6110.05 6353.45 6109.94 6353.18 6109.76L6347.42 6105.83C6347.21 6105.69 6346.99 6105.64 6346.74 6105.68L6342.31 6106.47C6342.18 6106.5 6342.06 6106.57 6341.98 6106.68 6337.57 6113.18 6331.81 6117.7 6323.8 6112.97 6323.46 6112.78 6323.34 6112.35 6323.54 6112.01 6323.57 6111.95 6323.61 6111.9 6323.65 6111.86 6325.9 6109.62 6328.51 6107.73 6331.48 6106.16 6334 6104.84 6338.66 6103.59 6341.48 6105.25 6341.6 6105.32 6341.74 6105.35 6341.89 6105.32L6345.56 6104.55C6345.79 6104.5 6345.85 6104.38 6345.74 6104.17L6343.99 6100.96C6343.88 6100.76 6343.72 6100.65 6343.5 6100.61 6335.38 6099.44 6333.1 6092.89 6333.41 6085.52 6333.42 6085.34 6333.57 6085.2 6333.75 6085.2 6333.76 6085.21 6333.78 6085.21 6333.79 6085.21 6338.59 6085.9 6346.1 6089.06 6345.74 6094.88 6345.6 6097.11 6345 6100.15 6346.05 6102.16 6346.64 6103.3 6347.26 6104.1 6347.91 6104.55 6351.93 6107.39 6355.61 6109.24 6358.06 6114.05 6358.2 6114.33 6358.3 6114.31 6358.36 6114 6359.63 6107.08 6360.37 6100.12 6360.57 6093.12 6360.67 6089.53 6359.64 6086.67 6357.29 6084.23 6354.17 6081 6350.47 6077.6 6346.19 6074.02 6346 6073.86 6345.85 6073.89 6345.72 6074.1 6340.87 6082.33 6330.18 6083.73 6321.92 6080.62 6321.61 6080.51 6321.46 6080.17 6321.58 6079.86 6321.61 6079.77 6321.66 6079.69 6321.73 6079.63 6323.63 6077.91 6325.56 6076.46 6328.02 6075.4 6333.05 6073.26 6336.35 6072.06 6337.92 6071.78 6339.36 6071.52 6341.29 6071.79 6343.72 6072.58 6344.01 6072.68 6344.08 6072.59 6343.93 6072.33 6340.8 6067.08 6340.54 6059.4 6340.39 6053.47 6340.38 6053.3 6340.51 6053.17 6340.67 6053.16 6340.73 6053.16 6340.8 6053.18 6340.85 6053.21 6345.02 6056.03 6349.55 6061.74 6349.28 6067.1 6349.18 6069.11 6348.19 6071.03 6347.27 6072.86 6347.18 6073.06 6347.21 6073.22 6347.38 6073.36 6351.7 6076.99 6356.68 6081.04 6359.94 6085.63 6360.16 6085.95 6360.26 6085.92 6360.24 6085.53 6359.68 6077.9 6358.95 6070.28 6358.52 6062.65 6358.31 6058.93 6357.36 6055.43 6355.67 6052.14 6354.43 6049.73 6352.25 6048.63 6349.9 6047.58 6349.73 6047.5 6349.53 6047.5 6349.35 6047.57 6345.66 6048.97 6340.5 6047.46 6337.49 6045.37 6334.4 6043.23 6331.97 6039.19 6330.14 6035.68 6330.02 6035.46 6330.11 6035.17 6330.34 6035.05 6330.4 6035.02 6330.47 6035 6330.54 6034.99 6333.65 6034.87 6336.74 6035.1 6339.8 6035.66 6346.1 6036.82 6350.34 6039.3 6350.58 6046.08 6350.59 6046.25 6350.68 6046.4 6350.83 6046.49L6355.7 6049.51C6355.81 6049.58 6355.85 6049.56 6355.8 6049.43 6355.04 6047.25 6353.99 6043.71 6352.64 6038.8 6350.38 6030.61 6349.92 6022.83 6351.28 6015.47 6351.32 6015.26 6351.26 6015.07 6351.11 6014.92L6349.56 6013.27C6349.44 6013.13 6349.25 6013.09 6349.07 6013.14 6344.81 6014.51 6340.55 6008.86 6338.65 6005.58 6338.46 6005.25 6338.58 6004.82 6338.91 6004.63 6339.04 6004.55 6339.2 6004.52 6339.35 6004.54 6342.1 6004.93 6344.76 6005.79 6347.33 6007.11 6349.9 6008.42 6349.89 6010.09 6350.55 6012.35 6350.63 6012.64 6350.83 6012.82 6351.14 6012.89 6351.39 6012.95 6351.47 6012.86 6351.4 6012.62L6348.42 6003.39C6348.36 6003.2 6348.23 6003.08 6348.04 6003.03 6343.91 6001.87 6341.74 5997.5 6340.29 5993.82 6340.16 5993.49 6340.33 5993.12 6340.66 5992.99 6340.67 5992.98 6340.67 5992.98 6340.68 5992.98 6341.89 5992.58 6344.51 5993.93 6345.58 5994.51 6348.32 5996 6349.61 5998.79 6349.71 6001.78 6349.75 6003.3 6350.05 6004.64 6350.59 6005.81 6350.69 6006.02 6350.77 6006.01 6350.84 6005.79 6351.36 6004.13 6351.19 6002.55 6350.35 6001.04 6348.97 5998.59 6352.39 5993.37 6353.87 5991.39 6354.01 5991.2 6354.12 5991.22 6354.2 5991.45 6355.49 5995 6356.23 5999.96 6353.03 6002.16 6352.87 6002.27 6352.75 6002.44 6352.69 6002.63 6352.34 6003.85 6352.17 6005.09 6352.17 6006.33 6352.18 6008.86 6353.84 6010.99 6353.63 6013.65 6353.46 6015.81 6353.28 6017.97 6353.08 6020.13 6352.57 6025.68 6352.86 6029.84 6354.08 6035.03 6354.1 6035.12 6354.17 6035.18 6354.26 6035.17 6354.35 6035.15 6354.41 6035.07 6354.4 6034.99 6354.35 6032.36 6355.18 6030.06 6356.88 6028.09 6357.02 6027.93 6357.05 6027.75 6356.96 6027.56 6354.66 6022.56 6356.91 6019.95 6360.18 6015.47 6361.46 6013.71 6362.8 6012.02 6364.2 6010.38 6364.34 6010.22 6364.58 6010.2 6364.74 6010.33 6364.81 6010.39 6364.86 6010.47 6364.87 6010.56 6365.26 6012.62 6365.51 6014.74 6365.6 6016.92 6365.78 6020.92 6363.56 6026.53 6359.07 6027.32 6358.91 6027.35 6358.77 6027.44 6358.69 6027.57L6356.7 6030.59C6356.51 6030.88 6356.58 6031 6356.93 6030.95L6359.82 6030.5C6360.01 6030.47 6360.14 6030.38 6360.24 6030.22 6364.57 6022.68 6374.24 6024.18 6380.92 6026.56 6381.08 6026.62 6381.16 6026.79 6381.1 6026.95 6381.09 6027 6381.06 6027.05 6381.02 6027.08 6376.46 6031.19 6368.41 6034.65 6362.42 6031.55 6362.23 6031.45 6362.03 6031.42 6361.82 6031.45L6357.73 6032.07C6357.4 6032.13 6357.38 6032.24 6357.66 6032.42L6359.45 6033.52C6359.65 6033.63 6359.85 6033.66 6360.07 6033.61 6365.06 6032.27 6369.33 6037.28 6372.39 6040.82 6372.59 6041.06 6372.56 6041.42 6372.33 6041.63 6372.23 6041.71 6372.11 6041.76 6371.99 6041.76 6368.77 6041.94 6365.57 6041.41 6362.38 6040.16 6359.85 6039.18 6358.65 6037.44 6358.77 6034.96 6358.79 6034.73 6358.7 6034.55 6358.52 6034.41L6356.28 6032.75C6356.06 6032.59 6355.93 6032.64 6355.87 6032.91 6355.27 6035.73 6354.77 6038.38 6355.66 6041.24 6357.18 6046.15 6358.98 6051.29 6359.86 6056.07 6360.89 6061.73 6361.41 6067.5 6361.39 6073.38 6361.4 6073.52 6361.52 6073.64 6361.67 6073.64 6361.77 6073.63 6361.86 6073.58 6361.9 6073.49 6364.09 6068.73 6367.84 6066.73 6372.12 6064.15 6372.48 6063.93 6372.6 6063.46 6372.38 6063.09 6372.38 6063.08 6372.37 6063.07 6372.36 6063.05 6369.18 6058.28 6373.03 6052.97 6375.86 6049.78 6378.64 6046.65 6381.4 6043.54 6384.13 6040.47 6384.32 6040.25 6384.64 6040.23 6384.86 6040.42 6384.98 6040.52 6385.04 6040.67 6385.04 6040.82 6384.94 6044.97 6384.5 6049.15 6383.71 6053.36 6382.78 6058.37 6380.3 6062.59 6374.9 6063.59 6374.71 6063.62 6374.55 6063.7 6374.41 6063.82 6372.29 6065.62 6369.99 6067.16 6367.52 6068.43 6367.4 6068.49 6367.35 6068.64 6367.4 6068.75 6367.44 6068.84 6367.53 6068.89 6367.62 6068.89L6369.53 6068.93C6369.69 6068.93 6369.84 6068.87 6369.95 6068.76 6375.99 6063.1 6383.78 6068.97 6388.13 6073.58 6388.3 6073.77 6388.29 6074.06 6388.1 6074.23 6388.05 6074.28 6387.99 6074.31 6387.93 6074.33 6382.99 6075.89 6372.34 6077.03 6370.29 6070.38 6370.23 6070.17 6370.09 6070.06 6369.87 6070.05L6366.22 6069.92C6366.01 6069.91 6365.84 6069.99 6365.69 6070.14 6363.07 6072.96 6361.9 6076.26 6362.19 6080.05 6362.52 6084.37 6362.72 6088.37 6362.8 6092.04 6363.07 6104.37 6359.86 6116.41 6359.24 6128.68 6359.22 6129.1 6359.31 6129.12 6359.52 6128.77L6362.78 6124.68 6363.81 6121.67 6365.26 6114.71 6366.54 6113.66 6368.81 6107.03C6368.86 6106.84 6369.04 6106.73 6369.22 6106.78 6369.37 6106.81 6369.47 6106.93 6369.48 6107.08L6369.14 6111.54 6374.25 6107.35C6377.69 6105.38 6381.41 6103.81 6384.89 6102.36 6385.15 6102.25 6385.44 6102.37 6385.54 6102.63 6385.57 6102.69 6385.58 6102.75 6385.58 6102.82 6385.59 6103.44 6385.42 6104.11 6385.07 6104.82 6383.61 6107.83 6382.1 6110.81 6380.53 6113.76 6377.48 6119.47 6375.42 6123.83 6370.7 6124.8L6368.14 6124.7 6367.44 6133.89C6367.4 6134.02 6367.47 6134.16 6367.6 6134.2 6367.71 6134.23 6367.83 6134.18 6367.89 6134.08 6374.07 6124.52 6381.03 6115.56 6388.77 6107.2 6388.88 6107.06 6389.1 6107.03 6389.25 6107.14 6389.39 6107.25 6389.42 6107.45 6389.33 6107.59L6375.73 6148.99 6376.78 6149.57 6377.16 6147.85C6383.24 6132.03 6392.35 6118.28 6404.48 6106.61 6404.59 6106.49 6404.78 6106.48 6404.9 6106.6 6405 6106.7 6405.02 6106.86 6404.94 6106.98 6396.53 6121.6 6391.83 6137.33 6390.85 6154.18 6390.83 6154.47 6391.05 6154.72 6391.34 6154.73 6391.54 6154.74 6391.73 6154.65 6391.83 6154.48 6400 6140.99 6406.46 6126.73 6411.21 6111.71 6411.25 6111.59 6411.39 6111.52 6411.52 6111.56 6411.61 6111.59 6411.67 6111.67 6411.68 6111.77 6412.2 6120.57 6411.67 6129.3 6410.08 6137.96 6410.05 6138.07 6410.11 6138.2 6410.23 6138.23 6410.34 6138.27 6410.47 6138.2 6410.5 6138.09L6419.28 6120.41C6419.43 6120.14 6419.77 6120.03 6420.05 6120.17 6420.25 6120.27 6420.37 6120.49 6420.35 6120.72 6419.56 6128.38 6419.55 6136.04 6420.31 6143.7 6420.34 6143.91 6420.54 6144.07 6420.76 6144.04 6420.85 6144.03 6420.93 6143.99 6421 6143.93 6429.69 6134.65 6434.62 6123.62 6435.78 6110.84 6435.8 6110.63 6435.99 6110.47 6436.21 6110.49 6436.35 6110.51 6436.48 6110.6 6436.53 6110.74 6441.62 6123.8 6443.6 6137.33 6442.48 6151.33 6442.44 6151.81 6442.57 6151.87 6442.89 6151.51 6443.07 6151.29 6443.18 6151.06 6443.22 6150.8 6445.03 6139.81 6445.37 6127.98 6444.24 6115.31 6444.12 6114.01 6444.34 6113.95 6444.88 6115.15L6451.65 6137.36 6452.03 6133.96C6452.04 6133.93 6452.07 6133.91 6452.1 6133.92 6452.11 6133.92 6452.11 6133.92 6452.11 6133.93 6452.18 6133.97 6452.25 6134.02 6452.32 6134.06 6452.38 6134.1 6452.4 6134.16 6452.4 6134.22L6452.86 6141.33 6453.05 6141.95 6453.17 6146.24 6454.66 6169.12 6454.7 6169.05C6458.87 6153.96 6460.11 6138.53 6458.42 6122.75 6458.11 6119.84 6458.48 6119.75 6459.52 6122.48 6463.31 6132.36 6466.21 6142.48 6468.25 6152.85 6468.39 6153.58 6468.57 6153.59 6468.8 6152.88 6469.37 6151.11 6469.63 6148.58 6469.93 6147.37 6471.47 6140.91 6473.73 6134.38 6476.7 6127.8 6476.76 6127.62 6476.94 6127.52 6477.11 6127.57 6477.29 6127.62 6477.39 6127.81 6477.34 6127.98 6474.98 6146.61 6475.36 6165.13 6481.59 6183.08 6481.7 6183.38 6482.02 6183.53 6482.32 6183.43 6482.48 6183.37 6482.61 6183.23 6482.67 6183.07 6486.29 6171.98 6486.87 6161.71 6487.14 6150.06 6487.16 6149.25 6487.33 6149.22 6487.67 6149.95 6490.47 6156.01 6492.59 6162.29 6494.03 6168.79 6494.09 6169.04 6494.33 6169.19 6494.57 6169.14 6494.75 6169.1 6494.89 6168.95 6494.92 6168.77L6495.65 6164.22C6495.71 6163.84 6496.07 6163.59 6496.45 6163.66 6496.73 6163.7 6496.96 6163.92 6497.01 6164.21L6498.37 6167.18 6498.62 6166.25C6498.67 6166.06 6498.86 6165.94 6499.05 6165.98 6499.19 6166.01 6499.29 6166.11 6499.32 6166.24L6499.74 6170.18 6507.33 6186.82C6507.57 6187.11 6507.99 6187.16 6508.29 6186.92 6508.3 6186.91 6508.32 6186.9 6508.33 6186.88 6509.33 6185.93 6509.61 6184.78 6509.17 6183.45 6507.55 6178.54 6506.05 6170.97 6506.66 6165.23 6506.76 6164.32 6506.95 6164.3 6507.23 6165.17 6508.77 6169.87 6509.53 6173.29 6512.24 6177.61 6512.44 6177.93 6512.86 6178.02 6513.18 6177.82 6513.31 6177.74 6513.4 6177.62 6513.46 6177.48L6517.79 6164.89C6517.91 6164.55 6517.84 6164.17 6517.61 6163.89L6512.77 6157.87C6512.61 6157.7 6512.61 6157.43 6512.78 6157.27 6512.95 6157.1 6513.22 6157.1 6513.38 6157.27L6517.83 6160.96C6518.35 6161.39 6518.68 6161.28 6518.81 6160.62L6520.77 6151.42C6520.8 6151.26 6520.96 6151.15 6521.12 6151.18 6521.24 6151.2 6521.33 6151.29 6521.35 6151.41 6522.3 6155.72 6521.94 6164.85 6524.87 6167.5L6529.53 6172.99 6543.16 6160.8C6543.25 6160.71 6543.41 6160.72 6543.49 6160.82 6543.57 6160.91 6543.58 6161.04 6543.5 6161.14L6541.82 6164.41 6542.22 6164.34C6544.15 6168.69 6546.67 6172.48 6549.78 6175.7L6552.51 6177.66 6553.68 6176.2C6553.73 6176.12 6553.83 6176.08 6553.92 6176.12 6554 6176.16 6554.04 6176.25 6554.01 6176.33L6553.29 6178.23 6560.89 6183.68C6561.26 6183.87 6561.41 6183.75 6561.33 6183.34 6557.76 6165.45 6548.11 6149.71 6527.31 6150.62 6527.09 6150.64 6526.9 6150.47 6526.88 6150.25 6526.87 6150.1 6526.95 6149.96 6527.07 6149.88 6540.95 6140.52 6554.74 6150.46 6562.6 6162.17 6563.1 6162.91 6563.27 6162.84 6563.11 6161.97 6561.7 6154.01 6558.19 6144.17 6554.13 6137.57 6554.04 6137.37 6554.12 6137.13 6554.32 6137.03 6554.48 6136.96 6554.66 6136.99 6554.78 6137.11 6561.97 6146.08 6566.84 6156.18 6569.4 6167.4 6570.55 6172.44 6570.9 6172.38 6570.46 6167.23 6569.6 6156.94 6567.52 6146.9 6564.22 6137.11 6564.15 6136.88 6564.28 6136.62 6564.51 6136.54 6564.68 6136.48 6564.86 6136.54 6564.98 6136.67 6570.23 6142.85 6574.37 6149.52 6577.85 6156.56L6585.56 6175.72 6586.23 6174.46 6585.84 6176.41 6586.73 6178.6C6586.77 6178.7 6586.88 6178.75 6586.97 6178.72 6587.06 6178.69 6587.11 6178.6 6587.09 6178.51 6584.45 6164.02 6584.1 6149.45 6586.04 6134.81 6586.04 6134.63 6586.18 6134.48 6586.36 6134.48 6586.54 6134.47 6586.69 6134.62 6586.7 6134.8 6588.74 6149.06 6591.84 6163.09 6596.02 6176.89 6596.05 6176.99 6596.17 6177.06 6596.27 6177.02 6596.36 6177 6596.41 6176.93 6596.41 6176.84 6596.58 6160.03 6595.23 6140.87 6588.8 6125.16 6588.72 6124.96 6588.71 6124.78 6588.75 6124.62 6588.85 6124.32 6588.98 6124.3 6589.13 6124.57 6591.12 6127.93 6592.38 6130.33 6592.93 6131.76L6600 6162.98 6600 6249.86 6600 6648.37 6600 6988.3 6600 7265 6600 7265 3504.4 7265 3504.4 7265 0 7265 0 6648.37 3540.03 6648.37 3607.79 6642.33C3659.98 6638.16 3711.87 6634.35 3763.8 6629.11L3787.57 6626.32 3787.25 6625.51C3785.71 6623.17 3784.89 6620.51 3783.12 6618.41 3780.95 6615.83 3779.53 6614.07 3778.86 6613.13 3775.24 6608.06 3774.72 6602.94 3774.08 6596.82 3773.68 6593 3772.65 6589.41 3771 6586.04 3770.95 6585.96 3770.98 6585.86 3771.06 6585.82 3771.14 6585.78 3771.22 6585.8 3771.27 6585.87 3773.03 6588.19 3774.75 6591.07 3776.2 6593.03 3778.67 6596.37 3781.12 6599.19 3783.55 6601.51 3786.23 6604.07 3788.73 6606.18 3790.43 6609.15L3795.17 6625.43 3795.41 6625.4 3792.59 6586.14C3791.39 6580.24 3790.07 6574.42 3788.63 6568.67 3788.55 6568.34 3788.35 6568.13 3788.02 6568.05 3785.64 6567.41 3785.36 6568.85 3785.15 6570.8 3784.95 6572.65 3784.68 6573.9 3784.35 6574.53 3783.1 6576.95 3781.75 6579.41 3782 6582.22 3782.03 6582.46 3781.85 6582.68 3781.61 6582.7 3781.46 6582.72 3781.31 6582.65 3781.22 6582.54 3779.31 6580.21 3776.55 6575.7 3777.48 6572.74 3777.87 6571.5 3778.88 6570.19 3779.63 6568.98 3779.71 6568.85 3779.68 6568.75 3779.53 6568.68 3776.21 6567.18 3772.73 6566.69 3769.1 6567.21 3766.44 6567.59 3765.76 6570.56 3763.01 6571.1 3761.98 6571.3 3760.88 6571.33 3759.71 6571.21 3759.5 6571.18 3759.35 6571 3759.37 6570.79 3759.38 6570.71 3759.42 6570.63 3759.48 6570.57 3760.4 6569.6 3760.98 6568.67 3761.28 6567.29 3761.63 6565.65 3761.85 6563.81 3762.85 6562.52 3764.57 6560.27 3767.09 6559.71 3769.92 6559.08 3770.11 6559.04 3770.13 6558.97 3769.95 6558.87 3768.75 6558.17 3767.59 6557.43 3766.48 6556.65 3764.62 6555.35 3762.98 6555.01 3760.84 6555.24 3760.64 6555.26 3760.46 6555.11 3760.44 6554.92 3760.43 6554.78 3760.49 6554.65 3760.61 6554.57 3762.3 6553.52 3763.98 6552.42 3765.65 6551.26 3766.94 6550.36 3767.97 6549.81 3768.76 6549.6 3771.38 6548.92 3773.47 6549.67 3776.31 6550.82 3776.5 6550.9 3776.54 6550.85 3776.43 6550.67 3775.23 6548.72 3773.99 6545.4 3774.25 6543.2 3774.48 6541.16 3776.24 6540.54 3777.75 6539.55 3778.06 6539.34 3778.41 6538.98 3778.78 6538.48 3780.25 6536.5 3782.15 6537.88 3783.44 6539.3 3786.09 6542.2 3788.62 6544.09 3788.97 6548.31 3788.97 6548.37 3789.02 6548.42 3789.08 6548.41 3789.13 6548.41 3789.16 6548.39 3789.18 6548.35 3789.63 6547.23 3790.19 6545.98 3790.98 6545.14 3792.88 6543.15 3795.64 6543.44 3797.76 6544.94 3800.07 6546.57 3802.23 6550.02 3805.23 6549.23 3805.34 6549.2 3805.45 6549.26 3805.48 6549.37 3805.5 6549.43 3805.49 6549.5 3805.45 6549.55 3804.65 6550.6 3803.69 6552.51 3802.12 6552.15 3799.98 6551.66 3795.72 6550.47 3794.06 6553.12 3793.97 6553.27 3794.01 6553.33 3794.18 6553.31 3797.73 6552.85 3802.24 6553.57 3804.17 6556.98 3804.25 6557.11 3804.22 6557.2 3804.07 6557.25 3801.46 6558.19 3798.38 6557.75 3795.92 6558.49 3792.8 6559.43 3791.08 6563.69 3790.46 6566.6 3790.32 6567.27 3790.34 6567.97 3790.52 6568.73 3791.33 6572.13 3792.15 6575.53 3792.97 6578.93 3795.18 6588.05 3796.57 6597.27 3797.15 6606.59 3797.16 6606.66 3797.21 6606.7 3797.27 6606.69 3797.31 6606.69 3797.35 6606.66 3797.37 6606.62 3798.32 6603.91 3799.05 6601.15 3799.57 6598.32 3799.61 6598.1 3799.54 6597.87 3799.37 6597.7 3798.06 6596.41 3797.85 6595.05 3797.75 6593.03 3797.6 6589.88 3796.08 6586.81 3794.92 6583.92 3794.09 6581.86 3793.69 6578.97 3794.05 6577.13 3794.76 6573.45 3795.07 6569.77 3794.97 6566.08 3794.97 6565.96 3795.07 6565.86 3795.19 6565.87 3795.28 6565.87 3795.36 6565.92 3795.39 6566.01 3796.65 6570.16 3795.46 6574.43 3796.1 6578.65 3796.65 6582.29 3798.85 6584.99 3799.33 6588.48 3799.58 6590.3 3799.84 6592.14 3800.1 6594 3800.1 6594.05 3800.15 6594.09 3800.2 6594.09 3800.25 6594.09 3800.3 6594.05 3800.3 6593.99L3800.86 6585.3C3800.87 6585.16 3800.84 6585.02 3800.76 6584.9 3798.94 6582.1 3797.83 6580.19 3798.14 6576.68 3798.49 6572.56 3799.7 6568.66 3801.76 6564.95 3801.93 6564.66 3802.3 6564.55 3802.59 6564.72 3802.7 6564.78 3802.78 6564.87 3802.84 6564.98 3804.86 6569.05 3805.05 6574.12 3804.72 6578.56 3804.52 6581.17 3803.51 6583.12 3801.96 6585.09 3801.88 6585.19 3801.84 6585.31 3801.83 6585.44L3801.57 6590.4C3801.56 6590.55 3801.61 6590.56 3801.7 6590.44 3802.07 6589.97 3802.4 6589.48 3802.7 6588.97 3803.82 6587 3805.48 6585.52 3807.67 6584.51 3808.58 6584.1 3809.43 6583.45 3810.24 6582.56 3812.25 6580.34 3814.07 6578.01 3815.72 6575.55 3815.79 6575.44 3815.94 6575.41 3816.05 6575.48 3816.13 6575.53 3816.17 6575.62 3816.16 6575.72 3815.81 6578.5 3814.98 6580.58 3813.39 6583.15 3812.04 6585.31 3811.19 6587.51 3808.72 6588.77 3805.89 6590.21 3803.5 6591.12 3801.31 6593.9 3801.23 6594 3801.18 6594.12 3801.17 6594.25 3800.66 6599.22 3799.48 6604.03 3797.65 6608.66 3797.43 6609.23 3797.33 6609.82 3797.37 6610.42 3797.65 6614.78 3797.62 6619.12 3797.28 6623.42 3797.27 6623.5 3797.33 6623.57 3797.41 6623.58 3797.46 6623.58 3797.51 6623.55 3797.54 6623.5 3798.95 6620.73 3800.04 6617.86 3800.79 6614.88 3801.19 6613.28 3801.46 6611.25 3801.58 6608.79 3801.83 6603.96 3801.52 6596.1 3805.37 6592.88 3805.77 6592.54 3806.5 6592.05 3807.54 6591.42 3809.94 6589.97 3812.18 6588.3 3814.25 6586.42 3816.44 6584.43 3818.55 6581.54 3820.75 6579.11 3820.87 6578.97 3821.09 6578.96 3821.23 6579.09 3821.25 6579.1 3821.26 6579.12 3821.27 6579.13 3821.48 6579.41 3821.47 6579.73 3821.27 6580.12 3817.15 6587.72 3811.74 6593.79 3810.53 6602.43 3809.99 6606.29 3810.82 6610.16 3809.69 6613.9L3804.79 6624.3 3841.57 6619.98 3821.75 6593.39C3821.59 6593.2 3821.62 6592.91 3821.81 6592.75 3821.93 6592.64 3822.11 6592.62 3822.26 6592.68 3830.12 6595.79 3837.55 6599.43 3844.53 6603.58L3862.71 6616.57 3889.95 6612.17 3886.76 6590.89C3885.71 6580.67 3885.37 6570.79 3885.73 6561.27 3885.99 6554.61 3886.77 6554.55 3888.06 6561.09 3889.34 6567.63 3891.25 6574.69 3893.79 6582.28 3896.55 6590.49 3899.07 6597.58 3902.14 6604.12L3905.6 6609.64 3917.73 6607.68 3915.9 6543.46C3915.83 6543.15 3916.02 6542.84 3916.33 6542.77 3916.58 6542.71 3916.84 6542.82 3916.96 6543.05L3940.66 6604 3950.06 6602.5 3950.79 6590.29C3952.12 6579.39 3954.25 6568.61 3957.59 6558.32 3957.72 6557.93 3957.95 6557.86 3958.28 6558.1 3958.45 6558.21 3958.5 6558.38 3958.43 6558.59 3958.34 6558.89 3958.28 6559.05 3958.27 6559.09 3956.39 6570.48 3956.07 6582.54 3957.99 6594.27L3960.57 6600.81 3974.22 6598.62 3975 6586.2C3978.27 6572.89 3984.09 6560.28 3992.91 6549.56 3993.13 6549.31 3993.51 6549.27 3993.77 6549.48 3993.95 6549.63 3994.02 6549.87 3993.96 6550.09 3990.94 6560.27 3988.77 6572.29 3988.6 6584.21L3989.55 6596.16 3997.7 6594.85 3999.39 6572.73C4001.78 6558.18 4005.67 6543.86 4011.78 6529.15 4011.92 6528.86 4012.28 6528.74 4012.57 6528.88 4012.79 6528.99 4012.92 6529.23 4012.89 6529.48 4010.35 6544.82 4010.17 6564.38 4017.78 6579.19L4026.68 6590.2 4029.2 6589.8 4036.22 6527.47C4037.32 6522.92 4038.81 6518.44 4040.7 6514.02 4040.75 6513.9 4040.9 6513.86 4041.01 6513.91 4041.11 6513.96 4041.16 6514.06 4041.14 6514.16 4036.52 6534.94 4035.81 6555.92 4039.03 6577.08 4039.05 6577.22 4039.18 6577.31 4039.32 6577.29 4039.42 6577.28 4039.5 6577.2 4039.51 6577.09 4042.62 6560.17 4044.52 6543.11 4045.23 6525.93 4045.21 6525.71 4045.37 6525.51 4045.59 6525.49 4045.81 6525.47 4046 6525.64 4046.02 6525.86 4050.27 6543.38 4051.71 6561.12 4050.34 6579.08 4050.32 6579.34 4050.43 6579.42 4050.67 6579.32 4050.81 6579.27 4050.89 6579.17 4050.92 6579.03 4054.16 6561.69 4060.85 6539.05 4072.16 6525.21 4072.28 6525.05 4072.52 6525.03 4072.68 6525.16 4072.78 6525.25 4072.84 6525.4 4072.81 6525.54 4069.96 6538.23 4068.72 6551.1 4069.1 6564.13 4069.25 6569.14 4069.62 6569.16 4070.21 6564.18 4071.92 6549.75 4076.64 6536.37 4084.37 6524.05 4084.5 6523.88 4084.74 6523.85 4084.91 6523.99 4085.03 6524.08 4085.08 6524.24 4085.04 6524.39 4081.03 6534.8 4078.36 6545.58 4077.04 6556.71 4077.04 6556.88 4077.18 6557.02 4077.35 6557.02 4077.47 6557.02 4077.57 6556.96 4077.63 6556.86 4084.23 6540.64 4101.72 6527.84 4119.36 6536.62 4119.71 6536.8 4119.84 6537.23 4119.66 6537.58 4119.53 6537.81 4119.29 6537.96 4119.02 6537.95 4100.32 6537.25 4090.11 6550.68 4085.25 6566.08L4082.14 6581.3 4083.7 6581.05 4095.35 6570.57C4098.76 6566.13 4101.33 6561.06 4103.07 6555.36 4103.17 6555.05 4103.49 6554.89 4103.79 6554.98 4103.99 6555.05 4104.14 6555.21 4104.18 6555.41L4104.25 6577.74 4111.39 6576.47 4125.68 6555.76C4125.96 6555.43 4126.1 6555.02 4126.11 6554.59L4126.18 6537.54C4126.19 6537.27 4126.42 6537.05 4126.7 6537.07 4126.9 6537.07 4127.08 6537.2 4127.15 6537.39L4130.81 6548.63C4131.05 6549.34 4131.42 6549.43 4131.92 6548.88 4133.18 6547.57 4135.23 6545.43 4138.09 6542.47 4138.3 6542.25 4138.53 6542.15 4138.77 6542.18 4139.13 6542.21 4139.21 6542.37 4139.01 6542.67L4132.58 6552.29C4132.31 6552.68 4132.27 6553.19 4132.47 6553.62L4139.54 6568.64C4139.69 6568.92 4140.03 6569.04 4140.32 6568.9 4140.42 6568.84 4140.5 6568.77 4140.56 6568.67 4143.27 6563.81 4144.81 6558.61 4145.18 6553.09 4145.22 6552.82 4145.47 6552.62 4145.74 6552.66 4145.95 6552.68 4146.12 6552.84 4146.17 6553.04L4145.56 6570.37 4151.23 6569.36 4157.72 6549.68C4157.73 6549.37 4157.99 6549.13 4158.3 6549.14 4158.54 6549.15 4158.76 6549.32 4158.82 6549.55L4160.8 6555.66C4160.9 6555.94 4161.2 6556.09 4161.48 6555.99 4161.67 6555.93 4161.81 6555.75 4161.84 6555.55 4162.59 6547.34 4164.34 6539.34 4167.1 6531.56 4167.19 6531.35 4167.44 6531.25 4167.65 6531.34 4167.78 6531.4 4167.88 6531.53 4167.9 6531.67L4175.85 6564.83 4179.28 6564.02 4181.83 6537.31C4181.33 6525.79 4179.43 6514.32 4176.67 6503.61 4176.61 6503.39 4176.75 6503.17 4176.97 6503.11 4177.14 6503.07 4177.32 6503.14 4177.42 6503.29 4183.23 6512.68 4187.53 6522.71 4190.34 6533.39 4190.37 6533.56 4190.52 6533.66 4190.68 6533.63 4190.82 6533.6 4190.92 6533.48 4190.92 6533.34 4192.21 6519.53 4194.67 6505.93 4198.31 6492.55 4198.35 6492.32 4198.57 6492.17 4198.79 6492.21 4199 6492.25 4199.15 6492.44 4199.13 6492.66 4198.8 6511.83 4201.87 6530.45 4208.37 6548.49 4209.79 6552.42 4210.39 6552.34 4210.18 6548.24 4210.15 6547.6 4208.86 6544.36 4208.71 6542.98 4206.34 6522.47 4208.42 6502.48 4214.95 6483.04 4215 6482.85 4215.19 6482.73 4215.38 6482.79 4215.55 6482.84 4215.66 6483.01 4215.65 6483.18 4214.81 6503.71 4218.61 6523.34 4227.05 6542.09 4227.19 6542.41 4227.57 6542.56 4227.9 6542.41 4228.11 6542.31 4228.26 6542.1 4228.28 6541.86 4229.49 6522.69 4228.42 6503.65 4225.09 6484.76 4225.06 6484.59 4225.17 6484.44 4225.33 6484.42 4225.45 6484.4 4225.56 6484.45 4225.63 6484.55 4231.15 6493.76 4235.5 6503.48 4238.67 6513.73 4238.7 6513.87 4238.84 6513.97 4238.98 6513.94 4239.13 6513.92 4239.22 6513.78 4239.2 6513.63L4238.71 6489.6C4238.71 6489.21 4239.01 6488.9 4239.39 6488.9 4239.67 6488.89 4239.93 6489.06 4240.03 6489.32 4243.5 6498.04 4247.81 6506.32 4252.95 6514.15 4253.1 6514.37 4253.41 6514.43 4253.63 6514.28 4253.72 6514.21 4253.79 6514.12 4253.82 6514.01 4257.97 6499.09 4257.07 6484.4 4251.12 6469.95 4251.03 6469.71 4251.14 6469.44 4251.38 6469.34 4251.55 6469.27 4251.74 6469.3 4251.87 6469.42 4264.73 6480.65 4274.51 6494.14 4281.19 6509.89 4281.41 6510.43 4281.59 6510.42 4281.73 6509.85 4281.81 6509.52 4281.79 6509.2 4281.69 6508.9 4277.45 6496.01 4271.14 6483.04 4262.77 6470.01 4261.92 6468.66 4262.11 6468.49 4263.37 6469.48 4280.92 6483.22 4296.22 6502.78 4303.66 6522.95 4303.81 6523.32 4303.98 6523.34 4304.17 6523 4304.24 6522.88 4304.3 6522.73 4304.36 6522.54 4304.4 6522.42 4304.41 6522.28 4304.37 6522.12 4300.37 6503.48 4293.01 6486.12 4282.28 6470.04 4280.3 6467.07 4280.65 6466.76 4283.32 6469.12 4292.98 6477.65 4301.82 6486.95 4309.87 6496.99 4310.43 6497.7 4310.64 6497.61 4310.48 6496.72 4310.1 6494.48 4308.95 6491.6 4308.59 6490.13 4306.61 6482.28 4305.37 6473.97 4304.87 6465.17 4304.83 6464.96 4304.97 6464.74 4305.18 6464.7 4305.4 6464.66 4305.61 6464.8 4305.66 6465.01 4313.61 6486.46 4324.47 6506.24 4341.32 6522.11 4341.61 6522.37 4342.04 6522.35 4342.3 6522.07 4342.45 6521.91 4342.51 6521.69 4342.48 6521.48 4340.14 6507.46 4334.97 6496.06 4328.69 6483.32 4328.25 6482.44 4328.42 6482.3 4329.2 6482.9 4335.64 6487.86 4341.47 6493.45 4346.7 6499.66 4346.89 6499.89 4347.24 6499.92 4347.47 6499.73 4347.65 6499.58 4347.71 6499.35 4347.64 6499.13L4345.86 6493.81C4345.72 6493.37 4345.97 6492.89 4346.41 6492.75 4346.74 6492.64 4347.11 6492.75 4347.33 6493.03 4353.73 6501.22 4361.7 6507.42 4371.22 6511.61 4371.64 6511.8 4372.13 6511.61 4372.31 6511.19 4372.32 6511.17 4372.33 6511.15 4372.34 6511.12 4372.88 6509.53 4372.54 6508.13 4371.31 6506.94 4366.79 6502.55 4360.89 6495.23 4358.32 6488.7 4357.91 6487.65 4358.11 6487.52 4358.9 6488.3 4363.21 6492.51 4365.97 6495.77 4371.33 6498.91 4371.73 6499.14 4372.24 6499 4372.46 6498.6 4372.55 6498.44 4372.59 6498.26 4372.56 6498.08L4370.14 6482.04C4370.08 6481.61 4369.79 6481.24 4369.38 6481.06L4360.77 6477.29C4360.5 6477.21 4360.35 6476.91 4360.43 6476.64 4360.52 6476.37 4360.82 6476.22 4361.09 6476.3L4367.98 6477.78C4368.78 6477.95 4369.07 6477.64 4368.84 6476.86L4365.77 6465.82C4365.71 6465.63 4365.82 6465.42 4366.01 6465.36 4366.15 6465.32 4366.3 6465.37 4366.39 6465.48 4369.84 6469.6 4374.6 6479.66 4379.26 6480.87 4390.41 6483.72 4401.3 6488.6 4411.44 6493.93 4411.58 6494 4411.74 6493.94 4411.81 6493.8 4411.86 6493.7 4411.84 6493.58 4411.77 6493.49 4404.55 6486.3 4398.94 6478.02 4394.96 6468.63 4394.13 6466.65 4394.55 6466.33 4396.21 6467.66 4405.28 6474.89 4415.64 6478.34 4427.28 6478.01 4427.78 6478.01 4427.88 6477.8 4427.56 6477.4 4413.62 6460.1 4394.32 6448.55 4372.38 6461.27 4372.15 6461.41 4371.85 6461.34 4371.71 6461.11 4371.61 6460.95 4371.61 6460.76 4371.7 6460.6 4381.4 6442.66 4401.9 6445.62 4417 6453.83 4417.94 6454.35 4418.09 6454.18 4417.43 6453.33 4411.42 6445.53 4402.08 6436.88 4393.98 6432.04 4393.76 6431.88 4393.72 6431.58 4393.88 6431.36 4394 6431.19 4394.22 6431.12 4394.41 6431.18 4407.24 6436.82 4418.19 6444.97 4427.29 6455.64 4431.36 6460.43 4431.71 6460.17 4428.34 6454.86 4421.59 6444.23 4413.68 6434.56 4404.61 6425.85 4404.4 6425.64 4404.39 6425.3 4404.6 6425.08 4404.75 6424.92 4404.98 6424.88 4405.18 6424.96 4423.49 6432.36 4438.12 6444.45 4452.31 6457.96 4452.4 6458.04 4452.55 6458.03 4452.64 6457.94 4452.72 6457.86 4452.72 6457.74 4452.65 6457.65 4441.62 6443.5 4433.03 6427.97 4426.87 6411.07 4426.76 6410.87 4426.83 6410.63 4427.03 6410.52 4427.22 6410.42 4427.47 6410.49 4427.57 6410.68 4437.82 6424.93 4449.08 6438.33 4461.37 6450.87 4461.47 6450.96 4461.63 6450.96 4461.72 6450.87 4461.8 6450.8 4461.82 6450.68 4461.77 6450.59 4452.47 6432.35 4440.21 6412.42 4424.4 6399.09 4424.21 6398.92 4424.09 6398.73 4424.05 6398.53 4423.98 6398.15 4424.11 6398.06 4424.43 6398.26 4428.47 6400.77 4431.19 6402.65 4432.58 6403.89 4450.02 6419.37 4464.89 6436.88 4477.21 6456.41 4477.4 6456.71 4477.79 6456.8 4478.09 6456.62 4478.21 6456.54 4478.31 6456.41 4478.35 6456.27 4485.37 6434.53 4470.31 6410.72 4456.15 6395.41 4456 6395.24 4456.01 6394.98 4456.17 6394.82 4456.31 6394.7 4456.51 6394.68 4456.67 6394.77 4482.35 6411.02 4503.68 6434.75 4519.29 6460.42 4519.42 6460.64 4519.7 6460.71 4519.92 6460.58 4520.09 6460.49 4520.18 6460.29 4520.14 6460.1 4516.72 6437.23 4500.77 6417.13 4483.82 6402.49 4483.58 6402.27 4483.57 6401.89 4483.79 6401.65 4483.94 6401.49 4484.17 6401.42 4484.39 6401.48 4510.86 6409.7 4531.58 6430.85 4544.29 6454.81 4544.41 6455.06 4544.72 6455.16 4544.97 6455.02 4545.12 6454.93 4545.23 6454.78 4545.24 6454.6 4547.03 6431.27 4534.06 6407.34 4518.71 6390.6 4518.04 6389.87 4518.21 6389.61 4519.21 6389.8 4519.46 6389.85 4519.92 6390.18 4520.59 6390.79 4536.25 6404.9 4549.92 6420.81 4561.58 6438.54 4561.72 6438.7 4561.96 6438.73 4562.12 6438.59 4562.25 6438.49 4562.29 6438.33 4562.25 6438.18 4551.4 6411.13 4545.27 6383.05 4543.88 6353.95 4543.86 6353.65 4544.09 6353.39 4544.39 6353.37 4544.63 6353.35 4544.85 6353.49 4544.94 6353.72 4554.58 6378.01 4567.09 6401.45 4587.59 6418.46 4589.21 6419.81 4590.2 6419.44 4590.55 6417.37 4591.4 6412.34 4591.37 6406.81 4590.46 6400.76 4587.79 6382.88 4583.16 6365.68 4576.57 6349.13 4576.46 6348.86 4576.59 6348.55 4576.86 6348.43 4577.09 6348.34 4577.35 6348.42 4577.5 6348.62 4596.63 6375.13 4610.8 6405.95 4622.88 6436.24 4622.92 6436.44 4623.1 6436.56 4623.3 6436.52 4623.49 6436.48 4623.61 6436.29 4623.57 6436.09 4622.05 6403.52 4630.74 6370.21 4650.06 6343.53 4650.22 6343.3 4650.55 6343.24 4650.78 6343.4 4650.94 6343.51 4651.02 6343.69 4651 6343.88 4648.46 6371.31 4646.97 6398.8 4646.51 6426.35 4646.52 6426.48 4646.63 6426.58 4646.76 6426.58 4646.85 6426.58 4646.94 6426.52 4646.97 6426.43 4655.4 6401.07 4674.81 6381.61 4698.32 6369.34 4698.53 6369.24 4698.79 6369.34 4698.89 6369.55 4698.96 6369.7 4698.93 6369.88 4698.83 6370.01 4689.61 6380.12 4681.92 6392.69 4676.94 6406.23L4673.52 6431.8 4698.93 6427.35 4691.96 6414.64C4691.91 6414.47 4692 6414.3 4692.17 6414.25 4692.29 6414.21 4692.42 6414.26 4692.5 6414.36L4703.89 6426.48 4714.52 6424.62 4702.74 6384.82C4702.59 6382.58 4702.91 6382.51 4703.7 6384.61 4708.7 6397.83 4715.43 6410.09 4723.89 6421.4 4724.24 6421.86 4724.39 6421.8 4724.34 6421.22 4722.72 6401.65 4723.18 6382.14 4725.72 6362.68 4725.72 6362.53 4725.84 6362.4 4725.99 6362.4 4726.14 6362.4 4726.27 6362.52 4726.27 6362.67 4729.23 6381.39 4733.96 6399.66 4740.45 6417.47 4740.5 6417.58 4740.64 6417.64 4740.76 6417.58 4740.84 6417.55 4740.89 6417.46 4740.9 6417.37 4739.35 6380.25 4742.46 6343.53 4750.24 6307.22 4750.97 6303.82 4751.25 6303.85 4751.08 6307.33L4754.56 6352.33 4766.04 6358.44 4770.06 6322.64C4770.08 6322.6 4770.11 6322.58 4770.15 6322.59 4770.16 6322.59 4770.16 6322.59 4770.16 6322.6 4770.25 6322.65 4770.33 6322.7 4770.41 6322.76 4770.48 6322.81 4770.51 6322.87 4770.5 6322.95L4773.14 6363.75 4782.09 6371.38 4787.93 6379.53 4800.77 6353.01 4801.31 6352.94 4800.76 6350.22C4798.45 6338.71 4797.83 6326.83 4798.89 6314.57 4798.88 6314.37 4799.04 6314.21 4799.24 6314.2 4799.44 6314.19 4799.6 6314.35 4799.61 6314.54 4803.57 6338.02 4809 6360.76 4817.87 6382.89L4818.75 6384.69 4825.22 6360.86C4825.27 6360.64 4825.5 6360.49 4825.73 6360.54 4825.88 6360.57 4826.01 6360.69 4826.04 6360.85L4826.17 6362.05 4827.64 6352.74C4830.52 6340.35 4834.43 6328.09 4839.75 6316.34 4839.8 6316.2 4839.95 6316.12 4840.09 6316.17 4840.23 6316.21 4840.31 6316.37 4840.26 6316.51 4835.95 6335.4 4833.39 6354.56 4832.58 6374L4834.67 6401.61 4851.84 6377.75 4873.99 6357.94 4873.93 6357.89C4872.92 6357.17 4872.99 6357.04 4874.15 6357.48L4874.36 6357.61 4877.94 6354.41C4878.05 6354.31 4878.23 6354.32 4878.34 6354.43 4878.43 6354.54 4878.43 6354.7 4878.34 6354.81L4876.32 6358.75 4887.88 6365.47 4892.22 6369.91 4894.69 6368.58C4894.84 6368.52 4895.02 6368.59 4895.08 6368.74 4895.14 6368.87 4895.09 6369.03 4894.97 6369.11L4893.05 6370.76 4899.24 6377.08 4902.19 6382.56 4902.35 6382.38 4910.31 6376.38 4906.37 6356.75C4904.82 6349.04 4904.4 6341.08 4905.11 6332.87 4905.11 6332.74 4905.21 6332.63 4905.35 6332.62 4905.48 6332.62 4905.59 6332.72 4905.6 6332.85 4908.25 6348.57 4911.88 6363.81 4917.82 6378.63 4918.27 6379.74 4919.06 6381.35 4920.2 6383.45 4920.32 6383.67 4920.4 6383.65 4920.42 6383.4 4922 6366.89 4925.35 6349.8 4932.48 6334.06 4932.51 6333.96 4932.61 6333.91 4932.71 6333.94 4932.8 6333.97 4932.85 6334.08 4932.82 6334.17 4929.93 6346.82 4928.22 6359.66 4927.68 6372.67L4927.69 6372.9 4928.92 6370.58C4929.06 6370.62 4928.87 6371.6 4928.34 6373.51L4927.86 6375.05 4929.38 6395.11C4929.39 6395.18 4929.45 6395.22 4929.52 6395.21 4929.56 6395.2 4929.59 6395.17 4929.61 6395.14 4932.42 6387.74 4936.47 6381.1 4941.75 6375.22 4941.82 6375.14 4941.94 6375.13 4942.01 6375.2 4942.07 6375.25 4942.09 6375.34 4942.06 6375.41 4938.7 6383.99 4936.34 6392.84 4934.96 6401.95 4934.96 6402.03 4935.02 6402.1 4935.1 6402.11L4935.16 6402.08 4944.08 6387.64C4944.14 6387.54 4944.26 6387.51 4944.36 6387.57 4944.42 6387.61 4944.46 6387.68 4944.46 6387.76L4943.32 6390.87 4949.36 6382.52 4953.27 6379.87 4944.84 6369.42C4937.22 6358.75 4936.13 6348.01 4934.79 6335.14 4933.95 6327.12 4931.79 6319.58 4928.31 6312.49 4928.22 6312.33 4928.28 6312.12 4928.45 6312.04 4928.6 6311.96 4928.79 6312 4928.89 6312.14 4932.59 6317.01 4936.19 6323.07 4939.25 6327.19 4944.44 6334.2 4949.58 6340.14 4954.68 6345 4960.31 6350.37 4965.57 6354.81 4969.13 6361.05 4975.02 6371.38 4977.15 6384.16 4979.25 6395.74 4979.27 6395.85 4979.38 6395.92 4979.49 6395.89 4979.57 6395.87 4979.63 6395.8 4979.64 6395.72L4976.12 6346.69 4969.73 6344.05C4969.62 6344.04 4969.55 6343.95 4969.56 6343.84 4969.57 6343.74 4969.66 6343.66 4969.77 6343.67L4975.89 6343.43 4973.68 6312.71C4971.15 6300.31 4968.38 6288.08 4965.36 6276.02 4965.19 6275.32 4964.76 6274.89 4964.07 6274.7 4959.07 6273.37 4958.49 6276.38 4958.04 6280.48 4957.62 6284.38 4957.06 6287 4956.36 6288.33 4953.73 6293.4 4950.9 6298.58 4951.43 6304.47 4951.48 6304.98 4951.11 6305.44 4950.6 6305.49 4950.29 6305.52 4949.99 6305.39 4949.79 6305.15 4945.77 6300.25 4939.98 6290.77 4941.93 6284.56 4942.75 6281.96 4944.88 6279.19 4946.44 6276.66 4946.61 6276.38 4946.55 6276.18 4946.25 6276.04 4939.25 6272.88 4931.95 6271.84 4924.33 6272.94 4918.74 6273.74 4917.31 6279.99 4911.54 6281.11 4909.37 6281.53 4907.06 6281.6 4904.6 6281.34 4904.16 6281.29 4903.85 6280.9 4903.9 6280.46 4903.92 6280.29 4903.99 6280.13 4904.11 6280 4906.04 6277.97 4907.27 6276.01 4907.89 6273.11 4908.63 6269.66 4909.1 6265.81 4911.19 6263.09 4914.82 6258.37 4920.1 6257.19 4926.04 6255.87 4926.46 6255.78 4926.48 6255.62 4926.11 6255.41 4923.59 6253.95 4921.16 6252.4 4918.82 6250.76 4914.92 6248.02 4911.48 6247.32 4906.98 6247.79 4906.56 6247.83 4906.19 6247.53 4906.14 6247.11 4906.11 6246.83 4906.25 6246.55 4906.49 6246.4 4910.05 6244.19 4913.57 6241.86 4917.07 6239.43 4919.78 6237.54 4921.96 6236.39 4923.61 6235.95 4929.11 6234.51 4933.51 6236.1 4939.47 6238.51 4939.88 6238.68 4939.96 6238.57 4939.73 6238.2 4937.2 6234.11 4934.61 6227.12 4935.14 6222.5 4935.62 6218.21 4939.32 6216.91 4942.49 6214.84 4943.16 6214.4 4943.88 6213.65 4944.67 6212.58 4947.75 6208.42 4951.74 6211.34 4954.46 6214.31 4960.03 6220.39 4965.34 6224.37 4966.06 6233.25 4966.07 6233.37 4966.18 6233.47 4966.31 6233.46 4966.4 6233.45 4966.47 6233.4 4966.5 6233.31 4967.46 6230.97 4968.63 6228.34 4970.3 6226.58 4974.29 6222.4 4980.07 6223.01 4984.53 6226.15 4989.38 6229.58 4993.94 6236.82 5000.24 6235.16 5000.46 6235.1 5000.7 6235.23 5000.76 6235.46 5000.8 6235.59 5000.77 6235.73 5000.69 6235.84 4999.01 6238.05 4997 6242.06 4993.69 6241.3 4989.2 6240.27 4980.25 6237.77 4976.77 6243.34 4976.57 6243.66 4976.65 6243.79 4977.02 6243.74 4984.48 6242.78 4993.94 6244.29 4998.01 6251.45 4998.17 6251.72 4998.1 6251.91 4997.8 6252.02 4992.31 6254 4985.85 6253.06 4980.68 6254.62 4974.12 6256.6 4970.5 6265.56 4969.2 6271.66 4968.9 6273.06 4968.94 6274.55 4969.32 6276.13 4971.03 6283.28 4972.75 6290.42 4974.47 6297.56L4981.37 6343.21 4987.09 6342.98 4988.34 6338.3C4988.42 6337.83 4988.27 6337.34 4987.92 6337 4985.17 6334.28 4984.74 6331.43 4984.52 6327.19 4984.2 6320.56 4981.01 6314.13 4978.56 6308.04 4976.83 6303.73 4975.99 6297.65 4976.74 6293.79 4978.24 6286.05 4978.89 6278.31 4978.67 6270.57 4978.68 6270.32 4978.88 6270.11 4979.13 6270.12 4979.33 6270.12 4979.49 6270.24 4979.56 6270.42 4982.21 6279.14 4979.7 6288.1 4981.05 6296.97 4982.21 6304.61 4986.82 6310.3 4987.83 6317.63 4988.36 6321.46 4988.9 6325.32 4989.46 6329.22 4989.46 6329.33 4989.55 6329.42 4989.66 6329.42 4989.78 6329.41 4989.86 6329.32 4989.86 6329.21L4991.05 6310.95C4991.07 6310.65 4991 6310.37 4990.84 6310.11 4987.02 6304.22 4984.69 6300.22 4985.33 6292.83 4986.08 6284.19 4988.62 6275.98 4992.95 6268.2 4993.29 6267.58 4994.07 6267.36 4994.68 6267.7 4994.91 6267.83 4995.09 6268.02 4995.2 6268.25 4999.46 6276.81 4999.86 6287.46 4999.16 6296.8L4999.12 6296.87 5011.87 6303.76 5022.26 6290.47C5022.41 6290.23 5022.72 6290.17 5022.96 6290.31 5023.13 6290.42 5023.22 6290.62 5023.19 6290.82 5022.45 6296.67 5020.7 6301.02 5017.36 6306.42L5017.22 6306.65 5022.63 6309.58 5026 6305.96C5028.26 6303.29 5030.52 6300.49 5032.83 6297.94 5033.09 6297.65 5033.55 6297.63 5033.84 6297.89 5033.88 6297.92 5033.91 6297.96 5033.93 6297.99 5034.36 6298.56 5034.35 6299.25 5033.92 6300.06L5026.84 6311.86 5028.09 6312.53C5037.91 6319.55 5046.74 6327.74 5054.59 6337.11L5067.8 6355.75 5069.41 6354.99 5060.18 6293.21C5059.13 6282.99 5058.78 6273.12 5059.15 6263.59 5059.41 6256.93 5060.18 6256.88 5061.47 6263.42 5062.75 6269.96 5064.66 6277.02 5067.21 6284.6 5072.73 6301.02 5077.29 6312.98 5087.16 6324.98 5087.42 6325.28 5087.87 6325.33 5088.17 6325.08 5088.24 6325.03 5088.29 6324.96 5088.34 6324.88 5089.79 6322.37 5090.8 6319.88 5091.35 6317.41 5096.71 6293.6 5094.32 6269.37 5089.31 6245.79 5089.24 6245.48 5089.43 6245.17 5089.74 6245.09 5089.99 6245.04 5090.25 6245.15 5090.38 6245.37 5105.31 6270.23 5115.67 6296.89 5121.46 6325.34 5121.52 6325.56 5121.74 6325.68 5121.95 6325.63 5122.11 6325.58 5122.23 6325.44 5122.24 6325.28 5122.47 6303.76 5124.33 6281.23 5131.01 6260.65 5131.14 6260.26 5131.37 6260.18 5131.7 6260.42 5131.87 6260.54 5131.92 6260.7 5131.85 6260.92 5131.75 6261.21 5131.7 6261.38 5131.69 6261.41 5129.81 6272.81 5129.48 6284.87 5131.4 6296.6L5144.5 6329.65 5145.86 6329.3 5148.41 6288.52C5151.68 6275.22 5157.51 6262.61 5166.33 6251.88 5166.54 6251.63 5166.93 6251.6 5167.18 6251.81 5167.36 6251.96 5167.44 6252.2 5167.37 6252.42 5161.34 6272.76 5158.68 6300.5 5168.7 6320.08 5169.14 6320.96 5169.38 6320.9 5169.39 6319.92 5169.63 6288.78 5172.98 6260.9 5185.19 6231.47 5185.34 6231.18 5185.69 6231.06 5185.98 6231.21 5186.21 6231.32 5186.34 6231.56 5186.31 6231.8 5182.91 6252.26 5183.73 6280.21 5201.6 6294.4 5201.81 6294.58 5202.12 6294.54 5202.29 6294.34 5202.36 6294.25 5202.4 6294.14 5202.4 6294.03 5202.07 6272.38 5204.48 6250.97 5209.63 6229.79 5210.74 6225.25 5212.23 6220.77 5214.11 6216.35 5214.17 6216.23 5214.31 6216.18 5214.43 6216.24 5214.52 6216.29 5214.57 6216.39 5214.56 6216.49 5209.93 6237.27 5209.23 6258.24 5212.44 6279.41 5212.47 6279.54 5212.6 6279.64 5212.73 6279.62 5212.83 6279.61 5212.91 6279.53 5212.92 6279.42 5216.03 6262.5 5217.94 6245.44 5218.64 6228.25 5218.62 6228.03 5218.78 6227.84 5219 6227.82 5219.22 6227.8 5219.42 6227.96 5219.44 6228.18L5223.27 6275.43 5226.63 6272.83 5231.93 6253.13C5235.42 6243.58 5239.92 6234.46 5245.57 6227.54 5245.7 6227.38 5245.93 6227.35 5246.09 6227.49 5246.2 6227.58 5246.25 6227.73 5246.22 6227.87L5243.12 6260.09 5246.92 6257.16 5256.08 6231.2 5251.91 6228.87C5251.82 6228.86 5251.76 6228.78 5251.78 6228.69 5251.79 6228.6 5251.87 6228.55 5251.96 6228.56L5256.96 6228.7 5257.78 6226.38C5257.91 6226.21 5258.15 6226.18 5258.32 6226.31 5258.44 6226.41 5258.49 6226.57 5258.45 6226.71L5257.95 6228.73 5268.12 6229.02C5273.51 6229.66 5278.84 6230.78 5284.01 6232.4L5290.24 6235.08 5301.52 6231.2 5275.45 6190.71C5275.33 6190.54 5275.37 6190.31 5275.53 6190.19 5275.64 6190.11 5275.79 6190.1 5275.91 6190.16 5288.44 6196.14 5299.41 6203.73 5308.83 6212.93L5318 6225.53 5318.7 6225.29 5331.23 6222.23 5328.84 6192.31C5328.55 6183.88 5328.82 6175.78 5329.65 6168 5330.24 6162.56 5330.88 6162.55 5331.57 6167.98 5332.25 6173.41 5333.42 6179.3 5335.08 6185.66 5336.88 6192.53 5338.54 6198.48 5340.68 6204.01L5348.22 6218.09 5351.33 6217.33 5351.71 6216.56 5350.08 6205.94C5350.03 6205.72 5350.16 6205.49 5350.38 6205.44 5350.56 6205.39 5350.74 6205.47 5350.83 6205.62L5353.13 6210.96 5355.36 6155.11C5355.32 6154.85 5355.5 6154.6 5355.75 6154.56 5355.96 6154.53 5356.17 6154.64 5356.26 6154.83L5370.63 6200.93 5371.73 6194.87C5371.77 6194.65 5371.98 6194.5 5372.21 6194.54 5372.42 6194.58 5372.57 6194.77 5372.55 6194.98L5375.41 6212.29 5379.23 6211.52 5381.31 6195.42C5383.01 6186.57 5385.36 6177.86 5388.68 6169.62 5388.8 6169.3 5389 6169.26 5389.25 6169.47 5389.39 6169.57 5389.42 6169.71 5389.35 6169.89 5389.25 6170.12 5389.2 6170.26 5389.19 6170.28L5387.11 6197.37 5388.36 6185.36C5388.41 6185.17 5388.61 6185.06 5388.8 6185.12 5388.97 6185.17 5389.08 6185.33 5389.07 6185.51L5393.54 6208.63 5393.81 6208.58 5399.53 6207.38 5399.6 6206.79 5398.5 6187.08C5398.48 6186.92 5398.59 6186.77 5398.75 6186.74 5398.86 6186.72 5398.98 6186.77 5399.04 6186.87L5401.71 6192.83 5418.1 6164.42C5418.29 6164.23 5418.6 6164.22 5418.8 6164.41 5418.94 6164.54 5418.99 6164.74 5418.92 6164.92L5412.91 6191.29 5413.44 6191.65 5419.31 6202.93 5422.1 6183.76 5424.78 6176.29 5424.54 6172.28C5424.44 6172.04 5424.56 6171.76 5424.8 6171.66 5424.96 6171.59 5425.15 6171.63 5425.29 6171.75L5426.1 6172.63 5434.69 6148.77C5434.82 6148.54 5435.12 6148.46 5435.35 6148.59 5435.53 6148.69 5435.62 6148.9 5435.59 6149.1 5433.62 6157.38 5432.41 6167.26 5433.43 6176.64L5434.81 6182.15 5442.26 6190.29 5445.98 6196.9 5446.02 6196.89 5446.6 6193.73 5436.19 6172.34C5435.33 6170.99 5435.53 6170.81 5436.79 6171.8L5448.44 6183.64 5454.8 6148.76C5455.96 6145.1 5457.44 6141.51 5459.22 6138 5459.28 6137.91 5459.4 6137.88 5459.49 6137.93 5459.56 6137.97 5459.6 6138.06 5459.58 6138.14L5456.21 6171.09 5456.73 6171.45 5457.8 6172.57 5462.27 6148.01C5462.26 6147.83 5462.41 6147.67 5462.59 6147.67 5462.77 6147.67 5462.92 6147.81 5462.92 6147.99L5463.3 6178.34 5467.18 6182.42 5471.75 6169.13C5475.15 6161.5 5479.34 6154.28 5484.36 6148.93 5484.48 6148.81 5484.67 6148.8 5484.79 6148.92 5484.88 6149 5484.91 6149.12 5484.88 6149.24L5481.15 6171.73 5482.89 6175.4 5494.43 6148.67C5494.54 6148.54 5494.74 6148.53 5494.87 6148.64 5494.97 6148.73 5495 6148.86 5494.96 6148.98 5491.09 6157.29 5488.3 6165.96 5486.6 6175.01 5486.59 6175.15 5486.69 6175.27 5486.83 6175.28 5486.93 6175.29 5487.02 6175.24 5487.07 6175.16 5493.39 6162.24 5508.42 6152.75 5522.38 6160.92 5522.66 6161.09 5522.74 6161.45 5522.57 6161.73 5522.46 6161.91 5522.25 6162.02 5522.03 6162 5506.75 6160.38 5497.64 6170.8 5492.8 6183.14L5492.76 6183.28 5505.82 6178.98 5507.99 6175.36C5508.09 6175.11 5508.36 6175 5508.6 6175.09 5508.76 6175.15 5508.87 6175.3 5508.9 6175.46L5508.73 6178.03 5527.19 6171.97 5527.91 6162.07C5527.94 6161.84 5528.14 6161.68 5528.37 6161.7 5528.53 6161.72 5528.67 6161.84 5528.72 6162L5530.92 6170.74 5534.2 6169.67 5537.39 6166.77C5537.58 6166.6 5537.77 6166.54 5537.97 6166.57 5538.26 6166.62 5538.32 6166.75 5538.14 6166.98L5536.7 6168.85 5539.26 6168.01 5539.43 6167.69C5539.57 6167.65 5539.71 6167.69 5539.8 6167.81L5539.81 6167.82 5561.4 6160.74 5561.77 6159.46C5561.86 6159.3 5562.06 6159.23 5562.23 6159.31 5562.34 6159.37 5562.41 6159.48 5562.41 6159.6L5562.54 6160.36 5566.63 6159.02 5561.71 6158.32C5556.6 6158.75 5551.28 6160.41 5545.79 6163.59 5545.56 6163.73 5545.26 6163.66 5545.12 6163.43 5545.03 6163.28 5545.02 6163.09 5545.12 6162.93 5550.57 6152.84 5559.45 6149.36 5568.85 6149.7L5572.27 6150.25 5571.18 6137.26 5567.39 6134.37C5567.17 6134.21 5567.13 6133.9 5567.29 6133.69 5567.42 6133.52 5567.63 6133.45 5567.83 6133.51 5574.24 6136.33 5580.18 6139.77 5585.66 6143.85L5585.8 6143.98 5587.02 6139.17 5578.03 6128.18C5577.81 6127.97 5577.81 6127.62 5578.01 6127.41 5578.16 6127.25 5578.39 6127.2 5578.59 6127.28L5588.59 6132.94 5589.52 6129.26C5589.57 6129.08 5589.75 6128.97 5589.93 6129.02 5590.1 6129.06 5590.21 6129.22 5590.19 6129.4L5590.64 6134.1 5600.66 6139.77 5603.68 6122.41C5603.73 6122.25 5603.9 6122.17 5604.05 6122.23 5604.18 6122.29 5604.27 6122.42 5604.25 6122.57L5606.92 6144.24 5608.43 6145.53 5611.63 6144.52 5611.76 6134.14 5600.28 6113.39C5600.18 6113.2 5600.25 6112.95 5600.44 6112.85 5600.64 6112.74 5600.88 6112.82 5600.99 6113.01L5611.87 6125.95 5611.89 6124.39C5611.88 6124.25 5611.97 6124.13 5612.11 6124.12 5612.2 6124.11 5612.29 6124.16 5612.34 6124.24L5613.82 6128.26 5622.32 6138.38 5622.65 6131.63 5618.94 6125.33C5612.74 6116.4 5605.72 6108.08 5597.82 6101.42 5597.62 6101.24 5597.5 6101.05 5597.46 6100.86 5597.4 6100.48 5597.53 6100.39 5597.85 6100.59 5601.89 6103.1 5604.6 6104.98 5606 6106.21 5614.72 6113.95 5622.79 6122.2 5630.23 6130.96L5633.88 6135.93 5634.04 6113.73C5633.97 6113.52 5634.08 6113.3 5634.29 6113.23 5634.43 6113.19 5634.58 6113.22 5634.69 6113.33L5647.14 6133.26 5649.27 6132.58 5648.75 6127.21 5647.07 6123.06 5640 6110.65C5636.7 6105.92 5633.11 6101.56 5629.57 6097.74 5629.41 6097.57 5629.42 6097.31 5629.59 6097.15 5629.73 6097.02 5629.93 6097 5630.09 6097.1 5636.51 6101.16 5642.65 6105.69 5648.51 6110.6L5662.39 6123.75 5659.55 6115.54C5658.1 6113 5658.4 6112.77 5660.46 6114.85L5669.77 6126.08 5674.96 6124.44 5657.24 6104.82C5657 6104.59 5656.98 6104.22 5657.21 6103.98 5657.36 6103.82 5657.59 6103.75 5657.8 6103.81 5664.42 6105.87 5670.68 6108.73 5676.54 6112.24L5678.39 6113.63 5678.33 6112.83C5678.3 6112.65 5678.43 6112.48 5678.61 6112.46 5678.79 6112.43 5678.96 6112.56 5678.98 6112.74L5679.72 6114.64 5687.47 6120.47 5692.3 6118.94 5706.98 6115.2 5692.12 6092.93C5691.45 6092.2 5691.62 6091.93 5692.63 6092.13 5692.88 6092.17 5693.34 6092.5 5694.01 6093.12L5713.86 6113.45 5728.93 6109.61 5717.29 6056.27C5717.27 6055.97 5717.5 6055.71 5717.8 6055.69 5718.04 6055.67 5718.27 6055.82 5718.35 6056.05 5723.17 6068.19 5728.71 6080.12 5735.61 6091.15L5746.73 6104.12 5750.95 6103.19 5754.45 6103.85 5763.62 6102.15 5762.81 6099.15 5753.17 6090.7C5753 6090.55 5752.98 6090.3 5753.12 6090.13 5753.24 6090 5753.42 6089.96 5753.57 6090.02L5761.86 6095.61 5749.99 6051.46C5749.87 6051.19 5750 6050.87 5750.27 6050.76 5750.5 6050.66 5750.77 6050.74 5750.91 6050.95 5760.48 6064.2 5768.8 6078.54 5776.24 6093.34L5776.93 6094.89 5782.51 6098.57 5782.57 6098.63 5791.39 6097 5781.28 6075.36C5781.21 6075.2 5781.28 6075 5781.45 6074.93 5781.61 6074.85 5781.81 6074.92 5781.88 6075.09L5797.19 6096.05 5800.66 6095.71 5795.89 6086.18C5791.32 6078.52 5786.04 6071.32 5779.94 6065.42 5779.79 6065.26 5779.7 6065.1 5779.68 6064.94 5779.65 6064.62 5779.76 6064.56 5780.01 6064.74 5783.18 6067.02 5785.3 6068.71 5786.37 6069.81L5802.26 6091.33 5802.42 6089.93 5809.28 6075.56 5808.54 6076.26C5807.5 6078.88 5805.94 6081.31 5803.86 6083.57 5803.66 6083.78 5803.33 6083.8 5803.11 6083.6 5803.02 6083.51 5802.96 6083.39 5802.94 6083.26 5802.8 6081.52 5803.01 6079.77 5803.57 6077.99L5807.08 6065.78 5806.15 6064.18C5806.03 6064.04 5806.05 6063.82 5806.2 6063.71 5806.32 6063.61 5806.48 6063.6 5806.61 6063.69L5812.33 6069.18 5818.58 6056.11 5818.53 6054.85C5818.58 6053.74 5818.29 6052.72 5817.67 6051.78 5815.51 6048.5 5812.23 6043.91 5808.73 6041.06 5807.74 6040.26 5806.95 6039.5 5806.36 6038.77 5805.08 6037.19 5803.86 6035.44 5802.24 6034.79 5802.1 6034.73 5801.99 6034.77 5801.91 6034.91L5794.37 6048.98C5794.26 6049.18 5794.01 6049.25 5793.81 6049.15 5793.67 6049.07 5793.59 6048.92 5793.6 6048.76 5793.82 6045.06 5794.26 6041.28 5794.93 6037.41 5795.58 6033.66 5796.94 6030.58 5799.01 6028.18 5799.12 6028.06 5799.24 6028.02 5799.4 6028.04L5802.79 6028.59C5802.94 6028.61 5803.09 6028.69 5803.2 6028.81 5806.09 6032.08 5809.5 6035.3 5812.11 6038.35 5814.94 6041.65 5816.68 6043.85 5817.34 6044.96 5818.06 6046.17 5818.56 6047.44 5818.84 6048.76 5818.86 6048.84 5818.94 6048.89 5819.01 6048.87 5819.07 6048.86 5819.11 6048.81 5819.12 6048.75 5819.52 6044.96 5819.98 6041.26 5820.53 6037.67 5820.68 6036.65 5820.6 6035.84 5820.28 6035.23 5819.64 6034.01 5818.54 6033.29 5816.98 6033.09 5816.73 6033.05 5816.55 6032.82 5816.59 6032.57 5816.6 6032.5 5816.62 6032.43 5816.66 6032.38 5817.47 6031.18 5818.61 6030.59 5820.08 6030.6 5820.24 6030.6 5820.36 6030.48 5820.36 6030.32 5820.36 6030.32 5820.36 6030.32 5820.36 6030.32 5820.33 6027.8 5819.82 6025.42 5818.83 6023.16 5818.11 6021.53 5817.7 6020.63 5817.58 6020.46 5816.26 6018.65 5813.07 6019.68 5811.1 6019.85 5810.05 6019.94 5808.96 6019.86 5807.82 6019.6 5805.33 6019.04 5802.87 6018.48 5800.44 6017.93 5800.17 6017.87 5799.99 6017.61 5800.03 6017.33 5800.48 6014.64 5801.51 6012.81 5803.73 6010.96 5806.49 6008.67 5809.26 6005 5813.39 6005.89 5813.65 6005.95 5813.71 6005.86 5813.57 6005.64 5812.28 6003.58 5810.01 6003.34 5807.67 6003.11 5805.58 6002.9 5803.95 6001.93 5801.62 6002.38 5801.44 6002.42 5801.27 6002.31 5801.24 6002.13 5801.23 6002.07 5801.23 6002 5801.26 6001.94 5802.52 5999.08 5804.71 5996.96 5807.84 5996.42 5808.6 5996.29 5809.46 5996.04 5810.42 5995.68 5814.5 5994.15 5818.3 5994.71 5821.83 5997.37 5821.98 5997.49 5822.09 5997.45 5822.13 5997.26 5822.35 5996.31 5822.48 5995.43 5823.1 5994.64 5824.49 5992.85 5825.75 5990.99 5826.9 5989.07 5826.94 5989 5827.02 5988.98 5827.08 5989.02Z" fill="#013647" fill-rule="evenodd"/></g></svg>