<svg width="6600" height="1660" xmlns="http://www.w3.org/2000/svg" xmlns:xlink="http://www.w3.org/1999/xlink" overflow="hidden"><defs><clipPath id="clip0"><rect x="0" y="2520" width="6600" height="1660"/></clipPath><linearGradient x1="3300" y1="4180" x2="3300" y2="2520" gradientUnits="userSpaceOnUse" spreadMethod="reflect" id="fill1"><stop offset="0" stop-color="#FFFFFF"/><stop offset="0.42" stop-color="#FFFFFF"/><stop offset="0.94" stop-color="#02A6D9"/><stop offset="1" stop-color="#02A6D9"/></linearGradient></defs><g clip-path="url(#clip0)" transform="matrix(1 0 0 1 0 -2520)"><path d="M3322.43 2552.1C3322.03 2552.04 3321.63 2552.22 3321.41 2552.57 3316.98 2560.48 3310.88 2580.82 3313.86 2590.96 3314.87 2594.39 3317.21 2595.71 3320.89 2594.93 3321.59 2594.78 3322.06 2594.11 3321.97 2593.38 3320.13 2579.95 3320.57 2566.58 3323.28 2553.26 3323.37 2552.7 3322.99 2552.18 3322.43 2552.1ZM3325.01 2520.03C3326.16 2520.21 3327.02 2521.16 3327.09 2522.32 3327.73 2530.13 3330.19 2536.84 3334.48 2542.46 3338.58 2547.84 3336.84 2550.76 3338.81 2556.05 3343.49 2568.73 3345.58 2581.91 3345.08 2595.58 3345.04 2596.92 3345.68 2597.57 3347.02 2597.55L3366.88 2597.42C3368.21 2597.4 3368.88 2598.05 3368.88 2599.39 3368.91 2607.49 3368.95 2615.6 3368.98 2623.7 3368.98 2625.04 3368.32 2625.77 3367.01 2625.9 3357.75 2626.72 3340.75 2622.32 3341.08 2637.84 3342.09 2686.83 3345.24 2742.38 3346.85 2784.54 3350.79 2886.95 3354.84 2988.98 3359 3090.62 3359.07 3092.45 3360.58 3093.89 3362.41 3093.87 3373.07 3093.83 3383.45 3092.12 3393.56 3088.75 3394.7 3088.38 3395.27 3087.6 3395.27 3086.42 3395.32 3077.63 3395.36 3068.84 3395.4 3060.04 3395.43 3058.49 3396.21 3057.75 3397.77 3057.81 3408.11 3058.27 3413.13 3057.09 3421.4 3049.77 3426.92 3044.88 3433.33 3041.56 3440.64 3039.83 3441.84 3039.55 3442.66 3038.44 3442.57 3037.21 3442.27 3032.51 3444.12 3029.04 3448.12 3026.81 3449.24 3026.2 3450.2 3026.38 3451.01 3027.37 3453.37 3030.27 3454.52 3033.62 3454.46 3037.41 3454.44 3039.42 3455.73 3041.21 3457.64 3041.83 3474.97 3047.41 3474.74 3063.52 3496.25 3064.21 3497.45 3064.26 3498.05 3064.88 3498.05 3066.08 3498.03 3074.7 3497.51 3083.18 3496.51 3091.51 3496.27 3093.54 3496.58 3094.95 3497.46 3095.74 3498.14 3096.31 3498.97 3096.51 3499.96 3096.33 3500.9 3096.16 3501.82 3096.26 3502.71 3096.63L3516.2 3102.21C3517.52 3102.75 3518.22 3102.3 3518.31 3100.86 3522.03 3036.11 3525.73 2971.4 3529.43 2906.72 3529.7 2901.91 3532.77 2896.26 3538.66 2889.76 3539.4 2888.93 3540.32 2888.68 3541.41 2889 3546.8 2890.62 3550.63 2888.93 3552.9 2883.92 3553.4 2882.86 3554.49 2882.21 3555.63 2882.31L3608.05 2887.04 3621.25 2888.25C3622.56 2888.38 3623.18 2889.1 3623.12 2890.42L3622.96 2894.42C3622.9 2895.7 3623.86 2896.79 3625.12 2896.88L3638.22 2897.93C3640.21 2898.09 3641.7 2899.81 3641.57 2901.8L3626.71 3114.29 3632.86 3114.29 3651.28 2873.65C3651.35 2872.79 3651.96 2872.08 3652.79 2871.88 3657.04 2870.98 3661.41 2870.66 3665.89 2870.93 3668.81 2871.06 3671.28 2868.81 3671.42 2865.9 3671.54 2863.48 3669.99 2861.29 3667.66 2860.59L3635.95 2851.47C3633.99 2850.93 3632.86 2848.89 3633.42 2846.93 3633.73 2845.81 3634.55 2844.91 3635.63 2844.48 3649.15 2839.17 3673.8 2841.92 3688.57 2842.45 3689.84 2842.49 3690.59 2841.88 3690.81 2840.61L3693.56 2823.84C3694.22 2819.86 3694.76 2819.88 3695.17 2823.91L3695.99 2831.85C3696.12 2833.04 3697.07 2833.98 3698.26 2834.11L3718.45 2836.31C3719.56 2836.42 3720.17 2835.92 3720.25 2834.8L3721.21 2824.01C3721.42 2821.56 3721.95 2821.49 3722.78 2823.81 3724.03 2827.4 3724.32 2831.04 3723.67 2834.74 3723.43 2836.11 3724.01 2836.88 3725.41 2837.03L3745.36 2839.07C3746.61 2839.2 3747.3 2838.64 3747.43 2837.39L3748.52 2827.26C3748.65 2826.1 3748.95 2826.04 3749.44 2827.09 3750.9 2830.26 3751.24 2833.57 3750.45 2837 3750.06 2838.64 3750.7 2839.57 3752.39 2839.79L3801.53 2845.79C3802.65 2845.92 3803.34 2845.44 3803.6 2844.35 3804.43 2841.05 3804.7 2837.77 3804.42 2834.51 3804.35 2833.85 3804.43 2833.37 3804.65 2833.06 3804.89 2832.74 3805.22 2832.55 3805.63 2832.5 3806.38 2832.42 3806.72 2832.75 3806.65 2833.49L3801.56 2885.03C3801.39 2886.78 3800.44 2887.55 3798.71 2887.33L3787.48 2886.02C3785.82 2885.82 3784.91 2886.57 3784.76 2888.25 3780.6 2932.7 3776.64 2976.6 3772.87 3019.95 3772.68 3022.09 3773.44 3023.14 3775.17 3023.1 3775.9 3023.06 3776.52 3022.56 3776.71 3021.85 3777.74 3017.83 3780.49 3016.44 3784.95 3017.69 3786.03 3018 3787.16 3017.36 3787.48 3016.27 3787.51 3016.15 3787.53 3016.03 3787.55 3015.91L3791.42 2976.15C3791.55 2974.75 3792.32 2974.12 3793.72 2974.28L3803.27 2975.33C3804.3 2975.44 3805.23 2974.72 3805.4 2973.69L3806.16 2969.16C3806.33 2968.09 3806.96 2967.63 3808.03 2967.78L3830.09 2970.87C3831.12 2971.02 3831.89 2971.89 3831.93 2972.93 3831.98 2974.39 3832.04 2975.84 3832.09 2977.3 3832.14 2978.81 3832.91 2979.66 3834.42 2979.86L3842.1 2980.87C3843.57 2981.07 3844.24 2981.9 3844.11 2983.37L3831.04 3111.16C3830.9 3112.68 3832.01 3114.02 3833.52 3114.17 3834.64 3114.27 3835.71 3113.7 3836.23 3112.7 3837.02 3111.2 3837.19 3109.59 3836.75 3107.88 3836.55 3107 3837.08 3106.12 3837.94 3105.91 3838.14 3105.86 3838.35 3105.85 3838.56 3105.88L3883.56 3112.31C3884.85 3112.51 3885.77 3112.02 3886.32 3110.83 3893.72 3094.8 3906.5 3087.2 3924.66 3088.03 3925.76 3088.1 3926.4 3087.58 3926.6 3086.49 3927.69 3080.01 3928.31 3075.07 3928.44 3071.66 3928.55 3069.14 3929.47 3067.54 3931.19 3066.84 3931.91 3066.52 3932.74 3066.84 3933.06 3067.55 3933.17 3067.8 3933.21 3068.08 3933.16 3068.35L3930.73 3086.33C3930.52 3087.79 3931.12 3088.74 3932.54 3089.18 3949.59 3094.21 3959.7 3105.45 3962.87 3122.91 3963.06 3123.95 3963.89 3124.77 3964.94 3124.94L4006.43 3132.19C4007.64 3132.41 4008.16 3133.12 4008.01 3134.33L4007.42 3138.59C4007.24 3139.77 4007.74 3140.47 4008.93 3140.69L4060.96 3150.4C4062.5 3150.71 4064.01 3149.69 4064.32 3148.13 4064.35 3147.95 4064.37 3147.77 4064.37 3147.58 4064.41 3137.04 4475.39 3388.68 4480.16 3378.94 4674.8 3436.42 5803.55 3511.86 6465.24 3578.32L6600 3592.6 6600 4151.46 0 4180 0 3560.86 1596.51 3379.68 2128.83 3176.09C2217.91 3141.84 2130.65 3175.23 2130.93 3174.16 2136.87 3151.96 2151.04 3138.31 2173.44 3133.21 2174.76 3132.91 2175.33 3132.07 2175.15 3130.72L2169.34 3085.83C2169.08 3083.86 2170.41 3082.03 2172.36 3081.67L2179.39 3080.35C2180.96 3080.05 2181.64 3079.11 2181.42 3077.53L2179.98 3067.43C2179.82 3066.32 2180.58 3065.28 2181.68 3065.1L2198.23 3062.34C2199.63 3062.1 2200.29 3061.28 2200.2 3059.88L2199.48 3048.76C2199.4 3047.7 2200.15 3046.74 2201.22 3046.56L2229.68 3041.67C2231.73 3041.3 2232.87 3042.15 2233.09 3044.23L2234.14 3053.65C2234.31 3054.96 2235.49 3055.89 2236.78 3055.73 2236.82 3055.73 2236.86 3055.72 2236.9 3055.71L2245.24 3054.24C2246.4 3054.02 2247.03 3054.5 2247.14 3055.68L2248.32 3066.57C2248.44 3067.65 2249.4 3068.44 2250.49 3068.33 2250.52 3068.32 2250.55 3068.32 2250.59 3068.31L2285.48 3062.9C2286.61 3062.73 2287.66 3063.51 2287.83 3064.64 2287.84 3064.67 2287.84 3064.7 2287.84 3064.74L2293.4 3114.29 2316.1 3114.29 2337.98 3103.83C2373.01 3089.66 2409.94 3082.32 2448.76 3081.83 2449.83 3081.83 2450.74 3081.44 2451.48 3080.65L2455.13 3076.84C2456.28 3075.64 2458.08 3075.32 2459.56 3076.06 2465.99 3079.34 2471.86 3078.72 2477.15 3074.22 2478.03 3073.46 2479.25 3073.21 2480.37 3073.56 2490.02 3076.67 2499.77 3076.33 2509.62 3072.55 2510.71 3072.11 2511.22 3071.3 2511.13 3070.12L2496.59 2894.32C2496.5 2893.2 2497.33 2892.22 2498.45 2892.13 2498.49 2892.12 2498.52 2892.12 2498.56 2892.12L2506.07 2891.92C2507.85 2891.9 2509.27 2890.42 2509.24 2888.62 2509.23 2888.55 2509.23 2888.48 2509.23 2888.41L2507.09 2859.18C2507 2857.99 2507.88 2856.95 2509.06 2856.85L2521.37 2855.7C2522.75 2855.57 2523.5 2856.19 2523.64 2857.57L2526.36 2887.99C2526.45 2889.04 2527.01 2889.51 2528.03 2889.4L2558.3 2886.15C2559.2 2886.04 2559.62 2885.53 2559.58 2884.61L2558.17 2853.54C2558.11 2852.2 2559.15 2851.06 2560.49 2851.01 2560.58 2851 2560.67 2851 2560.76 2851.01L2563.88 2851.24C2564.84 2851.32 2565.61 2852.07 2565.69 2853.01L2568.38 2883.46C2568.49 2884.66 2569.14 2885.2 2570.35 2885.07L2587.58 2883.3C2588.7 2883.17 2589.71 2883.97 2589.84 2885.08 2589.84 2885.12 2589.84 2885.16 2589.85 2885.2L2593.52 2940.42C2593.57 2941.3 2594.33 2941.98 2595.22 2941.93 2595.24 2941.93 2595.25 2941.93 2595.26 2941.93L2627.2 2939.14C2628.63 2939.02 2629.7 2937.76 2629.6 2936.32L2624.41 2854.23C2624.36 2853.17 2625.15 2852.26 2626.19 2852.19L2634.23 2851.6C2635.33 2851.51 2636.17 2850.57 2636.13 2849.47L2635.21 2824.96C2635.2 2823.96 2635.87 2823.09 2636.82 2822.86L2640.96 2821.91C2642.08 2821.64 2642.86 2820.6 2642.79 2819.45L2640 2765.05C2639.95 2763.96 2640.77 2763.03 2641.84 2762.98 2642.01 2762.97 2642.17 2762.98 2642.34 2763.01 2649.14 2764.37 2655.81 2763.98 2662.33 2761.83 2664.34 2761.15 2665.41 2761.86 2665.54 2763.96L2668.37 2807.21C2668.44 2808.33 2669.4 2809.18 2670.52 2809.11 2670.54 2809.11 2670.55 2809.11 2670.57 2809.11L2702.11 2806.68C2703.4 2806.57 2704.08 2807.18 2704.15 2808.49L2704.38 2814.72C2704.43 2815.92 2705.44 2816.84 2706.63 2816.79 2706.66 2816.79 2706.68 2816.79 2706.71 2816.79L2738.85 2814.53C2739.95 2814.43 2740.91 2815.27 2741.01 2816.39 2741.01 2816.42 2741.01 2816.46 2741.01 2816.49 2741.22 2823.65 2741.43 2830.8 2741.64 2837.95 2741.69 2840.03 2743.41 2841.68 2745.51 2841.66L2786.34 2841.13C2787.52 2841.11 2788.51 2842.01 2788.58 2843.17 2789.76 2860.43 2790.59 2877.5 2791.07 2894.39 2791.16 2897.36 2792.31 2898.71 2794.52 2898.42 2795.82 2898.27 2796.81 2897.2 2796.85 2895.89 2797.06 2889.18 2797.27 2882.46 2797.47 2875.75 2797.53 2874.15 2798.83 2872.88 2800.43 2872.86L2812.77 2872.73C2813.85 2872.71 2814.8 2873.43 2815.07 2874.47 2819.17 2889.86 2835.62 2874.44 2836.04 2892.12 2836.07 2893.29 2836.94 2894.28 2838.11 2894.45L2851.27 2896.22C2852.44 2896.38 2853.32 2897.35 2853.38 2898.52L2855.94 2945.27C2856.2 2950 2858.23 2950.95 2862.04 2948.13 2878.91 2935.63 2888.5 2920.21 2913.02 2924.54 2924.41 2926.54 2935.9 2939.17 2945.81 2946 2946.67 2946.56 2947.61 2946.88 2948.64 2946.95L2970.17 2947.9C2971.59 2947.96 2972.32 2948.71 2972.34 2950.13L2974.57 3035.08C2974.61 3036.26 2975.59 3037.19 2976.77 3037.18L2995.25 3036.95C2996.34 3036.93 2997.21 3036.05 2997.19 3034.98 2996.71 3005.61 2996.22 2976.25 2995.74 2946.88 2995.72 2945.92 2996.46 2945.11 2997.42 2945.04L3020.3 2943.24C3021.3 2943.15 3022.26 2942.77 3023.05 2942.12 3032.64 2934.15 3043.31 2921.26 3054.93 2918.4 3077.94 2912.76 3085.69 2924.05 3101.58 2936.38 3111.06 2943.73 3120.15 2943.7 3131.51 2944.06 3132.74 2944.1 3133.34 2944.74 3133.32 2945.96 3132.35 2989.47 3131.79 3032.99 3131.61 3076.51 3131.61 3079.62 3131.84 3079.63 3132.3 3076.55L3133.42 3069C3133.59 3067.91 3134.19 3067.2 3135.22 3066.87 3139.01 3065.67 3140.98 3063.16 3141.13 3059.36 3141.77 3043.98 3144.22 3028.11 3148.48 3011.75 3148.71 3010.78 3149.68 3010.18 3150.66 3010.41 3151.38 3010.58 3151.93 3011.17 3152.03 3011.91L3152.65 3015.72C3152.83 3016.79 3153.34 3016.98 3154.2 3016.28 3154.57 3015.97 3154.74 3015.5 3154.72 3014.86 3154.72 3014.23 3154.74 3013.77 3154.79 3013.49 3159.21 2991.33 3161.13 2968.97 3160.56 2946.42 3160.52 2944.67 3161.35 2943.98 3163.06 2944.36L3164.54 2944.65C3165.67 2944.89 3166.23 2945.59 3166.21 2946.75 3165.66 2970.11 3167.09 2993.37 3170.48 3016.54 3170.46 3016.9 3170.74 3017.21 3171.1 3017.23 3171.46 3017.24 3171.77 3016.97 3171.79 3016.6L3173.17 3011.42C3173.38 3010.69 3174.14 3010.27 3174.88 3010.48 3175.34 3010.61 3175.71 3010.98 3175.83 3011.45 3179.44 3026.2 3181.52 3041.33 3182.07 3056.86 3182.15 3059.38 3182.45 3061.51 3182.95 3063.26 3183.36 3064.74 3184.9 3065.62 3186.38 3065.21 3187.3 3064.96 3188.02 3064.26 3188.3 3063.36 3194.1 3045.97 3196.32 3028.1 3194.97 3009.75 3194.86 3008.52 3195.39 3007.71 3196.57 3007.32L3197.99 3006.86C3199.47 3006.38 3200.15 3006.91 3200.02 3008.47 3198.38 3027.1 3199.94 3045.49 3204.72 3063.62 3205.01 3064.89 3206.29 3065.68 3207.56 3065.38 3208.58 3065.14 3209.33 3064.25 3209.38 3063.19 3210.76 3045.7 3213.17 3029.08 3216.63 3013.35 3216.85 3012.44 3217.2 3011.82 3217.68 3011.52 3218.01 3011.3 3218.37 3011.17 3218.77 3011.12 3219.21 3011.07 3219.62 3011.39 3219.68 3011.84 3219.68 3011.89 3219.69 3011.93 3219.68 3011.98 3219.6 3014.49 3219.51 3017.01 3219.42 3019.52 3219.42 3020.21 3219.97 3020.78 3220.66 3020.78 3221.24 3020.79 3221.75 3020.39 3221.88 3019.82 3226.57 2996.39 3228.59 2972.78 3227.96 2948.98 3227.91 2947.49 3228.64 2946.73 3230.12 2946.69L3231.53 2946.65C3233.11 2946.61 3233.87 2947.37 3233.8 2948.95 3233.03 2973.53 3234.7 2997.99 3238.79 3022.31 3238.89 3022.77 3239.34 3023.07 3239.8 3022.97 3240.1 3022.9 3240.33 3022.69 3240.43 3022.41 3241.15 3019.94 3241.44 3017.2 3241.28 3014.21 3241.2 3012.74 3241.71 3011.86 3242.83 3011.55 3243.63 3011.33 3244.46 3011.78 3244.68 3012.56 3244.71 3012.64 3244.72 3012.72 3244.73 3012.8L3250.87 3064.05C3251.15 3066.27 3253.17 3067.87 3255.39 3067.6 3256.5 3067.47 3257.5 3066.89 3258.16 3065.98L3259.31 3064.44C3260.25 3063.15 3260.74 3063.31 3260.78 3064.93L3261.51 3089.64C3261.53 3090.75 3262.1 3091.33 3263.21 3091.38L3288.59 3092.23C3289.64 3092.27 3290.54 3091.45 3290.59 3090.39 3298.66 2876.41 3304.67 2726.62 3308.61 2641.02 3309.46 2622.75 3294.56 2625.9 3282.55 2626.49 3281.12 2626.56 3280.41 2625.88 3280.41 2624.46L3280.41 2599.59C3280.41 2598.16 3281.11 2597.45 3282.51 2597.45L3302.96 2597.52C3304.39 2597.52 3304.85 2596.86 3304.34 2595.55L3303.33 2592.86C3303 2591.98 3302.96 2591.1 3303.23 2590.2 3304.96 2584.19 3305.89 2578.09 3306.02 2571.93 3306.15 2564.45 3310.35 2561.2 3311.07 2554.7 3311.9 2547.4 3314.71 2540.89 3319.48 2535.18 3319.82 2534.77 3320.05 2534.28 3320.13 2533.77L3322.2 2522.09C3322.41 2520.74 3323.66 2519.82 3325.01 2520.03Z" fill="url(#fill1)" fill-rule="evenodd"/></g></svg>