<svg width="6610" height="886" xmlns="http://www.w3.org/2000/svg" xmlns:xlink="http://www.w3.org/1999/xlink" overflow="hidden"><defs><clipPath id="clip0"><rect x="-5" y="1375" width="6610" height="886"/></clipPath></defs><g clip-path="url(#clip0)" transform="translate(5 -1375)"><path d="M2706.64 1463.29C2726.94 1463.54 2746.38 1467.86 2763.58 1477.6 2791.72 1493.52 2820.51 1507.48 2849.94 1519.45 2853.11 1520.73 2856.74 1520.42 2859.73 1518.59 2902.37 1491.69 2940.38 1516.44 2970.52 1551.19 2972.8 1553.83 2976.5 1554.73 2979.78 1553.45 3054.37 1523.76 3118.97 1537.64 3173.59 1595.09 3195.05 1617.61 3221.86 1635.95 3254.02 1650.07 3280.83 1661.91 3297.62 1686.01 3326.16 1691.5 3344.49 1695 3363.12 1701.94 3380.12 1711.64L3397.32 1723.46 3408.57 1710.47C3440.98 1679.25 3490.09 1671.38 3528.57 1701.37 3530.9 1703.16 3534.1 1703.33 3536.6 1701.78 3553.22 1691.66 3571.36 1686.27 3591.03 1685.62 3595.18 1685.5 3598.75 1682.64 3599.78 1678.62 3614.61 1620.43 3667.28 1557.4 3735.86 1574.79 3746.1 1577.4 3753.06 1578.31 3756.77 1577.52 3815.74 1565.03 3871.52 1572.13 3924.11 1598.82 3932.35 1603.04 3942.8 1612.14 3953.25 1617.19 3954.75 1617.92 3956.44 1618.12 3958.04 1617.75 3993.82 1609.31 4021.63 1612.5 4055.76 1628.82 4071.21 1636.19 4087.22 1642.19 4103.8 1646.82 4110.08 1648.61 4116.78 1654.29 4123.88 1663.86 4124.95 1665.33 4126.39 1665.91 4128.21 1665.6 4167.55 1659.38 4231.19 1657.27 4267.85 1679.45 4292.41 1694.26 4322.07 1692.1 4356.25 1688.3 4363.36 1687.51 4370 1684.97 4376.18 1680.68 4417.47 1651.92 4440.08 1639.83 4488.84 1639.72 4490.47 1639.72 4492.05 1639.16 4493.32 1638.13 4520.95 1615.28 4544.89 1618.3 4565.14 1647.19 4566.24 1648.76 4567.77 1649.59 4569.73 1649.65 4609.68 1650.65 4649.16 1655.91 4688.15 1665.45 4704.49 1669.43 4719.47 1676.43 4733.1 1686.44 4734.48 1687.47 4736.02 1688.04 4737.73 1688.14 4751.17 1689.07 4818.42 1696.89 4816 1716.8 4815.77 1718.53 4814.81 1720.07 4813.37 1721.02 4800.5 1729.53 4786.39 1734.81 4771.05 1736.87 4768.82 1737.18 4768.49 1738.16 4770.07 1739.8 4772.78 1742.61 4776.16 1743.63 4780.21 1742.84 4812.14 1736.61 4877.99 1731.57 4906.21 1749.78 4908.86 1751.49 4909.61 1755.04 4907.87 1757.7 4907.22 1758.7 4906.28 1759.47 4905.18 1759.92 4886.64 1767.28 4869.65 1767.48 4851.42 1774.94 4830.16 1783.69 4809.56 1782.41 4786.08 1784.67 4768.22 1786.37 4751.43 1794.19 4731.04 1793.52 4729.46 1793.45 4728 1793.84 4726.66 1794.7 4716.37 1801.39 4704.97 1804.36 4692.48 1803.6 4690.98 1803.41 4689.61 1804.47 4689.43 1805.97 4689.26 1807.27 4690.05 1808.5 4691.29 1808.9 4703.65 1813.84 4710.98 1823.05 4713.28 1836.53 4713.55 1838.16 4715.08 1839.26 4716.71 1838.99 4716.84 1838.97 4716.96 1838.94 4717.09 1838.9 4733.43 1833.93 4749.64 1834.18 4765.74 1839.67 4767.33 1840.22 4768.78 1839.98 4770.12 1838.95 4800.19 1815.7 4830.66 1815.28 4861.51 1837.72 4862.96 1838.75 4864.5 1838.9 4866.15 1838.18 4881.59 1831.11 4894.48 1834.1 4904.82 1847.13 4905.87 1848.49 4907.42 1849.37 4909.14 1849.6 4933.69 1852.48 4959.7 1852.91 4987.2 1850.89 4995.57 1850.27 5003.31 1851.26 5010.39 1853.86L5028.52 1865.69 5042.29 1863.6 5062.58 1853.41C5063.85 1852.42 5065.29 1851.92 5066.9 1851.92 5081.32 1851.85 5096.85 1850.17 5113.5 1846.88 5119.37 1845.73 5124.46 1846.08 5128.77 1847.94L5136.02 1854.86 5183.06 1851.3C5186.06 1851.08 5186.45 1849.94 5184.27 1847.88 5181.27 1845.07 5180.44 1841.37 5181.77 1836.78 5182.17 1835.3 5182.96 1834.05 5184.13 1833.04 5199.72 1819.35 5234.79 1813.53 5252.83 1810.98 5254.31 1810.79 5255.49 1809.61 5255.7 1808.12 5256.67 1801 5258.11 1795.54 5264.54 1791.43 5292.39 1773.39 5333.52 1767.89 5364.38 1764.19 5365.96 1764 5367.28 1762.9 5367.75 1761.37 5374.36 1740.88 5387.63 1726.56 5407.59 1718.42 5408.95 1717.85 5410.15 1716.91 5411.06 1715.7 5436.94 1680.56 5469.59 1662.97 5508.99 1662.95 5522.12 1662.94 5536.01 1664.88 5550.64 1668.77 5577.85 1675.98 5598.6 1691.64 5612.91 1715.74 5613.69 1717.04 5615.07 1717.84 5616.57 1717.87 5625.27 1718.1 5634.7 1717.04 5642.15 1717.96 5677.84 1722.34 5700.11 1742.28 5708.96 1777.79 5709.37 1779.37 5710.55 1780.64 5712.11 1781.16 5725.52 1785.57 5736.66 1793.28 5745.51 1804.28 5746.51 1805.52 5747.96 1806.32 5749.54 1806.5 5790.53 1811.03 5831.24 1816.73 5871.68 1823.6 5896.2 1827.77 5919.5 1835.29 5941.58 1846.17 5949.82 1850.2 5957.54 1852.5 5964.76 1853.06 5994.79 1855.41 6020.05 1844.96 6051.05 1851.53 6052.56 1851.86 6054.14 1851.8 6055.63 1851.34 6069.84 1847.09 6083.57 1848.2 6096.8 1854.67 6098.1 1855.32 6099.47 1855.57 6100.92 1855.41 6113.23 1854.15 6124.2 1857.3 6133.86 1864.85 6135.08 1865.79 6136.6 1866.22 6138.12 1866.05 6167.31 1862.86 6193.87 1870.25 6220.42 1870.67 6266.91 1871.41 6313.18 1874.55 6359.27 1880.1 6383.57 1883.03 6406.4 1884.76 6427.74 1885.28 6478.01 1886.57 6528.24 1889.3 6578.42 1893.46L6605 1898.59 6605 1907.02 6576.06 1912.23C6474.34 1919.88 6372.56 1922.17 6270.71 1919.12 6237.87 1918.17 6207.04 1918.05 6178.23 1918.75 6057.26 1921.84 5936.31 1920.83 5815.37 1915.75 5793.16 1914.82 5769.85 1915.18 5745.42 1916.81 5680 1921.22 5614.53 1922.47 5549.02 1920.56 5515.43 1919.57 5484.59 1919.49 5456.49 1920.33 5419.28 1921.42 5382.06 1921.97 5344.84 1921.97L5320.66 1921.61 5303.58 1924.57C5277.91 1928.11 5255.58 1928.83 5230.79 1932.65 5223.07 1933.85 5212.51 1937.69 5199.13 1944.18 5178.6 1954.12 5156.96 1960.49 5134.2 1963.26 5127.68 1964.05 5121.12 1966.2 5114.53 1969.7 5102.58 1976.08 5089.8 1980.21 5076.17 1982.1 5009.61 1991.36 4943.48 1989.23 4877.78 1975.72 4876.03 1975.35 4874.21 1975.49 4872.53 1976.13 4852.66 1983.67 4832.63 1984.12 4812.45 1977.47 4810.74 1976.89 4808.85 1977.2 4807.4 1978.29 4786.08 1994.38 4763.46 1995.87 4739.54 1982.77 4737.99 1981.94 4736.4 1981.82 4734.75 1982.41 4712.71 1990.19 4690.95 1989.44 4669.46 1980.14 4667.89 1979.47 4666.15 1979.27 4664.47 1979.58 4627.67 1986.37 4590.63 1988.75 4553.35 1986.73 4543.36 1986.16 4535.49 1991.67 4526.12 1992.13 4507.2 1993.06 4485.68 1993.21 4461.55 1992.59 4445.48 1992.15 4428.8 1993.06 4411.5 1995.32 4333.89 2005.44 4256.35 2003.69 4178.87 1990.07 4159.26 1986.62 4139.79 1973.92 4117.04 1972.17 4099.88 1970.83 4083.04 1967.84 4066.53 1963.21 4058.8 1961.02 4051.29 1960.47 4043.97 1961.57 3946.42 1976.14 3848.47 1980.24 3750.13 1973.86 3718.2 1971.75 3689.27 1974.12 3658.27 1975.92 3602.01 1979.22 3546.9 1973.4 3492.94 1958.48 3484.15 1956.08 3475.42 1955.27 3466.73 1956.06L3434.14 1958.09 3447.1 1967.53C3479.91 1985.59 3512.29 1970.66 3556.79 1973.4 3611.48 1976.74 3707.74 1996.97 3699.77 2071.31 3699.41 2074.63 3701.44 2077.74 3704.62 2078.74 3727.01 2086.05 3748.73 2094.95 3769.76 2105.42 3836.62 2138.67 3904.45 2125 3958.61 2187.84 3960.98 2190.56 3963.96 2191.96 3967.55 2192.04 4039.18 2193.25 4110.03 2200.75 4180.09 2214.52 4186.84 2215.89 4191.68 2218.61 4194.62 2222.7 4197.46 2226.74 4196.54 2232.29 4192.57 2235.1 4192.03 2235.47 4191.46 2235.8 4190.85 2236.04 4165.87 2246.73 4139.03 2253.29 4110.32 2255.73 3961.52 2268.21 3830.91 2249.39 3697.51 2242.61 3667.22 2241.03 3628.49 2243.22 3581.33 2249.17 3430.89 2268.11 3280.58 2264.31 3130.41 2237.77 3089.57 2230.52 3050.6 2218.04 3013.48 2200.32 2999.49 2193.65 2985.28 2189.56 2970.85 2188.06 2911.74 2181.92 2863.29 2166.86 2850.15 2101.76 2849.43 2098.18 2847.28 2096.31 2843.69 2096.17 2802.7 2094.45 2762.04 2093.51 2721.7 2093.37 2708.35 2093.3 2694.6 2096.71 2680.46 2103.59 2607.57 2138.88 2477.61 2151.04 2417.32 2079.71 2415.88 2077.98 2413.8 2076.87 2411.5 2076.59L2230.51 2054.74C2229.25 2054.6 2228.01 2054.79 2226.96 2055.28 2171.29 2083.26 2086.56 2087.13 2041.55 2036.02 2039.26 2033.44 2036.52 2032.87 2033.37 2034.3 1975.12 2061.63 1845.16 2075.08 1813.29 1996 1811.71 1992.2 1809.02 1991.05 1805.22 1992.55 1769.47 2006.4 1731.89 2010.55 1692.48 2005.04 1688.82 2004.53 1685.63 2002.99 1682.9 2000.41L1667.73 1988.37 1642.29 1994.31C1631.61 1997.11 1620.69 2000.31 1609.48 2003.98 1549.5 2023.52 1498.7 2029.53 1439.16 2032.69L1384.14 2034.46 1365.68 2042.99C1336.43 2054.29 1306.41 2057.41 1286.27 2039.67L1284.05 2037.19 1160.03 2037.4C1067.2 2036.73 975.237 2034.98 886.145 2035.64 767.937 2036.51 647.546 2028 530.211 2041.86 387.86 2058.68 214.155 2057.04 77.485 2007.69 56.946 2000.21 35.4788 1996.88 14.4756 1994.15L-5.00016 1991.59-5.00016 1916.42 14.288 1911.23C22.5734 1909.18 31.0542 1907.42 39.903 1906.38 81.4177 1901.43 106.359 1898.08 114.738 1896.33 197.33 1879.3 272.167 1872.53 365.901 1861.62 423.879 1854.85 484.436 1854.85 547.582 1861.62 560.987 1863 574.568 1859.65 588.332 1851.57 591.468 1849.75 594.887 1848.77 598.602 1848.62 620.67 1847.97 641.679 1843.53 661.638 1835.31 709.599 1815.65 742.7 1808.23 785.963 1795.35 789.394 1794.3 792.288 1792 794.048 1788.91 806.721 1767.43 820.518 1755.79 835.453 1753.97 910.398 1744.69 966.878 1719.36 1049.14 1738.25 1052.85 1739.18 1056.73 1738.95 1060.29 1737.6 1099.47 1722.67 1139.64 1719.39 1180.79 1727.77 1185.09 1728.64 1188.29 1727.15 1190.4 1723.29 1222.52 1664.01 1281.63 1638.46 1333.96 1695.24 1338.54 1700.15 1341.36 1706.45 1343.77 1713.06L1345.67 1718.06 1366.89 1727.22C1370.18 1728.59 1373.87 1728.47 1377.01 1726.9 1418.86 1706.81 1460.53 1703.66 1502.02 1717.43 1531.81 1727.33 1550.97 1732.74 1559.51 1733.68 1620.35 1740.35 1673.97 1729.8 1735.88 1754.12 1746 1758.1 1761.29 1751.65 1771.19 1744.33 1868.09 1673.21 2030.68 1667.94 2146.42 1681.17 2150.3 1681.6 2152.85 1679.95 2154.07 1676.22 2174.23 1615.11 2217.24 1581.89 2283.05 1576.59 2321.68 1573.43 2360.07 1567.09 2398.26 1557.54 2418.07 1552.59 2477.4 1576.8 2512.93 1577.66 2516.51 1577.8 2518.77 1576.12 2519.71 1572.61 2523.8 1557.11 2525.85 1545.6 2538.02 1534.41 2577.1 1498.42 2645.74 1462.55 2706.64 1463.29ZM1261.32 1385.4C1264.78 1385.95 1268.26 1387.62 1272.68 1388.2 1281.05 1389.29 1292.6 1389.86 1296.01 1397.27 1296.32 1397.94 1296.78 1398.49 1297.39 1398.89L1301.19 1401.41C1301.83 1401.84 1302.01 1402.71 1301.58 1403.35 1301.56 1403.38 1301.54 1403.41 1301.51 1403.44L1298.94 1406.62C1298.52 1407.15 1298.47 1407.88 1298.81 1408.47 1302.21 1414.26 1302.2 1419.99 1298.77 1425.66 1298.46 1426.17 1298.5 1426.65 1298.9 1427.08 1306.17 1435.12 1313.72 1431.87 1322.45 1436.15 1323.05 1436.44 1323.71 1436.58 1324.36 1436.56 1335.52 1436.19 1345.08 1439.82 1353.05 1447.45 1354.44 1448.77 1356.41 1449.25 1358.23 1448.71 1364.6 1446.83 1370.98 1446.73 1377.38 1448.41 1378.07 1448.6 1378.71 1448.48 1379.29 1448.06 1385.53 1443.67 1392.88 1442.45 1401.32 1444.41 1409.89 1446.4 1406.08 1449.91 1410.02 1455.12 1410.43 1455.68 1411.15 1455.92 1411.82 1455.73 1428.35 1451.27 1438.57 1467.14 1455.08 1468.86 1463.73 1469.78 1474.31 1470.22 1482.03 1474.1 1482.92 1474.55 1483.28 1475.63 1482.83 1476.52 1482.64 1476.9 1482.33 1477.2 1481.94 1477.37 1472.62 1481.59 1461.8 1481.75 1451.69 1482.72 1445.82 1483.27 1441.35 1486.52 1435.3 1487.68 1432.8 1488.15 1430.3 1488.99 1427.81 1490.21 1422.39 1492.88 1416.55 1493.66 1410.28 1492.55 1409.6 1492.42 1408.89 1492.6 1408.35 1493.05 1404.07 1496.68 1399.29 1498.78 1393.99 1499.36 1385.3 1500.3 1379.88 1503.83 1370.86 1499.93 1370.24 1499.67 1369.53 1499.67 1368.89 1499.93 1357.99 1504.52 1354.6 1498.69 1344.95 1498.84 1338.81 1498.92 1332.78 1499.68 1326.88 1501.13 1319.01 1503.08 1313.75 1504.13 1311.08 1504.3 1299.55 1505.01 1289.11 1502.39 1277.59 1502.55 1271.2 1502.65 1265.04 1501.39 1258.79 1501.8 1247.84 1502.49 1237.09 1501.23 1226.56 1498.03 1225.9 1497.82 1225.24 1497.84 1224.59 1498.07 1219.65 1499.87 1214.59 1500.95 1209.4 1501.33 1193.68 1502.48 1177.97 1503.8 1162.25 1505.29 1161.57 1505.36 1160.95 1505.57 1160.38 1505.94 1150.71 1512.29 1145.27 1508.11 1135.32 1508.07 1129.86 1508.05 1125.45 1506 1120.13 1506.99 1111.07 1508.66 1102.81 1508.98 1095.56 1502.59 1094.96 1502.06 1094.27 1501.83 1093.47 1501.9L1087.25 1502.37C1086.55 1502.42 1086.01 1502.75 1085.63 1503.34 1079.54 1513.22 1064.27 1516.33 1058.86 1503.44 1058.59 1502.81 1057.98 1502.39 1057.3 1502.37 1051.94 1502.21 1047.61 1501.92 1042.33 1500.12 1032.21 1496.65 1022.91 1494.7 1014.45 1494.25 1007.37 1493.86 1001.06 1492.77 995.505 1490.98 990.449 1489.36 984.702 1489.16 979.483 1487.09 978.908 1486.86 978.63 1486.21 978.863 1485.63 978.913 1485.5 978.986 1485.38 979.077 1485.28 983.707 1480.23 999.282 1480.76 1005.92 1480.21 1010.68 1479.83 1014.88 1478.75 1018.53 1476.98 1024.08 1474.3 1029.37 1471.17 1034.39 1467.59 1036 1466.45 1038.42 1464.02 1041.64 1460.3 1047.17 1453.94 1054.55 1450.78 1063.78 1450.8 1064.6 1450.8 1064.88 1450.41 1064.59 1449.63 1058.01 1431.95 1087.78 1427.38 1098.87 1427.67 1099.64 1427.68 1100.27 1427.39 1100.76 1426.8 1103.15 1423.79 1106.25 1422.05 1110.06 1421.56 1110.91 1421.45 1111.4 1420.97 1111.52 1420.12 1112.03 1416.37 1113.29 1412.91 1115.3 1409.73 1115.48 1409.44 1115.77 1409.23 1116.11 1409.12L1128.86 1405.35C1129.17 1405.25 1129.5 1405.29 1129.78 1405.45 1132.23 1406.81 1133.92 1408.85 1134.85 1411.56 1135.06 1412.17 1135.71 1412.52 1136.34 1412.37 1147.32 1409.67 1152.78 1419.08 1159.81 1425.6 1160.35 1426.1 1160.98 1426.29 1161.7 1426.17 1170.93 1424.61 1179.27 1426.49 1186.7 1431.81 1187.05 1432.07 1187.55 1431.99 1187.8 1431.64 1187.89 1431.52 1187.95 1431.37 1187.96 1431.22 1188.36 1423.71 1195.67 1419.43 1203.15 1417.48 1203.81 1417.31 1204.4 1416.94 1204.83 1416.43 1211.82 1407.96 1216.47 1404.07 1228.08 1405.49 1228.92 1405.58 1229.44 1405.22 1229.65 1404.41 1232.02 1394.75 1238.32 1389.93 1248.57 1389.94 1249.11 1389.94 1249.62 1389.74 1250.02 1389.37 1254.39 1385.44 1257.85 1384.85 1261.32 1385.4ZM5536.93 1375.07C5566.68 1376.07 5596.42 1376.86 5626.17 1377.44 5637.79 1377.68 5648 1385.13 5658.86 1389.15 5674.57 1394.96 5692.1 1405.71 5704.89 1416.53 5716.78 1426.59 5739.85 1428.72 5754.8 1429.62 5762.19 1430.06 5768.52 1433.16 5775.39 1433.6 5791.94 1434.63 5809.57 1434.75 5828.3 1433.95 5830.2 1433.85 5831.8 1435.32 5831.9 1437.21 5831.94 1438.22 5831.55 1439.2 5830.81 1439.89 5820.43 1449.64 5772.58 1450.5 5757.86 1450.78 5749.13 1450.95 5740.98 1454.32 5731.98 1454.8 5723.11 1455.31 5715.44 1449.13 5706.47 1451.95 5688.67 1457.58 5676.05 1451.77 5659.58 1450.64 5657.41 1450.49 5655.42 1451.86 5654.77 1453.94 5652.6 1460.88 5646.21 1463.14 5639.03 1463.08 5621.36 1462.9 5604.14 1464.69 5586.47 1460.95 5572.83 1458.04 5559.28 1458.9 5545.8 1463.52 5544.68 1463.9 5543.49 1463.96 5542.36 1463.69 5523.55 1459.41 5504.61 1456.88 5485.54 1456.1 5478.21 1455.8 5470.16 1456.81 5461.41 1459.13 5450.57 1461.99 5439.63 1464.51 5428.58 1466.68 5428.44 1466.71 5423.68 1468.08 5414.28 1470.8 5405.82 1473.24 5399.05 1471.6 5391.7 1472.66 5359.86 1477.33 5327.65 1473.11 5295.75 1471.05 5268.56 1469.29 5239.79 1457.92 5215.9 1454.04 5199.95 1451.45 5172.52 1448.72 5133.6 1445.83 5132.76 1445.76 5132.1 1445.52 5131.65 1445.11 5130.84 1444.4 5130.57 1443.61 5130.82 1442.74 5131.07 1441.89 5131.82 1441.28 5132.71 1441.19 5146.12 1439.89 5159.48 1438.41 5172.79 1436.76 5179.3 1435.96 5185.68 1434 5191.94 1430.89 5217.1 1418.35 5239.45 1407.46 5268.18 1406.53 5286.24 1405.94 5303.29 1401.23 5319.34 1392.41 5320.32 1391.88 5321.44 1391.67 5322.53 1391.83 5327.89 1392.52 5332.65 1394.57 5336.8 1397.98 5337.65 1398.69 5338.62 1399.07 5339.72 1399.11 5366.78 1400.6 5393.68 1403.38 5420.4 1407.46 5427.21 1408.53 5432.77 1405.81 5438.79 1401.48 5461.82 1384.86 5484.41 1381.97 5510.46 1377.2 5519.74 1375.48 5528.57 1374.77 5536.93 1375.07Z" fill="#FFFFFF" fill-rule="evenodd"/></g></svg>