<?xml version="1.0" encoding="UTF-8" standalone="no"?>
<!DOCTYPE svg PUBLIC "-//W3C//DTD SVG 1.1//EN" "http://www.w3.org/Graphics/SVG/1.1/DTD/svg11.dtd">
<svg xmlns="http://www.w3.org/2000/svg" version="1.1" viewBox="0.00 0.00 104.00 83.00">
<path fill="#4475f2" d="
  M 32.83 0.00
  L 97.06 0.00
  Q 102.53 1.06 104.00 6.85
  L 104.00 60.77
  C 102.85 65.21 100.17 67.25 95.43 67.24
  Q 76.33 67.18 57.07 67.50
  A 0.79 0.78 81.9 0 1 56.30 66.92
  Q 54.80 61.55 50.68 57.82
  A 0.47 0.47 0.0 0 1 51.00 57.00
  L 61.82 56.99
  A 0.60 0.60 0.0 0 0 62.42 56.37
  L 62.20 47.44
  A 0.86 0.86 0.0 0 1 63.06 46.56
  L 82.60 46.52
  A 0.65 0.65 0.0 0 1 83.25 47.17
  L 83.25 56.50
  Q 83.25 57.00 83.75 57.00
  L 92.76 57.00
  Q 93.53 57.00 93.53 56.23
  L 93.49 11.22
  A 1.03 1.03 0.0 0 0 92.39 10.20
  Q 82.32 10.79 73.18 10.57
  Q 55.04 10.13 36.89 10.29
  A 0.59 0.59 0.0 0 0 36.30 10.88
  L 36.29 17.30
  A 0.62 0.61 13.2 0 1 35.40 17.85
  Q 31.30 15.80 26.72 15.65
  Q 26.25 15.63 26.19 15.17
  C 25.39 8.93 25.38 1.48 32.83 0.00
  Z"
/>
<circle fill="#4475f2" cx="26.02" cy="36.31" r="15.55"/>
<path fill="#4475f2" d="
  M 45.16 83.00
  L 6.75 83.00
  Q 0.95 81.52 0.00 76.20
  L 0.00 73.48
  C 2.15 62.23 10.41 55.45 21.87 57.79
  Q 26.53 58.74 32.33 57.31
  C 46.59 53.79 61.14 79.40 45.16 83.00
  Z"
/>
</svg>
