<?xml version="1.0" encoding="UTF-8" standalone="no"?>
<!DOCTYPE svg PUBLIC "-//W3C//DTD SVG 1.1//EN" "http://www.w3.org/Graphics/SVG/1.1/DTD/svg11.dtd">
<svg xmlns="http://www.w3.org/2000/svg" version="1.1" viewBox="0.00 0.00 98.00 98.00">
<circle fill="#4475f2" cx="49.01" cy="28.61" r="20.35"/>
<path fill="#4475f2" d="
  M 79.40 60.34
  Q 80.36 61.27 79.03 61.26
  Q 68.57 61.21 57.63 61.28
  Q 52.24 61.31 49.77 62.68
  C 42.92 66.47 44.57 80.22 44.97 89.02
  Q 44.99 89.55 44.45 89.54
  C 31.72 89.14 13.73 80.72 16.59 65.01
  C 17.69 58.97 21.95 57.13 27.93 57.12
  Q 50.12 57.09 72.35 57.33
  C 75.66 57.36 77.17 58.20 79.40 60.34
  Z"
/>
<path fill="#4475f2" d="
  M 93.75 87.95
  A 5.81 5.81 0.0 0 1 87.94 93.76
  L 54.86 93.76
  A 5.81 5.81 0.0 0 1 49.05 87.95
  L 49.05 71.23
  A 5.81 5.81 0.0 0 1 54.86 65.42
  L 87.94 65.42
  A 5.81 5.81 0.0 0 1 93.75 71.23
  L 93.75 87.95
  Z
  M 57.19 69.71
  C 56.84 71.86 55.71 73.03 53.54 73.37
  Q 52.89 73.47 52.94 74.12
  L 53.19 77.16
  Q 53.23 77.71 53.77 77.61
  Q 59.78 76.49 61.16 70.64
  A 1.06 1.06 0.0 0 0 60.14 69.33
  L 57.68 69.29
  Q 57.26 69.29 57.19 69.71
  Z
  M 89.24 73.35
  Q 86.23 72.90 85.88 69.93
  A 0.62 0.61 -2.7 0 0 85.28 69.39
  L 82.16 69.32
  A 0.57 0.56 85.5 0 0 81.59 69.99
  Q 82.79 76.37 89.15 77.69
  Q 89.80 77.82 89.82 77.16
  L 89.91 74.15
  Q 89.93 73.45 89.24 73.35
  Z
  M 78.57 79.62
  A 7.09 7.09 0.0 0 0 71.48 72.53
  A 7.09 7.09 0.0 0 0 64.39 79.62
  A 7.09 7.09 0.0 0 0 71.48 86.71
  A 7.09 7.09 0.0 0 0 78.57 79.62
  Z
  M 84.48 89.99
  A 1.31 1.30 -79.5 0 0 85.92 88.99
  Q 86.58 86.16 89.52 85.78
  A 0.44 0.43 -3.8 0 0 89.90 85.35
  L 89.94 82.62
  Q 89.96 81.57 88.93 81.75
  Q 82.75 82.84 81.71 88.98
  Q 81.61 89.59 82.22 89.68
  L 84.48 89.99
  Z
  M 61.25 89.27
  C 60.92 85.44 57.82 82.00 53.86 81.72
  Q 53.34 81.69 53.31 82.21
  L 53.11 85.22
  A 0.71 0.71 0.0 0 0 53.73 85.97
  Q 56.76 86.32 57.04 89.25
  A 0.78 0.77 85.6 0 0 57.84 89.94
  L 60.78 89.81
  Q 61.30 89.78 61.25 89.27
  Z"
/>
</svg>
