<?xml version="1.0" encoding="UTF-8" standalone="no"?>
<!DOCTYPE svg PUBLIC "-//W3C//DTD SVG 1.1//EN" "http://www.w3.org/Graphics/SVG/1.1/DTD/svg11.dtd">
<svg xmlns="http://www.w3.org/2000/svg" version="1.1" viewBox="0.00 0.00 92.00 83.00">
<path fill="#4475f2" d="
  M 10.33 0.00
  L 81.77 0.00
  C 89.61 1.72 91.75 6.63 91.75 14.39
  Q 91.73 37.49 91.77 60.64
  C 91.79 68.44 88.33 73.33 79.62 71.50
  Q 79.16 71.40 79.02 70.94
  Q 77.41 65.79 73.86 61.70
  A 0.47 0.46 -20.2 0 1 74.22 60.94
  L 85.46 61.03
  A 0.54 0.53 0.0 0 0 86.00 60.50
  Q 86.01 36.78 85.99 13.04
  C 85.99 8.97 84.75 5.51 80.25 5.51
  Q 46.18 5.48 12.12 5.52
  C 7.74 5.53 5.78 7.87 5.77 12.27
  Q 5.69 36.33 5.78 60.43
  Q 5.78 60.97 6.31 60.97
  L 17.77 60.95
  A 0.35 0.34 -69.6 0 1 18.03 61.52
  Q 14.43 65.71 12.64 70.94
  Q 12.47 71.44 11.95 71.54
  Q 2.15 73.37 0.00 64.52
  L 0.00 9.95
  Q 1.63 1.49 10.33 0.00
  Z"
/>
<ellipse fill="#4475f2" cx="0.00" cy="0.00" transform="translate(45.86,36.25) rotate(0.8)" rx="14.29" ry="13.79"/>
<path fill="#4475f2" d="
  M 69.42 83.00
  L 21.99 83.00
  Q 16.33 81.58 17.25 76.25
  C 21.24 53.18 55.54 48.54 69.22 64.83
  C 72.81 69.10 78.97 81.19 69.42 83.00
  Z"
/>
</svg>
