<?xml version="1.0" encoding="UTF-8" standalone="no"?>
<!DOCTYPE svg PUBLIC "-//W3C//DTD SVG 1.1//EN" "http://www.w3.org/Graphics/SVG/1.1/DTD/svg11.dtd">
<svg xmlns="http://www.w3.org/2000/svg" version="1.1" viewBox="0.00 0.00 114.00 114.00">
<path fill="#4475f2" d="
  M 57.02 18.41
  L 57.00 10.18
  A 2.19 2.19 0.0 0 1 60.74 8.62
  L 74.56 22.44
  A 1.85 1.85 0.0 0 1 74.56 25.06
  L 60.81 38.82
  A 2.23 2.23 0.0 0 1 57.00 37.24
  L 57.00 29.02
  A 0.51 0.51 0.0 0 0 56.51 28.51
  C 42.88 27.86 32.51 34.70 26.99 46.82
  C 21.94 57.90 22.92 69.41 29.22 80.01
  C 32.13 84.90 24.50 89.97 21.08 84.93
  Q 16.39 78.02 14.92 69.26
  C 10.49 42.92 30.11 19.72 56.41 19.04
  Q 57.03 19.02 57.02 18.41
  Z"
/>
<path fill="#4475f2" d="
  M 87.81 32.44
  Q 92.42 36.28 95.73 43.97
  Q 104.45 64.27 93.99 83.12
  C 89.98 90.35 81.63 85.95 85.17 79.60
  C 92.78 65.99 91.79 51.00 81.57 39.19
  C 77.51 34.50 83.21 28.60 87.81 32.44
  Z"
/>
<path fill="#4475f2" d="
  M 53.80 47.82
  C 66.89 45.14 77.48 58.44 71.85 70.54
  C 69.23 76.20 62.90 80.87 61.83 87.19
  Q 61.74 87.74 61.18 87.76
  L 52.90 88.07
  A 0.65 0.63 85.0 0 1 52.25 87.51
  C 51.39 81.27 43.99 74.35 41.82 70.20
  C 37.01 61.03 44.22 49.77 53.80 47.82
  Z"
/>
<path fill="#4475f2" d="
  M 61.14 92.70
  A 0.65 0.65 0.0 0 1 61.79 93.35
  L 61.78 94.52
  A 5.22 4.66 -89.9 0 1 57.11 99.73
  L 56.89 99.73
  A 5.22 4.66 -89.9 0 1 52.24 94.50
  L 52.25 93.33
  A 0.65 0.65 0.0 0 1 52.90 92.68
  L 61.14 92.70
  Z"
/>
</svg>
