<?xml version="1.0" encoding="UTF-8" standalone="no"?>
<!DOCTYPE svg PUBLIC "-//W3C//DTD SVG 1.1//EN" "http://www.w3.org/Graphics/SVG/1.1/DTD/svg11.dtd">
<svg xmlns="http://www.w3.org/2000/svg" version="1.1" viewBox="0.00 0.00 135.00 46.00">
<path fill="#4475f2" d="
  M 5.75 21.75
  L 5.75 31.73
  A 0.58 0.58 0.0 0 1 5.28 32.30
  L 4.00 32.53
  A 0.84 0.84 0.0 0 1 3.00 31.70
  L 3.00 17.78
  Q 3.00 17.40 3.32 17.20
  Q 11.11 12.06 18.93 7.19
  Q 22.78 4.80 26.67 7.16
  Q 34.78 12.08 42.41 16.91
  A 1.52 1.52 0.0 0 1 42.41 19.48
  Q 35.21 24.05 28.01 29.01
  Q 23.31 32.24 18.62 29.10
  Q 12.60 25.06 6.32 21.42
  Q 5.75 21.09 5.75 21.75
  Z"
/>
<ellipse fill="#4475f2" cx="0.00" cy="0.00" transform="translate(102.16,7.44) rotate(63.9)" rx="1.24" ry="1.13"/>
<path fill="#4475f2" d="
  M 54.01 7.99
  Q 53.99 6.66 55.32 6.67
  L 60.92 6.71
  A 1.11 1.07 68.8 0 1 61.74 7.09
  Q 63.74 9.46 61.87 11.92
  Q 61.56 12.33 61.96 12.63
  C 64.30 14.41 63.50 17.46 60.57 17.85
  Q 57.63 18.25 54.70 17.91
  Q 54.10 17.84 54.09 17.23
  L 54.01 7.99
  Z
  M 60.5026 9.4922
  A 0.96 0.96 0.0 0 0 59.5663 8.5090
  L 57.2270 8.4519
  A 0.96 0.96 0.0 0 0 56.2438 9.3881
  L 56.2174 10.4678
  A 0.96 0.96 0.0 0 0 57.1537 11.4510
  L 59.4930 11.5081
  A 0.96 0.96 0.0 0 0 60.4762 10.5719
  L 60.5026 9.4922
  Z
  M 56.29 13.79
  L 56.29 15.55
  A 0.68 0.68 0.0 0 0 56.98 16.23
  L 59.18 16.22
  A 2.02 1.45 -0.3 0 0 61.19 14.76
  L 61.19 14.54
  A 2.02 1.45 -0.3 0 0 59.16 13.10
  L 56.96 13.11
  A 0.68 0.68 0.0 0 0 56.29 13.79
  Z"
/>
<path fill="#4475f2" d="
  M 66.81 15.07
  C 67.54 17.69 70.17 15.97 71.73 15.72
  A 0.65 0.65 0.0 0 1 72.17 16.92
  C 65.75 20.85 61.70 13.00 66.12 10.26
  C 69.06 8.43 72.07 9.65 73.04 13.04
  A 1.15 1.15 0.0 0 1 71.93 14.51
  L 67.25 14.49
  Q 66.66 14.49 66.81 15.07
  Z
  M 66.65 13.12
  L 70.65 13.06
  A 0.07 0.07 0.0 0 0 70.72 12.99
  L 70.72 12.97
  A 1.99 1.91 -0.8 0 0 68.71 11.09
  L 68.55 11.09
  A 1.99 1.91 -0.8 0 0 66.58 13.03
  L 66.58 13.05
  A 0.07 0.07 0.0 0 0 66.65 13.12
  Z"
/>
<path fill="#4475f2" d="
  M 76.28 15.16
  C 77.17 17.72 79.43 15.90 80.96 15.70
  A 0.77 0.77 0.0 0 1 81.46 17.13
  C 70.73 23.63 72.67 1.84 82.67 11.89
  A 1.53 1.53 0.0 0 1 81.58 14.50
  L 76.74 14.50
  A 0.49 0.49 0.0 0 0 76.28 15.16
  Z
  M 76.39 13.15
  L 80.38 13.05
  A 0.07 0.07 0.0 0 0 80.45 12.98
  L 80.45 12.97
  A 1.99 1.92 -1.4 0 0 78.42 11.10
  L 78.26 11.10
  A 1.99 1.92 -1.4 0 0 76.31 13.07
  L 76.31 13.08
  A 0.07 0.07 0.0 0 0 76.39 13.15
  Z"
/>
<path fill="#4475f2" d="
  M 88.89 11.83
  C 87.74 10.54 86.28 11.04 85.00 11.74
  A 0.66 0.66 0.0 0 1 84.17 11.56
  Q 83.87 11.16 83.99 10.75
  Q 84.09 10.44 84.47 10.23
  Q 87.49 8.57 90.34 10.35
  Q 90.80 10.64 90.87 11.17
  L 91.71 17.49
  A 0.72 0.72 0.0 0 1 90.47 18.08
  Q 89.46 17.04 88.34 17.48
  C 81.45 20.19 82.40 11.31 88.20 12.93
  A 0.68 0.68 0.0 0 0 88.89 11.83
  Z
  M 89.0601 14.8156
  A 1.83 1.26 -14.7 0 0 86.9703 14.0612
  A 1.83 1.26 -14.7 0 0 85.5199 15.7444
  A 1.83 1.26 -14.7 0 0 87.6097 16.4988
  A 1.83 1.26 -14.7 0 0 89.0601 14.8156
  Z"
/>
<path fill="#4475f2" d="
  M 96.83 16.43
  A 0.67 0.67 0.0 0 0 96.98 15.17
  L 93.49 13.57
  A 0.77 0.76 -80.8 0 1 93.06 12.97
  C 92.69 9.21 96.78 8.81 99.11 10.19
  A 0.81 0.81 0.0 0 1 98.48 11.67
  Q 97.69 11.44 96.47 11.18
  Q 95.40 10.95 95.07 11.81
  A 0.57 0.56 -70.9 0 0 95.42 12.54
  L 98.45 13.59
  Q 98.88 13.73 99.12 14.12
  C 101.38 17.80 95.51 19.34 92.84 16.78
  A 0.52 0.52 0.0 0 1 92.83 16.04
  L 93.06 15.81
  Q 93.42 15.45 93.83 15.76
  Q 95.15 16.77 96.83 16.43
  Z"
/>
<rect fill="#4475f2" x="-1.10" y="-4.22" transform="translate(102.15,13.79) rotate(-0.2)" width="2.20" height="8.44" rx="0.90"/>
<path fill="#4475f2" d="
  M 109.22 16.31
  A 0.54 0.54 0.0 0 0 109.27 15.30
  L 105.78 13.83
  A 0.92 0.90 -88.1 0 1 105.27 13.27
  C 104.00 9.36 108.60 8.95 110.91 10.08
  A 0.86 0.85 -29.5 0 1 110.46 11.70
  C 109.69 11.63 108.76 10.89 107.96 10.96
  Q 107.28 11.03 107.15 11.67
  A 0.79 0.78 -74.3 0 0 107.64 12.56
  L 110.74 13.75
  Q 111.21 13.92 111.33 14.40
  C 112.41 18.69 107.10 18.71 105.09 17.20
  Q 104.34 16.63 105.00 15.89
  A 0.68 0.68 0.0 0 1 105.91 15.78
  Q 107.42 16.86 109.22 16.31
  Z"
/>
<path fill="#4475f2" d="
  M 118.93 11.05
  Q 119.20 10.06 120.07 9.52
  A 0.75 0.75 0.0 0 1 121.06 10.62
  Q 119.60 12.55 120.26 14.86
  A 0.55 0.55 0.0 0 0 121.31 14.86
  Q 121.99 12.47 123.14 10.23
  A 0.91 0.91 0.0 0 1 124.79 11.01
  L 121.92 17.66
  A 0.75 0.74 -70.5 0 1 121.04 18.09
  Q 119.32 17.64 119.31 15.74
  A 0.60 0.60 0.0 0 0 118.14 15.55
  L 117.63 17.05
  A 1.35 1.35 0.0 0 1 115.10 17.14
  L 112.22 10.25
  A 0.51 0.50 71.1 0 1 112.55 9.57
  Q 113.67 9.24 114.15 10.34
  Q 115.19 12.74 116.08 14.94
  A 0.45 0.45 0.0 0 0 116.92 14.94
  Q 117.83 12.63 116.29 10.72
  A 0.70 0.69 46.8 0 1 116.31 9.83
  Q 116.99 9.07 117.55 9.69
  Q 117.97 10.14 118.22 11.05
  A 0.37 0.37 0.0 0 0 118.93 11.05
  Z"
/>
<path fill="#4475f2" d="
  M 131.10 11.96
  C 129.74 10.70 128.50 10.95 126.94 11.66
  Q 126.25 11.98 126.25 11.22
  L 126.25 10.82
  Q 126.25 10.41 126.62 10.21
  Q 129.90 8.42 132.65 10.70
  A 1.02 1.02 0.0 0 1 133.02 11.37
  L 133.68 17.65
  A 0.54 0.53 -77.9 0 1 132.88 18.17
  L 131.46 17.33
  A 0.62 0.62 0.0 0 0 130.84 17.33
  C 124.85 20.93 123.11 11.37 130.58 12.96
  A 0.58 0.58 0.0 0 0 131.10 11.96
  Z
  M 131.1399 15.0123
  A 1.79 1.24 -8.6 0 0 129.1846 14.0539
  A 1.79 1.24 -8.6 0 0 127.6001 15.5477
  A 1.79 1.24 -8.6 0 0 129.5554 16.5061
  A 1.79 1.24 -8.6 0 0 131.1399 15.0123
  Z"
/>
<path fill="#4475f2" d="
  M 74.27 28.75
  L 74.24 26.22
  A 0.98 0.98 0.0 0 1 76.20 26.09
  C 76.64 29.69 75.75 32.93 77.01 36.38
  A 0.59 0.59 0.0 0 1 76.25 37.14
  L 74.25 36.40
  Q 73.85 36.25 73.49 36.46
  C 66.64 40.47 65.13 25.44 73.72 29.12
  Q 74.28 29.35 74.27 28.75
  Z
  M 72.6404 35.3828
  A 2.57 2.18 79.0 0 0 74.2899 32.4440
  A 2.57 2.18 79.0 0 0 71.6596 30.3372
  A 2.57 2.18 79.0 0 0 70.0101 33.2760
  A 2.57 2.18 79.0 0 0 72.6404 35.3828
  Z"
/>
<circle fill="#4475f2" cx="116.43" cy="26.39" r="1.17"/>
<rect fill="#4475f2" x="-1.14" y="-5.70" transform="translate(55.16,31.28) rotate(-0.1)" width="2.28" height="11.40" rx="0.80"/>
<path fill="#4475f2" d="
  M 10.51 27.37
  C 14.57 29.97 19.48 34.48 24.65 33.43
  C 28.15 32.71 32.46 29.45 35.81 27.24
  Q 36.34 26.89 36.33 27.53
  L 36.21 34.18
  A 1.13 1.12 66.9 0 1 35.92 34.91
  C 29.01 42.63 17.31 41.41 10.23 35.35
  Q 9.83 35.01 9.81 34.49
  L 9.44 27.99
  A 0.70 0.69 -75.0 0 1 10.51 27.37
  Z"
/>
<path fill="#4475f2" d="
  M 58.65 36.43
  Q 58.06 32.93 58.75 28.92
  Q 58.87 28.22 59.47 28.59
  L 60.36 29.13
  A 0.76 0.76 0.0 0 0 60.99 29.20
  C 68.02 26.99 66.05 31.93 66.43 36.25
  Q 66.49 36.95 65.79 36.97
  L 64.92 37.01
  Q 64.30 37.03 64.29 36.41
  L 64.18 31.32
  A 0.79 0.78 -82.1 0 0 63.64 30.60
  C 59.95 29.43 60.73 34.48 60.75 36.24
  A 1.06 1.06 0.0 0 1 58.65 36.43
  Z"
/>
<path fill="#4475f2" d="
  M 86.72 32.80
  A 4.36 4.36 0.0 0 1 82.36 37.16
  A 4.36 4.36 0.0 0 1 78.00 32.80
  A 4.36 4.36 0.0 0 1 82.36 28.44
  A 4.36 4.36 0.0 0 1 86.72 32.80
  Z
  M 82.3228 35.3094
  A 2.52 2.18 91.3 0 0 84.5594 32.8395
  A 2.52 2.18 91.3 0 0 82.4372 30.2706
  A 2.52 2.18 91.3 0 0 80.2006 32.7405
  A 2.52 2.18 91.3 0 0 82.3228 35.3094
  Z"
/>
<path fill="#4475f2" d="
  M 90.78 31.18
  Q 89.80 33.44 90.62 35.92
  Q 90.84 36.60 90.15 36.77
  L 88.99 37.05
  Q 88.25 37.23 88.25 36.47
  L 88.25 28.85
  Q 88.25 28.03 88.96 28.44
  L 90.33 29.22
  Q 90.68 29.43 91.03 29.22
  Q 92.39 28.43 94.00 28.48
  A 1.97 1.97 0.0 0 1 95.91 30.41
  L 96.04 36.49
  Q 96.05 37.03 95.51 37.01
  L 94.43 36.97
  Q 93.85 36.95 93.84 36.37
  L 93.73 31.76
  A 1.54 1.54 0.0 0 0 90.78 31.18
  Z"
/>
<path fill="#4475f2" d="
  M 100.08 33.88
  Q 99.78 35.36 101.08 35.46
  Q 103.04 35.60 104.41 34.61
  A 0.68 0.68 0.0 0 1 105.35 35.58
  C 102.86 38.86 97.69 36.91 97.36 32.94
  C 96.96 27.97 105.06 26.26 106.08 32.56
  A 0.81 0.81 0.0 0 1 105.28 33.50
  L 100.54 33.50
  Q 100.15 33.50 100.08 33.88
  Z
  M 99.94 32.20
  L 103.59 31.97
  A 0.18 0.18 0.0 0 0 103.76 31.78
  L 103.76 31.76
  A 1.89 1.86 -3.6 0 0 101.76 30.02
  L 101.52 30.04
  A 1.89 1.86 -3.6 0 0 99.75 32.01
  L 99.75 32.03
  A 0.18 0.18 0.0 0 0 99.94 32.20
  Z"
/>
<path fill="#4475f2" d="
  M 111.41 34.19
  C 110.10 33.65 108.21 33.16 107.42 32.00
  C 105.69 29.46 111.03 27.39 113.35 29.34
  A 0.75 0.75 0.0 0 1 112.66 30.64
  L 110.29 29.96
  A 0.83 0.83 0.0 0 0 109.74 31.53
  L 113.02 32.87
  Q 113.42 33.03 113.56 33.45
  C 115.05 37.80 109.16 37.67 107.10 35.94
  A 0.55 0.55 0.0 0 1 107.02 35.17
  L 107.37 34.74
  A 0.60 0.60 0.0 0 1 108.22 34.66
  Q 109.61 35.83 111.34 35.36
  A 0.62 0.62 0.0 0 0 111.41 34.19
  Z"
/>
<rect fill="#4475f2" x="-1.08" y="-4.23" transform="translate(116.42,32.77) rotate(-0.2)" width="2.16" height="8.46" rx="0.81"/>
<path fill="#4475f2" d="
  M 123.99 31.78
  A 0.56 0.56 0.0 0 0 124.43 30.82
  Q 122.89 29.38 120.95 30.54
  Q 120.43 30.85 119.94 30.49
  L 119.65 30.28
  A 0.54 0.53 -41.9 0 1 119.70 29.39
  Q 123.30 27.25 126.19 29.99
  A 1.17 1.15 -65.4 0 1 126.55 30.98
  Q 126.21 33.56 127.16 35.96
  A 0.91 0.91 0.0 0 1 125.81 37.05
  L 124.85 36.41
  Q 124.40 36.11 123.93 36.39
  Q 121.22 38.04 119.26 35.85
  A 2.14 2.14 0.0 0 1 119.90 32.51
  Q 121.87 31.53 123.99 31.78
  Z
  M 124.4785 33.8313
  A 1.81 1.23 -13.7 0 0 122.4287 33.0650
  A 1.81 1.23 -13.7 0 0 120.9615 34.6887
  A 1.81 1.23 -13.7 0 0 123.0113 35.4550
  A 1.81 1.23 -13.7 0 0 124.4785 33.8313
  Z"
/>
</svg>
