<?xml version="1.0" encoding="UTF-8" standalone="no"?>
<!DOCTYPE svg PUBLIC "-//W3C//DTD SVG 1.1//EN" "http://www.w3.org/Graphics/SVG/1.1/DTD/svg11.dtd">
<svg xmlns="http://www.w3.org/2000/svg" version="1.1" viewBox="0.00 0.00 102.00 100.00">
<path fill="#ffffff" d="
  M 30.80 25.27
  Q 30.69 30.90 30.63 36.49
  Q 30.61 37.79 29.65 38.19
  A 1.55 1.54 -11.5 0 1 27.50 36.77
  L 27.50 20.94
  Q 27.50 20.41 27.94 20.12
  Q 37.53 13.87 47.15 7.88
  Q 51.10 5.43 55.82 8.43
  Q 64.98 14.25 73.86 19.98
  A 1.63 1.63 0.0 0 1 73.89 22.70
  Q 64.69 28.86 55.30 34.82
  Q 50.69 37.74 45.55 34.20
  Q 38.57 29.39 31.32 24.98
  Q 30.81 24.67 30.80 25.27
  Z"
/>
<path fill="#ffffff" d="
  M 35.86 31.92
  C 41.00 35.14 46.55 40.34 53.05 39.21
  C 57.29 38.47 62.48 34.34 66.09 31.90
  Q 66.75 31.46 66.75 32.25
  L 66.75 40.03
  A 1.41 1.40 66.1 0 1 66.39 40.97
  C 58.84 49.40 42.97 49.36 35.59 40.92
  A 1.43 1.41 25.1 0 1 35.25 40.00
  L 35.25 32.26
  Q 35.25 31.54 35.86 31.92
  Z"
/>
<rect fill="#ffffff" x="-1.38" y="-1.32" transform="translate(61.63,59.70) rotate(-4.4)" width="2.76" height="2.64" rx="0.71"/>
<path fill="#ffffff" d="
  M 11.37 65.98
  C 18.09 73.40 6.14 73.19 2.23 72.90
  Q 1.72 72.86 1.72 72.35
  L 1.72 59.39
  Q 1.72 58.75 2.36 58.75
  L 9.73 58.75
  A 1.58 1.56 64.7 0 1 10.74 59.12
  Q 13.95 61.88 11.34 65.12
  Q 10.99 65.56 11.37 65.98
  Z
  M 4.34 61.72
  L 4.34 64.26
  A 0.49 0.49 0.0 0 0 4.83 64.75
  L 8.13 64.75
  A 1.57 1.56 0.1 0 0 9.70 63.19
  L 9.70 62.79
  A 1.57 1.56 0.1 0 0 8.13 61.23
  L 4.83 61.23
  A 0.49 0.49 0.0 0 0 4.34 61.72
  Z
  M 4.32 67.31
  L 4.34 70.29
  A 0.41 0.41 0.0 0 0 4.75 70.69
  L 8.27 70.67
  A 2.01 1.80 -0.3 0 0 10.27 68.86
  L 10.27 68.66
  A 2.01 1.80 -0.3 0 0 8.25 66.87
  L 4.73 66.89
  A 0.41 0.41 0.0 0 0 4.32 67.31
  Z"
/>
<path fill="#ffffff" d="
  M 16.48 72.06
  C 13.05 69.51 13.82 63.05 18.89 62.47
  Q 24.71 61.80 25.42 67.83
  A 0.67 0.67 0.0 0 1 24.74 68.57
  L 18.06 68.47
  A 0.86 0.86 0.0 0 0 17.42 69.91
  Q 19.88 72.57 22.46 70.06
  A 0.97 0.97 0.0 0 1 23.96 71.27
  C 22.40 73.78 18.68 73.70 16.48 72.06
  Z
  M 17.33 66.98
  L 22.27 66.98
  A 0.16 0.16 0.0 0 0 22.43 66.82
  L 22.43 66.73
  A 2.53 2.39 0.1 0 0 19.90 64.34
  L 19.70 64.34
  A 2.53 2.39 0.1 0 0 17.17 66.73
  L 17.17 66.82
  A 0.16 0.16 0.0 0 0 17.33 66.98
  Z"
/>
<path fill="#ffffff" d="
  M 29.28 69.14
  C 29.60 71.49 32.31 71.72 33.96 70.51
  C 34.79 69.91 35.62 69.71 36.31 70.47
  A 0.56 0.55 48.9 0 1 36.26 71.27
  C 32.07 74.83 26.23 73.13 26.33 67.51
  C 26.44 60.98 36.64 60.26 37.23 67.68
  A 0.85 0.84 88.5 0 1 36.37 68.59
  L 29.88 68.47
  A 0.60 0.59 -3.3 0 0 29.28 69.14
  Z
  M 29.26 66.92
  L 34.22 66.98
  A 0.14 0.14 0.0 0 0 34.36 66.85
  L 34.36 66.76
  A 2.53 2.39 0.8 0 0 31.87 64.33
  L 31.69 64.33
  A 2.53 2.39 0.8 0 0 29.13 66.68
  L 29.12 66.77
  A 0.14 0.14 0.0 0 0 29.26 66.92
  Z"
/>
<path fill="#ffffff" d="
  M 45.24 66.22
  C 44.63 63.19 41.89 64.39 40.04 65.22
  Q 39.56 65.43 39.27 65.00
  Q 38.73 64.21 39.15 63.53
  C 40.74 60.97 47.93 61.92 47.69 67.05
  Q 47.57 69.62 48.63 71.99
  Q 48.94 72.67 48.23 72.89
  L 47.21 73.21
  A 0.73 0.72 68.6 0 1 46.35 72.83
  Q 45.78 71.62 44.61 72.36
  C 37.76 76.66 34.75 64.75 44.72 66.75
  A 0.45 0.44 89.5 0 0 45.24 66.22
  Z
  M 45.2228 69.2104
  A 2.26 1.59 -8.9 0 0 42.7440 67.9891
  A 2.26 1.59 -8.9 0 0 40.7572 69.9096
  A 2.26 1.59 -8.9 0 0 43.2360 71.1309
  A 2.26 1.59 -8.9 0 0 45.2228 69.2104
  Z"
/>
<path fill="#ffffff" d="
  M 54.24 71.39
  A 1.13 1.13 0.0 0 0 55.24 69.37
  C 53.64 68.36 50.47 68.56 50.18 65.85
  C 49.77 61.94 54.80 62.01 57.40 62.98
  A 1.01 1.00 -71.9 0 1 58.01 64.20
  L 57.75 65.08
  A 0.51 0.51 0.0 0 1 56.92 65.32
  Q 55.27 63.88 53.33 64.52
  A 0.94 0.94 0.0 0 0 53.28 66.29
  C 55.26 67.07 58.44 67.17 58.41 70.05
  C 58.36 74.25 52.54 73.38 50.06 71.93
  A 0.98 0.98 0.0 0 1 50.90 70.16
  L 54.24 71.39
  Z"
/>
<rect fill="#ffffff" x="60.25" y="62.51" width="2.76" height="10.48" rx="0.56"/>
<path fill="#ffffff" d="
  M 68.17 64.59
  A 0.94 0.94 0.0 0 0 68.29 66.39
  C 78.86 68.89 71.04 76.10 65.17 71.76
  Q 64.39 71.18 65.13 70.34
  A 0.92 0.91 -49.9 0 1 66.39 70.23
  Q 68.03 71.57 70.17 71.09
  A 0.92 0.92 0.0 0 0 70.26 69.32
  C 68.45 68.71 65.35 68.14 65.17 65.82
  C 64.81 61.08 73.85 61.61 72.92 64.84
  A 0.73 0.72 27.8 0 1 71.76 65.19
  Q 70.14 63.84 68.17 64.59
  Z"
/>
<path fill="#ffffff" d="
  M 82.60 64.81
  L 83.12 62.95
  Q 83.25 62.50 83.71 62.50
  L 84.98 62.50
  A 0.46 0.46 0.0 0 1 85.36 63.22
  Q 83.28 66.22 84.53 69.66
  A 0.40 0.40 0.0 0 0 85.29 69.66
  Q 86.45 66.50 87.65 63.59
  Q 88.32 61.96 89.96 62.59
  Q 90.44 62.77 90.24 63.24
  L 86.58 72.13
  A 1.60 1.60 0.0 0 1 83.60 72.09
  L 82.61 69.46
  Q 82.35 68.78 81.95 69.39
  Q 81.24 70.48 81.09 71.76
  A 1.68 1.68 0.0 0 1 77.86 72.21
  L 74.12 63.12
  Q 73.87 62.50 74.54 62.50
  L 75.71 62.50
  A 0.98 0.97 -10.5 0 1 76.62 63.12
  L 79.09 69.51
  Q 79.35 70.20 79.77 69.59
  C 81.49 67.06 80.01 65.70 79.26 63.30
  Q 79.07 62.69 79.69 62.52
  Q 80.70 62.24 81.25 63.17
  A 1.09 0.05 74.8 0 1 81.53 64.03
  Q 81.68 64.57 82.09 64.96
  Q 82.46 65.31 82.60 64.81
  Z"
/>
<path fill="#ffffff" d="
  M 97.41 72.22
  C 94.51 73.93 91.54 73.46 90.70 69.87
  A 1.48 1.46 -31.9 0 1 91.00 68.61
  Q 93.38 65.67 97.21 66.75
  Q 97.70 66.89 97.84 66.40
  Q 98.20 65.16 97.05 64.61
  Q 95.06 63.65 92.93 65.18
  Q 92.43 65.54 92.10 65.02
  L 91.53 64.11
  A 0.58 0.58 0.0 0 1 91.80 63.26
  C 95.29 61.78 101.00 61.69 100.46 67.25
  Q 100.22 69.73 101.23 71.84
  A 1.04 1.04 0.0 0 1 99.76 73.19
  L 98.13 72.22
  Q 97.77 72.01 97.41 72.22
  Z
  M 97.7884 69.0694
  A 2.23 1.62 -13.5 0 0 95.2418 68.0148
  A 2.23 1.62 -13.5 0 0 93.4516 70.1106
  A 2.23 1.62 -13.5 0 0 95.9982 71.1652
  A 2.23 1.62 -13.5 0 0 97.7884 69.0694
  Z"
/>
<rect fill="#ffffff" x="-1.37" y="-1.32" transform="translate(83.62,82.70) rotate(-4.0)" width="2.74" height="2.64" rx="0.62"/>
<path fill="#ffffff" d="
  M 30.78 94.93
  C 20.95 102.24 19.94 79.81 30.45 86.55
  Q 30.98 86.89 30.96 86.26
  L 30.82 82.14
  A 0.61 0.61 0.0 0 1 31.43 81.50
  L 32.98 81.50
  Q 33.53 81.50 33.54 82.05
  C 33.58 85.26 32.83 91.91 34.27 94.58
  A 1.15 1.15 0.0 0 1 33.24 96.27
  Q 31.95 96.24 31.40 95.08
  Q 31.18 94.63 30.78 94.93
  Z
  M 28.7196 93.8889
  A 3.12 2.76 81.9 0 0 31.0125 90.4111
  A 3.12 2.76 81.9 0 0 27.8404 87.7111
  A 3.12 2.76 81.9 0 0 25.5475 91.1889
  A 3.12 2.76 81.9 0 0 28.7196 93.8889
  Z"
/>
<rect fill="#ffffff" x="-1.32" y="-7.09" transform="translate(7.22,88.86) rotate(0.4)" width="2.64" height="14.18" rx="0.45"/>
<path fill="#ffffff" d="
  M 51.22 86.58
  C 53.59 85.79 55.42 84.18 57.60 86.76
  Q 57.91 87.12 57.92 87.58
  L 58.21 95.26
  Q 58.24 96.00 57.49 96.00
  L 55.97 96.00
  A 0.53 0.53 0.0 0 1 55.44 95.48
  L 55.29 88.99
  A 1.29 1.29 0.0 0 0 53.79 87.74
  C 49.92 88.35 51.02 92.75 50.99 95.50
  Q 50.99 96.00 50.49 96.00
  L 48.97 96.00
  A 0.53 0.53 0.0 0 1 48.44 95.47
  L 48.41 86.29
  Q 48.41 85.71 48.99 85.61
  L 49.72 85.48
  Q 50.13 85.41 50.35 85.77
  L 50.72 86.39
  Q 50.89 86.69 51.22 86.58
  Z"
/>
<path fill="#ffffff" d="
  M 16.58 87.74
  C 12.99 88.37 13.97 92.88 14.01 95.48
  Q 14.01 96.00 13.49 96.00
  L 12.00 96.00
  Q 11.25 96.00 11.25 95.25
  L 11.25 86.26
  A 0.74 0.72 80.5 0 1 11.73 85.57
  Q 13.08 85.11 13.60 86.18
  Q 13.87 86.73 14.39 86.42
  C 22.25 81.78 21.09 91.58 20.96 95.54
  Q 20.95 96.00 20.48 96.00
  L 18.97 96.00
  A 0.54 0.54 0.0 0 1 18.43 95.47
  L 18.33 89.18
  A 1.49 1.49 0.0 0 0 16.58 87.74
  Z"
/>
<path fill="#ffffff" d="
  M 46.52 90.80
  A 5.45 5.45 0.0 0 1 41.07 96.25
  A 5.45 5.45 0.0 0 1 35.62 90.80
  A 5.45 5.45 0.0 0 1 41.07 85.35
  A 5.45 5.45 0.0 0 1 46.52 90.80
  Z
  M 40.8785 93.8528
  A 3.11 2.72 93.9 0 0 43.8037 90.9350
  A 3.11 2.72 93.9 0 0 41.3015 87.6472
  A 3.11 2.72 93.9 0 0 38.3763 90.5650
  A 3.11 2.72 93.9 0 0 40.8785 93.8528
  Z"
/>
<path fill="#ffffff" d="
  M 62.81 92.23
  C 63.28 94.43 65.81 94.73 67.49 93.49
  Q 68.25 92.93 68.76 92.97
  Q 69.36 93.03 69.76 93.47
  A 0.57 0.56 48.9 0 1 69.71 94.27
  C 60.67 102.09 55.16 85.48 65.31 85.40
  Q 70.30 85.37 70.72 90.88
  A 0.61 0.61 0.0 0 1 70.11 91.54
  L 63.33 91.58
  Q 62.67 91.59 62.81 92.23
  Z
  M 62.99 89.94
  L 67.65 89.96
  A 0.23 0.23 0.0 0 0 67.88 89.73
  L 67.88 89.66
  A 2.41 2.36 0.3 0 0 65.49 87.29
  L 65.19 87.29
  A 2.41 2.36 0.3 0 0 62.76 89.64
  L 62.76 89.71
  A 0.23 0.23 0.0 0 0 62.99 89.94
  Z"
/>
<path fill="#ffffff" d="
  M 77.79 92.63
  C 76.17 91.68 72.36 91.38 72.19 88.89
  C 71.91 84.95 76.68 84.97 79.41 85.97
  A 1.02 1.02 0.0 0 1 80.00 87.28
  L 79.67 88.14
  A 0.47 0.47 0.0 0 1 78.91 88.32
  Q 77.34 86.90 75.37 87.51
  A 1.04 1.04 0.0 0 0 75.52 89.53
  C 77.34 89.82 79.49 90.31 80.34 92.07
  Q 81.22 93.89 79.44 95.21
  Q 75.98 97.76 72.02 94.66
  Q 71.69 94.40 71.85 94.01
  L 72.21 93.13
  A 0.54 0.54 0.0 0 1 73.09 92.95
  Q 75.16 94.98 77.74 93.77
  A 0.65 0.64 47.6 0 0 77.79 92.63
  Z"
/>
<rect fill="#ffffff" x="-1.38" y="-5.25" transform="translate(83.63,90.75) rotate(-0.2)" width="2.76" height="10.50" rx="0.43"/>
<path fill="#ffffff" d="
  M 93.67 89.28
  C 93.50 86.78 90.34 86.90 88.93 88.19
  A 0.65 0.64 -43.0 0 1 88.04 88.16
  Q 87.41 87.51 87.53 86.88
  Q 87.62 86.38 88.30 86.07
  Q 92.35 84.25 95.51 86.86
  Q 95.92 87.19 95.98 87.72
  L 96.93 95.46
  Q 97.00 96.08 96.38 96.15
  Q 95.08 96.29 94.33 95.17
  A 0.58 0.57 -35.8 0 0 93.50 95.04
  C 86.71 100.41 82.84 87.63 93.20 89.70
  Q 93.71 89.80 93.67 89.28
  Z
  M 93.32 91.34
  Q 91.85 90.77 90.22 91.32
  A 1.53 1.52 36.2 0 0 90.68 94.29
  Q 92.86 94.33 93.74 92.36
  A 0.76 0.76 0.0 0 0 93.32 91.34
  Z"
/>
</svg>
