<?xml version="1.0" encoding="UTF-8" standalone="no"?>
<!DOCTYPE svg PUBLIC "-//W3C//DTD SVG 1.1//EN" "http://www.w3.org/Graphics/SVG/1.1/DTD/svg11.dtd">
<svg xmlns="http://www.w3.org/2000/svg" version="1.1" viewBox="0.00 0.00 46.00 46.00">
<path fill="#4475f2" d="
  M 5.75 21.75
  L 5.75 31.73
  A 0.58 0.58 0.0 0 1 5.28 32.30
  L 4.00 32.53
  A 0.84 0.84 0.0 0 1 3.00 31.70
  L 3.00 17.78
  Q 3.00 17.40 3.32 17.20
  Q 11.11 12.06 18.93 7.19
  Q 22.78 4.80 26.67 7.16
  Q 34.78 12.08 42.41 16.91
  A 1.52 1.52 0.0 0 1 42.41 19.48
  Q 35.21 24.05 28.01 29.01
  Q 23.31 32.24 18.62 29.10
  Q 12.60 25.06 6.32 21.42
  Q 5.75 21.09 5.75 21.75
  Z"
/>
<path fill="#4475f2" d="
  M 10.51 27.37
  C 14.57 29.97 19.48 34.48 24.65 33.43
  C 28.15 32.71 32.46 29.45 35.81 27.24
  Q 36.34 26.89 36.33 27.53
  L 36.21 34.18
  A 1.13 1.12 66.9 0 1 35.92 34.91
  C 29.01 42.63 17.31 41.41 10.23 35.35
  Q 9.83 35.01 9.81 34.49
  L 9.44 27.99
  A 0.70 0.69 -75.0 0 1 10.51 27.37
  Z"
/>
</svg>
