<?xml version="1.0" encoding="UTF-8" standalone="no"?>
<!DOCTYPE svg PUBLIC "-//W3C//DTD SVG 1.1//EN" "http://www.w3.org/Graphics/SVG/1.1/DTD/svg11.dtd">
<svg xmlns="http://www.w3.org/2000/svg" version="1.1" viewBox="0.00 0.00 90.00 90.00">
<path fill="#4475f2" d="
  M 81.88 45.57
  C 59.04 31.57 33.56 54.20 43.54 78.12
  Q 43.76 78.65 43.19 78.66
  Q 21.60 78.97 14.76 78.73
  C 9.07 78.52 7.53 74.14 7.52 68.93
  Q 7.48 50.57 7.51 32.20
  C 7.52 25.71 9.94 22.43 16.50 22.50
  Q 22.95 22.56 29.41 22.47
  Q 29.97 22.46 29.98 21.90
  C 30.12 14.77 29.01 7.55 38.67 7.52
  C 42.90 7.50 52.12 6.54 55.72 8.31
  C 61.26 11.03 59.86 16.85 60.02 21.90
  Q 60.04 22.46 60.60 22.47
  C 67.85 22.58 82.23 19.26 82.48 30.88
  Q 82.63 38.08 82.44 45.26
  Q 82.43 45.91 81.88 45.57
  Z
  M 52.4942 15.4169
  A 0.43 0.43 0.0 0 0 52.0634 14.9877
  L 37.9235 15.0123
  A 0.43 0.43 0.0 0 0 37.4942 15.4431
  L 37.5058 22.0831
  A 0.43 0.43 0.0 0 0 37.9366 22.5123
  L 52.0765 22.4877
  A 0.43 0.43 0.0 0 0 52.5058 22.0569
  L 52.4942 15.4169
  Z"
/>
<path fill="#4475f2" d="
  M 86.23 67.50
  A 18.73 18.73 0.0 0 1 67.50 86.23
  A 18.73 18.73 0.0 0 1 48.77 67.50
  A 18.73 18.73 0.0 0 1 67.50 48.77
  A 18.73 18.73 0.0 0 1 86.23 67.50
  Z
  M 69.41 70.75
  L 69.18 57.84
  Q 69.18 57.39 68.90 57.05
  Q 67.67 55.51 66.05 56.99
  Q 65.61 57.38 65.61 57.97
  L 65.51 70.81
  A 0.30 0.30 0.0 0 1 64.99 71.01
  Q 62.89 68.74 60.56 66.44
  Q 58.69 64.60 57.29 66.72
  A 1.72 1.72 0.0 0 0 57.51 68.88
  L 64.98 76.32
  A 3.42 3.41 -44.9 0 0 69.79 76.32
  Q 73.33 72.82 77.13 68.97
  C 78.47 67.62 78.30 66.43 76.47 65.75
  A 1.39 1.39 0.0 0 0 75.01 66.06
  L 69.97 70.97
  Q 69.42 71.51 69.41 70.75
  Z"
/>
</svg>
