<?xml version="1.0" encoding="UTF-8" standalone="no"?>
<!DOCTYPE svg PUBLIC "-//W3C//DTD SVG 1.1//EN" "http://www.w3.org/Graphics/SVG/1.1/DTD/svg11.dtd">
<svg xmlns="http://www.w3.org/2000/svg" version="1.1" viewBox="0.00 0.00 89.00 89.00">
<path fill="#4475f2" d="
  M 51.98 28.71
  L 34.45 39.93
  Q 33.98 40.24 34.15 40.77
  Q 35.32 44.40 34.19 48.03
  A 0.99 0.97 -65.4 0 0 34.60 49.16
  L 51.97 60.33
  Q 52.49 60.66 52.95 60.26
  C 60.49 53.74 71.37 57.84 73.46 67.06
  C 76.05 78.50 62.05 86.80 52.85 78.75
  Q 47.42 74.00 49.19 65.63
  Q 49.29 65.16 48.88 64.90
  L 31.65 53.83
  A 0.87 0.87 0.0 0 0 30.67 53.86
  Q 22.43 59.76 15.27 54.78
  C 0.72 44.67 17.36 23.82 30.36 35.04
  A 1.08 1.06 49.0 0 0 31.64 35.14
  L 49.00 24.04
  Q 49.39 23.79 49.29 23.33
  Q 46.81 12.44 56.00 8.02
  C 67.40 2.53 78.60 16.20 71.41 26.75
  C 67.22 32.92 58.56 33.57 52.85 28.77
  Q 52.44 28.42 51.98 28.71
  Z"
/>
</svg>
